  0
SECTION
  2
HEADER
  9
$ACADVER
  1
AC1009
  9
$DWGCODEPAGE
  3
ansi_1252
  9
$INSBASE
 10
0.0
 20
0.0
 30
0.0
  9
$EXTMIN
 10
-27.0
 20
48.2
 30
-0.0000000000000022
  9
$EXTMAX
 10
149.6
 20
342.0499999999983
 30
0.0
  9
$LIMMIN
 10
0.0
 20
0.0
  9
$LIMMAX
 10
12.0
 20
9.0
  9
$ORTHOMODE
 70
     0
  9
$REGENMODE
 70
     1
  9
$FILLMODE
 70
     1
  9
$QTEXTMODE
 70
     0
  9
$MIRRTEXT
 70
     1
  9
$DRAGMODE
 70
     2
  9
$LTSCALE
 40
1.0
  9
$OSMODE
 70
    37
  9
$ATTMODE
 70
     1
  9
$TEXTSIZE
 40
0.2
  9
$TRACEWID
 40
0.05
  9
$TEXTSTYLE
  7
STANDARD
  9
$CLAYER
  8
BASE_PLATE_2_CAMERA
  9
$CELTYPE
  6
BYLAYER
  9
$CECOLOR
 62
   256
  9
$DIMSCALE
 40
1.0
  9
$DIMASZ
 40
0.18
  9
$DIMEXO
 40
0.0625
  9
$DIMDLI
 40
0.38
  9
$DIMRND
 40
0.0
  9
$DIMDLE
 40
0.0
  9
$DIMEXE
 40
0.18
  9
$DIMTP
 40
0.0
  9
$DIMTM
 40
0.0
  9
$DIMTXT
 40
0.18
  9
$DIMCEN
 40
0.09
  9
$DIMTSZ
 40
0.0
  9
$DIMTOL
 70
     0
  9
$DIMLIM
 70
     0
  9
$DIMTIH
 70
     1
  9
$DIMTOH
 70
     1
  9
$DIMSE1
 70
     0
  9
$DIMSE2
 70
     0
  9
$DIMTAD
 70
     0
  9
$DIMZIN
 70
     0
  9
$DIMBLK
  1

  9
$DIMASO
 70
     1
  9
$DIMSHO
 70
     1
  9
$DIMPOST
  1

  9
$DIMAPOST
  1

  9
$DIMALT
 70
     0
  9
$DIMALTD
 70
     2
  9
$DIMALTF
 40
25.4
  9
$DIMLFAC
 40
1.0
  9
$DIMTOFL
 70
     0
  9
$DIMTVP
 40
0.0
  9
$DIMTIX
 70
     0
  9
$DIMSOXD
 70
     0
  9
$DIMSAH
 70
     0
  9
$DIMBLK1
  1

  9
$DIMBLK2
  1

  9
$DIMSTYLE
  2
STANDARD
  9
$DIMCLRD
 70
     0
  9
$DIMCLRE
 70
     0
  9
$DIMCLRT
 70
     0
  9
$DIMTFAC
 40
1.0
  9
$DIMGAP
 40
0.09
  9
$LUNITS
 70
     2
  9
$LUPREC
 70
     3
  9
$SKETCHINC
 40
0.1
  9
$FILLETRAD
 40
0.5
  9
$AUNITS
 70
     0
  9
$AUPREC
 70
     0
  9
$MENU
  1
.
  9
$ELEVATION
 40
0.0
  9
$PELEVATION
 40
0.0
  9
$THICKNESS
 40
0.0
  9
$LIMCHECK
 70
     0
  9
$CHAMFERA
 40
0.5
  9
$CHAMFERB
 40
0.5
  9
$SKPOLY
 70
     0
  9
$TDCREATE
 40
2457820.692593056
  9
$TDUPDATE
 40
2457820.692593067
  9
$TDINDWG
 40
0.0000000116
  9
$TDUSRTIMER
 40
0.0000000116
  9
$USRTIMER
 70
     1
  9
$ANGBASE
 50
0.0
  9
$ANGDIR
 70
     0
  9
$PDMODE
 70
     0
  9
$PDSIZE
 40
0.0
  9
$PLINEWID
 40
0.0
  9
$COORDS
 70
     1
  9
$SPLFRAME
 70
     0
  9
$SPLINETYPE
 70
     6
  9
$SPLINESEGS
 70
     8
  9
$ATTDIA
 70
     0
  9
$ATTREQ
 70
     1
  9
$HANDLING
 70
     1
  9
$HANDSEED
  5
DB
  9
$SURFTAB1
 70
     6
  9
$SURFTAB2
 70
     6
  9
$SURFTYPE
 70
     6
  9
$SURFU
 70
     6
  9
$SURFV
 70
     6
  9
$UCSNAME
  2

  9
$UCSORG
 10
0.0
 20
0.0
 30
0.0
  9
$UCSXDIR
 10
1.0
 20
0.0
 30
0.0
  9
$UCSYDIR
 10
0.0
 20
1.0
 30
0.0
  9
$PUCSNAME
  2

  9
$PUCSORG
 10
0.0
 20
0.0
 30
0.0
  9
$PUCSXDIR
 10
1.0
 20
0.0
 30
0.0
  9
$PUCSYDIR
 10
0.0
 20
1.0
 30
0.0
  9
$USERI1
 70
     0
  9
$USERI2
 70
     0
  9
$USERI3
 70
     0
  9
$USERI4
 70
     0
  9
$USERI5
 70
     0
  9
$USERR1
 40
0.0
  9
$USERR2
 40
0.0
  9
$USERR3
 40
0.0
  9
$USERR4
 40
0.0
  9
$USERR5
 40
0.0
  9
$WORLDVIEW
 70
     1
  9
$SHADEDGE
 70
     3
  9
$SHADEDIF
 70
    70
  9
$TILEMODE
 70
     1
  9
$MAXACTVP
 70
    64
  9
$PLIMCHECK
 70
     0
  9
$PEXTMIN
 10
1.000000000000000E+20
 20
1.000000000000000E+20
 30
1.000000000000000E+20
  9
$PEXTMAX
 10
-1.000000000000000E+20
 20
-1.000000000000000E+20
 30
-1.000000000000000E+20
  9
$PLIMMIN
 10
0.0
 20
0.0
  9
$PLIMMAX
 10
12.0
 20
9.0
  9
$UNITMODE
 70
     0
  9
$VISRETAIN
 70
     1
  9
$PLINEGEN
 70
     0
  9
$PSLTSCALE
 70
     1
  0
ENDSEC
  0
SECTION
  2
TABLES
  0
TABLE
  2
VPORT
 70
     1
  0
VPORT
  2
*ACTIVE
 70
     0
 10
0.0
 20
0.0
 11
1.0
 21
1.0
 12
0.0
 22
0.0
 13
0.0
 23
0.0
 14
0.5
 24
0.5
 15
0.5
 25
0.5
 16
0.0
 26
0.0
 36
1.0
 17
61.3
 27
195.1249999999991
 37
0.0
 40
299.7269999999983
 41
0.6009868980772538
 42
50.0
 43
0.0
 44
0.0
 50
0.0
 51
0.0
 71
     0
 72
   100
 73
     1
 74
     3
 75
     0
 76
     0
 77
     0
 78
     0
  0
ENDTAB
  0
TABLE
  2
LTYPE
 70
     1
  0
LTYPE
  2
CONTINUOUS
 70
     0
  3
Solid line
 72
    65
 73
     0
 40
0.0
  0
ENDTAB
  0
TABLE
  2
LAYER
 70
     2
  0
LAYER
  2
0
 70
     0
 62
     7
  6
CONTINUOUS
  0
LAYER
  2
BASE_PLATE_2_CAMERA
 70
     0
 62
     7
  6
CONTINUOUS
  0
ENDTAB
  0
TABLE
  2
STYLE
 70
     1
  0
STYLE
  2
STANDARD
 70
     0
 40
0.0
 41
1.0
 50
0.0
 71
     0
 42
0.2
  3
txt
  4

  0
ENDTAB
  0
TABLE
  2
VIEW
 70
     0
  0
ENDTAB
  0
TABLE
  2
UCS
 70
     0
  0
ENDTAB
  0
TABLE
  2
APPID
 70
     1
  0
APPID
  2
ACAD
 70
     0
  0
ENDTAB
  0
TABLE
  2
DIMSTYLE
 70
     1
  0
DIMSTYLE
  2
STANDARD
 70
     0
  3

  4

  5

  6

  7

 40
1.0
 41
0.18
 42
0.0625
 43
0.38
 44
0.18
 45
0.0
 46
0.0
 47
0.0
 48
0.0
140
0.18
141
0.09
142
0.0
143
25.4
144
1.0
145
0.0
146
1.0
147
0.09
 71
     0
 72
     0
 73
     1
 74
     1
 75
     0
 76
     0
 77
     0
 78
     0
170
     0
171
     2
172
     0
173
     0
174
     0
175
     0
176
     0
177
     0
178
     0
  0
ENDTAB
  0
ENDSEC
  0
SECTION
  2
BLOCKS
  0
BLOCK
  8
0
  2
$MODEL_SPACE
 70
     0
 10
0.0
 20
0.0
 30
0.0
  3
$MODEL_SPACE
  1

  0
ENDBLK
  5
21
  8
0
  0
BLOCK
 67
     1
  8
0
  2
$PAPER_SPACE
 70
     0
 10
0.0
 20
0.0
 30
0.0
  3
$PAPER_SPACE
  1

  0
ENDBLK
  5
1D
 67
     1
  8
0
  0
ENDSEC
  0
SECTION
  2
ENTITIES
  0
POLYLINE
  5
5E
  8
BASE_PLATE_2_CAMERA
 66
     1
 10
0.0
 20
0.0
 30
0.0
  0
VERTEX
  5
60
  8
BASE_PLATE_2_CAMERA
 10
-15.0
 20
59.95
 30
0.0
  0
VERTEX
  5
61
  8
BASE_PLATE_2_CAMERA
 10
-21.0
 20
59.95
 30
0.0
  0
VERTEX
  5
62
  8
BASE_PLATE_2_CAMERA
 10
-21.0
 20
68.95
 30
0.0
  0
VERTEX
  5
63
  8
BASE_PLATE_2_CAMERA
 10
-15.0
 20
68.95
 30
0.0
  0
VERTEX
  5
64
  8
BASE_PLATE_2_CAMERA
 10
-15.0
 20
62.95
 30
0.0
  0
VERTEX
  5
65
  8
BASE_PLATE_2_CAMERA
 10
-7.0
 20
62.95
 30
0.0
  0
VERTEX
  5
66
  8
BASE_PLATE_2_CAMERA
 10
-7.0
 20
59.95
 30
0.0
  0
VERTEX
  5
67
  8
BASE_PLATE_2_CAMERA
 10
-15.1
 20
59.95
 30
0.0
  0
SEQEND
  5
5F
  8
BASE_PLATE_2_CAMERA
  0
POLYLINE
  5
68
  8
BASE_PLATE_2_CAMERA
 66
     1
 10
0.0
 20
0.0
 30
0.0
  0
VERTEX
  5
6A
  8
BASE_PLATE_2_CAMERA
 10
-15.0
 20
296.0499999999983
 30
0.0
  0
VERTEX
  5
6B
  8
BASE_PLATE_2_CAMERA
 10
-21.0
 20
296.0499999999983
 30
0.0
  0
VERTEX
  5
6C
  8
BASE_PLATE_2_CAMERA
 10
-21.0
 20
287.0499999999983
 30
0.0
  0
VERTEX
  5
6D
  8
BASE_PLATE_2_CAMERA
 10
-15.0
 20
287.0499999999983
 30
0.0
  0
VERTEX
  5
6E
  8
BASE_PLATE_2_CAMERA
 10
-15.0
 20
293.0499999999983
 30
0.0
  0
VERTEX
  5
6F
  8
BASE_PLATE_2_CAMERA
 10
-7.0
 20
293.0499999999983
 30
0.0
  0
VERTEX
  5
70
  8
BASE_PLATE_2_CAMERA
 10
-7.0
 20
296.0499999999983
 30
0.0
  0
VERTEX
  5
71
  8
BASE_PLATE_2_CAMERA
 10
-15.1
 20
296.0499999999983
 30
0.0
  0
SEQEND
  5
69
  8
BASE_PLATE_2_CAMERA
  0
POLYLINE
  5
72
  8
BASE_PLATE_2_CAMERA
 66
     1
 10
0.0
 20
0.0
 30
0.0
  0
VERTEX
  5
74
  8
BASE_PLATE_2_CAMERA
 10
15.0
 20
296.0499999999983
 30
0.0
  0
VERTEX
  5
75
  8
BASE_PLATE_2_CAMERA
 10
21.0
 20
296.0499999999983
 30
0.0
  0
VERTEX
  5
76
  8
BASE_PLATE_2_CAMERA
 10
21.0
 20
287.0499999999983
 30
0.0
  0
VERTEX
  5
77
  8
BASE_PLATE_2_CAMERA
 10
15.0
 20
287.0499999999983
 30
0.0
  0
VERTEX
  5
78
  8
BASE_PLATE_2_CAMERA
 10
15.0
 20
293.0499999999983
 30
0.0
  0
VERTEX
  5
79
  8
BASE_PLATE_2_CAMERA
 10
7.0
 20
293.0499999999983
 30
0.0
  0
VERTEX
  5
7A
  8
BASE_PLATE_2_CAMERA
 10
7.0
 20
296.0499999999983
 30
0.0
  0
VERTEX
  5
7B
  8
BASE_PLATE_2_CAMERA
 10
15.1
 20
296.0499999999983
 30
0.0
  0
SEQEND
  5
73
  8
BASE_PLATE_2_CAMERA
  0
POLYLINE
  5
7C
  8
BASE_PLATE_2_CAMERA
 66
     1
 10
0.0
 20
0.0
 30
0.0
  0
VERTEX
  5
7E
  8
BASE_PLATE_2_CAMERA
 10
15.0
 20
59.95
 30
0.0
  0
VERTEX
  5
7F
  8
BASE_PLATE_2_CAMERA
 10
21.0
 20
59.95
 30
0.0
  0
VERTEX
  5
80
  8
BASE_PLATE_2_CAMERA
 10
21.0
 20
68.95
 30
0.0
  0
VERTEX
  5
81
  8
BASE_PLATE_2_CAMERA
 10
15.0
 20
68.95
 30
0.0
  0
VERTEX
  5
82
  8
BASE_PLATE_2_CAMERA
 10
15.0
 20
62.95
 30
0.0
  0
VERTEX
  5
83
  8
BASE_PLATE_2_CAMERA
 10
7.0
 20
62.95
 30
0.0
  0
VERTEX
  5
84
  8
BASE_PLATE_2_CAMERA
 10
7.0
 20
59.95
 30
0.0
  0
VERTEX
  5
85
  8
BASE_PLATE_2_CAMERA
 10
15.1
 20
59.95
 30
0.0
  0
SEQEND
  5
7D
  8
BASE_PLATE_2_CAMERA
  0
POLYLINE
  5
86
  8
BASE_PLATE_2_CAMERA
 66
     1
 10
0.0
 20
0.0
 30
0.0
  0
VERTEX
  5
88
  8
BASE_PLATE_2_CAMERA
 10
-15.0
 20
336.0499999999983
 30
0.0
  0
VERTEX
  5
89
  8
BASE_PLATE_2_CAMERA
 10
-21.0
 20
336.0499999999983
 30
0.0
  0
VERTEX
  5
8A
  8
BASE_PLATE_2_CAMERA
 10
-21.0
 20
327.0499999999983
 30
0.0
  0
VERTEX
  5
8B
  8
BASE_PLATE_2_CAMERA
 10
-15.0
 20
327.0499999999983
 30
0.0
  0
VERTEX
  5
8C
  8
BASE_PLATE_2_CAMERA
 10
-15.0
 20
333.0499999999983
 30
0.0
  0
VERTEX
  5
8D
  8
BASE_PLATE_2_CAMERA
 10
-7.0
 20
333.0499999999983
 30
0.0
  0
VERTEX
  5
8E
  8
BASE_PLATE_2_CAMERA
 10
-7.0
 20
336.0499999999983
 30
0.0
  0
VERTEX
  5
8F
  8
BASE_PLATE_2_CAMERA
 10
-15.1
 20
336.0499999999983
 30
0.0
  0
SEQEND
  5
87
  8
BASE_PLATE_2_CAMERA
  0
POLYLINE
  5
90
  8
BASE_PLATE_2_CAMERA
 66
     1
 10
0.0
 20
0.0
 30
0.0
  0
VERTEX
  5
92
  8
BASE_PLATE_2_CAMERA
 10
15.0
 20
336.0499999999983
 30
0.0
  0
VERTEX
  5
93
  8
BASE_PLATE_2_CAMERA
 10
21.0
 20
336.0499999999983
 30
0.0
  0
VERTEX
  5
94
  8
BASE_PLATE_2_CAMERA
 10
21.0
 20
327.0499999999983
 30
0.0
  0
VERTEX
  5
95
  8
BASE_PLATE_2_CAMERA
 10
15.0
 20
327.0499999999983
 30
0.0
  0
VERTEX
  5
96
  8
BASE_PLATE_2_CAMERA
 10
15.0
 20
333.0499999999983
 30
0.0
  0
VERTEX
  5
97
  8
BASE_PLATE_2_CAMERA
 10
7.0
 20
333.0499999999983
 30
0.0
  0
VERTEX
  5
98
  8
BASE_PLATE_2_CAMERA
 10
7.0
 20
336.0499999999983
 30
0.0
  0
VERTEX
  5
99
  8
BASE_PLATE_2_CAMERA
 10
15.1
 20
336.0499999999983
 30
0.0
  0
SEQEND
  5
91
  8
BASE_PLATE_2_CAMERA
  0
POLYLINE
  5
9A
  8
BASE_PLATE_2_CAMERA
 66
     1
 10
0.0
 20
0.0
 30
-0.0000000000000022
  0
VERTEX
  5
9C
  8
BASE_PLATE_2_CAMERA
 10
56.6
 20
60.2
 30
-0.0000000000000022
  0
VERTEX
  5
9D
  8
BASE_PLATE_2_CAMERA
 10
57.6
 20
60.2
 30
-0.0000000000000022
  0
VERTEX
  5
9E
  8
BASE_PLATE_2_CAMERA
 10
57.6
 20
63.2
 30
-0.0000000000000022
  0
VERTEX
  5
9F
  8
BASE_PLATE_2_CAMERA
 10
48.6
 20
63.2
 30
-0.0000000000000022
  0
VERTEX
  5
A0
  8
BASE_PLATE_2_CAMERA
 10
48.6
 20
60.2
 30
-0.0000000000000022
  0
VERTEX
  5
A1
  8
BASE_PLATE_2_CAMERA
 10
56.7
 20
60.2
 30
-0.0000000000000022
  0
SEQEND
  5
9B
  8
BASE_PLATE_2_CAMERA
  0
POLYLINE
  5
A2
  8
BASE_PLATE_2_CAMERA
 66
     1
 10
0.0
 20
0.0
 30
0.0
  0
VERTEX
  5
A4
  8
BASE_PLATE_2_CAMERA
 10
42.6
 20
226.2000000000049
 30
0.0
  0
VERTEX
  5
A5
  8
BASE_PLATE_2_CAMERA
 10
48.6
 20
226.2000000000049
 30
0.0
  0
VERTEX
  5
A6
  8
BASE_PLATE_2_CAMERA
 10
48.6
 20
220.2000000000049
 30
0.0
  0
VERTEX
  5
A7
  8
BASE_PLATE_2_CAMERA
 10
42.6
 20
220.2000000000049
 30
0.0
  0
VERTEX
  5
A8
  8
BASE_PLATE_2_CAMERA
 10
42.6
 20
226.2000000000049
 30
0.0
  0
SEQEND
  5
A3
  8
BASE_PLATE_2_CAMERA
  0
CIRCLE
  5
A9
  8
BASE_PLATE_2_CAMERA
 10
45.6
 20
233.7000000000049
 30
0.0
 40
1.35
  0
POLYLINE
  5
AA
  8
BASE_PLATE_2_CAMERA
 66
     1
 10
0.0
 20
0.0
 30
0.0
  0
VERTEX
  5
AC
  8
BASE_PLATE_2_CAMERA
 10
42.6
 20
266.7000000000049
 30
0.0
  0
VERTEX
  5
AD
  8
BASE_PLATE_2_CAMERA
 10
48.6
 20
266.7000000000049
 30
0.0
  0
VERTEX
  5
AE
  8
BASE_PLATE_2_CAMERA
 10
48.6
 20
272.7000000000049
 30
0.0
  0
VERTEX
  5
AF
  8
BASE_PLATE_2_CAMERA
 10
42.6
 20
272.7000000000049
 30
0.0
  0
VERTEX
  5
B0
  8
BASE_PLATE_2_CAMERA
 10
42.6
 20
266.7000000000049
 30
0.0
  0
SEQEND
  5
AB
  8
BASE_PLATE_2_CAMERA
  0
CIRCLE
  5
B1
  8
BASE_PLATE_2_CAMERA
 10
45.6
 20
259.2000000000049
 30
0.0
 40
1.35
  0
POLYLINE
  5
B2
  8
BASE_PLATE_2_CAMERA
 66
     1
 10
0.0
 20
0.0
 30
0.0
  0
VERTEX
  5
B4
  8
BASE_PLATE_2_CAMERA
 10
-27.0
 20
48.2
 30
0.0
  0
VERTEX
  5
B5
  8
BASE_PLATE_2_CAMERA
 10
-27.0
 20
342.0499999999983
 30
0.0
  0
VERTEX
  5
B6
  8
BASE_PLATE_2_CAMERA
 10
149.6
 20
342.0499999999983
 30
0.0
  0
VERTEX
  5
B7
  8
BASE_PLATE_2_CAMERA
 10
149.6
 20
48.2
 30
0.0
  0
VERTEX
  5
B8
  8
BASE_PLATE_2_CAMERA
 10
-27.0
 20
48.2
 30
0.0
  0
SEQEND
  5
B3
  8
BASE_PLATE_2_CAMERA
  0
CIRCLE
  5
B9
  8
BASE_PLATE_2_CAMERA
 10
18.0
 20
317.9999999999983
 30
0.0
 40
1.35
  0
CIRCLE
  5
BA
  8
BASE_PLATE_2_CAMERA
 10
-18.0
 20
317.9999999999983
 30
0.0
 40
1.35
  0
CIRCLE
  5
BB
  8
BASE_PLATE_2_CAMERA
 10
137.875
 20
167.9499999999999
 30
-0.0000000000000022
 40
1.5
  0
CIRCLE
  5
BC
  8
BASE_PLATE_2_CAMERA
 10
93.32499999999999
 20
167.9499999999999
 30
-0.0000000000000022
 40
1.5
  0
CIRCLE
  5
BD
  8
BASE_PLATE_2_CAMERA
 10
145.6
 20
52.2
 30
-0.0000000000000022
 40
1.5
  0
CIRCLE
  5
BE
  8
BASE_PLATE_2_CAMERA
 10
85.6
 20
52.2
 30
-0.0000000000000022
 40
1.5
  0
CIRCLE
  5
BF
  8
BASE_PLATE_2_CAMERA
 10
145.6
 20
250.3999999999999
 30
-0.0000000000000022
 40
1.5
  0
CIRCLE
  5
C0
  8
BASE_PLATE_2_CAMERA
 10
134.5
 20
121.3
 30
-0.0000000000000022
 40
1.5
  0
CIRCLE
  5
C1
  8
BASE_PLATE_2_CAMERA
 10
91.6
 20
70.19999999999999
 30
-0.0000000000000022
 40
1.5
  0
CIRCLE
  5
C2
  8
BASE_PLATE_2_CAMERA
 10
96.69999999999999
 20
181.2999999999999
 30
-0.0000000000000022
 40
1.5
  0
CIRCLE
  5
C3
  8
BASE_PLATE_2_CAMERA
 10
139.6
 20
232.3999999999999
 30
-0.0000000000000022
 40
1.5
  0
CIRCLE
  5
C4
  8
BASE_PLATE_2_CAMERA
 10
93.32499999999999
 20
134.6499999999999
 30
-0.0000000000000022
 40
1.5
  0
CIRCLE
  5
C5
  8
BASE_PLATE_2_CAMERA
 10
123.7
 20
181.2999999999999
 30
-0.0000000000000022
 40
1.5
  0
CIRCLE
  5
C6
  8
BASE_PLATE_2_CAMERA
 10
139.6
 20
68.89999999999999
 30
-0.0000000000000022
 40
1.5
  0
CIRCLE
  5
C7
  8
BASE_PLATE_2_CAMERA
 10
107.5
 20
121.3
 30
-0.0000000000000022
 40
1.5
  0
CIRCLE
  5
C8
  8
BASE_PLATE_2_CAMERA
 10
137.875
 20
134.6499999999999
 30
-0.0000000000000022
 40
1.5
  0
CIRCLE
  5
C9
  8
BASE_PLATE_2_CAMERA
 10
91.6
 20
233.6999999999999
 30
-0.0000000000000022
 40
1.5
  0
CIRCLE
  5
CA
  8
BASE_PLATE_2_CAMERA
 10
85.6
 20
250.3999999999999
 30
-0.0000000000000022
 40
1.5
  0
CIRCLE
  5
CB
  8
BASE_PLATE_2_CAMERA
 10
18.0
 20
277.9999999999983
 30
0.0
 40
1.35
  0
CIRCLE
  5
CC
  8
BASE_PLATE_2_CAMERA
 10
18.0
 20
78.0
 30
0.0
 40
1.35
  0
CIRCLE
  5
CD
  8
BASE_PLATE_2_CAMERA
 10
-18.0
 20
277.9999999999983
 30
0.0
 40
1.35
  0
CIRCLE
  5
CE
  8
BASE_PLATE_2_CAMERA
 10
-18.0
 20
78.0
 30
0.0
 40
1.35
  0
POLYLINE
  5
CF
  8
BASE_PLATE_2_CAMERA
 66
     1
 10
0.0
 20
0.0
 30
0.0
  0
VERTEX
  5
D1
  8
BASE_PLATE_2_CAMERA
 10
42.6
 20
106.7000000000049
 30
0.0
  0
VERTEX
  5
D2
  8
BASE_PLATE_2_CAMERA
 10
48.6
 20
106.7000000000049
 30
0.0
  0
VERTEX
  5
D3
  8
BASE_PLATE_2_CAMERA
 10
48.6
 20
112.7000000000049
 30
0.0
  0
VERTEX
  5
D4
  8
BASE_PLATE_2_CAMERA
 10
42.6
 20
112.7000000000049
 30
0.0
  0
VERTEX
  5
D5
  8
BASE_PLATE_2_CAMERA
 10
42.6
 20
106.7000000000049
 30
0.0
  0
SEQEND
  5
D0
  8
BASE_PLATE_2_CAMERA
  0
CIRCLE
  5
D6
  8
BASE_PLATE_2_CAMERA
 10
45.6
 20
99.20000000000486
 30
0.0
 40
1.35
  0
ENDSEC
  0
EOF
