  0
SECTION
  2
HEADER
  9
$ACADVER
  1
AC1009
  9
$DWGCODEPAGE
  3
ansi_1252
  9
$INSBASE
 10
0.0
 20
0.0
 30
0.0
  9
$EXTMIN
 10
-95.00000000000145
 20
-14.0
 30
-0.0000000000000001
  9
$EXTMAX
 10
-3.999999999999998
 20
107.0
 30
0.0000000000000008
  9
$LIMMIN
 10
0.0
 20
0.0
  9
$LIMMAX
 10
12.0
 20
9.0
  9
$ORTHOMODE
 70
     0
  9
$REGENMODE
 70
     1
  9
$FILLMODE
 70
     1
  9
$QTEXTMODE
 70
     0
  9
$MIRRTEXT
 70
     1
  9
$DRAGMODE
 70
     2
  9
$LTSCALE
 40
1.0
  9
$OSMODE
 70
    37
  9
$ATTMODE
 70
     1
  9
$TEXTSIZE
 40
0.2
  9
$TRACEWID
 40
0.05
  9
$TEXTSTYLE
  7
STANDARD
  9
$CLAYER
  8
SIDE_RAIL_MIDDLE
  9
$CELTYPE
  6
BYLAYER
  9
$CECOLOR
 62
   256
  9
$DIMSCALE
 40
1.0
  9
$DIMASZ
 40
0.18
  9
$DIMEXO
 40
0.0625
  9
$DIMDLI
 40
0.38
  9
$DIMRND
 40
0.0
  9
$DIMDLE
 40
0.0
  9
$DIMEXE
 40
0.18
  9
$DIMTP
 40
0.0
  9
$DIMTM
 40
0.0
  9
$DIMTXT
 40
0.18
  9
$DIMCEN
 40
0.09
  9
$DIMTSZ
 40
0.0
  9
$DIMTOL
 70
     0
  9
$DIMLIM
 70
     0
  9
$DIMTIH
 70
     1
  9
$DIMTOH
 70
     1
  9
$DIMSE1
 70
     0
  9
$DIMSE2
 70
     0
  9
$DIMTAD
 70
     0
  9
$DIMZIN
 70
     0
  9
$DIMBLK
  1

  9
$DIMASO
 70
     1
  9
$DIMSHO
 70
     1
  9
$DIMPOST
  1

  9
$DIMAPOST
  1

  9
$DIMALT
 70
     0
  9
$DIMALTD
 70
     2
  9
$DIMALTF
 40
25.4
  9
$DIMLFAC
 40
1.0
  9
$DIMTOFL
 70
     0
  9
$DIMTVP
 40
0.0
  9
$DIMTIX
 70
     0
  9
$DIMSOXD
 70
     0
  9
$DIMSAH
 70
     0
  9
$DIMBLK1
  1

  9
$DIMBLK2
  1

  9
$DIMSTYLE
  2
STANDARD
  9
$DIMCLRD
 70
     0
  9
$DIMCLRE
 70
     0
  9
$DIMCLRT
 70
     0
  9
$DIMTFAC
 40
1.0
  9
$DIMGAP
 40
0.09
  9
$LUNITS
 70
     2
  9
$LUPREC
 70
     3
  9
$SKETCHINC
 40
0.1
  9
$FILLETRAD
 40
0.5
  9
$AUNITS
 70
     0
  9
$AUPREC
 70
     0
  9
$MENU
  1
.
  9
$ELEVATION
 40
0.0
  9
$PELEVATION
 40
0.0
  9
$THICKNESS
 40
0.0
  9
$LIMCHECK
 70
     0
  9
$CHAMFERA
 40
0.5
  9
$CHAMFERB
 40
0.5
  9
$SKPOLY
 70
     0
  9
$TDCREATE
 40
2457820.476771308
  9
$TDUPDATE
 40
2457820.476771319
  9
$TDINDWG
 40
0.0000000116
  9
$TDUSRTIMER
 40
0.0000000116
  9
$USRTIMER
 70
     1
  9
$ANGBASE
 50
0.0
  9
$ANGDIR
 70
     0
  9
$PDMODE
 70
     0
  9
$PDSIZE
 40
0.0
  9
$PLINEWID
 40
0.0
  9
$COORDS
 70
     1
  9
$SPLFRAME
 70
     0
  9
$SPLINETYPE
 70
     6
  9
$SPLINESEGS
 70
     8
  9
$ATTDIA
 70
     0
  9
$ATTREQ
 70
     1
  9
$HANDLING
 70
     1
  9
$HANDSEED
  5
D7
  9
$SURFTAB1
 70
     6
  9
$SURFTAB2
 70
     6
  9
$SURFTYPE
 70
     6
  9
$SURFU
 70
     6
  9
$SURFV
 70
     6
  9
$UCSNAME
  2

  9
$UCSORG
 10
0.0
 20
0.0
 30
0.0
  9
$UCSXDIR
 10
1.0
 20
0.0
 30
0.0
  9
$UCSYDIR
 10
0.0
 20
1.0
 30
0.0
  9
$PUCSNAME
  2

  9
$PUCSORG
 10
0.0
 20
0.0
 30
0.0
  9
$PUCSXDIR
 10
1.0
 20
0.0
 30
0.0
  9
$PUCSYDIR
 10
0.0
 20
1.0
 30
0.0
  9
$USERI1
 70
     0
  9
$USERI2
 70
     0
  9
$USERI3
 70
     0
  9
$USERI4
 70
     0
  9
$USERI5
 70
     0
  9
$USERR1
 40
0.0
  9
$USERR2
 40
0.0
  9
$USERR3
 40
0.0
  9
$USERR4
 40
0.0
  9
$USERR5
 40
0.0
  9
$WORLDVIEW
 70
     1
  9
$SHADEDGE
 70
     3
  9
$SHADEDIF
 70
    70
  9
$TILEMODE
 70
     1
  9
$MAXACTVP
 70
    64
  9
$PLIMCHECK
 70
     0
  9
$PEXTMIN
 10
1.000000000000000E+20
 20
1.000000000000000E+20
 30
1.000000000000000E+20
  9
$PEXTMAX
 10
-1.000000000000000E+20
 20
-1.000000000000000E+20
 30
-1.000000000000000E+20
  9
$PLIMMIN
 10
0.0
 20
0.0
  9
$PLIMMAX
 10
12.0
 20
9.0
  9
$UNITMODE
 70
     0
  9
$VISRETAIN
 70
     1
  9
$PLINEGEN
 70
     0
  9
$PSLTSCALE
 70
     1
  0
ENDSEC
  0
SECTION
  2
TABLES
  0
TABLE
  2
VPORT
 70
     1
  0
VPORT
  2
*ACTIVE
 70
     0
 10
0.0
 20
0.0
 11
1.0
 21
1.0
 12
0.0
 22
0.0
 13
0.0
 23
0.0
 14
0.5
 24
0.5
 15
0.5
 25
0.5
 16
0.0
 26
0.0
 36
1.0
 17
-49.50000000000072
 27
46.5
 37
0.0
 40
123.42
 41
0.7520661157024914
 42
50.0
 43
0.0
 44
0.0
 50
0.0
 51
0.0
 71
     0
 72
   100
 73
     1
 74
     3
 75
     0
 76
     0
 77
     0
 78
     0
  0
ENDTAB
  0
TABLE
  2
LTYPE
 70
     1
  0
LTYPE
  2
CONTINUOUS
 70
     0
  3
Solid line
 72
    65
 73
     0
 40
0.0
  0
ENDTAB
  0
TABLE
  2
LAYER
 70
     2
  0
LAYER
  2
0
 70
     0
 62
     7
  6
CONTINUOUS
  0
LAYER
  2
SIDE_RAIL_MIDDLE
 70
     0
 62
     1
  6
CONTINUOUS
  0
ENDTAB
  0
TABLE
  2
STYLE
 70
     1
  0
STYLE
  2
STANDARD
 70
     0
 40
0.0
 41
1.0
 50
0.0
 71
     0
 42
0.2
  3
txt
  4

  0
ENDTAB
  0
TABLE
  2
VIEW
 70
     0
  0
ENDTAB
  0
TABLE
  2
UCS
 70
     0
  0
ENDTAB
  0
TABLE
  2
APPID
 70
     1
  0
APPID
  2
ACAD
 70
     0
  0
ENDTAB
  0
TABLE
  2
DIMSTYLE
 70
     1
  0
DIMSTYLE
  2
STANDARD
 70
     0
  3

  4

  5

  6

  7

 40
1.0
 41
0.18
 42
0.0625
 43
0.38
 44
0.18
 45
0.0
 46
0.0
 47
0.0
 48
0.0
140
0.18
141
0.09
142
0.0
143
25.4
144
1.0
145
0.0
146
1.0
147
0.09
 71
     0
 72
     0
 73
     1
 74
     1
 75
     0
 76
     0
 77
     0
 78
     0
170
     0
171
     2
172
     0
173
     0
174
     0
175
     0
176
     0
177
     0
178
     0
  0
ENDTAB
  0
ENDSEC
  0
SECTION
  2
BLOCKS
  0
BLOCK
  8
0
  2
$MODEL_SPACE
 70
     0
 10
0.0
 20
0.0
 30
0.0
  3
$MODEL_SPACE
  1

  0
ENDBLK
  5
21
  8
0
  0
BLOCK
 67
     1
  8
0
  2
$PAPER_SPACE
 70
     0
 10
0.0
 20
0.0
 30
0.0
  3
$PAPER_SPACE
  1

  0
ENDBLK
  5
1D
 67
     1
  8
0
  0
ENDSEC
  0
SECTION
  2
ENTITIES
  0
LINE
  5
5E
  8
SIDE_RAIL_MIDDLE
 10
-36.0
 20
-2.0
 30
0.0
 11
-36.0
 21
73.0
 31
0.0
  0
LINE
  5
5F
  8
SIDE_RAIL_MIDDLE
 10
-87.0
 20
73.0
 30
0.0
 11
-36.00000000000001
 21
73.0
 31
0.0
  0
LINE
  5
60
  8
SIDE_RAIL_MIDDLE
 10
-87.00000000000145
 20
95.9999999999983
 30
0.0
 11
-87.00000000000145
 21
73.0
 31
0.0
  0
CIRCLE
  5
61
  8
SIDE_RAIL_MIDDLE
 10
-15.50000000000295
 20
63.0
 30
0.0
 40
1.5
  0
CIRCLE
  5
62
  8
SIDE_RAIL_MIDDLE
 10
-15.50000000000295
 20
103.0
 30
0.0
 40
1.5
  0
LINE
  5
63
  8
SIDE_RAIL_MIDDLE
 10
-65.99999999999977
 20
107.0
 30
0.0
 11
-10.0
 21
107.0
 31
0.0
  0
LINE
  5
64
  8
SIDE_RAIL_MIDDLE
 10
-77.30000000000001
 20
96.19999999999999
 30
0.0000000000000008
 11
-75.25
 21
96.19999999999999
 31
0.0000000000000008
  0
LINE
  5
65
  8
SIDE_RAIL_MIDDLE
 10
-81.0
 20
105.0
 30
0.0
 11
-81.0
 21
102.0000000000018
 31
0.0
  0
LINE
  5
66
  8
SIDE_RAIL_MIDDLE
 10
-75.25
 20
94.4
 30
0.0000000000000008
 11
-72.75
 21
94.4
 31
0.0000000000000008
  0
LINE
  5
67
  8
SIDE_RAIL_MIDDLE
 10
-75.25
 20
98.4
 30
0.0000000000000008
 11
-77.30000000000001
 21
98.4
 31
0.0000000000000008
  0
LINE
  5
68
  8
SIDE_RAIL_MIDDLE
 10
-68.0
 20
102.0
 30
0.0
 11
-67.99999999999996
 21
105.0000000000002
 31
0.0
  0
ARC
  5
69
  8
SIDE_RAIL_MIDDLE
 10
-66.0
 20
105.0000000000001
 30
0.0
 40
1.999999999999943
 50
89.99999999999349
 51
179.9999999999959
  0
LINE
  5
6A
  8
SIDE_RAIL_MIDDLE
 10
-81.0
 20
102.0000000000018
 30
0.0
 11
-68.0
 21
102.0
 31
0.0
  0
LINE
  5
6B
  8
SIDE_RAIL_MIDDLE
 10
-95.00000000000145
 20
104.9999999999952
 30
0.0
 11
-81.0
 21
105.0
 31
0.0
  0
LINE
  5
6C
  8
SIDE_RAIL_MIDDLE
 10
-72.75
 20
98.4
 30
0.0000000000000008
 11
-72.75
 21
101.9999999999971
 31
0.0000000000000008
  0
LINE
  5
6D
  8
SIDE_RAIL_MIDDLE
 10
-70.69999999999999
 20
96.19999999999999
 30
0.0000000000000008
 11
-70.69999999999999
 21
98.4
 31
0.0000000000000008
  0
LINE
  5
6E
  8
SIDE_RAIL_MIDDLE
 10
-72.75
 20
96.19999999999999
 30
0.0000000000000008
 11
-70.69999999999999
 21
96.19999999999999
 31
0.0000000000000008
  0
LINE
  5
6F
  8
SIDE_RAIL_MIDDLE
 10
-72.75
 20
94.4
 30
0.0000000000000008
 11
-72.75
 21
96.19999999999999
 31
0.0000000000000008
  0
LINE
  5
70
  8
SIDE_RAIL_MIDDLE
 10
-75.25
 20
96.19999999999999
 30
0.0000000000000008
 11
-75.25
 21
94.4
 31
0.0000000000000008
  0
LINE
  5
71
  8
SIDE_RAIL_MIDDLE
 10
-77.30000000000001
 20
98.4
 30
0.0000000000000008
 11
-77.30000000000001
 21
96.19999999999999
 31
0.0000000000000008
  0
LINE
  5
72
  8
SIDE_RAIL_MIDDLE
 10
-75.25
 20
102.0
 30
0.0000000000000008
 11
-75.25
 21
98.4
 31
0.0000000000000008
  0
LINE
  5
73
  8
SIDE_RAIL_MIDDLE
 10
-70.69999999999999
 20
98.4
 30
0.0000000000000008
 11
-72.75
 21
98.4
 31
0.0000000000000008
  0
LINE
  5
74
  8
SIDE_RAIL_MIDDLE
 10
-87.00000000000145
 20
95.9999999999983
 30
0.0
 11
-95.00000000000145
 21
96.00000000000381
 31
0.0
  0
LINE
  5
75
  8
SIDE_RAIL_MIDDLE
 10
-81.20000000000418
 20
90.30000000000001
 30
0.0
 11
-83.40000000000417
 21
90.30000000000001
 31
0.0
  0
LINE
  5
76
  8
SIDE_RAIL_MIDDLE
 10
-83.40000000000417
 20
88.25
 30
0.0
 11
-87.00000000000418
 21
88.25
 31
0.0
  0
LINE
  5
77
  8
SIDE_RAIL_MIDDLE
 10
-83.40000000000417
 20
90.30000000000001
 30
0.0
 11
-83.40000000000417
 21
88.25
 31
0.0
  0
LINE
  5
78
  8
SIDE_RAIL_MIDDLE
 10
-87.00000000000122
 20
85.75
 30
0.0
 11
-83.40000000000417
 21
85.75
 31
0.0
  0
LINE
  5
79
  8
SIDE_RAIL_MIDDLE
 10
-79.40000000000417
 20
85.75
 30
0.0
 11
-79.40000000000417
 21
88.25
 31
0.0
  0
LINE
  5
7A
  8
SIDE_RAIL_MIDDLE
 10
-83.40000000000417
 20
85.75
 30
0.0
 11
-83.40000000000417
 21
83.69999999999999
 31
0.0
  0
LINE
  5
7B
  8
SIDE_RAIL_MIDDLE
 10
-79.40000000000417
 20
88.25
 30
0.0
 11
-81.20000000000417
 21
88.25
 31
0.0
  0
LINE
  5
7C
  8
SIDE_RAIL_MIDDLE
 10
-83.40000000000417
 20
83.69999999999999
 30
0.0
 11
-81.20000000000417
 21
83.69999999999999
 31
0.0
  0
LINE
  5
7D
  8
SIDE_RAIL_MIDDLE
 10
-81.20000000000417
 20
83.69999999999999
 30
0.0
 11
-81.20000000000417
 21
85.75
 31
0.0
  0
LINE
  5
7E
  8
SIDE_RAIL_MIDDLE
 10
-81.20000000000417
 20
88.25
 30
0.0
 11
-81.20000000000418
 21
90.30000000000001
 31
0.0
  0
LINE
  5
7F
  8
SIDE_RAIL_MIDDLE
 10
-81.20000000000417
 20
85.75
 30
0.0
 11
-79.40000000000417
 21
85.75
 31
0.0
  0
LINE
  5
80
  8
SIDE_RAIL_MIDDLE
 10
-95.00000000000145
 20
96.00000000000381
 30
0.0
 11
-95.00000000000145
 21
104.9999999999952
 31
0.0
  0
LINE
  5
81
  8
SIDE_RAIL_MIDDLE
 10
-9.9999999999982
 20
99.0
 30
0.0
 11
-10.0
 21
3.5
 31
0.0
  0
CIRCLE
  5
82
  8
SIDE_RAIL_MIDDLE
 10
-10.0
 20
105.0
 30
0.0
 40
0.95
  0
ARC
  5
83
  8
SIDE_RAIL_MIDDLE
 10
-9.999999999999941
 20
105.0000000000001
 30
0.0
 40
1.999999999999944
 50
359.9999999999984
 51
90.00000000000168
  0
LINE
  5
84
  8
SIDE_RAIL_MIDDLE
 10
-7.999999999999997
 20
105.0
 30
0.0
 11
-7.999999999999998
 21
99.0
 31
0.0
  0
LINE
  5
85
  8
SIDE_RAIL_MIDDLE
 10
-7.999999999999998
 20
99.0
 30
0.0
 11
-9.9999999999982
 21
99.0
 31
0.0
  0
LINE
  5
86
  8
SIDE_RAIL_MIDDLE
 10
-13.6
 20
85.75
 30
-0.0000000000000001
 11
-10.00000000000295
 21
85.75
 31
-0.0000000000000001
  0
LINE
  5
87
  8
SIDE_RAIL_MIDDLE
 10
-13.6
 20
83.69999999999999
 30
-0.0000000000000001
 11
-13.6
 21
85.75
 31
-0.0000000000000001
  0
LINE
  5
88
  8
SIDE_RAIL_MIDDLE
 10
-15.8
 20
83.69999999999999
 30
-0.0000000000000001
 11
-13.6
 21
83.69999999999999
 31
-0.0000000000000001
  0
LINE
  5
89
  8
SIDE_RAIL_MIDDLE
 10
-15.8
 20
85.75
 30
-0.0000000000000001
 11
-15.8
 21
83.69999999999999
 31
-0.0000000000000001
  0
LINE
  5
8A
  8
SIDE_RAIL_MIDDLE
 10
-17.6
 20
85.75
 30
-0.0000000000000001
 11
-15.8
 21
85.75
 31
-0.0000000000000001
  0
LINE
  5
8B
  8
SIDE_RAIL_MIDDLE
 10
-17.6
 20
88.25
 30
-0.0000000000000001
 11
-17.6
 21
85.75
 31
-0.0000000000000001
  0
LINE
  5
8C
  8
SIDE_RAIL_MIDDLE
 10
-15.8
 20
88.25
 30
-0.0000000000000001
 11
-17.6
 21
88.25
 31
-0.0000000000000001
  0
LINE
  5
8D
  8
SIDE_RAIL_MIDDLE
 10
-15.8
 20
90.30000000000001
 30
-0.0000000000000001
 11
-15.8
 21
88.25
 31
-0.0000000000000001
  0
LINE
  5
8E
  8
SIDE_RAIL_MIDDLE
 10
-13.6
 20
90.30000000000001
 30
-0.0000000000000001
 11
-15.8
 21
90.30000000000001
 31
-0.0000000000000001
  0
LINE
  5
8F
  8
SIDE_RAIL_MIDDLE
 10
-13.6
 20
88.25
 30
-0.0000000000000001
 11
-13.6
 21
90.30000000000001
 31
-0.0000000000000001
  0
LINE
  5
90
  8
SIDE_RAIL_MIDDLE
 10
-10.0
 20
88.25
 30
-0.0000000000000001
 11
-13.6
 21
88.25
 31
-0.0000000000000001
  0
LINE
  5
91
  8
SIDE_RAIL_MIDDLE
 10
-11.8
 20
65.75
 30
0.0
 11
-10.00000000000029
 21
65.75
 31
0.0
  0
LINE
  5
92
  8
SIDE_RAIL_MIDDLE
 10
-13.6
 20
67.0
 30
0.0
 11
-11.8
 21
65.75
 31
0.0
  0
LINE
  5
93
  8
SIDE_RAIL_MIDDLE
 10
-11.8
 20
68.25
 30
0.0
 11
-13.6
 21
67.0
 31
0.0
  0
LINE
  5
94
  8
SIDE_RAIL_MIDDLE
 10
-10.00000000000034
 20
68.25
 30
0.0
 11
-11.8
 21
68.25
 31
0.0
  0
LINE
  5
95
  8
SIDE_RAIL_MIDDLE
 10
-13.6
 20
45.75
 30
-0.0000000000000001
 11
-10.00000000000295
 21
45.75
 31
-0.0000000000000001
  0
LINE
  5
96
  8
SIDE_RAIL_MIDDLE
 10
-13.6
 20
43.69999999999999
 30
-0.0000000000000001
 11
-13.6
 21
45.75
 31
-0.0000000000000001
  0
LINE
  5
97
  8
SIDE_RAIL_MIDDLE
 10
-15.8
 20
43.69999999999999
 30
-0.0000000000000001
 11
-13.6
 21
43.69999999999999
 31
-0.0000000000000001
  0
LINE
  5
98
  8
SIDE_RAIL_MIDDLE
 10
-15.8
 20
45.75
 30
-0.0000000000000001
 11
-15.8
 21
43.69999999999999
 31
-0.0000000000000001
  0
LINE
  5
99
  8
SIDE_RAIL_MIDDLE
 10
-17.6
 20
45.75
 30
-0.0000000000000001
 11
-15.8
 21
45.75
 31
-0.0000000000000001
  0
LINE
  5
9A
  8
SIDE_RAIL_MIDDLE
 10
-17.6
 20
48.25
 30
-0.0000000000000001
 11
-17.6
 21
45.75
 31
-0.0000000000000001
  0
LINE
  5
9B
  8
SIDE_RAIL_MIDDLE
 10
-15.8
 20
48.25
 30
-0.0000000000000001
 11
-17.6
 21
48.25
 31
-0.0000000000000001
  0
LINE
  5
9C
  8
SIDE_RAIL_MIDDLE
 10
-15.8
 20
50.30000000000001
 30
-0.0000000000000001
 11
-15.8
 21
48.25
 31
-0.0000000000000001
  0
LINE
  5
9D
  8
SIDE_RAIL_MIDDLE
 10
-13.6
 20
50.30000000000001
 30
-0.0000000000000001
 11
-15.8
 21
50.30000000000001
 31
-0.0000000000000001
  0
LINE
  5
9E
  8
SIDE_RAIL_MIDDLE
 10
-13.6
 20
48.25
 30
-0.0000000000000001
 11
-13.6
 21
50.30000000000001
 31
-0.0000000000000001
  0
LINE
  5
9F
  8
SIDE_RAIL_MIDDLE
 10
-10.0
 20
48.25
 30
-0.0000000000000001
 11
-13.6
 21
48.25
 31
-0.0000000000000001
  0
LINE
  5
A0
  8
SIDE_RAIL_MIDDLE
 10
-11.8
 20
25.75
 30
0.0
 11
-10.00000000000029
 21
25.75
 31
0.0
  0
LINE
  5
A1
  8
SIDE_RAIL_MIDDLE
 10
-13.6
 20
27.0
 30
0.0
 11
-11.8
 21
25.75
 31
0.0
  0
LINE
  5
A2
  8
SIDE_RAIL_MIDDLE
 10
-11.8
 20
28.25
 30
0.0
 11
-13.6
 21
27.0
 31
0.0
  0
LINE
  5
A3
  8
SIDE_RAIL_MIDDLE
 10
-10.00000000000034
 20
28.25
 30
0.0
 11
-11.8
 21
28.25
 31
0.0
  0
LINE
  5
A4
  8
SIDE_RAIL_MIDDLE
 10
-24.25
 20
-4.399999999999977
 30
0.0000000000000006
 11
-24.25
 21
-8.0
 31
0.0000000000000006
  0
LINE
  5
A5
  8
SIDE_RAIL_MIDDLE
 10
-26.30000000000001
 20
-4.399999999999977
 30
0.0000000000000006
 11
-24.25
 21
-4.399999999999977
 31
0.0000000000000006
  0
LINE
  5
A6
  8
SIDE_RAIL_MIDDLE
 10
-26.30000000000001
 20
-2.199999999999989
 30
0.0000000000000006
 11
-26.30000000000001
 21
-4.399999999999977
 31
0.0000000000000006
  0
LINE
  5
A7
  8
SIDE_RAIL_MIDDLE
 10
-24.25
 20
-2.199999999999989
 30
0.0000000000000006
 11
-26.30000000000001
 21
-2.199999999999989
 31
0.0000000000000006
  0
LINE
  5
A8
  8
SIDE_RAIL_MIDDLE
 10
-24.25
 20
-0.3999999999999773
 30
0.0000000000000006
 11
-24.25
 21
-2.199999999999989
 31
0.0000000000000006
  0
LINE
  5
A9
  8
SIDE_RAIL_MIDDLE
 10
-21.75
 20
-0.3999999999999773
 30
0.0000000000000006
 11
-24.25
 21
-0.3999999999999773
 31
0.0000000000000006
  0
LINE
  5
AA
  8
SIDE_RAIL_MIDDLE
 10
-21.75
 20
-2.199999999999989
 30
0.0000000000000006
 11
-21.75
 21
-0.3999999999999773
 31
0.0000000000000006
  0
LINE
  5
AB
  8
SIDE_RAIL_MIDDLE
 10
-19.69999999999999
 20
-2.199999999999989
 30
0.0000000000000006
 11
-21.75
 21
-2.199999999999989
 31
0.0000000000000006
  0
LINE
  5
AC
  8
SIDE_RAIL_MIDDLE
 10
-19.69999999999999
 20
-4.399999999999977
 30
0.0000000000000006
 11
-19.69999999999999
 21
-2.199999999999989
 31
0.0000000000000006
  0
LINE
  5
AD
  8
SIDE_RAIL_MIDDLE
 10
-21.75
 20
-4.399999999999977
 30
0.0000000000000006
 11
-19.69999999999999
 21
-4.399999999999977
 31
0.0000000000000006
  0
LINE
  5
AE
  8
SIDE_RAIL_MIDDLE
 10
-21.75
 20
-8.0
 30
0.0000000000000006
 11
-21.75
 21
-4.399999999999977
 31
0.0000000000000006
  0
LINE
  5
AF
  8
SIDE_RAIL_MIDDLE
 10
-32.4
 20
8.25
 30
0.0
 11
-35.99999999999999
 21
8.250000000000007
 31
0.0
  0
LINE
  5
B0
  8
SIDE_RAIL_MIDDLE
 10
-32.4
 20
10.30000000000001
 30
0.0
 11
-32.4
 21
8.25
 31
0.0
  0
LINE
  5
B1
  8
SIDE_RAIL_MIDDLE
 10
-30.2
 20
10.30000000000001
 30
0.0
 11
-32.4
 21
10.30000000000001
 31
0.0
  0
LINE
  5
B2
  8
SIDE_RAIL_MIDDLE
 10
-30.2
 20
8.25
 30
0.0
 11
-30.2
 21
10.30000000000001
 31
0.0
  0
LINE
  5
B3
  8
SIDE_RAIL_MIDDLE
 10
-28.4
 20
8.25
 30
0.0
 11
-30.2
 21
8.25
 31
0.0
  0
LINE
  5
B4
  8
SIDE_RAIL_MIDDLE
 10
-28.4
 20
5.75
 30
0.0
 11
-28.4
 21
8.25
 31
0.0
  0
LINE
  5
B5
  8
SIDE_RAIL_MIDDLE
 10
-30.2
 20
5.75
 30
0.0
 11
-28.4
 21
5.75
 31
0.0
  0
LINE
  5
B6
  8
SIDE_RAIL_MIDDLE
 10
-30.2
 20
3.69999999999999
 30
0.0
 11
-30.2
 21
5.75
 31
0.0
  0
LINE
  5
B7
  8
SIDE_RAIL_MIDDLE
 10
-32.4
 20
3.69999999999999
 30
0.0
 11
-30.2
 21
3.69999999999999
 31
0.0
  0
LINE
  5
B8
  8
SIDE_RAIL_MIDDLE
 10
-32.4
 20
5.75
 30
0.0
 11
-32.4
 21
3.69999999999999
 31
0.0
  0
LINE
  5
B9
  8
SIDE_RAIL_MIDDLE
 10
-36.0
 20
5.75
 30
0.0
 11
-32.4
 21
5.75
 31
0.0
  0
LINE
  5
BA
  8
SIDE_RAIL_MIDDLE
 10
-13.6
 20
5.75
 30
0.0
 11
-10.0
 21
5.75
 31
0.0
  0
LINE
  5
BB
  8
SIDE_RAIL_MIDDLE
 10
-13.6
 20
3.69999999999999
 30
0.0
 11
-13.6
 21
5.75
 31
0.0
  0
LINE
  5
BC
  8
SIDE_RAIL_MIDDLE
 10
-15.8
 20
3.69999999999999
 30
0.0
 11
-13.6
 21
3.69999999999999
 31
0.0
  0
LINE
  5
BD
  8
SIDE_RAIL_MIDDLE
 10
-15.8
 20
5.75
 30
0.0
 11
-15.8
 21
3.69999999999999
 31
0.0
  0
LINE
  5
BE
  8
SIDE_RAIL_MIDDLE
 10
-17.6
 20
5.75
 30
0.0
 11
-15.8
 21
5.75
 31
0.0
  0
LINE
  5
BF
  8
SIDE_RAIL_MIDDLE
 10
-17.6
 20
8.25
 30
0.0
 11
-17.6
 21
5.75
 31
0.0
  0
LINE
  5
C0
  8
SIDE_RAIL_MIDDLE
 10
-15.8
 20
8.25
 30
0.0
 11
-17.6
 21
8.25
 31
0.0
  0
LINE
  5
C1
  8
SIDE_RAIL_MIDDLE
 10
-15.8
 20
10.30000000000001
 30
0.0
 11
-15.8
 21
8.25
 31
0.0
  0
LINE
  5
C2
  8
SIDE_RAIL_MIDDLE
 10
-13.6
 20
10.30000000000001
 30
0.0
 11
-15.8
 21
10.30000000000001
 31
0.0
  0
LINE
  5
C3
  8
SIDE_RAIL_MIDDLE
 10
-13.6
 20
8.25
 30
0.0
 11
-13.6
 21
10.30000000000001
 31
0.0
  0
LINE
  5
C4
  8
SIDE_RAIL_MIDDLE
 10
-10.0
 20
8.25
 30
0.0
 11
-13.6
 21
8.25
 31
0.0
  0
LINE
  5
C5
  8
SIDE_RAIL_MIDDLE
 10
-44.00000000000009
 20
-2.0
 30
0.0
 11
-36.0
 21
-2.0
 31
0.0
  0
LINE
  5
C6
  8
SIDE_RAIL_MIDDLE
 10
-44.00000000000009
 20
-11.0
 30
0.0
 11
-44.00000000000009
 21
-2.0
 31
0.0
  0
LINE
  5
C7
  8
SIDE_RAIL_MIDDLE
 10
-30.00000000000059
 20
-11.0
 30
0.0
 11
-44.00000000000009
 21
-11.0
 31
0.0
  0
LINE
  5
C8
  8
SIDE_RAIL_MIDDLE
 10
-30.00000000000293
 20
-8.000000000000227
 30
0.0
 11
-30.00000000000059
 21
-11.0
 31
0.0
  0
LINE
  5
C9
  8
SIDE_RAIL_MIDDLE
 10
-17.0
 20
-8.0
 30
0.0
 11
-30.00000000000293
 21
-8.000000000000227
 31
0.0
  0
LINE
  5
CA
  8
SIDE_RAIL_MIDDLE
 10
-17.0
 20
-12.0
 30
0.0
 11
-17.0
 21
-8.0
 31
0.0
  0
ARC
  5
CB
  8
SIDE_RAIL_MIDDLE
 10
-14.99999999999999
 20
-11.99999999999999
 30
0.0
 40
2.000000000000007
 50
180.0000000000002
 51
269.9999999999998
  0
LINE
  5
CC
  8
SIDE_RAIL_MIDDLE
 10
-7.999999999995606
 20
-14.0
 30
0.0
 11
-15.0
 21
-14.0
 31
0.0
  0
ARC
  5
CD
  8
SIDE_RAIL_MIDDLE
 10
-8.000000000000005
 20
-9.999999999999993
 30
0.0
 40
4.000000000000007
 50
270.000000000063
 51
0.0000000001255937
  0
LINE
  5
CE
  8
SIDE_RAIL_MIDDLE
 10
-4.000000000000005
 20
-1.499999999999994
 30
0.0
 11
-3.999999999999998
 21
-9.999999999991225
 31
0.0
  0
ARC
  5
CF
  8
SIDE_RAIL_MIDDLE
 10
-9.000000000000005
 20
-1.499999999999997
 30
0.0
 40
5.0
 50
0.0000000000000356
 51
90.00000000000003
  0
LINE
  5
D0
  8
SIDE_RAIL_MIDDLE
 10
-10.0
 20
3.5
 30
0.0
 11
-9.000000000000007
 21
3.500000000000003
 31
0.0
  0
CIRCLE
  5
D1
  8
SIDE_RAIL_MIDDLE
 10
-7.4
 20
-2.0
 30
0.0
 40
0.5
  0
CIRCLE
  5
D2
  8
SIDE_RAIL_MIDDLE
 10
-9.0
 20
-9.0
 30
0.0
 40
2.95
  0
ENDSEC
  0
EOF
