  0
SECTION
  2
HEADER
  9
$ACADVER
  1
AC1009
  9
$DWGCODEPAGE
  3
ansi_1252
  9
$INSBASE
 10
0.0
 20
0.0
 30
0.0
  9
$EXTMIN
 10
-28.0
 20
-14.0
 30
0.0
  9
$EXTMAX
 10
28.0
 20
11.0
 30
0.0
  9
$LIMMIN
 10
0.0
 20
0.0
  9
$LIMMAX
 10
12.0
 20
9.0
  9
$ORTHOMODE
 70
     0
  9
$REGENMODE
 70
     1
  9
$FILLMODE
 70
     1
  9
$QTEXTMODE
 70
     0
  9
$MIRRTEXT
 70
     1
  9
$DRAGMODE
 70
     2
  9
$LTSCALE
 40
1.0
  9
$OSMODE
 70
    37
  9
$ATTMODE
 70
     1
  9
$TEXTSIZE
 40
0.2
  9
$TRACEWID
 40
0.05
  9
$TEXTSTYLE
  7
STANDARD
  9
$CLAYER
  8
DEFAULT
  9
$CELTYPE
  6
BYLAYER
  9
$CECOLOR
 62
   256
  9
$DIMSCALE
 40
1.0
  9
$DIMASZ
 40
0.18
  9
$DIMEXO
 40
0.0625
  9
$DIMDLI
 40
0.38
  9
$DIMRND
 40
0.0
  9
$DIMDLE
 40
0.0
  9
$DIMEXE
 40
0.18
  9
$DIMTP
 40
0.0
  9
$DIMTM
 40
0.0
  9
$DIMTXT
 40
0.18
  9
$DIMCEN
 40
0.09
  9
$DIMTSZ
 40
0.0
  9
$DIMTOL
 70
     0
  9
$DIMLIM
 70
     0
  9
$DIMTIH
 70
     1
  9
$DIMTOH
 70
     1
  9
$DIMSE1
 70
     0
  9
$DIMSE2
 70
     0
  9
$DIMTAD
 70
     0
  9
$DIMZIN
 70
     0
  9
$DIMBLK
  1

  9
$DIMASO
 70
     1
  9
$DIMSHO
 70
     1
  9
$DIMPOST
  1

  9
$DIMAPOST
  1

  9
$DIMALT
 70
     0
  9
$DIMALTD
 70
     2
  9
$DIMALTF
 40
25.4
  9
$DIMLFAC
 40
1.0
  9
$DIMTOFL
 70
     0
  9
$DIMTVP
 40
0.0
  9
$DIMTIX
 70
     0
  9
$DIMSOXD
 70
     0
  9
$DIMSAH
 70
     0
  9
$DIMBLK1
  1

  9
$DIMBLK2
  1

  9
$DIMSTYLE
  2
STANDARD
  9
$DIMCLRD
 70
     0
  9
$DIMCLRE
 70
     0
  9
$DIMCLRT
 70
     0
  9
$DIMTFAC
 40
1.0
  9
$DIMGAP
 40
0.09
  9
$LUNITS
 70
     2
  9
$LUPREC
 70
     3
  9
$SKETCHINC
 40
0.1
  9
$FILLETRAD
 40
0.5
  9
$AUNITS
 70
     0
  9
$AUPREC
 70
     0
  9
$MENU
  1
.
  9
$ELEVATION
 40
0.0
  9
$PELEVATION
 40
0.0
  9
$THICKNESS
 40
0.0
  9
$LIMCHECK
 70
     0
  9
$CHAMFERA
 40
0.5
  9
$CHAMFERB
 40
0.5
  9
$SKPOLY
 70
     0
  9
$TDCREATE
 40
2457376.537798345
  9
$TDUPDATE
 40
2457376.537798356
  9
$TDINDWG
 40
0.0000000116
  9
$TDUSRTIMER
 40
0.0000000116
  9
$USRTIMER
 70
     1
  9
$ANGBASE
 50
0.0
  9
$ANGDIR
 70
     0
  9
$PDMODE
 70
     0
  9
$PDSIZE
 40
0.0
  9
$PLINEWID
 40
0.0
  9
$COORDS
 70
     1
  9
$SPLFRAME
 70
     0
  9
$SPLINETYPE
 70
     6
  9
$SPLINESEGS
 70
     8
  9
$ATTDIA
 70
     0
  9
$ATTREQ
 70
     1
  9
$HANDLING
 70
     1
  9
$HANDSEED
  5
5F
  9
$SURFTAB1
 70
     6
  9
$SURFTAB2
 70
     6
  9
$SURFTYPE
 70
     6
  9
$SURFU
 70
     6
  9
$SURFV
 70
     6
  9
$UCSNAME
  2

  9
$UCSORG
 10
0.0
 20
0.0
 30
0.0
  9
$UCSXDIR
 10
1.0
 20
0.0
 30
0.0
  9
$UCSYDIR
 10
0.0
 20
1.0
 30
0.0
  9
$PUCSNAME
  2

  9
$PUCSORG
 10
0.0
 20
0.0
 30
0.0
  9
$PUCSXDIR
 10
1.0
 20
0.0
 30
0.0
  9
$PUCSYDIR
 10
0.0
 20
1.0
 30
0.0
  9
$USERI1
 70
     0
  9
$USERI2
 70
     0
  9
$USERI3
 70
     0
  9
$USERI4
 70
     0
  9
$USERI5
 70
     0
  9
$USERR1
 40
0.0
  9
$USERR2
 40
0.0
  9
$USERR3
 40
0.0
  9
$USERR4
 40
0.0
  9
$USERR5
 40
0.0
  9
$WORLDVIEW
 70
     1
  9
$SHADEDGE
 70
     3
  9
$SHADEDIF
 70
    70
  9
$TILEMODE
 70
     1
  9
$MAXACTVP
 70
    64
  9
$PLIMCHECK
 70
     0
  9
$PEXTMIN
 10
1.000000000000000E+20
 20
1.000000000000000E+20
 30
1.000000000000000E+20
  9
$PEXTMAX
 10
-1.000000000000000E+20
 20
-1.000000000000000E+20
 30
-1.000000000000000E+20
  9
$PLIMMIN
 10
0.0
 20
0.0
  9
$PLIMMAX
 10
12.0
 20
9.0
  9
$UNITMODE
 70
     0
  9
$VISRETAIN
 70
     1
  9
$PLINEGEN
 70
     0
  9
$PSLTSCALE
 70
     1
  0
ENDSEC
  0
SECTION
  2
TABLES
  0
TABLE
  2
VPORT
 70
     2
  0
VPORT
  2
*ACTIVE
 70
     0
 10
0.0
 20
0.0
 11
1.0
 21
1.0
 12
0.0
 22
-1.500000000000002
 13
0.0
 23
0.0
 14
0.5
 24
0.5
 15
0.5
 25
0.5
 16
0.0
 26
0.0
 36
1.0
 17
0.0
 27
0.0
 37
0.0
 40
35.00035000000001
 41
1.6
 42
50.0
 43
0.0
 44
0.0
 50
0.0
 51
0.0
 71
     0
 72
   100
 73
     1
 74
     3
 75
     0
 76
     0
 77
     0
 78
     0
  0
ENDTAB
  0
TABLE
  2
LTYPE
 70
     1
  0
LTYPE
  2
CONTINUOUS
 70
     0
  3
Solid line
 72
    65
 73
     0
 40
0.0
  0
ENDTAB
  0
TABLE
  2
LAYER
 70
     2
  0
LAYER
  2
0
 70
     0
 62
     7
  6
CONTINUOUS
  0
LAYER
  2
DEFAULT
 70
     0
 62
     7
  6
CONTINUOUS
  0
ENDTAB
  0
TABLE
  2
STYLE
 70
     1
  0
STYLE
  2
STANDARD
 70
     0
 40
0.0
 41
1.0
 50
0.0
 71
     0
 42
0.2
  3
txt
  4

  0
ENDTAB
  0
TABLE
  2
VIEW
 70
     0
  0
ENDTAB
  0
TABLE
  2
UCS
 70
     0
  0
ENDTAB
  0
TABLE
  2
APPID
 70
     1
  0
APPID
  2
ACAD
 70
     0
  0
ENDTAB
  0
TABLE
  2
DIMSTYLE
 70
     1
  0
DIMSTYLE
  2
STANDARD
 70
     0
  3

  4

  5

  6

  7

 40
1.0
 41
0.18
 42
0.0625
 43
0.38
 44
0.18
 45
0.0
 46
0.0
 47
0.0
 48
0.0
140
0.18
141
0.09
142
0.0
143
25.4
144
1.0
145
0.0
146
1.0
147
0.09
 71
     0
 72
     0
 73
     1
 74
     1
 75
     0
 76
     0
 77
     0
 78
     0
170
     0
171
     2
172
     0
173
     0
174
     0
175
     0
176
     0
177
     0
178
     0
  0
ENDTAB
  0
ENDSEC
  0
SECTION
  2
BLOCKS
  0
BLOCK
  8
0
  2
$MODEL_SPACE
 70
     0
 10
0.0
 20
0.0
 30
0.0
  3
$MODEL_SPACE
  1

  0
ENDBLK
  5
21
  8
0
  0
BLOCK
 67
     1
  8
0
  2
$PAPER_SPACE
 70
     0
 10
0.0
 20
0.0
 30
0.0
  3
$PAPER_SPACE
  1

  0
ENDBLK
  5
1D
 67
     1
  8
0
  0
BLOCK
  8
0
  2
$PAPER_SPACE0
 70
     0
 10
0.0
 20
0.0
 30
0.0
  3
$PAPER_SPACE0
  1

  0
ENDBLK
  5
25
  8
0
  0
ENDSEC
  0
SECTION
  2
ENTITIES
  0
LINE
  5
2B
  8
DEFAULT
 10
-20.75
 20
5.8
 30
0.0
 11
-20.75
 21
7.600000000000002
 31
0.0
  0
LINE
  5
2C
  8
DEFAULT
 10
-23.25
 20
7.600000000000001
 30
0.0
 11
-23.25
 21
5.799999999999999
 31
0.0
  0
LINE
  5
2D
  8
DEFAULT
 10
-20.75
 20
7.600000000000003
 30
0.0
 11
-23.25
 21
7.600000000000001
 31
0.0
  0
LINE
  5
2E
  8
DEFAULT
 10
-25.2
 20
5.8
 30
0.0
 11
-25.2
 21
3.600000000000001
 31
0.0
  0
LINE
  5
2F
  8
DEFAULT
 10
-23.25
 20
5.799999999999999
 30
0.0
 11
-25.2
 21
5.8
 31
0.0
  0
LINE
  5
30
  8
DEFAULT
 10
-23.25
 20
3.600000000000001
 30
0.0
 11
-25.2
 21
3.600000000000001
 31
0.0
  0
LINE
  5
31
  8
DEFAULT
 10
-20.75
 20
3.600000000000001
 30
0.0
 11
-18.8
 21
3.600000000000001
 31
0.0
  0
LINE
  5
32
  8
DEFAULT
 10
-20.75
 20
5.799999999999999
 30
0.0
 11
-18.8
 21
5.8
 31
0.0
  0
LINE
  5
33
  8
DEFAULT
 10
-18.8
 20
5.8
 30
0.0
 11
-18.8
 21
3.600000000000001
 31
0.0
  0
CIRCLE
  5
34
  8
DEFAULT
 10
-22.0
 20
-5.0
 30
0.0
 40
1.35
  0
CIRCLE
  5
35
  8
DEFAULT
 10
22.0
 20
-5.0
 30
0.0
 40
1.35
  0
LINE
  5
36
  8
DEFAULT
 10
18.8
 20
5.8
 30
0.0
 11
18.8
 21
3.600000000000001
 31
0.0
  0
LINE
  5
37
  8
DEFAULT
 10
20.75
 20
5.799999999999999
 30
0.0
 11
18.8
 21
5.8
 31
0.0
  0
LINE
  5
38
  8
DEFAULT
 10
20.75
 20
3.600000000000001
 30
0.0
 11
18.8
 21
3.600000000000001
 31
0.0
  0
LINE
  5
39
  8
DEFAULT
 10
23.25
 20
3.600000000000001
 30
0.0
 11
25.2
 21
3.600000000000001
 31
0.0
  0
LINE
  5
3A
  8
DEFAULT
 10
23.25
 20
5.799999999999999
 30
0.0
 11
25.2
 21
5.8
 31
0.0
  0
LINE
  5
3B
  8
DEFAULT
 10
25.2
 20
5.8
 30
0.0
 11
25.2
 21
3.600000000000001
 31
0.0
  0
LINE
  5
3C
  8
DEFAULT
 10
-28.0
 20
-14.0
 30
0.0
 11
-28.0
 21
-2.0
 31
0.0
  0
LINE
  5
3D
  8
DEFAULT
 10
0.0
 20
-2.0
 30
0.0
 11
-28.0
 21
-2.0
 31
0.0
  0
LINE
  5
3E
  8
DEFAULT
 10
0.0
 20
-14.0
 30
0.0
 11
-28.0
 21
-14.0
 31
0.0
  0
LINE
  5
3F
  8
DEFAULT
 10
0.0
 20
-14.0
 30
0.0
 11
28.0
 21
-14.0
 31
0.0
  0
LINE
  5
40
  8
DEFAULT
 10
0.0
 20
-2.0
 30
0.0
 11
28.0
 21
-2.0
 31
0.0
  0
LINE
  5
41
  8
DEFAULT
 10
28.0
 20
-14.0
 30
0.0
 11
28.0
 21
-2.0
 31
0.0
  0
LINE
  5
42
  8
DEFAULT
 10
-23.25
 20
-0.0000000000000002
 30
0.0
 11
-28.0
 21
0.0
 31
0.0
  0
LINE
  5
43
  8
DEFAULT
 10
-23.25
 20
3.600000000000001
 30
0.0
 11
-23.25
 21
0.0
 31
0.0
  0
LINE
  5
44
  8
DEFAULT
 10
-20.75
 20
-0.0000000000000008
 30
0.0
 11
-20.75
 21
3.600000000000001
 31
0.0
  0
LINE
  5
45
  8
DEFAULT
 10
0.0
 20
11.0
 30
0.0
 11
-28.0
 21
11.0
 31
0.0
  0
LINE
  5
46
  8
DEFAULT
 10
-28.0
 20
0.0
 30
0.0
 11
-28.0
 21
11.0
 31
0.0
  0
LINE
  5
47
  8
DEFAULT
 10
-17.3
 20
0.0
 30
0.0
 11
-20.75
 21
-0.0000000000000008
 31
0.0
  0
LINE
  5
48
  8
DEFAULT
 10
-9.800000000000001
 20
0.7999999999999996
 30
0.0
 11
-17.3
 21
0.8
 31
0.0
  0
LINE
  5
49
  8
DEFAULT
 10
-9.800000000000001
 20
2.25
 30
0.0
 11
-9.800000000000001
 21
0.7999999999999996
 31
0.0
  0
LINE
  5
4A
  8
DEFAULT
 10
-0.0000000000000003
 20
2.25
 30
0.0
 11
-9.800000000000001
 21
2.25
 31
0.0
  0
LINE
  5
4B
  8
DEFAULT
 10
-17.3
 20
0.8
 30
0.0
 11
-17.3
 21
0.0
 31
0.0
  0
LINE
  5
4C
  8
DEFAULT
 10
17.3
 20
0.8
 30
0.0
 11
17.3
 21
0.0
 31
0.0
  0
LINE
  5
4D
  8
DEFAULT
 10
0.0000000000000003
 20
2.25
 30
0.0
 11
9.800000000000001
 21
2.25
 31
0.0
  0
LINE
  5
4E
  8
DEFAULT
 10
9.800000000000001
 20
2.25
 30
0.0
 11
9.800000000000001
 21
0.7999999999999996
 31
0.0
  0
LINE
  5
4F
  8
DEFAULT
 10
9.800000000000001
 20
0.7999999999999996
 30
0.0
 11
17.3
 21
0.8
 31
0.0
  0
LINE
  5
50
  8
DEFAULT
 10
17.3
 20
0.0
 30
0.0
 11
20.75
 21
-0.0000000000000008
 31
0.0
  0
LINE
  5
51
  8
DEFAULT
 10
28.0
 20
0.0
 30
0.0
 11
28.0
 21
11.0
 31
0.0
  0
LINE
  5
52
  8
DEFAULT
 10
0.0
 20
11.0
 30
0.0
 11
28.0
 21
11.0
 31
0.0
  0
LINE
  5
53
  8
DEFAULT
 10
20.75
 20
-0.0000000000000008
 30
0.0
 11
20.75
 21
3.600000000000001
 31
0.0
  0
LINE
  5
54
  8
DEFAULT
 10
23.25
 20
3.600000000000001
 30
0.0
 11
23.25
 21
0.0
 31
0.0
  0
LINE
  5
55
  8
DEFAULT
 10
23.25
 20
-0.0000000000000002
 30
0.0
 11
28.0
 21
0.0
 31
0.0
  0
LINE
  5
56
  8
DEFAULT
 10
20.75
 20
7.600000000000003
 30
0.0
 11
23.25
 21
7.600000000000001
 31
0.0
  0
LINE
  5
57
  8
DEFAULT
 10
23.25
 20
7.600000000000001
 30
0.0
 11
23.25
 21
5.799999999999999
 31
0.0
  0
LINE
  5
58
  8
DEFAULT
 10
20.75
 20
5.8
 30
0.0
 11
20.75
 21
7.600000000000002
 31
0.0
  0
ENDSEC
  0
EOF
