  0
SECTION
  2
HEADER
  9
$ACADVER
  1
AC1009
  9
$DWGCODEPAGE
  3
ansi_1252
  9
$INSBASE
 10
0.0
 20
0.0
 30
0.0
  9
$EXTMIN
 10
-135.0000000000016
 20
-14.0
 30
-0.0000000000000001
  9
$EXTMAX
 10
-3.999999999999996
 20
107.9999999999952
 30
0.0000000000000008
  9
$LIMMIN
 10
0.0
 20
0.0
  9
$LIMMAX
 10
12.0
 20
9.0
  9
$ORTHOMODE
 70
     0
  9
$REGENMODE
 70
     1
  9
$FILLMODE
 70
     1
  9
$QTEXTMODE
 70
     0
  9
$MIRRTEXT
 70
     1
  9
$DRAGMODE
 70
     2
  9
$LTSCALE
 40
1.0
  9
$OSMODE
 70
    37
  9
$ATTMODE
 70
     1
  9
$TEXTSIZE
 40
0.2
  9
$TRACEWID
 40
0.05
  9
$TEXTSTYLE
  7
STANDARD
  9
$CLAYER
  8
SIDE_RAIL_MIDDLE
  9
$CELTYPE
  6
BYLAYER
  9
$CECOLOR
 62
   256
  9
$DIMSCALE
 40
1.0
  9
$DIMASZ
 40
0.18
  9
$DIMEXO
 40
0.0625
  9
$DIMDLI
 40
0.38
  9
$DIMRND
 40
0.0
  9
$DIMDLE
 40
0.0
  9
$DIMEXE
 40
0.18
  9
$DIMTP
 40
0.0
  9
$DIMTM
 40
0.0
  9
$DIMTXT
 40
0.18
  9
$DIMCEN
 40
0.09
  9
$DIMTSZ
 40
0.0
  9
$DIMTOL
 70
     0
  9
$DIMLIM
 70
     0
  9
$DIMTIH
 70
     1
  9
$DIMTOH
 70
     1
  9
$DIMSE1
 70
     0
  9
$DIMSE2
 70
     0
  9
$DIMTAD
 70
     0
  9
$DIMZIN
 70
     0
  9
$DIMBLK
  1

  9
$DIMASO
 70
     1
  9
$DIMSHO
 70
     1
  9
$DIMPOST
  1

  9
$DIMAPOST
  1

  9
$DIMALT
 70
     0
  9
$DIMALTD
 70
     2
  9
$DIMALTF
 40
25.4
  9
$DIMLFAC
 40
1.0
  9
$DIMTOFL
 70
     0
  9
$DIMTVP
 40
0.0
  9
$DIMTIX
 70
     0
  9
$DIMSOXD
 70
     0
  9
$DIMSAH
 70
     0
  9
$DIMBLK1
  1

  9
$DIMBLK2
  1

  9
$DIMSTYLE
  2
STANDARD
  9
$DIMCLRD
 70
     0
  9
$DIMCLRE
 70
     0
  9
$DIMCLRT
 70
     0
  9
$DIMTFAC
 40
1.0
  9
$DIMGAP
 40
0.09
  9
$LUNITS
 70
     2
  9
$LUPREC
 70
     3
  9
$SKETCHINC
 40
0.1
  9
$FILLETRAD
 40
0.5
  9
$AUNITS
 70
     0
  9
$AUPREC
 70
     0
  9
$MENU
  1
.
  9
$ELEVATION
 40
0.0
  9
$PELEVATION
 40
0.0
  9
$THICKNESS
 40
0.0
  9
$LIMCHECK
 70
     0
  9
$CHAMFERA
 40
0.5
  9
$CHAMFERB
 40
0.5
  9
$SKPOLY
 70
     0
  9
$TDCREATE
 40
2457820.478773681
  9
$TDUPDATE
 40
2457820.478773692
  9
$TDINDWG
 40
0.0000000116
  9
$TDUSRTIMER
 40
0.0000000116
  9
$USRTIMER
 70
     1
  9
$ANGBASE
 50
0.0
  9
$ANGDIR
 70
     0
  9
$PDMODE
 70
     0
  9
$PDSIZE
 40
0.0
  9
$PLINEWID
 40
0.0
  9
$COORDS
 70
     1
  9
$SPLFRAME
 70
     0
  9
$SPLINETYPE
 70
     6
  9
$SPLINESEGS
 70
     8
  9
$ATTDIA
 70
     0
  9
$ATTREQ
 70
     1
  9
$HANDLING
 70
     1
  9
$HANDSEED
  5
188
  9
$SURFTAB1
 70
     6
  9
$SURFTAB2
 70
     6
  9
$SURFTYPE
 70
     6
  9
$SURFU
 70
     6
  9
$SURFV
 70
     6
  9
$UCSNAME
  2

  9
$UCSORG
 10
0.0
 20
0.0
 30
0.0
  9
$UCSXDIR
 10
1.0
 20
0.0
 30
0.0
  9
$UCSYDIR
 10
0.0
 20
1.0
 30
0.0
  9
$PUCSNAME
  2

  9
$PUCSORG
 10
0.0
 20
0.0
 30
0.0
  9
$PUCSXDIR
 10
1.0
 20
0.0
 30
0.0
  9
$PUCSYDIR
 10
0.0
 20
1.0
 30
0.0
  9
$USERI1
 70
     0
  9
$USERI2
 70
     0
  9
$USERI3
 70
     0
  9
$USERI4
 70
     0
  9
$USERI5
 70
     0
  9
$USERR1
 40
0.0
  9
$USERR2
 40
0.0
  9
$USERR3
 40
0.0
  9
$USERR4
 40
0.0
  9
$USERR5
 40
0.0
  9
$WORLDVIEW
 70
     1
  9
$SHADEDGE
 70
     3
  9
$SHADEDIF
 70
    70
  9
$TILEMODE
 70
     1
  9
$MAXACTVP
 70
    64
  9
$PLIMCHECK
 70
     0
  9
$PEXTMIN
 10
1.000000000000000E+20
 20
1.000000000000000E+20
 30
1.000000000000000E+20
  9
$PEXTMAX
 10
-1.000000000000000E+20
 20
-1.000000000000000E+20
 30
-1.000000000000000E+20
  9
$PLIMMIN
 10
0.0
 20
0.0
  9
$PLIMMAX
 10
12.0
 20
9.0
  9
$UNITMODE
 70
     0
  9
$VISRETAIN
 70
     1
  9
$PLINEGEN
 70
     0
  9
$PSLTSCALE
 70
     1
  0
ENDSEC
  0
SECTION
  2
TABLES
  0
TABLE
  2
VPORT
 70
     1
  0
VPORT
  2
*ACTIVE
 70
     0
 10
0.0
 20
0.0
 11
1.0
 21
1.0
 12
0.0
 22
0.0
 13
0.0
 23
0.0
 14
0.5
 24
0.5
 15
0.5
 25
0.5
 16
0.0
 26
0.0
 36
1.0
 17
-69.50000000000078
 27
46.99999999999761
 37
0.0
 40
124.4399999999951
 41
1.073770491803334
 42
50.0
 43
0.0
 44
0.0
 50
0.0
 51
0.0
 71
     0
 72
   100
 73
     1
 74
     3
 75
     0
 76
     0
 77
     0
 78
     0
  0
ENDTAB
  0
TABLE
  2
LTYPE
 70
     1
  0
LTYPE
  2
CONTINUOUS
 70
     0
  3
Solid line
 72
    65
 73
     0
 40
0.0
  0
ENDTAB
  0
TABLE
  2
LAYER
 70
     2
  0
LAYER
  2
0
 70
     0
 62
     7
  6
CONTINUOUS
  0
LAYER
  2
SIDE_RAIL_MIDDLE
 70
     0
 62
     1
  6
CONTINUOUS
  0
ENDTAB
  0
TABLE
  2
STYLE
 70
     1
  0
STYLE
  2
STANDARD
 70
     0
 40
0.0
 41
1.0
 50
0.0
 71
     0
 42
0.2
  3
txt
  4

  0
ENDTAB
  0
TABLE
  2
VIEW
 70
     0
  0
ENDTAB
  0
TABLE
  2
UCS
 70
     0
  0
ENDTAB
  0
TABLE
  2
APPID
 70
     1
  0
APPID
  2
ACAD
 70
     0
  0
ENDTAB
  0
TABLE
  2
DIMSTYLE
 70
     1
  0
DIMSTYLE
  2
STANDARD
 70
     0
  3

  4

  5

  6

  7

 40
1.0
 41
0.18
 42
0.0625
 43
0.38
 44
0.18
 45
0.0
 46
0.0
 47
0.0
 48
0.0
140
0.18
141
0.09
142
0.0
143
25.4
144
1.0
145
0.0
146
1.0
147
0.09
 71
     0
 72
     0
 73
     1
 74
     1
 75
     0
 76
     0
 77
     0
 78
     0
170
     0
171
     2
172
     0
173
     0
174
     0
175
     0
176
     0
177
     0
178
     0
  0
ENDTAB
  0
ENDSEC
  0
SECTION
  2
BLOCKS
  0
BLOCK
  8
0
  2
$MODEL_SPACE
 70
     0
 10
0.0
 20
0.0
 30
0.0
  3
$MODEL_SPACE
  1

  0
ENDBLK
  5
21
  8
0
  0
BLOCK
 67
     1
  8
0
  2
$PAPER_SPACE
 70
     0
 10
0.0
 20
0.0
 30
0.0
  3
$PAPER_SPACE
  1

  0
ENDBLK
  5
1D
 67
     1
  8
0
  0
ENDSEC
  0
SECTION
  2
ENTITIES
  0
POLYLINE
  5
5E
  8
SIDE_RAIL_MIDDLE
 66
     1
 10
0.0
 20
0.0
 30
0.0
  0
VERTEX
  5
60
  8
SIDE_RAIL_MIDDLE
 10
-36.0
 20
5.75
 30
0.0
  0
VERTEX
  5
61
  8
SIDE_RAIL_MIDDLE
 10
-32.4
 20
5.75
 30
0.0
  0
VERTEX
  5
62
  8
SIDE_RAIL_MIDDLE
 10
-32.4
 20
3.69999999999999
 30
0.0
  0
VERTEX
  5
63
  8
SIDE_RAIL_MIDDLE
 10
-30.2
 20
3.69999999999999
 30
0.0
  0
VERTEX
  5
64
  8
SIDE_RAIL_MIDDLE
 10
-30.2
 20
5.75
 30
0.0
  0
VERTEX
  5
65
  8
SIDE_RAIL_MIDDLE
 10
-28.4
 20
5.75
 30
0.0
  0
VERTEX
  5
66
  8
SIDE_RAIL_MIDDLE
 10
-28.4
 20
8.25
 30
0.0
  0
VERTEX
  5
67
  8
SIDE_RAIL_MIDDLE
 10
-30.2
 20
8.25
 30
0.0
  0
VERTEX
  5
68
  8
SIDE_RAIL_MIDDLE
 10
-30.2
 20
10.30000000000001
 30
0.0
  0
VERTEX
  5
69
  8
SIDE_RAIL_MIDDLE
 10
-32.4
 20
10.30000000000001
 30
0.0
  0
VERTEX
  5
6A
  8
SIDE_RAIL_MIDDLE
 10
-32.4
 20
8.25
 30
0.0
  0
VERTEX
  5
6B
  8
SIDE_RAIL_MIDDLE
 10
-35.99999999999999
 20
8.250000000000007
 30
0.0
  0
SEQEND
  5
5F
  8
SIDE_RAIL_MIDDLE
  0
POLYLINE
  5
6C
  8
SIDE_RAIL_MIDDLE
 66
     1
 10
0.0
 20
0.0
 30
0.0000000000000006
  0
VERTEX
  5
6E
  8
SIDE_RAIL_MIDDLE
 10
-21.75
 20
-8.0
 30
0.0000000000000006
  0
VERTEX
  5
6F
  8
SIDE_RAIL_MIDDLE
 10
-21.75
 20
-4.399999999999977
 30
0.0000000000000006
  0
VERTEX
  5
70
  8
SIDE_RAIL_MIDDLE
 10
-19.69999999999999
 20
-4.399999999999977
 30
0.0000000000000006
  0
VERTEX
  5
71
  8
SIDE_RAIL_MIDDLE
 10
-19.69999999999999
 20
-2.199999999999989
 30
0.0000000000000006
  0
VERTEX
  5
72
  8
SIDE_RAIL_MIDDLE
 10
-21.75
 20
-2.199999999999989
 30
0.0000000000000006
  0
VERTEX
  5
73
  8
SIDE_RAIL_MIDDLE
 10
-21.75
 20
-0.3999999999999773
 30
0.0000000000000006
  0
VERTEX
  5
74
  8
SIDE_RAIL_MIDDLE
 10
-24.25
 20
-0.3999999999999773
 30
0.0000000000000006
  0
VERTEX
  5
75
  8
SIDE_RAIL_MIDDLE
 10
-24.25
 20
-2.199999999999989
 30
0.0000000000000006
  0
VERTEX
  5
76
  8
SIDE_RAIL_MIDDLE
 10
-26.30000000000001
 20
-2.199999999999989
 30
0.0000000000000006
  0
VERTEX
  5
77
  8
SIDE_RAIL_MIDDLE
 10
-26.30000000000001
 20
-4.399999999999977
 30
0.0000000000000006
  0
VERTEX
  5
78
  8
SIDE_RAIL_MIDDLE
 10
-24.25
 20
-4.399999999999977
 30
0.0000000000000006
  0
VERTEX
  5
79
  8
SIDE_RAIL_MIDDLE
 10
-24.25
 20
-8.0
 30
0.0000000000000006
  0
SEQEND
  5
6D
  8
SIDE_RAIL_MIDDLE
  0
POLYLINE
  5
7A
  8
SIDE_RAIL_MIDDLE
 66
     1
 10
0.0
 20
0.0
 30
0.0
  0
VERTEX
  5
7C
  8
SIDE_RAIL_MIDDLE
 10
-10.00000000000034
 20
28.25
 30
0.0
  0
VERTEX
  5
7D
  8
SIDE_RAIL_MIDDLE
 10
-11.8
 20
28.25
 30
0.0
  0
VERTEX
  5
7E
  8
SIDE_RAIL_MIDDLE
 10
-13.6
 20
27.0
 30
0.0
  0
VERTEX
  5
7F
  8
SIDE_RAIL_MIDDLE
 10
-11.8
 20
25.75
 30
0.0
  0
VERTEX
  5
80
  8
SIDE_RAIL_MIDDLE
 10
-10.00000000000029
 20
25.75
 30
0.0
  0
SEQEND
  5
7B
  8
SIDE_RAIL_MIDDLE
  0
POLYLINE
  5
81
  8
SIDE_RAIL_MIDDLE
 66
     1
 10
0.0
 20
0.0
 30
-0.0000000000000001
  0
VERTEX
  5
83
  8
SIDE_RAIL_MIDDLE
 10
-10.0
 20
48.25
 30
-0.0000000000000001
  0
VERTEX
  5
84
  8
SIDE_RAIL_MIDDLE
 10
-13.6
 20
48.25
 30
-0.0000000000000001
  0
VERTEX
  5
85
  8
SIDE_RAIL_MIDDLE
 10
-13.6
 20
50.30000000000001
 30
-0.0000000000000001
  0
VERTEX
  5
86
  8
SIDE_RAIL_MIDDLE
 10
-15.8
 20
50.30000000000001
 30
-0.0000000000000001
  0
VERTEX
  5
87
  8
SIDE_RAIL_MIDDLE
 10
-15.8
 20
48.25
 30
-0.0000000000000001
  0
VERTEX
  5
88
  8
SIDE_RAIL_MIDDLE
 10
-17.6
 20
48.25
 30
-0.0000000000000001
  0
VERTEX
  5
89
  8
SIDE_RAIL_MIDDLE
 10
-17.6
 20
45.75
 30
-0.0000000000000001
  0
VERTEX
  5
8A
  8
SIDE_RAIL_MIDDLE
 10
-15.8
 20
45.75
 30
-0.0000000000000001
  0
VERTEX
  5
8B
  8
SIDE_RAIL_MIDDLE
 10
-15.8
 20
43.69999999999999
 30
-0.0000000000000001
  0
VERTEX
  5
8C
  8
SIDE_RAIL_MIDDLE
 10
-13.6
 20
43.69999999999999
 30
-0.0000000000000001
  0
VERTEX
  5
8D
  8
SIDE_RAIL_MIDDLE
 10
-13.6
 20
45.75
 30
-0.0000000000000001
  0
VERTEX
  5
8E
  8
SIDE_RAIL_MIDDLE
 10
-10.00000000000295
 20
45.75
 30
-0.0000000000000001
  0
SEQEND
  5
82
  8
SIDE_RAIL_MIDDLE
  0
POLYLINE
  5
8F
  8
SIDE_RAIL_MIDDLE
 66
     1
 10
0.0
 20
0.0
 30
0.0
  0
VERTEX
  5
91
  8
SIDE_RAIL_MIDDLE
 10
-10.00000000000034
 20
68.25
 30
0.0
  0
VERTEX
  5
92
  8
SIDE_RAIL_MIDDLE
 10
-11.8
 20
68.25
 30
0.0
  0
VERTEX
  5
93
  8
SIDE_RAIL_MIDDLE
 10
-13.6
 20
67.0
 30
0.0
  0
VERTEX
  5
94
  8
SIDE_RAIL_MIDDLE
 10
-11.8
 20
65.75
 30
0.0
  0
VERTEX
  5
95
  8
SIDE_RAIL_MIDDLE
 10
-10.00000000000029
 20
65.75
 30
0.0
  0
SEQEND
  5
90
  8
SIDE_RAIL_MIDDLE
  0
POLYLINE
  5
96
  8
SIDE_RAIL_MIDDLE
 66
     1
 10
0.0
 20
0.0
 30
-0.0000000000000001
  0
VERTEX
  5
98
  8
SIDE_RAIL_MIDDLE
 10
-10.0
 20
88.25
 30
-0.0000000000000001
  0
VERTEX
  5
99
  8
SIDE_RAIL_MIDDLE
 10
-13.6
 20
88.25
 30
-0.0000000000000001
  0
VERTEX
  5
9A
  8
SIDE_RAIL_MIDDLE
 10
-13.6
 20
90.30000000000001
 30
-0.0000000000000001
  0
VERTEX
  5
9B
  8
SIDE_RAIL_MIDDLE
 10
-15.8
 20
90.30000000000001
 30
-0.0000000000000001
  0
VERTEX
  5
9C
  8
SIDE_RAIL_MIDDLE
 10
-15.8
 20
88.25
 30
-0.0000000000000001
  0
VERTEX
  5
9D
  8
SIDE_RAIL_MIDDLE
 10
-17.6
 20
88.25
 30
-0.0000000000000001
  0
VERTEX
  5
9E
  8
SIDE_RAIL_MIDDLE
 10
-17.6
 20
85.75
 30
-0.0000000000000001
  0
VERTEX
  5
9F
  8
SIDE_RAIL_MIDDLE
 10
-15.8
 20
85.75
 30
-0.0000000000000001
  0
VERTEX
  5
A0
  8
SIDE_RAIL_MIDDLE
 10
-15.8
 20
83.69999999999999
 30
-0.0000000000000001
  0
VERTEX
  5
A1
  8
SIDE_RAIL_MIDDLE
 10
-13.6
 20
83.69999999999999
 30
-0.0000000000000001
  0
VERTEX
  5
A2
  8
SIDE_RAIL_MIDDLE
 10
-13.6
 20
85.75
 30
-0.0000000000000001
  0
VERTEX
  5
A3
  8
SIDE_RAIL_MIDDLE
 10
-10.00000000000295
 20
85.75
 30
-0.0000000000000001
  0
SEQEND
  5
97
  8
SIDE_RAIL_MIDDLE
  0
POLYLINE
  5
A4
  8
SIDE_RAIL_MIDDLE
 66
     1
 10
0.0
 20
0.0
 30
0.0
  0
VERTEX
  5
A6
  8
SIDE_RAIL_MIDDLE
 10
-87.00000000000122
 20
85.75
 30
0.0
  0
VERTEX
  5
A7
  8
SIDE_RAIL_MIDDLE
 10
-83.40000000000417
 20
85.75
 30
0.0
  0
VERTEX
  5
A8
  8
SIDE_RAIL_MIDDLE
 10
-83.40000000000417
 20
83.69999999999999
 30
0.0
  0
VERTEX
  5
A9
  8
SIDE_RAIL_MIDDLE
 10
-81.20000000000417
 20
83.69999999999999
 30
0.0
  0
VERTEX
  5
AA
  8
SIDE_RAIL_MIDDLE
 10
-81.20000000000417
 20
85.75
 30
0.0
  0
VERTEX
  5
AB
  8
SIDE_RAIL_MIDDLE
 10
-79.40000000000417
 20
85.75
 30
0.0
  0
VERTEX
  5
AC
  8
SIDE_RAIL_MIDDLE
 10
-79.40000000000417
 20
88.25
 30
0.0
  0
VERTEX
  5
AD
  8
SIDE_RAIL_MIDDLE
 10
-81.20000000000417
 20
88.25
 30
0.0
  0
VERTEX
  5
AE
  8
SIDE_RAIL_MIDDLE
 10
-81.20000000000418
 20
90.30000000000001
 30
0.0
  0
VERTEX
  5
AF
  8
SIDE_RAIL_MIDDLE
 10
-83.40000000000417
 20
90.30000000000001
 30
0.0
  0
VERTEX
  5
B0
  8
SIDE_RAIL_MIDDLE
 10
-83.40000000000417
 20
88.25
 30
0.0
  0
VERTEX
  5
B1
  8
SIDE_RAIL_MIDDLE
 10
-87.00000000000418
 20
88.25
 30
0.0
  0
SEQEND
  5
A5
  8
SIDE_RAIL_MIDDLE
  0
POLYLINE
  5
B2
  8
SIDE_RAIL_MIDDLE
 66
     1
 10
0.0
 20
0.0
 30
0.0000000000000008
  0
VERTEX
  5
B4
  8
SIDE_RAIL_MIDDLE
 10
-75.25
 20
102.0
 30
0.0000000000000008
  0
VERTEX
  5
B5
  8
SIDE_RAIL_MIDDLE
 10
-75.25
 20
98.4
 30
0.0000000000000008
  0
VERTEX
  5
B6
  8
SIDE_RAIL_MIDDLE
 10
-77.30000000000001
 20
98.4
 30
0.0000000000000008
  0
VERTEX
  5
B7
  8
SIDE_RAIL_MIDDLE
 10
-77.30000000000001
 20
96.19999999999999
 30
0.0000000000000008
  0
VERTEX
  5
B8
  8
SIDE_RAIL_MIDDLE
 10
-75.25
 20
96.19999999999999
 30
0.0000000000000008
  0
VERTEX
  5
B9
  8
SIDE_RAIL_MIDDLE
 10
-75.25
 20
94.4
 30
0.0000000000000008
  0
VERTEX
  5
BA
  8
SIDE_RAIL_MIDDLE
 10
-72.75
 20
94.4
 30
0.0000000000000008
  0
VERTEX
  5
BB
  8
SIDE_RAIL_MIDDLE
 10
-72.75
 20
96.19999999999999
 30
0.0000000000000008
  0
VERTEX
  5
BC
  8
SIDE_RAIL_MIDDLE
 10
-70.69999999999999
 20
96.19999999999999
 30
0.0000000000000008
  0
VERTEX
  5
BD
  8
SIDE_RAIL_MIDDLE
 10
-70.69999999999999
 20
98.4
 30
0.0000000000000008
  0
VERTEX
  5
BE
  8
SIDE_RAIL_MIDDLE
 10
-72.75
 20
98.4
 30
0.0000000000000008
  0
VERTEX
  5
BF
  8
SIDE_RAIL_MIDDLE
 10
-72.75
 20
101.9999999999971
 30
0.0000000000000008
  0
SEQEND
  5
B3
  8
SIDE_RAIL_MIDDLE
  0
POLYLINE
  5
C0
  8
SIDE_RAIL_MIDDLE
 66
     1
 10
0.0
 20
0.0
 30
0.0
  0
VERTEX
  5
C2
  8
SIDE_RAIL_MIDDLE
 10
-36.0
 20
-2.0
 30
0.0
  0
VERTEX
  5
C3
  8
SIDE_RAIL_MIDDLE
 10
-36.0
 20
73.0
 30
0.0
  0
VERTEX
  5
C4
  8
SIDE_RAIL_MIDDLE
 10
-87.0
 20
73.0
 30
0.0
  0
VERTEX
  5
C5
  8
SIDE_RAIL_MIDDLE
 10
-87.00000000000145
 20
95.9999999999983
 30
0.0
  0
VERTEX
  5
C6
  8
SIDE_RAIL_MIDDLE
 10
-95.00000000000145
 20
96.00000000000381
 30
0.0
  0
VERTEX
  5
C7
  8
SIDE_RAIL_MIDDLE
 10
-95.00000000000145
 20
104.9999999999952
 30
0.0
  0
VERTEX
  5
C8
  8
SIDE_RAIL_MIDDLE
 10
-81.0
 20
105.0
 30
0.0
  0
VERTEX
  5
C9
  8
SIDE_RAIL_MIDDLE
 10
-81.0
 20
102.0000000000018
 30
0.0
  0
VERTEX
  5
CA
  8
SIDE_RAIL_MIDDLE
 10
-68.0
 20
102.0
 30
0.0
  0
VERTEX
  5
CB
  8
SIDE_RAIL_MIDDLE
 10
-67.99999999999994
 20
105.0000000000002
 30
0.0
 42
-0.4142135623731094
  0
VERTEX
  5
CC
  8
SIDE_RAIL_MIDDLE
 10
-65.99999999999977
 20
107.0
 30
0.0
  0
VERTEX
  5
CD
  8
SIDE_RAIL_MIDDLE
 10
-10.0
 20
107.0
 30
0.0
 42
-0.4142135623731127
  0
VERTEX
  5
CE
  8
SIDE_RAIL_MIDDLE
 10
-7.999999999999997
 20
105.0
 30
0.0
  0
VERTEX
  5
CF
  8
SIDE_RAIL_MIDDLE
 10
-7.999999999999998
 20
99.0
 30
0.0
  0
VERTEX
  5
D0
  8
SIDE_RAIL_MIDDLE
 10
-9.9999999999982
 20
99.0
 30
0.0
  0
VERTEX
  5
D1
  8
SIDE_RAIL_MIDDLE
 10
-10.0
 20
3.5
 30
0.0
  0
VERTEX
  5
D2
  8
SIDE_RAIL_MIDDLE
 10
-9.000000000000007
 20
3.500000000000003
 30
0.0
 42
-0.4142135623730948
  0
VERTEX
  5
D3
  8
SIDE_RAIL_MIDDLE
 10
-4.000000000000005
 20
-1.499999999999994
 30
0.0
  0
VERTEX
  5
D4
  8
SIDE_RAIL_MIDDLE
 10
-3.999999999999996
 20
-9.999999999991225
 30
0.0
 42
-0.4142135623734149
  0
VERTEX
  5
D5
  8
SIDE_RAIL_MIDDLE
 10
-7.999999999995606
 20
-14.0
 30
0.0
  0
VERTEX
  5
D6
  8
SIDE_RAIL_MIDDLE
 10
-15.0
 20
-14.0
 30
0.0
 42
-0.414213562373093
  0
VERTEX
  5
D7
  8
SIDE_RAIL_MIDDLE
 10
-17.0
 20
-12.0
 30
0.0
  0
VERTEX
  5
D8
  8
SIDE_RAIL_MIDDLE
 10
-17.0
 20
-8.0
 30
0.0
  0
VERTEX
  5
D9
  8
SIDE_RAIL_MIDDLE
 10
-30.00000000000293
 20
-8.000000000000227
 30
0.0
  0
VERTEX
  5
DA
  8
SIDE_RAIL_MIDDLE
 10
-30.00000000000059
 20
-11.0
 30
0.0
  0
VERTEX
  5
DB
  8
SIDE_RAIL_MIDDLE
 10
-44.00000000000009
 20
-11.0
 30
0.0
  0
VERTEX
  5
DC
  8
SIDE_RAIL_MIDDLE
 10
-44.00000000000009
 20
-2.0
 30
0.0
  0
VERTEX
  5
DD
  8
SIDE_RAIL_MIDDLE
 10
-36.0
 20
-2.0
 30
0.0
  0
SEQEND
  5
C1
  8
SIDE_RAIL_MIDDLE
  0
POLYLINE
  5
DE
  8
SIDE_RAIL_MIDDLE
 66
     1
 10
0.0
 20
0.0
 30
0.0000000000000008
  0
VERTEX
  5
E0
  8
SIDE_RAIL_MIDDLE
 10
-63.75000000000153
 20
-8.000000000004803
 30
0.0000000000000008
  0
VERTEX
  5
E1
  8
SIDE_RAIL_MIDDLE
 10
-63.75000000000153
 20
-4.400000000004809
 30
0.0000000000000008
  0
VERTEX
  5
E2
  8
SIDE_RAIL_MIDDLE
 10
-61.70000000000152
 20
-4.400000000004809
 30
0.0000000000000008
  0
VERTEX
  5
E3
  8
SIDE_RAIL_MIDDLE
 10
-61.70000000000152
 20
-2.200000000004792
 30
0.0000000000000008
  0
VERTEX
  5
E4
  8
SIDE_RAIL_MIDDLE
 10
-63.75000000000153
 20
-2.200000000004792
 30
0.0000000000000008
  0
VERTEX
  5
E5
  8
SIDE_RAIL_MIDDLE
 10
-63.75000000000153
 20
-0.400000000004809
 30
0.0000000000000008
  0
VERTEX
  5
E6
  8
SIDE_RAIL_MIDDLE
 10
-66.25000000000153
 20
-0.400000000004809
 30
0.0000000000000008
  0
VERTEX
  5
E7
  8
SIDE_RAIL_MIDDLE
 10
-66.25000000000153
 20
-2.200000000004792
 30
0.0000000000000008
  0
VERTEX
  5
E8
  8
SIDE_RAIL_MIDDLE
 10
-68.30000000000155
 20
-2.200000000004792
 30
0.0000000000000008
  0
VERTEX
  5
E9
  8
SIDE_RAIL_MIDDLE
 10
-68.30000000000155
 20
-4.400000000004809
 30
0.0000000000000008
  0
VERTEX
  5
EA
  8
SIDE_RAIL_MIDDLE
 10
-66.25000000000153
 20
-4.400000000004809
 30
0.0000000000000008
  0
VERTEX
  5
EB
  8
SIDE_RAIL_MIDDLE
 10
-66.25000000000153
 20
-8.000000000001904
 30
0.0000000000000008
  0
SEQEND
  5
DF
  8
SIDE_RAIL_MIDDLE
  0
POLYLINE
  5
EC
  8
SIDE_RAIL_MIDDLE
 66
     1
 10
0.0
 20
0.0
 30
0.0
  0
VERTEX
  5
EE
  8
SIDE_RAIL_MIDDLE
 10
-129.0000000000015
 20
85.7499999999952
 30
0.0
  0
VERTEX
  5
EF
  8
SIDE_RAIL_MIDDLE
 10
-125.4000000000015
 20
85.7499999999952
 30
0.0
  0
VERTEX
  5
F0
  8
SIDE_RAIL_MIDDLE
 10
-125.4000000000015
 20
83.69999999999519
 30
0.0
  0
VERTEX
  5
F1
  8
SIDE_RAIL_MIDDLE
 10
-123.2000000000015
 20
83.69999999999519
 30
0.0
  0
VERTEX
  5
F2
  8
SIDE_RAIL_MIDDLE
 10
-123.2000000000015
 20
85.7499999999952
 30
0.0
  0
VERTEX
  5
F3
  8
SIDE_RAIL_MIDDLE
 10
-121.4000000000015
 20
85.7499999999952
 30
0.0
  0
VERTEX
  5
F4
  8
SIDE_RAIL_MIDDLE
 10
-121.4000000000015
 20
88.2499999999952
 30
0.0
  0
VERTEX
  5
F5
  8
SIDE_RAIL_MIDDLE
 10
-123.2000000000015
 20
88.2499999999952
 30
0.0
  0
VERTEX
  5
F6
  8
SIDE_RAIL_MIDDLE
 10
-123.2000000000015
 20
90.29999999999521
 30
0.0
  0
VERTEX
  5
F7
  8
SIDE_RAIL_MIDDLE
 10
-125.4000000000015
 20
90.29999999999521
 30
0.0
  0
VERTEX
  5
F8
  8
SIDE_RAIL_MIDDLE
 10
-125.4000000000015
 20
88.2499999999952
 30
0.0
  0
VERTEX
  5
F9
  8
SIDE_RAIL_MIDDLE
 10
-129.0000000000015
 20
88.2499999999952
 30
0.0
  0
SEQEND
  5
ED
  8
SIDE_RAIL_MIDDLE
  0
POLYLINE
  5
FA
  8
SIDE_RAIL_MIDDLE
 66
     1
 10
0.0
 20
0.0
 30
0.0
  0
VERTEX
  5
FC
  8
SIDE_RAIL_MIDDLE
 10
-129.0000000000015
 20
-13.0000000000048
 30
0.0
 42
-0.4142135623731106
  0
VERTEX
  5
FD
  8
SIDE_RAIL_MIDDLE
 10
-131.0000000000015
 20
-11.0000000000048
 30
0.0
  0
VERTEX
  5
FE
  8
SIDE_RAIL_MIDDLE
 10
-131.0000000000015
 20
-5.000000000004803
 30
0.0
  0
VERTEX
  5
FF
  8
SIDE_RAIL_MIDDLE
 10
-129.0000000000033
 20
-5.000000000004803
 30
0.0
  0
VERTEX
  5
100
  8
SIDE_RAIL_MIDDLE
 10
-129.0000000000015
 20
90.4999999999952
 30
0.0
  0
VERTEX
  5
101
  8
SIDE_RAIL_MIDDLE
 10
-130.0000000000015
 20
90.4999999999952
 30
0.0
 42
-0.414213562373095
  0
VERTEX
  5
102
  8
SIDE_RAIL_MIDDLE
 10
-135.0000000000015
 20
95.4999999999952
 30
0.0
  0
VERTEX
  5
103
  8
SIDE_RAIL_MIDDLE
 10
-135.0000000000015
 20
103.9999999999865
 30
0.0
 42
-0.4142135623734093
  0
VERTEX
  5
104
  8
SIDE_RAIL_MIDDLE
 10
-131.0000000000059
 20
107.9999999999952
 30
0.0
  0
VERTEX
  5
105
  8
SIDE_RAIL_MIDDLE
 10
-124.0000000000015
 20
107.9999999999952
 30
0.0
 42
-0.4142135623730951
  0
VERTEX
  5
106
  8
SIDE_RAIL_MIDDLE
 10
-122.0000000000015
 20
105.9999999999952
 30
0.0
  0
VERTEX
  5
107
  8
SIDE_RAIL_MIDDLE
 10
-122.0000000000015
 20
101.9999999999952
 30
0.0
  0
VERTEX
  5
108
  8
SIDE_RAIL_MIDDLE
 10
-108.9999999999986
 20
101.9999999999954
 30
0.0
  0
VERTEX
  5
109
  8
SIDE_RAIL_MIDDLE
 10
-109.0000000000009
 20
104.9999999999952
 30
0.0
  0
VERTEX
  5
10A
  8
SIDE_RAIL_MIDDLE
 10
-95.00000000000145
 20
104.9999999999952
 30
0.0
  0
VERTEX
  5
10B
  8
SIDE_RAIL_MIDDLE
 10
-95.00000000000145
 20
95.9999999999952
 30
0.0
  0
VERTEX
  5
10C
  8
SIDE_RAIL_MIDDLE
 10
-103.0000000000015
 20
95.9999999999952
 30
0.0
  0
VERTEX
  5
10D
  8
SIDE_RAIL_MIDDLE
 10
-103.0000000000015
 20
20.9999999999952
 30
0.0
  0
VERTEX
  5
10E
  8
SIDE_RAIL_MIDDLE
 10
-52.00000000000153
 20
20.9999999999952
 30
0.0
  0
VERTEX
  5
10F
  8
SIDE_RAIL_MIDDLE
 10
-52.00000000000009
 20
-2.000000000003098
 30
0.0
  0
VERTEX
  5
110
  8
SIDE_RAIL_MIDDLE
 10
-44.00000000000009
 20
-2.000000000008612
 30
0.0
  0
VERTEX
  5
111
  8
SIDE_RAIL_MIDDLE
 10
-44.00000000000009
 20
-11.0
 30
0.0
  0
VERTEX
  5
112
  8
SIDE_RAIL_MIDDLE
 10
-58.00000000000153
 20
-11.0000000000048
 30
0.0
  0
VERTEX
  5
113
  8
SIDE_RAIL_MIDDLE
 10
-58.00000000000153
 20
-8.000000000006594
 30
0.0
  0
VERTEX
  5
114
  8
SIDE_RAIL_MIDDLE
 10
-71.00000000000153
 20
-8.000000000004803
 30
0.0
  0
VERTEX
  5
115
  8
SIDE_RAIL_MIDDLE
 10
-71.00000000000159
 20
-11.000000000005
 30
0.0
 42
-0.4142135623731071
  0
VERTEX
  5
116
  8
SIDE_RAIL_MIDDLE
 10
-73.00000000000176
 20
-13.0000000000048
 30
0.0
  0
VERTEX
  5
117
  8
SIDE_RAIL_MIDDLE
 10
-129.0000000000015
 20
-13.0000000000048
 30
0.0
  0
SEQEND
  5
FB
  8
SIDE_RAIL_MIDDLE
  0
POLYLINE
  5
118
  8
SIDE_RAIL_MIDDLE
 66
     1
 10
0.0
 20
0.0
 30
0.0
  0
VERTEX
  5
11A
  8
SIDE_RAIL_MIDDLE
 10
-52.00000000000031
 20
8.249999999995197
 30
0.0
  0
VERTEX
  5
11B
  8
SIDE_RAIL_MIDDLE
 10
-55.59999999999737
 20
8.249999999995197
 30
0.0
  0
VERTEX
  5
11C
  8
SIDE_RAIL_MIDDLE
 10
-55.59999999999737
 20
10.29999999999521
 30
0.0
  0
VERTEX
  5
11D
  8
SIDE_RAIL_MIDDLE
 10
-57.79999999999737
 20
10.29999999999521
 30
0.0
  0
VERTEX
  5
11E
  8
SIDE_RAIL_MIDDLE
 10
-57.79999999999737
 20
8.249999999995197
 30
0.0
  0
VERTEX
  5
11F
  8
SIDE_RAIL_MIDDLE
 10
-59.59999999999737
 20
8.249999999995197
 30
0.0
  0
VERTEX
  5
120
  8
SIDE_RAIL_MIDDLE
 10
-59.59999999999737
 20
5.749999999995197
 30
0.0
  0
VERTEX
  5
121
  8
SIDE_RAIL_MIDDLE
 10
-57.79999999999737
 20
5.749999999995197
 30
0.0
  0
VERTEX
  5
122
  8
SIDE_RAIL_MIDDLE
 10
-57.79999999999735
 20
3.699999999995185
 30
0.0
  0
VERTEX
  5
123
  8
SIDE_RAIL_MIDDLE
 10
-55.59999999999737
 20
3.699999999995185
 30
0.0
  0
VERTEX
  5
124
  8
SIDE_RAIL_MIDDLE
 10
-55.59999999999737
 20
5.749999999995197
 30
0.0
  0
VERTEX
  5
125
  8
SIDE_RAIL_MIDDLE
 10
-51.99999999999736
 20
5.749999999995197
 30
0.0
  0
SEQEND
  5
119
  8
SIDE_RAIL_MIDDLE
  0
POLYLINE
  5
126
  8
SIDE_RAIL_MIDDLE
 66
     1
 10
0.0
 20
0.0
 30
0.0000000000000006
  0
VERTEX
  5
128
  8
SIDE_RAIL_MIDDLE
 10
-117.2500000000015
 20
101.9999999999952
 30
0.0000000000000006
  0
VERTEX
  5
129
  8
SIDE_RAIL_MIDDLE
 10
-117.2500000000015
 20
98.39999999999517
 30
0.0000000000000006
  0
VERTEX
  5
12A
  8
SIDE_RAIL_MIDDLE
 10
-119.3000000000015
 20
98.39999999999517
 30
0.0000000000000006
  0
VERTEX
  5
12B
  8
SIDE_RAIL_MIDDLE
 10
-119.3000000000015
 20
96.19999999999519
 30
0.0000000000000006
  0
VERTEX
  5
12C
  8
SIDE_RAIL_MIDDLE
 10
-117.2500000000015
 20
96.19999999999519
 30
0.0000000000000006
  0
VERTEX
  5
12D
  8
SIDE_RAIL_MIDDLE
 10
-117.2500000000015
 20
94.39999999999517
 30
0.0000000000000006
  0
VERTEX
  5
12E
  8
SIDE_RAIL_MIDDLE
 10
-114.7500000000015
 20
94.39999999999517
 30
0.0000000000000006
  0
VERTEX
  5
12F
  8
SIDE_RAIL_MIDDLE
 10
-114.7500000000015
 20
96.19999999999519
 30
0.0000000000000006
  0
VERTEX
  5
130
  8
SIDE_RAIL_MIDDLE
 10
-112.7000000000015
 20
96.19999999999519
 30
0.0000000000000006
  0
VERTEX
  5
131
  8
SIDE_RAIL_MIDDLE
 10
-112.7000000000015
 20
98.39999999999517
 30
0.0000000000000006
  0
VERTEX
  5
132
  8
SIDE_RAIL_MIDDLE
 10
-114.7500000000015
 20
98.39999999999517
 30
0.0000000000000006
  0
VERTEX
  5
133
  8
SIDE_RAIL_MIDDLE
 10
-114.7500000000015
 20
101.9999999999952
 30
0.0000000000000006
  0
SEQEND
  5
127
  8
SIDE_RAIL_MIDDLE
  0
POLYLINE
  5
134
  8
SIDE_RAIL_MIDDLE
 66
     1
 10
0.0
 20
0.0
 30
0.0
  0
VERTEX
  5
136
  8
SIDE_RAIL_MIDDLE
 10
-103.0000000000015
 20
88.2499999999952
 30
0.0
  0
VERTEX
  5
137
  8
SIDE_RAIL_MIDDLE
 10
-106.6000000000015
 20
88.2499999999952
 30
0.0
  0
VERTEX
  5
138
  8
SIDE_RAIL_MIDDLE
 10
-106.6000000000015
 20
90.29999999999521
 30
0.0
  0
VERTEX
  5
139
  8
SIDE_RAIL_MIDDLE
 10
-108.8000000000015
 20
90.29999999999521
 30
0.0
  0
VERTEX
  5
13A
  8
SIDE_RAIL_MIDDLE
 10
-108.8000000000015
 20
88.2499999999952
 30
0.0
  0
VERTEX
  5
13B
  8
SIDE_RAIL_MIDDLE
 10
-110.6000000000015
 20
88.2499999999952
 30
0.0
  0
VERTEX
  5
13C
  8
SIDE_RAIL_MIDDLE
 10
-110.6000000000015
 20
85.7499999999952
 30
0.0
  0
VERTEX
  5
13D
  8
SIDE_RAIL_MIDDLE
 10
-108.8000000000015
 20
85.7499999999952
 30
0.0
  0
VERTEX
  5
13E
  8
SIDE_RAIL_MIDDLE
 10
-108.8000000000015
 20
83.69999999999519
 30
0.0
  0
VERTEX
  5
13F
  8
SIDE_RAIL_MIDDLE
 10
-106.6000000000015
 20
83.69999999999519
 30
0.0
  0
VERTEX
  5
140
  8
SIDE_RAIL_MIDDLE
 10
-106.6000000000015
 20
85.7499999999952
 30
0.0
  0
VERTEX
  5
141
  8
SIDE_RAIL_MIDDLE
 10
-103.0000000000015
 20
85.7499999999952
 30
0.0
  0
SEQEND
  5
135
  8
SIDE_RAIL_MIDDLE
  0
POLYLINE
  5
142
  8
SIDE_RAIL_MIDDLE
 66
     1
 10
0.0
 20
0.0
 30
-0.0000000000000001
  0
VERTEX
  5
144
  8
SIDE_RAIL_MIDDLE
 10
-129.0000000000015
 20
45.7499999999952
 30
-0.0000000000000001
  0
VERTEX
  5
145
  8
SIDE_RAIL_MIDDLE
 10
-125.4000000000015
 20
45.7499999999952
 30
-0.0000000000000001
  0
VERTEX
  5
146
  8
SIDE_RAIL_MIDDLE
 10
-125.4000000000015
 20
43.69999999999519
 30
-0.0000000000000001
  0
VERTEX
  5
147
  8
SIDE_RAIL_MIDDLE
 10
-123.2000000000015
 20
43.69999999999519
 30
-0.0000000000000001
  0
VERTEX
  5
148
  8
SIDE_RAIL_MIDDLE
 10
-123.2000000000015
 20
45.7499999999952
 30
-0.0000000000000001
  0
VERTEX
  5
149
  8
SIDE_RAIL_MIDDLE
 10
-121.4000000000015
 20
45.7499999999952
 30
-0.0000000000000001
  0
VERTEX
  5
14A
  8
SIDE_RAIL_MIDDLE
 10
-121.4000000000015
 20
48.2499999999952
 30
-0.0000000000000001
  0
VERTEX
  5
14B
  8
SIDE_RAIL_MIDDLE
 10
-123.2000000000015
 20
48.2499999999952
 30
-0.0000000000000001
  0
VERTEX
  5
14C
  8
SIDE_RAIL_MIDDLE
 10
-123.2000000000015
 20
50.29999999999521
 30
-0.0000000000000001
  0
VERTEX
  5
14D
  8
SIDE_RAIL_MIDDLE
 10
-125.4000000000015
 20
50.29999999999521
 30
-0.0000000000000001
  0
VERTEX
  5
14E
  8
SIDE_RAIL_MIDDLE
 10
-125.4000000000015
 20
48.2499999999952
 30
-0.0000000000000001
  0
VERTEX
  5
14F
  8
SIDE_RAIL_MIDDLE
 10
-128.9999999999986
 20
48.2499999999952
 30
-0.0000000000000001
  0
SEQEND
  5
143
  8
SIDE_RAIL_MIDDLE
  0
POLYLINE
  5
150
  8
SIDE_RAIL_MIDDLE
 66
     1
 10
0.0
 20
0.0
 30
0.0
  0
VERTEX
  5
152
  8
SIDE_RAIL_MIDDLE
 10
-129.0000000000012
 20
65.7499999999952
 30
0.0
  0
VERTEX
  5
153
  8
SIDE_RAIL_MIDDLE
 10
-127.2000000000015
 20
65.7499999999952
 30
0.0
  0
VERTEX
  5
154
  8
SIDE_RAIL_MIDDLE
 10
-125.4000000000015
 20
66.9999999999952
 30
0.0
  0
VERTEX
  5
155
  8
SIDE_RAIL_MIDDLE
 10
-127.2000000000015
 20
68.2499999999952
 30
0.0
  0
VERTEX
  5
156
  8
SIDE_RAIL_MIDDLE
 10
-129.0000000000013
 20
68.2499999999952
 30
0.0
  0
SEQEND
  5
151
  8
SIDE_RAIL_MIDDLE
  0
POLYLINE
  5
157
  8
SIDE_RAIL_MIDDLE
 66
     1
 10
0.0
 20
0.0
 30
0.0
  0
VERTEX
  5
159
  8
SIDE_RAIL_MIDDLE
 10
-129.0000000000012
 20
25.7499999999952
 30
0.0
  0
VERTEX
  5
15A
  8
SIDE_RAIL_MIDDLE
 10
-127.2000000000015
 20
25.7499999999952
 30
0.0
  0
VERTEX
  5
15B
  8
SIDE_RAIL_MIDDLE
 10
-125.4000000000015
 20
26.9999999999952
 30
0.0
  0
VERTEX
  5
15C
  8
SIDE_RAIL_MIDDLE
 10
-127.2000000000015
 20
28.2499999999952
 30
0.0
  0
VERTEX
  5
15D
  8
SIDE_RAIL_MIDDLE
 10
-129.0000000000013
 20
28.2499999999952
 30
0.0
  0
SEQEND
  5
158
  8
SIDE_RAIL_MIDDLE
  0
POLYLINE
  5
15E
  8
SIDE_RAIL_MIDDLE
 66
     1
 10
0.0
 20
0.0
 30
0.0
  0
VERTEX
  5
160
  8
SIDE_RAIL_MIDDLE
 10
-10.0
 20
8.25
 30
0.0
  0
VERTEX
  5
161
  8
SIDE_RAIL_MIDDLE
 10
-13.6
 20
8.25
 30
0.0
  0
VERTEX
  5
162
  8
SIDE_RAIL_MIDDLE
 10
-13.6
 20
10.30000000000001
 30
0.0
  0
VERTEX
  5
163
  8
SIDE_RAIL_MIDDLE
 10
-15.8
 20
10.30000000000001
 30
0.0
  0
VERTEX
  5
164
  8
SIDE_RAIL_MIDDLE
 10
-15.8
 20
8.25
 30
0.0
  0
VERTEX
  5
165
  8
SIDE_RAIL_MIDDLE
 10
-17.6
 20
8.25
 30
0.0
  0
VERTEX
  5
166
  8
SIDE_RAIL_MIDDLE
 10
-17.6
 20
5.75
 30
0.0
  0
VERTEX
  5
167
  8
SIDE_RAIL_MIDDLE
 10
-15.8
 20
5.75
 30
0.0
  0
VERTEX
  5
168
  8
SIDE_RAIL_MIDDLE
 10
-15.8
 20
3.69999999999999
 30
0.0
  0
VERTEX
  5
169
  8
SIDE_RAIL_MIDDLE
 10
-13.6
 20
3.69999999999999
 30
0.0
  0
VERTEX
  5
16A
  8
SIDE_RAIL_MIDDLE
 10
-13.6
 20
5.75
 30
0.0
  0
VERTEX
  5
16B
  8
SIDE_RAIL_MIDDLE
 10
-10.0
 20
5.75
 30
0.0
  0
SEQEND
  5
15F
  8
SIDE_RAIL_MIDDLE
  0
POLYLINE
  5
16C
  8
SIDE_RAIL_MIDDLE
 66
     1
 10
0.0
 20
0.0
 30
-0.0000000000000001
  0
VERTEX
  5
16E
  8
SIDE_RAIL_MIDDLE
 10
-129.0000000000015
 20
5.749999999995197
 30
-0.0000000000000001
  0
VERTEX
  5
16F
  8
SIDE_RAIL_MIDDLE
 10
-125.4000000000015
 20
5.749999999995197
 30
-0.0000000000000001
  0
VERTEX
  5
170
  8
SIDE_RAIL_MIDDLE
 10
-125.4000000000015
 20
3.699999999995185
 30
-0.0000000000000001
  0
VERTEX
  5
171
  8
SIDE_RAIL_MIDDLE
 10
-123.2000000000015
 20
3.699999999995185
 30
-0.0000000000000001
  0
VERTEX
  5
172
  8
SIDE_RAIL_MIDDLE
 10
-123.2000000000015
 20
5.749999999995197
 30
-0.0000000000000001
  0
VERTEX
  5
173
  8
SIDE_RAIL_MIDDLE
 10
-121.4000000000015
 20
5.749999999995197
 30
-0.0000000000000001
  0
VERTEX
  5
174
  8
SIDE_RAIL_MIDDLE
 10
-121.4000000000015
 20
8.249999999995197
 30
-0.0000000000000001
  0
VERTEX
  5
175
  8
SIDE_RAIL_MIDDLE
 10
-123.2000000000015
 20
8.249999999995197
 30
-0.0000000000000001
  0
VERTEX
  5
176
  8
SIDE_RAIL_MIDDLE
 10
-123.2000000000015
 20
10.29999999999521
 30
-0.0000000000000001
  0
VERTEX
  5
177
  8
SIDE_RAIL_MIDDLE
 10
-125.4000000000015
 20
10.29999999999521
 30
-0.0000000000000001
  0
VERTEX
  5
178
  8
SIDE_RAIL_MIDDLE
 10
-125.4000000000015
 20
8.249999999995197
 30
-0.0000000000000001
  0
VERTEX
  5
179
  8
SIDE_RAIL_MIDDLE
 10
-128.9999999999986
 20
8.249999999995197
 30
-0.0000000000000001
  0
SEQEND
  5
16D
  8
SIDE_RAIL_MIDDLE
  0
CIRCLE
  5
17A
  8
SIDE_RAIL_MIDDLE
 10
-129.0000000000015
 20
-11.0000000000048
 30
0.0
 40
0.95
  0
CIRCLE
  5
17B
  8
SIDE_RAIL_MIDDLE
 10
-123.4999999999986
 20
30.9999999999952
 30
0.0
 40
1.5
  0
CIRCLE
  5
17C
  8
SIDE_RAIL_MIDDLE
 10
-123.4999999999986
 20
-9.000000000004803
 30
0.0
 40
1.5
  0
CIRCLE
  5
17D
  8
SIDE_RAIL_MIDDLE
 10
-131.6000000000015
 20
95.9999999999952
 30
0.0
 40
0.5
  0
CIRCLE
  5
17E
  8
SIDE_RAIL_MIDDLE
 10
-130.0000000000015
 20
102.9999999999952
 30
0.0
 40
2.95
  0
CIRCLE
  5
17F
  8
SIDE_RAIL_MIDDLE
 10
-15.50000000000295
 20
63.0
 30
0.0
 40
1.5
  0
CIRCLE
  5
180
  8
SIDE_RAIL_MIDDLE
 10
-15.50000000000295
 20
103.0
 30
0.0
 40
1.5
  0
CIRCLE
  5
181
  8
SIDE_RAIL_MIDDLE
 10
-10.0
 20
105.0
 30
0.0
 40
0.95
  0
CIRCLE
  5
182
  8
SIDE_RAIL_MIDDLE
 10
-7.4
 20
-2.0
 30
0.0
 40
0.5
  0
CIRCLE
  5
183
  8
SIDE_RAIL_MIDDLE
 10
-9.0
 20
-9.0
 30
0.0
 40
2.95
  0
ENDSEC
  0
EOF
