  0
SECTION
  2
HEADER
  9
$ACADVER
  1
AC1009
  9
$DWGCODEPAGE
  3
ansi_1252
  9
$INSBASE
 10
0.0
 20
0.0
 30
0.0
  9
$EXTMIN
 10
3.5
 20
2.610389610389611
 30
0.0
  9
$EXTMAX
 10
74.98051948051949
 20
42.5
 30
0.0
  9
$LIMMIN
 10
0.0
 20
0.0
  9
$LIMMAX
 10
12.0
 20
9.0
  9
$ORTHOMODE
 70
     0
  9
$REGENMODE
 70
     1
  9
$FILLMODE
 70
     1
  9
$QTEXTMODE
 70
     0
  9
$MIRRTEXT
 70
     1
  9
$DRAGMODE
 70
     2
  9
$LTSCALE
 40
1.0
  9
$OSMODE
 70
    37
  9
$ATTMODE
 70
     1
  9
$TEXTSIZE
 40
0.2
  9
$TRACEWID
 40
0.05
  9
$TEXTSTYLE
  7
STANDARD
  9
$CLAYER
  8
DEFAULT
  9
$CELTYPE
  6
BYLAYER
  9
$CECOLOR
 62
   256
  9
$DIMSCALE
 40
1.0
  9
$DIMASZ
 40
0.18
  9
$DIMEXO
 40
0.0625
  9
$DIMDLI
 40
0.38
  9
$DIMRND
 40
0.0
  9
$DIMDLE
 40
0.0
  9
$DIMEXE
 40
0.18
  9
$DIMTP
 40
0.0
  9
$DIMTM
 40
0.0
  9
$DIMTXT
 40
0.18
  9
$DIMCEN
 40
0.09
  9
$DIMTSZ
 40
0.0
  9
$DIMTOL
 70
     0
  9
$DIMLIM
 70
     0
  9
$DIMTIH
 70
     1
  9
$DIMTOH
 70
     1
  9
$DIMSE1
 70
     0
  9
$DIMSE2
 70
     0
  9
$DIMTAD
 70
     0
  9
$DIMZIN
 70
     0
  9
$DIMBLK
  1

  9
$DIMASO
 70
     1
  9
$DIMSHO
 70
     1
  9
$DIMPOST
  1

  9
$DIMAPOST
  1

  9
$DIMALT
 70
     0
  9
$DIMALTD
 70
     2
  9
$DIMALTF
 40
25.4
  9
$DIMLFAC
 40
1.0
  9
$DIMTOFL
 70
     0
  9
$DIMTVP
 40
0.0
  9
$DIMTIX
 70
     0
  9
$DIMSOXD
 70
     0
  9
$DIMSAH
 70
     0
  9
$DIMBLK1
  1

  9
$DIMBLK2
  1

  9
$DIMSTYLE
  2
STANDARD
  9
$DIMCLRD
 70
     0
  9
$DIMCLRE
 70
     0
  9
$DIMCLRT
 70
     0
  9
$DIMTFAC
 40
1.0
  9
$DIMGAP
 40
0.09
  9
$LUNITS
 70
     2
  9
$LUPREC
 70
     3
  9
$SKETCHINC
 40
0.1
  9
$FILLETRAD
 40
0.5
  9
$AUNITS
 70
     0
  9
$AUPREC
 70
     0
  9
$MENU
  1
.
  9
$ELEVATION
 40
0.0
  9
$PELEVATION
 40
0.0
  9
$THICKNESS
 40
0.0
  9
$LIMCHECK
 70
     0
  9
$CHAMFERA
 40
0.5
  9
$CHAMFERB
 40
0.5
  9
$SKPOLY
 70
     0
  9
$TDCREATE
 40
2457461.746715764
  9
$TDUPDATE
 40
2457461.788382442
  9
$TDINDWG
 40
0.0000000116
  9
$TDUSRTIMER
 40
0.0000000116
  9
$USRTIMER
 70
     1
  9
$ANGBASE
 50
0.0
  9
$ANGDIR
 70
     0
  9
$PDMODE
 70
     0
  9
$PDSIZE
 40
0.0
  9
$PLINEWID
 40
0.0
  9
$COORDS
 70
     1
  9
$SPLFRAME
 70
     0
  9
$SPLINETYPE
 70
     6
  9
$SPLINESEGS
 70
     8
  9
$ATTDIA
 70
     0
  9
$ATTREQ
 70
     1
  9
$HANDLING
 70
     1
  9
$HANDSEED
  5
22E
  9
$SURFTAB1
 70
     6
  9
$SURFTAB2
 70
     6
  9
$SURFTYPE
 70
     6
  9
$SURFU
 70
     6
  9
$SURFV
 70
     6
  9
$UCSNAME
  2

  9
$UCSORG
 10
0.0
 20
0.0
 30
0.0
  9
$UCSXDIR
 10
1.0
 20
0.0
 30
0.0
  9
$UCSYDIR
 10
0.0
 20
1.0
 30
0.0
  9
$PUCSNAME
  2

  9
$PUCSORG
 10
0.0
 20
0.0
 30
0.0
  9
$PUCSXDIR
 10
1.0
 20
0.0
 30
0.0
  9
$PUCSYDIR
 10
0.0
 20
1.0
 30
0.0
  9
$USERI1
 70
     0
  9
$USERI2
 70
     0
  9
$USERI3
 70
     0
  9
$USERI4
 70
     0
  9
$USERI5
 70
     0
  9
$USERR1
 40
0.0
  9
$USERR2
 40
0.0
  9
$USERR3
 40
0.0
  9
$USERR4
 40
0.0
  9
$USERR5
 40
0.0
  9
$WORLDVIEW
 70
     1
  9
$SHADEDGE
 70
     3
  9
$SHADEDIF
 70
    70
  9
$TILEMODE
 70
     1
  9
$MAXACTVP
 70
    64
  9
$PLIMCHECK
 70
     0
  9
$PEXTMIN
 10
1.000000000000000E+20
 20
1.000000000000000E+20
 30
1.000000000000000E+20
  9
$PEXTMAX
 10
-1.000000000000000E+20
 20
-1.000000000000000E+20
 30
-1.000000000000000E+20
  9
$PLIMMIN
 10
0.0
 20
0.0
  9
$PLIMMAX
 10
12.0
 20
9.0
  9
$UNITMODE
 70
     0
  9
$VISRETAIN
 70
     1
  9
$PLINEGEN
 70
     0
  9
$PSLTSCALE
 70
     1
  0
ENDSEC
  0
SECTION
  2
TABLES
  0
TABLE
  2
VPORT
 70
     2
  0
VPORT
  2
*ACTIVE
 70
     0
 10
0.0
 20
0.0
 11
1.0
 21
1.0
 12
39.24025974025975
 22
22.55519480519481
 13
0.0
 23
0.0
 14
0.5
 24
0.5
 15
0.5
 25
0.5
 16
0.0
 26
0.0
 36
1.0
 17
0.0
 27
0.0
 37
0.0
 40
44.67577142857143
 41
1.6
 42
50.0
 43
0.0
 44
0.0
 50
0.0
 51
0.0
 71
     0
 72
   100
 73
     1
 74
     3
 75
     0
 76
     0
 77
     0
 78
     0
  0
ENDTAB
  0
TABLE
  2
LTYPE
 70
     1
  0
LTYPE
  2
CONTINUOUS
 70
     0
  3
Solid line
 72
    65
 73
     0
 40
0.0
  0
ENDTAB
  0
TABLE
  2
LAYER
 70
     2
  0
LAYER
  2
0
 70
     0
 62
     7
  6
CONTINUOUS
  0
LAYER
  2
DEFAULT
 70
     0
 62
     7
  6
CONTINUOUS
  0
ENDTAB
  0
TABLE
  2
STYLE
 70
     1
  0
STYLE
  2
STANDARD
 70
     0
 40
0.0
 41
1.0
 50
0.0
 71
     0
 42
0.2
  3
txt
  4

  0
ENDTAB
  0
TABLE
  2
VIEW
 70
     0
  0
ENDTAB
  0
TABLE
  2
UCS
 70
     0
  0
ENDTAB
  0
TABLE
  2
APPID
 70
     1
  0
APPID
  2
ACAD
 70
     0
  0
ENDTAB
  0
TABLE
  2
DIMSTYLE
 70
     1
  0
DIMSTYLE
  2
STANDARD
 70
     0
  3

  4

  5

  6

  7

 40
1.0
 41
0.18
 42
0.0625
 43
0.38
 44
0.18
 45
0.0
 46
0.0
 47
0.0
 48
0.0
140
0.18
141
0.09
142
0.0
143
25.4
144
1.0
145
0.0
146
1.0
147
0.09
 71
     0
 72
     0
 73
     1
 74
     1
 75
     0
 76
     0
 77
     0
 78
     0
170
     0
171
     2
172
     0
173
     0
174
     0
175
     0
176
     0
177
     0
178
     0
  0
ENDTAB
  0
ENDSEC
  0
SECTION
  2
BLOCKS
  0
BLOCK
  8
0
  2
$MODEL_SPACE
 70
     0
 10
0.0
 20
0.0
 30
0.0
  3
$MODEL_SPACE
  1

  0
ENDBLK
  5
21
  8
0
  0
BLOCK
 67
     1
  8
0
  2
$PAPER_SPACE
 70
     0
 10
0.0
 20
0.0
 30
0.0
  3
$PAPER_SPACE
  1

  0
ENDBLK
  5
1D
 67
     1
  8
0
  0
BLOCK
  8
0
  2
$PAPER_SPACE0
 70
     0
 10
0.0
 20
0.0
 30
0.0
  3
$PAPER_SPACE0
  1

  0
ENDBLK
  5
25
  8
0
  0
ENDSEC
  0
SECTION
  2
ENTITIES
  0
POLYLINE
  5
2B
  8
DEFAULT
 66
     1
 10
0.0
 20
0.0
 30
0.0
  0
VERTEX
  5
2D
  8
DEFAULT
 10
17.70779220779221
 20
3.0
 30
0.0
  0
VERTEX
  5
2E
  8
DEFAULT
 10
12.16497578868831
 20
11.03875890646319
 30
0.0
  0
VERTEX
  5
2F
  8
DEFAULT
 10
17.51298701298701
 20
18.0
 30
0.0
  0
VERTEX
  5
30
  8
DEFAULT
 10
13.21509870308222
 20
18.0
 30
0.0
  0
VERTEX
  5
31
  8
DEFAULT
 10
8.357142857142858
 20
11.24726155053461
 30
0.0
  0
VERTEX
  5
32
  8
DEFAULT
 10
8.357142857142858
 20
18.0
 30
0.0
  0
VERTEX
  5
33
  8
DEFAULT
 10
4.558441558441558
 20
18.0
 30
0.0
  0
VERTEX
  5
34
  8
DEFAULT
 10
4.558441558441558
 20
3.0
 30
0.0
  0
VERTEX
  5
35
  8
DEFAULT
 10
8.357142857142858
 20
3.0
 30
0.0
  0
VERTEX
  5
36
  8
DEFAULT
 10
8.357142857142858
 20
8.071022820164501
 30
0.0
  0
VERTEX
  5
37
  8
DEFAULT
 10
9.119623795751057
 20
9.131799306209928
 30
0.0
  0
VERTEX
  5
38
  8
DEFAULT
 10
13.21205482546751
 20
3.0
 30
0.0
  0
VERTEX
  5
39
  8
DEFAULT
 10
17.70779220779221
 20
3.0
 30
0.0
  0
SEQEND
  5
2C
  8
DEFAULT
  0
POLYLINE
  5
3A
  8
DEFAULT
 66
     1
 10
0.0
 20
0.0
 30
0.0
  0
VERTEX
  5
3C
  8
DEFAULT
 10
32.90259740259741
 20
3.0
 30
0.0
  0
VERTEX
  5
3D
  8
DEFAULT
 10
27.83461994631599
 20
9.335734647590911
 30
0.0
  0
VERTEX
  5
3E
  8
DEFAULT
 10
28.14876445581771
 20
9.50203978721839
 30
0.0
  0
VERTEX
  5
3F
  8
DEFAULT
 10
28.44666730328495
 20
9.682113484764262
 30
0.0
  0
VERTEX
  5
40
  8
DEFAULT
 10
28.72832848871774
 20
9.875955740228527
 30
0.0
  0
VERTEX
  5
41
  8
DEFAULT
 10
28.99374801211607
 20
10.08356655361118
 30
0.0
  0
VERTEX
  5
42
  8
DEFAULT
 10
29.24292587347993
 20
10.30494592491223
 30
0.0
  0
VERTEX
  5
43
  8
DEFAULT
 10
29.47586207280932
 20
10.54009385413167
 30
0.0
  0
VERTEX
  5
44
  8
DEFAULT
 10
29.69255661010425
 20
10.78901034126951
 30
0.0
  0
VERTEX
  5
45
  8
DEFAULT
 10
29.89300948536472
 20
11.05169538632573
 30
0.0
  0
VERTEX
  5
46
  8
DEFAULT
 10
29.98617031929503
 20
11.18902747167358
 30
0.0
  0
VERTEX
  5
47
  8
DEFAULT
 10
30.07332077684275
 20
11.3314544037017
 30
0.0
  0
VERTEX
  5
48
  8
DEFAULT
 10
30.15446085800786
 20
11.47897618241009
 30
0.0
  0
VERTEX
  5
49
  8
DEFAULT
 10
30.22959056279038
 20
11.63159280779875
 30
0.0
  0
VERTEX
  5
4A
  8
DEFAULT
 10
30.36181884320761
 20
11.95211059861688
 30
0.0
  0
VERTEX
  5
4B
  8
DEFAULT
 10
30.47000561809443
 20
12.2930077761561
 30
0.0
  0
VERTEX
  5
4C
  8
DEFAULT
 10
30.55415088745084
 20
12.65428434041639
 30
0.0
  0
VERTEX
  5
4D
  8
DEFAULT
 10
30.61425465127685
 20
13.03594029139778
 30
0.0
  0
VERTEX
  5
4E
  8
DEFAULT
 10
30.65031690957246
 20
13.43797562910025
 30
0.0
  0
VERTEX
  5
4F
  8
DEFAULT
 10
30.66233766233766
 20
13.8603903535238
 30
0.0
  0
VERTEX
  5
50
  8
DEFAULT
 10
30.65493021691344
 20
14.15994600108349
 30
0.0
  0
VERTEX
  5
51
  8
DEFAULT
 10
30.63270788064076
 20
14.44604223454504
 30
0.0
  0
VERTEX
  5
52
  8
DEFAULT
 10
30.59567065351963
 20
14.71867905390844
 30
0.0
  0
VERTEX
  5
53
  8
DEFAULT
 10
30.54381853555006
 20
14.97785645917369
 30
0.0
  0
VERTEX
  5
54
  8
DEFAULT
 10
30.47715152673203
 20
15.2235744503408
 30
0.0
  0
VERTEX
  5
55
  8
DEFAULT
 10
30.39566962706554
 20
15.45583302740976
 30
0.0
  0
VERTEX
  5
56
  8
DEFAULT
 10
30.29937283655061
 20
15.67463219038057
 30
0.0
  0
VERTEX
  5
57
  8
DEFAULT
 10
30.18826115518723
 20
15.87997193925324
 30
0.0
  0
VERTEX
  5
58
  8
DEFAULT
 10
30.06526761489346
 20
16.07537445681153
 30
0.0
  0
VERTEX
  5
59
  8
DEFAULT
 10
29.93167613258951
 20
16.26174661191199
 30
0.0
  0
VERTEX
  5
5A
  8
DEFAULT
 10
29.78748670827537
 20
16.43908840455462
 30
0.0
  0
VERTEX
  5
5B
  8
DEFAULT
 10
29.63269934195105
 20
16.60739983473943
 30
0.0
  0
VERTEX
  5
5C
  8
DEFAULT
 10
29.46731403361654
 20
16.76668090246642
 30
0.0
  0
VERTEX
  5
5D
  8
DEFAULT
 10
29.29133078327185
 20
16.91693160773557
 30
0.0
  0
VERTEX
  5
5E
  8
DEFAULT
 10
29.10474959091697
 20
17.0581519505469
 30
0.0
  0
VERTEX
  5
5F
  8
DEFAULT
 10
28.90757045655192
 20
17.19034193090041
 30
0.0
  0
VERTEX
  5
60
  8
DEFAULT
 10
28.70866319588943
 20
17.30907515000163
 30
0.0
  0
VERTEX
  5
61
  8
DEFAULT
 10
28.50535665053075
 20
17.41720249737674
 30
0.0
  0
VERTEX
  5
62
  8
DEFAULT
 10
28.29765082047588
 20
17.51472397302571
 30
0.0
  0
VERTEX
  5
63
  8
DEFAULT
 10
28.08554570572481
 20
17.60163957694857
 30
0.0
  0
VERTEX
  5
64
  8
DEFAULT
 10
27.86904130627756
 20
17.67794930914531
 30
0.0
  0
VERTEX
  5
65
  8
DEFAULT
 10
27.64813762213411
 20
17.74365316961592
 30
0.0
  0
VERTEX
  5
66
  8
DEFAULT
 10
27.42283465329447
 20
17.79875115836041
 30
0.0
  0
VERTEX
  5
67
  8
DEFAULT
 10
27.19313239975863
 20
17.84324327537878
 30
0.0
  0
VERTEX
  5
68
  8
DEFAULT
 10
26.70911559043497
 20
17.91182434240056
 30
0.0
  0
VERTEX
  5
69
  8
DEFAULT
 10
26.18467274599971
 20
17.96081081884469
 30
0.0
  0
VERTEX
  5
6A
  8
DEFAULT
 10
25.01450895179437
 20
18.0
 30
0.0
  0
VERTEX
  5
6B
  8
DEFAULT
 10
18.97402597402598
 20
18.0
 30
0.0
  0
VERTEX
  5
6C
  8
DEFAULT
 10
18.97402597402598
 20
3.0
 30
0.0
  0
VERTEX
  5
6D
  8
DEFAULT
 10
22.77272727272727
 20
3.0
 30
0.0
  0
VERTEX
  5
6E
  8
DEFAULT
 10
22.77272727272727
 20
8.454545454545453
 30
0.0
  0
VERTEX
  5
6F
  8
DEFAULT
 10
24.22920190361252
 20
8.454545454545453
 30
0.0
  0
VERTEX
  5
70
  8
DEFAULT
 10
28.41142583669478
 20
3.0
 30
0.0
  0
VERTEX
  5
71
  8
DEFAULT
 10
32.90259740259741
 20
3.0
 30
0.0
  0
SEQEND
  5
3B
  8
DEFAULT
  0
POLYLINE
  5
72
  8
DEFAULT
 66
     1
 10
0.0
 20
0.0
 30
0.0
  0
VERTEX
  5
74
  8
DEFAULT
 10
26.76623376623377
 20
13.41599165311686
 30
0.0
  0
VERTEX
  5
75
  8
DEFAULT
 10
26.76290458315003
 20
13.55620996132358
 30
0.0
  0
VERTEX
  5
76
  8
DEFAULT
 10
26.75291703389881
 20
13.69150581836909
 30
0.0
  0
VERTEX
  5
77
  8
DEFAULT
 10
26.73627111848012
 20
13.82187922425338
 30
0.0
  0
VERTEX
  5
78
  8
DEFAULT
 10
26.71296683689394
 20
13.94733017897644
 30
0.0
  0
VERTEX
  5
79
  8
DEFAULT
 10
26.68300418914028
 20
14.06785868253828
 30
0.0
  0
VERTEX
  5
7A
  8
DEFAULT
 10
26.64638317521915
 20
14.1834647349389
 30
0.0
  0
VERTEX
  5
7B
  8
DEFAULT
 10
26.60310379513054
 20
14.2941483361783
 30
0.0
  0
VERTEX
  5
7C
  8
DEFAULT
 10
26.55316604887445
 20
14.39990948625648
 30
0.0
  0
VERTEX
  5
7D
  8
DEFAULT
 10
26.52571555700624
 20
14.45148069220047
 30
0.0
  0
VERTEX
  5
7E
  8
DEFAULT
 10
26.49601502791033
 20
14.50149610125978
 30
0.0
  0
VERTEX
  5
7F
  8
DEFAULT
 10
26.46406446158671
 20
14.54995571343441
 30
0.0
  0
VERTEX
  5
80
  8
DEFAULT
 10
26.42986385803538
 20
14.59685952872437
 30
0.0
  0
VERTEX
  5
81
  8
DEFAULT
 10
26.39341321725634
 20
14.64220754712965
 30
0.0
  0
VERTEX
  5
82
  8
DEFAULT
 10
26.35471253924958
 20
14.68599976865026
 30
0.0
  0
VERTEX
  5
83
  8
DEFAULT
 10
26.31376182401512
 20
14.72823619328619
 30
0.0
  0
VERTEX
  5
84
  8
DEFAULT
 10
26.27056107155295
 20
14.76891682103744
 30
0.0
  0
VERTEX
  5
85
  8
DEFAULT
 10
26.17740945494547
 20
14.84561068588592
 30
0.0
  0
VERTEX
  5
86
  8
DEFAULT
 10
26.07525768942715
 20
14.91608136319569
 30
0.0
  0
VERTEX
  5
87
  8
DEFAULT
 10
25.96410577499799
 20
14.98032885296676
 30
0.0
  0
VERTEX
  5
88
  8
DEFAULT
 10
25.84395371165799
 20
15.03835315519912
 30
0.0
  0
VERTEX
  5
89
  8
DEFAULT
 10
25.66617520726013
 20
15.10750490282777
 30
0.0
  0
VERTEX
  5
8A
  8
DEFAULT
 10
25.47831385826351
 20
15.1627692375146
 30
0.0
  0
VERTEX
  5
8B
  8
DEFAULT
 10
25.28036966466813
 20
15.2041461592596
 30
0.0
  0
VERTEX
  5
8C
  8
DEFAULT
 10
25.07234262647401
 20
15.23163566806277
 30
0.0
  0
VERTEX
  5
8D
  8
DEFAULT
 10
24.59408041603624
 20
15.26245437156115
 30
0.0
  0
VERTEX
  5
8E
  8
DEFAULT
 10
24.01156762669695
 20
15.27272727272727
 30
0.0
  0
VERTEX
  5
8F
  8
DEFAULT
 10
22.77272727272727
 20
15.27272727272727
 30
0.0
  0
VERTEX
  5
90
  8
DEFAULT
 10
22.77272727272727
 20
11.18181818181818
 30
0.0
  0
VERTEX
  5
91
  8
DEFAULT
 10
23.8335037587727
 20
11.18181818181818
 30
0.0
  0
VERTEX
  5
92
  8
DEFAULT
 10
24.54823330994938
 20
11.20597877460146
 30
0.0
  0
VERTEX
  5
93
  8
DEFAULT
 10
24.86179548092672
 20
11.23617951558056
 30
0.0
  0
VERTEX
  5
94
  8
DEFAULT
 10
25.14615591549673
 20
11.27846055295129
 30
0.0
  0
VERTEX
  5
95
  8
DEFAULT
 10
25.27708060925232
 20
11.30782790204769
 30
0.0
  0
VERTEX
  5
96
  8
DEFAULT
 10
25.40334660521646
 20
11.34356171204477
 30
0.0
  0
VERTEX
  5
97
  8
DEFAULT
 10
25.52495390338916
 20
11.38566198294253
 30
0.0
  0
VERTEX
  5
98
  8
DEFAULT
 10
25.64190250377041
 20
11.43412871474097
 30
0.0
  0
VERTEX
  5
99
  8
DEFAULT
 10
25.75419240636021
 20
11.48896190744009
 30
0.0
  0
VERTEX
  5
9A
  8
DEFAULT
 10
25.86182361115856
 20
11.5501615610399
 30
0.0
  0
VERTEX
  5
9B
  8
DEFAULT
 10
25.96479611816547
 20
11.61772767554039
 30
0.0
  0
VERTEX
  5
9C
  8
DEFAULT
 10
26.06310992738093
 20
11.69166025094155
 30
0.0
  0
VERTEX
  5
9D
  8
DEFAULT
 10
26.14928827252514
 20
11.76493808856228
 30
0.0
  0
VERTEX
  5
9E
  8
DEFAULT
 10
26.22975944003353
 20
11.84171158293526
 30
0.0
  0
VERTEX
  5
9F
  8
DEFAULT
 10
26.3045234299061
 20
11.92198073406051
 30
0.0
  0
VERTEX
  5
A0
  8
DEFAULT
 10
26.37358024214285
 20
12.00574554193803
 30
0.0
  0
VERTEX
  5
A1
  8
DEFAULT
 10
26.43692987674377
 20
12.09300600656782
 30
0.0
  0
VERTEX
  5
A2
  8
DEFAULT
 10
26.49457233370887
 20
12.18376212794987
 30
0.0
  0
VERTEX
  5
A3
  8
DEFAULT
 10
26.54650761303814
 20
12.27801390608419
 30
0.0
  0
VERTEX
  5
A4
  8
DEFAULT
 10
26.5927357147316
 20
12.37576134097077
 30
0.0
  0
VERTEX
  5
A5
  8
DEFAULT
 10
26.63339932055242
 20
12.47907329495293
 30
0.0
  0
VERTEX
  5
A6
  8
DEFAULT
 10
26.6686411122638
 20
12.59001863037398
 30
0.0
  0
VERTEX
  5
A7
  8
DEFAULT
 10
26.69846108986573
 20
12.70859734723391
 30
0.0
  0
VERTEX
  5
A8
  8
DEFAULT
 10
26.72285925335822
 20
12.83480944553273
 30
0.0
  0
VERTEX
  5
A9
  8
DEFAULT
 10
26.74183560274128
 20
12.96865492527043
 30
0.0
  0
VERTEX
  5
AA
  8
DEFAULT
 10
26.75539013801488
 20
13.11013378644702
 30
0.0
  0
VERTEX
  5
AB
  8
DEFAULT
 10
26.76623376623377
 20
13.41599165311686
 30
0.0
  0
SEQEND
  5
73
  8
DEFAULT
  0
POLYLINE
  5
AC
  8
DEFAULT
 66
     1
 10
0.0
 20
0.0
 30
0.0
  0
VERTEX
  5
AE
  8
DEFAULT
 10
40.05712323840042
 20
2.610389610389611
 30
0.0
  0
VERTEX
  5
AF
  8
DEFAULT
 10
40.81137506901859
 20
2.63372962047394
 30
0.0
  0
VERTEX
  5
B0
  8
DEFAULT
 10
41.51797191064257
 20
2.703749650726933
 30
0.0
  0
VERTEX
  5
B1
  8
DEFAULT
 10
42.17691376327238
 20
2.820449701148586
 30
0.0
  0
VERTEX
  5
B2
  8
DEFAULT
 10
42.48851406871447
 20
2.896304733922662
 30
0.0
  0
VERTEX
  5
B3
  8
DEFAULT
 10
42.788200626908
 20
2.983829771738902
 30
0.0
  0
VERTEX
  5
B4
  8
DEFAULT
 10
43.07597343785299
 20
3.083024814597308
 30
0.0
  0
VERTEX
  5
B5
  8
DEFAULT
 10
43.35183250154944
 20
3.19388986249788
 30
0.0
  0
VERTEX
  5
B6
  8
DEFAULT
 10
43.61577781799734
 20
3.316424915440617
 30
0.0
  0
VERTEX
  5
B7
  8
DEFAULT
 10
43.86780938719669
 20
3.45062997342552
 30
0.0
  0
VERTEX
  5
B8
  8
DEFAULT
 10
44.1079272091475
 20
3.596505036452588
 30
0.0
  0
VERTEX
  5
B9
  8
DEFAULT
 10
44.33613128384976
 20
3.754050104521821
 30
0.0
  0
VERTEX
  5
BA
  8
DEFAULT
 10
44.55242161130348
 20
3.92326517763322
 30
0.0
  0
VERTEX
  5
BB
  8
DEFAULT
 10
44.75679819150865
 20
4.104150255786784
 30
0.0
  0
VERTEX
  5
BC
  8
DEFAULT
 10
44.94901728225889
 20
4.295908704943773
 30
0.0
  0
VERTEX
  5
BD
  8
DEFAULT
 10
45.12883514134784
 20
4.497743891065446
 30
0.0
  0
VERTEX
  5
BE
  8
DEFAULT
 10
45.29625176877548
 20
4.709655814151802
 30
0.0
  0
VERTEX
  5
BF
  8
DEFAULT
 10
45.4512671645418
 20
4.931644474202841
 30
0.0
  0
VERTEX
  5
C0
  8
DEFAULT
 10
45.59388132864683
 20
5.163709871218563
 30
0.0
  0
VERTEX
  5
C1
  8
DEFAULT
 10
45.72409426109054
 20
5.405852005198968
 30
0.0
  0
VERTEX
  5
C2
  8
DEFAULT
 10
45.84190596187295
 20
5.658070876144056
 30
0.0
  0
VERTEX
  5
C3
  8
DEFAULT
 10
45.94731643099405
 20
5.920366484053828
 30
0.0
  0
VERTEX
  5
C4
  8
DEFAULT
 10
46.04032566845385
 20
6.192738828928283
 30
0.0
  0
VERTEX
  5
C5
  8
DEFAULT
 10
46.12093367425233
 20
6.475187910767421
 30
0.0
  0
VERTEX
  5
C6
  8
DEFAULT
 10
46.18914044838951
 20
6.767713729571242
 30
0.0
  0
VERTEX
  5
C7
  8
DEFAULT
 10
46.24494599086539
 20
7.070316285339747
 30
0.0
  0
VERTEX
  5
C8
  8
DEFAULT
 10
46.31935338083324
 20
7.705751607770805
 30
0.0
  0
VERTEX
  5
C9
  8
DEFAULT
 10
46.34415584415584
 20
8.381493878060596
 30
0.0
  0
VERTEX
  5
CA
  8
DEFAULT
 10
46.34415584415584
 20
18.0
 30
0.0
  0
VERTEX
  5
CB
  8
DEFAULT
 10
42.54545454545455
 20
18.0
 30
0.0
  0
VERTEX
  5
CC
  8
DEFAULT
 10
42.54545454545455
 20
8.556513868370132
 30
0.0
  0
VERTEX
  5
CD
  8
DEFAULT
 10
42.53604959018008
 20
8.161113128152749
 30
0.0
  0
VERTEX
  5
CE
  8
DEFAULT
 10
42.50783472435667
 20
7.79370135257853
 30
0.0
  0
VERTEX
  5
CF
  8
DEFAULT
 10
42.46080994798432
 20
7.454278541647471
 30
0.0
  0
VERTEX
  5
D0
  8
DEFAULT
 10
42.39497526106304
 20
7.142844695359575
 30
0.0
  0
VERTEX
  5
D1
  8
DEFAULT
 10
42.35500420114654
 20
6.997623633956811
 30
0.0
  0
VERTEX
  5
D2
  8
DEFAULT
 10
42.31033066359282
 20
6.85939981371484
 30
0.0
  0
VERTEX
  5
D3
  8
DEFAULT
 10
42.26095464840185
 20
6.728173234633659
 30
0.0
  0
VERTEX
  5
D4
  8
DEFAULT
 10
42.20687615557365
 20
6.603943896713267
 30
0.0
  0
VERTEX
  5
D5
  8
DEFAULT
 10
42.14809518510822
 20
6.486711799953666
 30
0.0
  0
VERTEX
  5
D6
  8
DEFAULT
 10
42.08461173700555
 20
6.376476944354856
 30
0.0
  0
VERTEX
  5
D7
  8
DEFAULT
 10
42.01642581126565
 20
6.273239329916837
 30
0.0
  0
VERTEX
  5
D8
  8
DEFAULT
 10
41.94353740788852
 20
6.176998956639608
 30
0.0
  0
VERTEX
  5
D9
  8
DEFAULT
 10
41.86563143798045
 20
6.08715538371455
 30
0.0
  0
VERTEX
  5
DA
  8
DEFAULT
 10
41.78239281264771
 20
6.003108170333045
 30
0.0
  0
VERTEX
  5
DB
  8
DEFAULT
 10
41.69382153189031
 20
5.924857316495091
 30
0.0
  0
VERTEX
  5
DC
  8
DEFAULT
 10
41.59991759570826
 20
5.852402822200689
 30
0.0
  0
VERTEX
  5
DD
  8
DEFAULT
 10
41.50068100410155
 20
5.78574468744984
 30
0.0
  0
VERTEX
  5
DE
  8
DEFAULT
 10
41.39611175707019
 20
5.724882912242543
 30
0.0
  0
VERTEX
  5
DF
  8
DEFAULT
 10
41.28620985461416
 20
5.669817496578798
 30
0.0
  0
VERTEX
  5
E0
  8
DEFAULT
 10
41.17097529673349
 20
5.620548440458604
 30
0.0
  0
VERTEX
  5
E1
  8
DEFAULT
 10
41.05040808342815
 20
5.577075743881963
 30
0.0
  0
VERTEX
  5
E2
  8
DEFAULT
 10
40.92450821469816
 20
5.539399406848874
 30
0.0
  0
VERTEX
  5
E3
  8
DEFAULT
 10
40.79327569054351
 20
5.507519429359338
 30
0.0
  0
VERTEX
  5
E4
  8
DEFAULT
 10
40.6567105109642
 20
5.481435811413354
 30
0.0
  0
VERTEX
  5
E5
  8
DEFAULT
 10
40.51481267596024
 20
5.461148553010921
 30
0.0
  0
VERTEX
  5
E6
  8
DEFAULT
 10
40.36758218553162
 20
5.446657654152041
 30
0.0
  0
VERTEX
  5
E7
  8
DEFAULT
 10
40.05712323840042
 20
5.435064935064936
 30
0.0
  0
VERTEX
  5
E8
  8
DEFAULT
 10
39.73983967205118
 20
5.44713326002934
 30
0.0
  0
VERTEX
  5
E9
  8
DEFAULT
 10
39.58978539945228
 20
5.462218666234845
 30
0.0
  0
VERTEX
  5
EA
  8
DEFAULT
 10
39.44545613390387
 20
5.483338234922552
 30
0.0
  0
VERTEX
  5
EB
  8
DEFAULT
 10
39.30685187540594
 20
5.510491966092461
 30
0.0
  0
VERTEX
  5
EC
  8
DEFAULT
 10
39.17397262395851
 20
5.543679859744572
 30
0.0
  0
VERTEX
  5
ED
  8
DEFAULT
 10
39.04681837956155
 20
5.582901915878884
 30
0.0
  0
VERTEX
  5
EE
  8
DEFAULT
 10
38.92538914221508
 20
5.628158134495399
 30
0.0
  0
VERTEX
  5
EF
  8
DEFAULT
 10
38.8096849119191
 20
5.679448515594116
 30
0.0
  0
VERTEX
  5
F0
  8
DEFAULT
 10
38.6997056886736
 20
5.736773059175034
 30
0.0
  0
VERTEX
  5
F1
  8
DEFAULT
 10
38.59545147247859
 20
5.800131765238154
 30
0.0
  0
VERTEX
  5
F2
  8
DEFAULT
 10
38.49692226333406
 20
5.869524633783477
 30
0.0
  0
VERTEX
  5
F3
  8
DEFAULT
 10
38.40411806124001
 20
5.944951664811002
 30
0.0
  0
VERTEX
  5
F4
  8
DEFAULT
 10
38.31703886619646
 20
6.026412858320728
 30
0.0
  0
VERTEX
  5
F5
  8
DEFAULT
 10
38.23568467820339
 20
6.113908214312656
 30
0.0
  0
VERTEX
  5
F6
  8
DEFAULT
 10
38.16005549726081
 20
6.207437732786787
 30
0.0
  0
VERTEX
  5
F7
  8
DEFAULT
 10
38.08956277851276
 20
6.307126248674438
 30
0.0
  0
VERTEX
  5
F8
  8
DEFAULT
 10
38.0236179771033
 20
6.413098596906929
 30
0.0
  0
VERTEX
  5
F9
  8
DEFAULT
 10
37.96222109303242
 20
6.525354777484262
 30
0.0
  0
VERTEX
  5
FA
  8
DEFAULT
 10
37.90537212630012
 20
6.643894790406437
 30
0.0
  0
VERTEX
  5
FB
  8
DEFAULT
 10
37.8530710769064
 20
6.768718635673452
 30
0.0
  0
VERTEX
  5
FC
  8
DEFAULT
 10
37.80531794485128
 20
6.899826313285308
 30
0.0
  0
VERTEX
  5
FD
  8
DEFAULT
 10
37.72345543275677
 20
7.180893165543544
 30
0.0
  0
VERTEX
  5
FE
  8
DEFAULT
 10
37.65978459001659
 20
7.487095347181144
 30
0.0
  0
VERTEX
  5
FF
  8
DEFAULT
 10
37.61430541663076
 20
7.81843285819811
 30
0.0
  0
VERTEX
  5
100
  8
DEFAULT
 10
37.58701791259925
 20
8.174905698594438
 30
0.0
  0
VERTEX
  5
101
  8
DEFAULT
 10
37.57792207792208
 20
8.556513868370132
 30
0.0
  0
VERTEX
  5
102
  8
DEFAULT
 10
37.57792207792208
 20
18.0
 30
0.0
  0
VERTEX
  5
103
  8
DEFAULT
 10
33.77922077922078
 20
18.0
 30
0.0
  0
VERTEX
  5
104
  8
DEFAULT
 10
33.77922077922078
 20
8.370840306409086
 30
0.0
  0
VERTEX
  5
105
  8
DEFAULT
 10
33.80464153018388
 20
7.68587128209968
 30
0.0
  0
VERTEX
  5
106
  8
DEFAULT
 10
33.88090378307319
 20
7.043301871509126
 30
0.0
  0
VERTEX
  5
107
  8
DEFAULT
 10
33.93810047274017
 20
6.737917021358419
 30
0.0
  0
VERTEX
  5
108
  8
DEFAULT
 10
34.0080075378887
 20
6.443132074637424
 30
0.0
  0
VERTEX
  5
109
  8
DEFAULT
 10
34.09062497851878
 20
6.158947031346142
 30
0.0
  0
VERTEX
  5
10A
  8
DEFAULT
 10
34.18595279463041
 20
5.885361891484573
 30
0.0
  0
VERTEX
  5
10B
  8
DEFAULT
 10
34.29399098622359
 20
5.622376655052717
 30
0.0
  0
VERTEX
  5
10C
  8
DEFAULT
 10
34.41473955329833
 20
5.369991322050574
 30
0.0
  0
VERTEX
  5
10D
  8
DEFAULT
 10
34.54819849585462
 20
5.128205892478143
 30
0.0
  0
VERTEX
  5
10E
  8
DEFAULT
 10
34.69436781389245
 20
4.897020366335426
 30
0.0
  0
VERTEX
  5
10F
  8
DEFAULT
 10
34.85324750741183
 20
4.676434743622421
 30
0.0
  0
VERTEX
  5
110
  8
DEFAULT
 10
35.02483757641277
 20
4.46644902433913
 30
0.0
  0
VERTEX
  5
111
  8
DEFAULT
 10
35.20913802089527
 20
4.267063208485551
 30
0.0
  0
VERTEX
  5
112
  8
DEFAULT
 10
35.4061488408593
 20
4.078277296061685
 30
0.0
  0
VERTEX
  5
113
  8
DEFAULT
 10
35.61497234182296
 20
3.900525271624833
 30
0.0
  0
VERTEX
  5
114
  8
DEFAULT
 10
35.83471082930431
 20
3.734241119732293
 30
0.0
  0
VERTEX
  5
115
  8
DEFAULT
 10
36.06536430330335
 20
3.579424840384066
 30
0.0
  0
VERTEX
  5
116
  8
DEFAULT
 10
36.30693276382007
 20
3.436076433580153
 30
0.0
  0
VERTEX
  5
117
  8
DEFAULT
 10
36.55941621085448
 20
3.304195899320552
 30
0.0
  0
VERTEX
  5
118
  8
DEFAULT
 10
36.82281464440658
 20
3.183783237605264
 30
0.0
  0
VERTEX
  5
119
  8
DEFAULT
 10
37.09712806447637
 20
3.07483844843429
 30
0.0
  0
VERTEX
  5
11A
  8
DEFAULT
 10
37.38235647106384
 20
2.977361531807629
 30
0.0
  0
VERTEX
  5
11B
  8
DEFAULT
 10
37.67849986416901
 20
2.891352487725281
 30
0.0
  0
VERTEX
  5
11C
  8
DEFAULT
 10
37.98555824379186
 20
2.816811316187246
 30
0.0
  0
VERTEX
  5
11D
  8
DEFAULT
 10
38.63241996259063
 20
2.702132590744115
 30
0.0
  0
VERTEX
  5
11E
  8
DEFAULT
 10
39.32294162746015
 20
2.633325355478237
 30
0.0
  0
VERTEX
  5
11F
  8
DEFAULT
 10
40.05712323840042
 20
2.610389610389611
 30
0.0
  0
SEQEND
  5
AD
  8
DEFAULT
  0
POLYLINE
  5
120
  8
DEFAULT
 66
     1
 10
0.0
 20
0.0
 30
0.0
  0
VERTEX
  5
122
  8
DEFAULT
 10
53.85024359938528
 20
2.610389610389611
 30
0.0
  0
VERTEX
  5
123
  8
DEFAULT
 10
54.58010938888732
 20
2.631827220187687
 30
0.0
  0
VERTEX
  5
124
  8
DEFAULT
 10
55.27138029557419
 20
2.696140049581914
 30
0.0
  0
VERTEX
  5
125
  8
DEFAULT
 10
55.92405631944588
 20
2.803328098572293
 30
0.0
  0
VERTEX
  5
126
  8
DEFAULT
 10
56.53813746050241
 20
2.953391367158822
 30
0.0
  0
VERTEX
  5
127
  8
DEFAULT
 10
57.11362371874377
 20
3.146329855341503
 30
0.0
  0
VERTEX
  5
128
  8
DEFAULT
 10
57.38689376680876
 20
3.2588773067814
 30
0.0
  0
VERTEX
  5
129
  8
DEFAULT
 10
57.65051509416996
 20
3.382143563120335
 30
0.0
  0
VERTEX
  5
12A
  8
DEFAULT
 10
57.90448770082737
 20
3.516128624358307
 30
0.0
  0
VERTEX
  5
12B
  8
DEFAULT
 10
58.14881158678098
 20
3.660832490495317
 30
0.0
  0
VERTEX
  5
12C
  8
DEFAULT
 10
58.38348675203081
 20
3.816255161531365
 30
0.0
  0
VERTEX
  5
12D
  8
DEFAULT
 10
58.60851319657683
 20
3.982396637466451
 30
0.0
  0
VERTEX
  5
12E
  8
DEFAULT
 10
58.8218339656399
 20
4.157354523820054
 30
0.0
  0
VERTEX
  5
12F
  8
DEFAULT
 10
59.02139210444083
 20
4.339226426111656
 30
0.0
  0
VERTEX
  5
130
  8
DEFAULT
 10
59.20718761297962
 20
4.528012344341257
 30
0.0
  0
VERTEX
  5
131
  8
DEFAULT
 10
59.37922049125628
 20
4.723712278508858
 30
0.0
  0
VERTEX
  5
132
  8
DEFAULT
 10
59.53749073927081
 20
4.926326228614457
 30
0.0
  0
VERTEX
  5
133
  8
DEFAULT
 10
59.68199835702321
 20
5.135854194658055
 30
0.0
  0
VERTEX
  5
134
  8
DEFAULT
 10
59.81274334451348
 20
5.352296176639651
 30
0.0
  0
VERTEX
  5
135
  8
DEFAULT
 10
59.92972570174161
 20
5.575652174559247
 30
0.0
  0
VERTEX
  5
136
  8
DEFAULT
 10
60.03294542870761
 20
5.805922188416841
 30
0.0
  0
VERTEX
  5
137
  8
DEFAULT
 10
60.12240252541147
 20
6.043106218212434
 30
0.0
  0
VERTEX
  5
138
  8
DEFAULT
 10
60.19809699185321
 20
6.287204263946025
 30
0.0
  0
VERTEX
  5
139
  8
DEFAULT
 10
60.26002882803281
 20
6.538216325617617
 30
0.0
  0
VERTEX
  5
13A
  8
DEFAULT
 10
60.30819803395028
 20
6.796142403227206
 30
0.0
  0
VERTEX
  5
13B
  8
DEFAULT
 10
60.34260460960561
 20
7.060982496774795
 30
0.0
  0
VERTEX
  5
13C
  8
DEFAULT
 10
60.36324855499881
 20
7.332736606260382
 30
0.0
  0
VERTEX
  5
13D
  8
DEFAULT
 10
60.37012987012987
 20
7.611404731683969
 30
0.0
  0
VERTEX
  5
13E
  8
DEFAULT
 10
60.35828746956866
 20
7.995593353630802
 30
0.0
  0
VERTEX
  5
13F
  8
DEFAULT
 10
60.32276026788502
 20
8.360567776810051
 30
0.0
  0
VERTEX
  5
140
  8
DEFAULT
 10
60.26354826507894
 20
8.706328001221714
 30
0.0
  0
VERTEX
  5
141
  8
DEFAULT
 10
60.18065146115043
 20
9.032874026865787
 30
0.0
  0
VERTEX
  5
142
  8
DEFAULT
 10
60.13032125876527
 20
9.18894171514998
 30
0.0
  0
VERTEX
  5
143
  8
DEFAULT
 10
60.0740698560995
 20
9.340205853742276
 30
0.0
  0
VERTEX
  5
144
  8
DEFAULT
 10
60.01189725315312
 20
9.486666442642674
 30
0.0
  0
VERTEX
  5
145
  8
DEFAULT
 10
59.94380344992614
 20
9.628323481851176
 30
0.0
  0
VERTEX
  5
146
  8
DEFAULT
 10
59.86978844641854
 20
9.765176971367781
 30
0.0
  0
VERTEX
  5
147
  8
DEFAULT
 10
59.78985224263035
 20
9.89722691119249
 30
0.0
  0
VERTEX
  5
148
  8
DEFAULT
 10
59.70399483856154
 20
10.0244733013253
 30
0.0
  0
VERTEX
  5
149
  8
DEFAULT
 10
59.61221623421212
 20
10.14691614176622
 30
0.0
  0
VERTEX
  5
14A
  8
DEFAULT
 10
59.51479524508349
 20
10.2666202430011
 30
0.0
  0
VERTEX
  5
14B
  8
DEFAULT
 10
59.41109880968921
 20
10.38310983674718
 30
0.0
  0
VERTEX
  5
14C
  8
DEFAULT
 10
59.18487960010366
 20
10.60644550177293
 30
0.0
  0
VERTEX
  5
14D
  8
DEFAULT
 10
58.93355860545547
 20
10.81692313684347
 30
0.0
  0
VERTEX
  5
14E
  8
DEFAULT
 10
58.65713582574463
 20
11.01454274195879
 30
0.0
  0
VERTEX
  5
14F
  8
DEFAULT
 10
58.35561126097116
 20
11.1993043171189
 30
0.0
  0
VERTEX
  5
150
  8
DEFAULT
 10
58.02898491113504
 20
11.3712078623238
 30
0.0
  0
VERTEX
  5
151
  8
DEFAULT
 10
57.67725677623628
 20
11.53025337757349
 30
0.0
  0
VERTEX
  5
152
  8
DEFAULT
 10
57.30042685627488
 20
11.67644086286796
 30
0.0
  0
VERTEX
  5
153
  8
DEFAULT
 10
56.531290765335
 20
11.93042003807562
 30
0.0
  0
VERTEX
  5
154
  8
DEFAULT
 10
55.80971008849241
 20
12.12312321462014
 30
0.0
 42
-0.0018014368553213
  0
VERTEX
  5
155
  8
DEFAULT
 10
54.36008566850865
 20
12.45870551970346
 30
0.0
  0
VERTEX
  5
156
  8
DEFAULT
 10
53.82532259454897
 20
12.59981615789223
 30
0.0
  0
VERTEX
  5
157
  8
DEFAULT
 10
53.385298725079
 20
12.7492020596707
 30
0.0
  0
VERTEX
  5
158
  8
DEFAULT
 10
53.20081399202766
 20
12.82699823440607
 30
0.0
  0
VERTEX
  5
159
  8
DEFAULT
 10
53.04001406009875
 20
12.90686322503887
 30
0.0
  0
VERTEX
  5
15A
  8
DEFAULT
 10
52.9684958945552
 20
12.9475715263168
 30
0.0
  0
VERTEX
  5
15B
  8
DEFAULT
 10
52.90289892929227
 20
12.98879703156909
 30
0.0
  0
VERTEX
  5
15C
  8
DEFAULT
 10
52.84322316430994
 20
13.03053974079573
 30
0.0
  0
VERTEX
  5
15D
  8
DEFAULT
 10
52.78946859960822
 20
13.07279965399673
 30
0.0
  0
VERTEX
  5
15E
  8
DEFAULT
 10
52.74026194643935
 20
13.1162545037415
 30
0.0
  0
VERTEX
  5
15F
  8
DEFAULT
 10
52.69422991605556
 20
13.16158202259945
 30
0.0
  0
VERTEX
  5
160
  8
DEFAULT
 10
52.65137250845686
 20
13.2087822105706
 30
0.0
  0
VERTEX
  5
161
  8
DEFAULT
 10
52.61168972364326
 20
13.25785506765494
 30
0.0
  0
VERTEX
  5
162
  8
DEFAULT
 10
52.57518156161474
 20
13.30880059385246
 30
0.0
  0
VERTEX
  5
163
  8
DEFAULT
 10
52.54184802237131
 20
13.36161878916317
 30
0.0
  0
VERTEX
  5
164
  8
DEFAULT
 10
52.51168910591296
 20
13.41630965358707
 30
0.0
  0
VERTEX
  5
165
  8
DEFAULT
 10
52.48470481223972
 20
13.47287318712416
 30
0.0
  0
VERTEX
  5
166
  8
DEFAULT
 10
52.46089514135156
 20
13.53130938977444
 30
0.0
  0
VERTEX
  5
167
  8
DEFAULT
 10
52.44026009324848
 20
13.5916182615379
 30
0.0
  0
VERTEX
  5
168
  8
DEFAULT
 10
52.42279966793049
 20
13.65379980241455
 30
0.0
  0
VERTEX
  5
169
  8
DEFAULT
 10
52.4085138653976
 20
13.71785401240439
 30
0.0
  0
VERTEX
  5
16A
  8
DEFAULT
 10
52.39740268564978
 20
13.78378089150742
 30
0.0
  0
VERTEX
  5
16B
  8
DEFAULT
 10
52.38946612868706
 20
13.85158043972364
 30
0.0
  0
VERTEX
  5
16C
  8
DEFAULT
 10
52.38470419450943
 20
13.92125265705305
 30
0.0
  0
VERTEX
  5
16D
  8
DEFAULT
 10
52.38311688311688
 20
13.99279754349564
 30
0.0
  0
VERTEX
  5
16E
  8
DEFAULT
 10
52.38712380457578
 20
14.09241138310648
 30
0.0
  0
VERTEX
  5
16F
  8
DEFAULT
 10
52.39914456895245
 20
14.18959972563486
 30
0.0
  0
VERTEX
  5
170
  8
DEFAULT
 10
52.41917917624691
 20
14.28436257108078
 30
0.0
  0
VERTEX
  5
171
  8
DEFAULT
 10
52.44722762645915
 20
14.37669991944425
 30
0.0
  0
VERTEX
  5
172
  8
DEFAULT
 10
52.48328991958917
 20
14.46661177072527
 30
0.0
  0
VERTEX
  5
173
  8
DEFAULT
 10
52.52736605563698
 20
14.55409812492382
 30
0.0
  0
VERTEX
  5
174
  8
DEFAULT
 10
52.57945603460256
 20
14.63915898203993
 30
0.0
  0
VERTEX
  5
175
  8
DEFAULT
 10
52.63955985648593
 20
14.72179434207358
 30
0.0
  0
VERTEX
  5
176
  8
DEFAULT
 10
52.70541829744067
 20
14.8001760198403
 30
0.0
  0
VERTEX
  5
177
  8
DEFAULT
 10
52.77417455451776
 20
14.87371931836778
 30
0.0
  0
VERTEX
  5
178
  8
DEFAULT
 10
52.8458286277172
 20
14.94242423765602
 30
0.0
  0
VERTEX
  5
179
  8
DEFAULT
 10
52.920380517039
 20
15.00629077770503
 30
0.0
  0
VERTEX
  5
17A
  8
DEFAULT
 10
52.99783022248316
 20
15.06531893851479
 30
0.0
  0
VERTEX
  5
17B
  8
DEFAULT
 10
53.07817774404967
 20
15.11950872008532
 30
0.0
  0
VERTEX
  5
17C
  8
DEFAULT
 10
53.16142308173853
 20
15.1688601224166
 30
0.0
  0
VERTEX
  5
17D
  8
DEFAULT
 10
53.24756623554976
 20
15.21337314550865
 30
0.0
  0
VERTEX
  5
17E
  8
DEFAULT
 10
53.46049136403765
 20
15.30844536700425
 30
0.0
  0
VERTEX
  5
17F
  8
DEFAULT
 10
53.66856549836064
 20
15.38668132622699
 30
0.0
  0
VERTEX
  5
180
  8
DEFAULT
 10
53.87178863851872
 20
15.44808102317687
 30
0.0
  0
VERTEX
  5
181
  8
DEFAULT
 10
54.0701607845119
 20
15.49264445785389
 30
0.0
  0
VERTEX
  5
182
  8
DEFAULT
 10
54.27243289869892
 20
15.5242715984519
 30
0.0
  0
VERTEX
  5
183
  8
DEFAULT
 10
54.48735594343857
 20
15.54686241316477
 30
0.0
  0
VERTEX
  5
184
  8
DEFAULT
 10
54.95515482457575
 20
15.56493506493506
 30
0.0
  0
VERTEX
  5
185
  8
DEFAULT
 10
55.27032213055456
 20
15.55699257451035
 30
0.0
  0
VERTEX
  5
186
  8
DEFAULT
 10
55.58346813477779
 20
15.5331651032362
 30
0.0
  0
VERTEX
  5
187
  8
DEFAULT
 10
55.89459283724544
 20
15.49345265111263
 30
0.0
  0
VERTEX
  5
188
  8
DEFAULT
 10
56.20369623795752
 20
15.43785521813961
 30
0.0
  0
VERTEX
  5
189
  8
DEFAULT
 10
56.51077833691401
 20
15.36637280431717
 30
0.0
  0
VERTEX
  5
18A
  8
DEFAULT
 10
56.81583913411492
 20
15.27900540964529
 30
0.0
  0
VERTEX
  5
18B
  8
DEFAULT
 10
57.11887862956025
 20
15.17575303412398
 30
0.0
  0
VERTEX
  5
18C
  8
DEFAULT
 10
57.41989682325
 20
15.05661567775324
 30
0.0
  0
VERTEX
  5
18D
  8
DEFAULT
 10
57.99703568418879
 20
14.788187947181
 30
0.0
  0
VERTEX
  5
18E
  8
DEFAULT
 10
58.52842209575731
 20
14.4912241426461
 30
0.0
  0
VERTEX
  5
18F
  8
DEFAULT
 10
59.01405605795555
 20
14.16572426414854
 30
0.0
  0
VERTEX
  5
190
  8
DEFAULT
 10
59.23971587054082
 20
13.99227329716376
 30
0.0
  0
VERTEX
  5
191
  8
DEFAULT
 10
59.45393757078353
 20
13.81168831168831
 30
0.0
  0
VERTEX
  5
192
  8
DEFAULT
 10
59.78571428571429
 20
13.81168831168831
 30
0.0
  0
VERTEX
  5
193
  8
DEFAULT
 10
59.78571428571429
 20
17.27404707903678
 30
0.0
  0
VERTEX
  5
194
  8
DEFAULT
 10
59.24329423580539
 20
17.49629417561152
 30
0.0
  0
VERTEX
  5
195
  8
DEFAULT
 10
58.66615551420427
 20
17.69428574401108
 30
0.0
  0
VERTEX
  5
196
  8
DEFAULT
 10
58.05429812091091
 20
17.86802178423545
 30
0.0
  0
VERTEX
  5
197
  8
DEFAULT
 10
57.40772205592531
 20
18.01750229628463
 30
0.0
  0
VERTEX
  5
198
  8
DEFAULT
 10
56.74288291103495
 20
18.13768595075101
 30
0.0
  0
VERTEX
  5
199
  8
DEFAULT
 10
56.0762362780273
 20
18.223531418227
 30
0.0
  0
VERTEX
  5
19A
  8
DEFAULT
 10
55.40778215690237
 20
18.27503869871259
 30
0.0
  0
VERTEX
  5
19B
  8
DEFAULT
 10
54.73752054766017
 20
18.29220779220779
 30
0.0
  0
VERTEX
  5
19C
  8
DEFAULT
 10
54.08251441494532
 20
18.27165005328272
 30
0.0
  0
VERTEX
  5
19D
  8
DEFAULT
 10
53.45525942071205
 20
18.2099768365075
 30
0.0
  0
VERTEX
  5
19E
  8
DEFAULT
 10
52.85575556496033
 20
18.10718814188215
 30
0.0
  0
VERTEX
  5
19F
  8
DEFAULT
 10
52.28400284769019
 20
17.96328396940665
 30
0.0
  0
VERTEX
  5
1A0
  8
DEFAULT
 10
51.74000126890162
 20
17.778264319081
 30
0.0
  0
VERTEX
  5
1A1
  8
DEFAULT
 10
51.22375082859462
 20
17.55212919090522
 30
0.0
  0
VERTEX
  5
1A2
  8
DEFAULT
 10
50.9760322853717
 20
17.42364332262353
 30
0.0
  0
VERTEX
  5
1A3
  8
DEFAULT
 10
50.73525152676918
 20
17.28487858487929
 30
0.0
  0
VERTEX
  5
1A4
  8
DEFAULT
 10
50.50140855278706
 20
17.13583497767253
 30
0.0
  0
VERTEX
  5
1A5
  8
DEFAULT
 10
50.27450336342532
 20
16.97651250100323
 30
0.0
  0
VERTEX
  5
1A6
  8
DEFAULT
 10
50.05804945065664
 20
16.8088908236955
 30
0.0
  0
VERTEX
  5
1A7
  8
DEFAULT
 10
49.85556030645368
 20
16.63494961457346
 30
0.0
  0
VERTEX
  5
1A8
  8
DEFAULT
 10
49.66703593081644
 20
16.45468887363709
 30
0.0
  0
VERTEX
  5
1A9
  8
DEFAULT
 10
49.49247632374492
 20
16.26810860088641
 30
0.0
  0
VERTEX
  5
1AA
  8
DEFAULT
 10
49.33188148523913
 20
16.07520879632141
 30
0.0
  0
VERTEX
  5
1AB
  8
DEFAULT
 10
49.18525141529906
 20
15.87598945994209
 30
0.0
  0
VERTEX
  5
1AC
  8
DEFAULT
 10
49.0525861139247
 20
15.67045059174846
 30
0.0
  0
VERTEX
  5
1AD
  8
DEFAULT
 10
48.93388558111607
 20
15.45859219174051
 30
0.0
  0
VERTEX
  5
1AE
  8
DEFAULT
 10
48.82914981687316
 20
15.24041425991824
 30
0.0
  0
VERTEX
  5
1AF
  8
DEFAULT
 10
48.73837882119597
 20
15.01591679628166
 30
0.0
  0
VERTEX
  5
1B0
  8
DEFAULT
 10
48.6615725940845
 20
14.78509980083075
 30
0.0
  0
VERTEX
  5
1B1
  8
DEFAULT
 10
48.59873113553876
 20
14.54796327356553
 30
0.0
  0
VERTEX
  5
1B2
  8
DEFAULT
 10
48.54985444555874
 20
14.30450721448599
 30
0.0
  0
VERTEX
  5
1B3
  8
DEFAULT
 10
48.51494252414443
 20
14.05473162359214
 30
0.0
  0
VERTEX
  5
1B4
  8
DEFAULT
 10
48.49399537129585
 20
13.79863650088396
 30
0.0
  0
VERTEX
  5
1B5
  8
DEFAULT
 10
48.48701298701299
 20
13.53622184636147
 30
0.0
  0
VERTEX
  5
1B6
  8
DEFAULT
 10
48.49877216815715
 20
13.15067777088727
 30
0.0
  0
VERTEX
  5
1B7
  8
DEFAULT
 10
48.53404971158962
 20
12.78163698712594
 30
0.0
  0
VERTEX
  5
1B8
  8
DEFAULT
 10
48.59284561731042
 20
12.42909949507748
 30
0.0
  0
VERTEX
  5
1B9
  8
DEFAULT
 10
48.67515988531953
 20
12.09306529474188
 30
0.0
  0
VERTEX
  5
1BA
  8
DEFAULT
 10
48.78099251561696
 20
11.77353438611914
 30
0.0
  0
VERTEX
  5
1BB
  8
DEFAULT
 10
48.91034350820272
 20
11.47050676920927
 30
0.0
  0
VERTEX
  5
1BC
  8
DEFAULT
 10
48.98383839035371
 20
11.32518169514666
 30
0.0
  0
VERTEX
  5
1BD
  8
DEFAULT
 10
49.06321286307679
 20
11.18398244401227
 30
0.0
  0
VERTEX
  5
1BE
  8
DEFAULT
 10
49.14846692637194
 20
11.04690901580609
 30
0.0
  0
VERTEX
  5
1BF
  8
DEFAULT
 10
49.23960058023917
 20
10.91396141052813
 30
0.0
  0
VERTEX
  5
1C0
  8
DEFAULT
 10
49.33723187363292
 20
10.7839364542888
 30
0.0
  0
VERTEX
  5
1C1
  8
DEFAULT
 10
49.44258810307076
 20
10.65736067781892
 30
0.0
  0
VERTEX
  5
1C2
  8
DEFAULT
 10
49.55566926855271
 20
10.53423408111849
 30
0.0
  0
VERTEX
  5
1C3
  8
DEFAULT
 10
49.67647537007875
 20
10.4145566641875
 30
0.0
  0
VERTEX
  5
1C4
  8
DEFAULT
 10
49.8050064076489
 20
10.29832842702596
 30
0.0
  0
VERTEX
  5
1C5
  8
DEFAULT
 10
49.94126238126314
 20
10.18554936963386
 30
0.0
  0
VERTEX
  5
1C6
  8
DEFAULT
 10
50.23694913662394
 20
9.97033879415801
 30
0.0
  0
VERTEX
  5
1C7
  8
DEFAULT
 10
50.56353563616113
 20
9.768924937759945
 30
0.0
  0
VERTEX
  5
1C8
  8
DEFAULT
 10
50.92102187987474
 20
9.581307800439666
 30
0.0
  0
VERTEX
  5
1C9
  8
DEFAULT
 10
51.30940786776475
 20
9.407487382197171
 30
0.0
  0
VERTEX
  5
1CA
  8
DEFAULT
 10
51.72869359983116
 20
9.247463683032464
 30
0.0
  0
VERTEX
  5
1CB
  8
DEFAULT
 10
52.50962637442667
 20
9.003196591689383
 30
0.0
  0
VERTEX
  5
1CC
  8
DEFAULT
 10
53.34877293683657
 20
8.800021105010806
 30
0.0
  0
VERTEX
  5
1CD
  8
DEFAULT
 10
54.97950584549349
 20
8.413454593015132
 30
0.0
  0
VERTEX
  5
1CE
  8
DEFAULT
 10
55.12979509654056
 20
8.369735300712961
 30
0.0
  0
VERTEX
  5
1CF
  8
DEFAULT
 10
55.27475760820776
 20
8.319999663731782
 30
0.0
  0
VERTEX
  5
1D0
  8
DEFAULT
 10
55.41439338049511
 20
8.26424768207159
 30
0.0
  0
VERTEX
  5
1D1
  8
DEFAULT
 10
55.54870241340258
 20
8.202479355732388
 30
0.0
  0
VERTEX
  5
1D2
  8
DEFAULT
 10
55.67768470693018
 20
8.134694684714175
 30
0.0
  0
VERTEX
  5
1D3
  8
DEFAULT
 10
55.80134026107791
 20
8.060893669016952
 30
0.0
  0
VERTEX
  5
1D4
  8
DEFAULT
 10
55.91966907584577
 20
7.981076308640717
 30
0.0
  0
VERTEX
  5
1D5
  8
DEFAULT
 10
56.03267115123376
 20
7.895242603585473
 30
0.0
  0
VERTEX
  5
1D6
  8
DEFAULT
 10
56.08611646180625
 20
7.84998639658043
 30
0.0
  0
VERTEX
  5
1D7
  8
DEFAULT
 10
56.13611368782568
 20
7.803059652960052
 30
0.0
  0
VERTEX
  5
1D8
  8
DEFAULT
 10
56.18266282929206
 20
7.754462372724337
 30
0.0
  0
VERTEX
  5
1D9
  8
DEFAULT
 10
56.22576388620536
 20
7.704194555873286
 30
0.0
  0
VERTEX
  5
1DA
  8
DEFAULT
 10
56.26541685856559
 20
7.6522562024069
 30
0.0
  0
VERTEX
  5
1DB
  8
DEFAULT
 10
56.30162174637277
 20
7.598647312325178
 30
0.0
  0
VERTEX
  5
1DC
  8
DEFAULT
 10
56.33437854962688
 20
7.54336788562812
 30
0.0
  0
VERTEX
  5
1DD
  8
DEFAULT
 10
56.36368726832792
 20
7.486417922315725
 30
0.0
  0
VERTEX
  5
1DE
  8
DEFAULT
 10
56.3895479024759
 20
7.427797422387995
 30
0.0
  0
VERTEX
  5
1DF
  8
DEFAULT
 10
56.41196045207082
 20
7.367506385844929
 30
0.0
  0
VERTEX
  5
1E0
  8
DEFAULT
 10
56.43092491711268
 20
7.305544812686527
 30
0.0
  0
VERTEX
  5
1E1
  8
DEFAULT
 10
56.44644129760147
 20
7.241912702912789
 30
0.0
  0
VERTEX
  5
1E2
  8
DEFAULT
 10
56.45850959353719
 20
7.176610056523715
 30
0.0
  0
VERTEX
  5
1E3
  8
DEFAULT
 10
56.46712980491985
 20
7.109636873519305
 30
0.0
  0
VERTEX
  5
1E4
  8
DEFAULT
 10
56.47230193174944
 20
7.040993153899559
 30
0.0
  0
VERTEX
  5
1E5
  8
DEFAULT
 10
56.47402597402598
 20
6.970678897664477
 30
0.0
  0
VERTEX
  5
1E6
  8
DEFAULT
 10
56.46979315138684
 20
6.843729621867317
 30
0.0
  0
VERTEX
  5
1E7
  8
DEFAULT
 10
56.45709468346943
 20
6.723129614863279
 30
0.0
  0
VERTEX
  5
1E8
  8
DEFAULT
 10
56.43593057027374
 20
6.60887887665236
 30
0.0
  0
VERTEX
  5
1E9
  8
DEFAULT
 10
56.42217389669655
 20
6.554134483344321
 30
0.0
  0
VERTEX
  5
1EA
  8
DEFAULT
 10
56.40630081179978
 20
6.500977407234561
 30
0.0
  0
VERTEX
  5
1EB
  8
DEFAULT
 10
56.38831131558344
 20
6.449407648323082
 30
0.0
  0
VERTEX
  5
1EC
  8
DEFAULT
 10
56.36820540804754
 20
6.399425206609883
 30
0.0
  0
VERTEX
  5
1ED
  8
DEFAULT
 10
56.34598308919208
 20
6.351030082094963
 30
0.0
  0
VERTEX
  5
1EE
  8
DEFAULT
 10
56.32164435901704
 20
6.304222274778326
 30
0.0
  0
VERTEX
  5
1EF
  8
DEFAULT
 10
56.29518921752243
 20
6.259001784659967
 30
0.0
  0
VERTEX
  5
1F0
  8
DEFAULT
 10
56.26661766470826
 20
6.215368611739889
 30
0.0
  0
VERTEX
  5
1F1
  8
DEFAULT
 10
56.23592970057452
 20
6.17332275601809
 30
0.0
  0
VERTEX
  5
1F2
  8
DEFAULT
 10
56.20312532512121
 20
6.132864217494571
 30
0.0
  0
VERTEX
  5
1F3
  8
DEFAULT
 10
56.13236036148374
 20
6.05808694834548
 30
0.0
  0
VERTEX
  5
1F4
  8
DEFAULT
 10
56.05811556902378
 20
5.987036668425405
 30
0.0
  0
VERTEX
  5
1F5
  8
DEFAULT
 10
55.98039094774131
 20
5.919713377734345
 30
0.0
  0
VERTEX
  5
1F6
  8
DEFAULT
 10
55.89918649763632
 20
5.856117076272301
 30
0.0
  0
VERTEX
  5
1F7
  8
DEFAULT
 10
55.81450221870883
 20
5.796247764039272
 30
0.0
  0
VERTEX
  5
1F8
  8
DEFAULT
 10
55.72633811095884
 20
5.740105441035259
 30
0.0
  0
VERTEX
  5
1F9
  8
DEFAULT
 10
55.63469417438633
 20
5.687690107260261
 30
0.0
  0
VERTEX
  5
1FA
  8
DEFAULT
 10
55.53957040899133
 20
5.63900176271428
 30
0.0
  0
VERTEX
  5
1FB
  8
DEFAULT
 10
55.45606707984308
 20
5.601477167295107
 30
0.0
  0
VERTEX
  5
1FC
  8
DEFAULT
 10
55.36611940717214
 20
5.566520773944523
 30
0.0
  0
VERTEX
  5
1FD
  8
DEFAULT
 10
55.16689103126217
 20
5.50431259344912
 30
0.0
  0
VERTEX
  5
1FE
  8
DEFAULT
 10
54.94188528126142
 20
5.452377221228071
 30
0.0
  0
VERTEX
  5
1FF
  8
DEFAULT
 10
54.69110215716991
 20
5.410714657281375
 30
0.0
  0
VERTEX
  5
200
  8
DEFAULT
 10
54.21531365464474
 20
5.355925417567097
 30
0.0
  0
VERTEX
  5
201
  8
DEFAULT
 10
53.84263539161685
 20
5.337662337662337
 30
0.0
  0
VERTEX
  5
202
  8
DEFAULT
 10
53.522533697884
 20
5.345937763812635
 30
0.0
  0
VERTEX
  5
203
  8
DEFAULT
 10
53.1999113162244
 20
5.370764042263527
 30
0.0
  0
VERTEX
  5
204
  8
DEFAULT
 10
52.87476824663806
 20
5.412141173015014
 30
0.0
  0
VERTEX
  5
205
  8
DEFAULT
 10
52.54710448912498
 20
5.470069156067096
 30
0.0
  0
VERTEX
  5
206
  8
DEFAULT
 10
52.21692004368515
 20
5.544547991419773
 30
0.0
  0
VERTEX
  5
207
  8
DEFAULT
 10
51.88421491031857
 20
5.635577679073045
 30
0.0
  0
VERTEX
  5
208
  8
DEFAULT
 10
51.21124257980518
 20
5.867289611281372
 30
0.0
  0
VERTEX
  5
209
  8
DEFAULT
 10
50.8758502964548
 20
6.006830378507965
 30
0.0
  0
VERTEX
  5
20A
  8
DEFAULT
 10
50.54768715277055
 20
6.160639043378229
 30
0.0
  0
VERTEX
  5
20B
  8
DEFAULT
 10
50.22675314875242
 20
6.328715605892163
 30
0.0
  0
VERTEX
  5
20C
  8
DEFAULT
 10
49.91304828440043
 20
6.511060066049767
 30
0.0
  0
VERTEX
  5
20D
  8
DEFAULT
 10
49.3073259746948
 20
6.918552679295985
 30
0.0
  0
VERTEX
  5
20E
  8
DEFAULT
 10
48.73052022365366
 20
7.383116883116884
 30
0.0
  0
VERTEX
  5
20F
  8
DEFAULT
 10
48.38961038961039
 20
7.383116883116884
 30
0.0
  0
VERTEX
  5
210
  8
DEFAULT
 10
48.38961038961039
 20
3.780742718028137
 30
0.0
  0
VERTEX
  5
211
  8
DEFAULT
 10
48.96137536859456
 20
3.541374460113013
 30
0.0
  0
VERTEX
  5
212
  8
DEFAULT
 10
49.556539692283
 20
3.322456697571137
 30
0.0
  0
VERTEX
  5
213
  8
DEFAULT
 10
50.81706637377272
 20
2.945972658607126
 30
0.0
  0
VERTEX
  5
214
  8
DEFAULT
 10
51.49688696446036
 20
2.799155075011963
 30
0.0
  0
VERTEX
  5
215
  8
DEFAULT
 10
52.229023365625
 20
2.694285372443989
 30
0.0
  0
VERTEX
  5
216
  8
DEFAULT
 10
53.01347557726664
 20
2.631363550903205
 30
0.0
  0
VERTEX
  5
217
  8
DEFAULT
 10
53.85024359938528
 20
2.610389610389611
 30
0.0
  0
SEQEND
  5
121
  8
DEFAULT
  0
POLYLINE
  5
218
  8
DEFAULT
 66
     1
 10
0.0
 20
0.0
 30
0.0
  0
VERTEX
  5
21A
  8
DEFAULT
 10
74.98051948051949
 20
3.0
 30
0.0
  0
VERTEX
  5
21B
  8
DEFAULT
 10
74.98051948051949
 20
18.0
 30
0.0
  0
VERTEX
  5
21C
  8
DEFAULT
 10
71.18181818181819
 20
18.0
 30
0.0
  0
VERTEX
  5
21D
  8
DEFAULT
 10
71.18181818181819
 20
12.54545454545455
 30
0.0
  0
VERTEX
  5
21E
  8
DEFAULT
 10
66.11688311688312
 20
12.54545454545455
 30
0.0
  0
VERTEX
  5
21F
  8
DEFAULT
 10
66.11688311688312
 20
18.0
 30
0.0
  0
VERTEX
  5
220
  8
DEFAULT
 10
62.31818181818182
 20
18.0
 30
0.0
  0
VERTEX
  5
221
  8
DEFAULT
 10
62.31818181818182
 20
3.0
 30
0.0
  0
VERTEX
  5
222
  8
DEFAULT
 10
66.11688311688312
 20
3.0
 30
0.0
  0
VERTEX
  5
223
  8
DEFAULT
 10
66.11688311688312
 20
9.720779220779221
 30
0.0
  0
VERTEX
  5
224
  8
DEFAULT
 10
71.18181818181819
 20
9.720779220779221
 30
0.0
  0
VERTEX
  5
225
  8
DEFAULT
 10
71.18181818181819
 20
3.0
 30
0.0
  0
VERTEX
  5
226
  8
DEFAULT
 10
74.98051948051949
 20
3.0
 30
0.0
  0
SEQEND
  5
219
  8
DEFAULT
  0
CIRCLE
  5
227
  8
DEFAULT
 10
4.0
 20
42.0
 30
0.0
 40
0.5
  0
ENDSEC
  0
EOF
