  0
SECTION
  2
HEADER
  9
$ACADVER
  1
AC1009
  9
$DWGCODEPAGE
  3
ansi_1252
  9
$INSBASE
 10
0.0
 20
0.0
 30
0.0
  9
$EXTMIN
 10
248.6099088805461
 20
412.7551357435451
 30
-0.0000000000000046
  9
$EXTMAX
 10
450.3463352709438
 20
666.244864256455
 30
0.0000000000000139
  9
$LIMMIN
 10
0.0
 20
0.0
  9
$LIMMAX
 10
12.0
 20
9.0
  9
$ORTHOMODE
 70
     0
  9
$REGENMODE
 70
     1
  9
$FILLMODE
 70
     1
  9
$QTEXTMODE
 70
     0
  9
$MIRRTEXT
 70
     1
  9
$DRAGMODE
 70
     2
  9
$LTSCALE
 40
1.0
  9
$OSMODE
 70
    37
  9
$ATTMODE
 70
     1
  9
$TEXTSIZE
 40
0.2
  9
$TRACEWID
 40
0.05
  9
$TEXTSTYLE
  7
STANDARD
  9
$CLAYER
  8
6MM_PLYWOOD
  9
$CELTYPE
  6
BYLAYER
  9
$CECOLOR
 62
   256
  9
$DIMSCALE
 40
1.0
  9
$DIMASZ
 40
0.18
  9
$DIMEXO
 40
0.0625
  9
$DIMDLI
 40
0.38
  9
$DIMRND
 40
0.0
  9
$DIMDLE
 40
0.0
  9
$DIMEXE
 40
0.18
  9
$DIMTP
 40
0.0
  9
$DIMTM
 40
0.0
  9
$DIMTXT
 40
0.18
  9
$DIMCEN
 40
0.09
  9
$DIMTSZ
 40
0.0
  9
$DIMTOL
 70
     0
  9
$DIMLIM
 70
     0
  9
$DIMTIH
 70
     1
  9
$DIMTOH
 70
     1
  9
$DIMSE1
 70
     0
  9
$DIMSE2
 70
     0
  9
$DIMTAD
 70
     0
  9
$DIMZIN
 70
     0
  9
$DIMBLK
  1

  9
$DIMASO
 70
     1
  9
$DIMSHO
 70
     1
  9
$DIMPOST
  1

  9
$DIMAPOST
  1

  9
$DIMALT
 70
     0
  9
$DIMALTD
 70
     2
  9
$DIMALTF
 40
25.4
  9
$DIMLFAC
 40
1.0
  9
$DIMTOFL
 70
     0
  9
$DIMTVP
 40
0.0
  9
$DIMTIX
 70
     0
  9
$DIMSOXD
 70
     0
  9
$DIMSAH
 70
     0
  9
$DIMBLK1
  1

  9
$DIMBLK2
  1

  9
$DIMSTYLE
  2
STANDARD
  9
$DIMCLRD
 70
     0
  9
$DIMCLRE
 70
     0
  9
$DIMCLRT
 70
     0
  9
$DIMTFAC
 40
1.0
  9
$DIMGAP
 40
0.09
  9
$LUNITS
 70
     2
  9
$LUPREC
 70
     3
  9
$SKETCHINC
 40
0.1
  9
$FILLETRAD
 40
0.5
  9
$AUNITS
 70
     0
  9
$AUPREC
 70
     0
  9
$MENU
  1
.
  9
$ELEVATION
 40
0.0
  9
$PELEVATION
 40
0.0
  9
$THICKNESS
 40
0.0
  9
$LIMCHECK
 70
     0
  9
$CHAMFERA
 40
0.5
  9
$CHAMFERB
 40
0.5
  9
$SKPOLY
 70
     0
  9
$TDCREATE
 40
2457437.576075185
  9
$TDUPDATE
 40
2457437.576075197
  9
$TDINDWG
 40
0.0000000116
  9
$TDUSRTIMER
 40
0.0000000116
  9
$USRTIMER
 70
     1
  9
$ANGBASE
 50
0.0
  9
$ANGDIR
 70
     0
  9
$PDMODE
 70
     0
  9
$PDSIZE
 40
0.0
  9
$PLINEWID
 40
0.0
  9
$COORDS
 70
     1
  9
$SPLFRAME
 70
     0
  9
$SPLINETYPE
 70
     6
  9
$SPLINESEGS
 70
     8
  9
$ATTDIA
 70
     0
  9
$ATTREQ
 70
     1
  9
$HANDLING
 70
     1
  9
$HANDSEED
  5
187
  9
$SURFTAB1
 70
     6
  9
$SURFTAB2
 70
     6
  9
$SURFTYPE
 70
     6
  9
$SURFU
 70
     6
  9
$SURFV
 70
     6
  9
$UCSNAME
  2

  9
$UCSORG
 10
0.0
 20
0.0
 30
0.0
  9
$UCSXDIR
 10
1.0
 20
0.0
 30
0.0
  9
$UCSYDIR
 10
0.0
 20
1.0
 30
0.0
  9
$PUCSNAME
  2

  9
$PUCSORG
 10
0.0
 20
0.0
 30
0.0
  9
$PUCSXDIR
 10
1.0
 20
0.0
 30
0.0
  9
$PUCSYDIR
 10
0.0
 20
1.0
 30
0.0
  9
$USERI1
 70
     0
  9
$USERI2
 70
     0
  9
$USERI3
 70
     0
  9
$USERI4
 70
     0
  9
$USERI5
 70
     0
  9
$USERR1
 40
0.0
  9
$USERR2
 40
0.0
  9
$USERR3
 40
0.0
  9
$USERR4
 40
0.0
  9
$USERR5
 40
0.0
  9
$WORLDVIEW
 70
     1
  9
$SHADEDGE
 70
     3
  9
$SHADEDIF
 70
    70
  9
$TILEMODE
 70
     1
  9
$MAXACTVP
 70
    64
  9
$PLIMCHECK
 70
     0
  9
$PEXTMIN
 10
1.000000000000000E+20
 20
1.000000000000000E+20
 30
1.000000000000000E+20
  9
$PEXTMAX
 10
-1.000000000000000E+20
 20
-1.000000000000000E+20
 30
-1.000000000000000E+20
  9
$PLIMMIN
 10
0.0
 20
0.0
  9
$PLIMMAX
 10
12.0
 20
9.0
  9
$UNITMODE
 70
     0
  9
$VISRETAIN
 70
     1
  9
$PLINEGEN
 70
     0
  9
$PSLTSCALE
 70
     1
  0
ENDSEC
  0
SECTION
  2
TABLES
  0
TABLE
  2
VPORT
 70
     2
  0
VPORT
  2
*ACTIVE
 70
     0
 10
0.0
 20
0.0
 11
1.0
 21
1.0
 12
350.0273610464528
 22
539.5
 13
0.0
 23
0.0
 14
0.5
 24
0.5
 15
0.5
 25
0.5
 16
0.0
 26
0.0
 36
1.0
 17
0.0
 27
0.0
 37
0.0
 40
253.00253
 41
1.6
 42
50.0
 43
0.0
 44
0.0
 50
0.0
 51
0.0
 71
     0
 72
   100
 73
     1
 74
     3
 75
     0
 76
     0
 77
     0
 78
     0
  0
ENDTAB
  0
TABLE
  2
LTYPE
 70
     1
  0
LTYPE
  2
CONTINUOUS
 70
     0
  3
Solid line
 72
    65
 73
     0
 40
0.0
  0
ENDTAB
  0
TABLE
  2
LAYER
 70
     2
  0
LAYER
  2
0
 70
     0
 62
     7
  6
CONTINUOUS
  0
LAYER
  2
6MM_PLYWOOD
 70
     0
 62
     1
  6
CONTINUOUS
  0
ENDTAB
  0
TABLE
  2
STYLE
 70
     1
  0
STYLE
  2
STANDARD
 70
     0
 40
0.0
 41
1.0
 50
0.0
 71
     0
 42
0.2
  3
txt
  4

  0
ENDTAB
  0
TABLE
  2
VIEW
 70
     0
  0
ENDTAB
  0
TABLE
  2
UCS
 70
     0
  0
ENDTAB
  0
TABLE
  2
APPID
 70
     1
  0
APPID
  2
ACAD
 70
     0
  0
ENDTAB
  0
TABLE
  2
DIMSTYLE
 70
     1
  0
DIMSTYLE
  2
STANDARD
 70
     0
  3

  4

  5

  6

  7

 40
1.0
 41
0.18
 42
0.0625
 43
0.38
 44
0.18
 45
0.0
 46
0.0
 47
0.0
 48
0.0
140
0.18
141
0.09
142
0.0
143
25.4
144
1.0
145
0.0
146
1.0
147
0.09
 71
     0
 72
     0
 73
     1
 74
     1
 75
     0
 76
     0
 77
     0
 78
     0
170
     0
171
     2
172
     0
173
     0
174
     0
175
     0
176
     0
177
     0
178
     0
  0
ENDTAB
  0
ENDSEC
  0
SECTION
  2
BLOCKS
  0
BLOCK
  8
0
  2
$MODEL_SPACE
 70
     0
 10
0.0
 20
0.0
 30
0.0
  3
$MODEL_SPACE
  1

  0
ENDBLK
  5
21
  8
0
  0
BLOCK
 67
     1
  8
0
  2
$PAPER_SPACE
 70
     0
 10
0.0
 20
0.0
 30
0.0
  3
$PAPER_SPACE
  1

  0
ENDBLK
  5
1D
 67
     1
  8
0
  0
BLOCK
  8
0
  2
$PAPER_SPACE0
 70
     0
 10
0.0
 20
0.0
 30
0.0
  3
$PAPER_SPACE0
  1

  0
ENDBLK
  5
25
  8
0
  0
ENDSEC
  0
SECTION
  2
ENTITIES
  0
CIRCLE
  5
2B
  8
6MM_PLYWOOD
 10
401.0
 20
428.0
 30
-0.0000000000000001
 40
0.95
  0
CIRCLE
  5
2C
  8
6MM_PLYWOOD
 10
403.6
 20
655.0
 30
0.0
 40
0.5
  0
CIRCLE
  5
2D
  8
6MM_PLYWOOD
 10
402.0
 20
662.0
 30
-0.0000000000000001
 40
2.25
  0
POLYLINE
  5
2E
  8
6MM_PLYWOOD
 66
     1
 10
0.0
 20
0.0
 30
-0.0000000000000001
  0
VERTEX
  5
30
  8
6MM_PLYWOOD
 10
401.0
 20
569.0
 30
-0.0000000000000001
  0
VERTEX
  5
31
  8
6MM_PLYWOOD
 10
401.0
 20
557.0
 30
-0.0000000000000001
  0
VERTEX
  5
32
  8
6MM_PLYWOOD
 10
403.0
 20
557.0
 30
0.0
  0
VERTEX
  5
33
  8
6MM_PLYWOOD
 10
403.0
 20
569.0
 30
0.0
  0
VERTEX
  5
34
  8
6MM_PLYWOOD
 10
401.0
 20
569.0
 30
-0.0000000000000001
  0
SEQEND
  5
2F
  8
6MM_PLYWOOD
  0
POLYLINE
  5
35
  8
6MM_PLYWOOD
 66
     1
 10
0.0
 20
0.0
 30
-0.0000000000000001
  0
VERTEX
  5
37
  8
6MM_PLYWOOD
 10
401.0
 20
529.0
 30
-0.0000000000000001
  0
VERTEX
  5
38
  8
6MM_PLYWOOD
 10
401.0
 20
517.0
 30
-0.0000000000000001
  0
VERTEX
  5
39
  8
6MM_PLYWOOD
 10
403.0
 20
517.0
 30
0.0
  0
VERTEX
  5
3A
  8
6MM_PLYWOOD
 10
403.0
 20
529.0
 30
0.0
  0
VERTEX
  5
3B
  8
6MM_PLYWOOD
 10
401.0
 20
529.0
 30
-0.0000000000000001
  0
SEQEND
  5
36
  8
6MM_PLYWOOD
  0
POLYLINE
  5
3C
  8
6MM_PLYWOOD
 66
     1
 10
0.0
 20
0.0
 30
-0.0000000000000001
  0
VERTEX
  5
3E
  8
6MM_PLYWOOD
 10
401.000000000003
 20
489.0
 30
-0.0000000000000001
  0
VERTEX
  5
3F
  8
6MM_PLYWOOD
 10
401.000000000003
 20
477.0
 30
-0.0000000000000001
  0
VERTEX
  5
40
  8
6MM_PLYWOOD
 10
403.000000000003
 20
477.0
 30
0.0
  0
VERTEX
  5
41
  8
6MM_PLYWOOD
 10
403.000000000003
 20
489.0
 30
0.0
  0
VERTEX
  5
42
  8
6MM_PLYWOOD
 10
401.000000000003
 20
489.0
 30
-0.0000000000000001
  0
SEQEND
  5
3D
  8
6MM_PLYWOOD
  0
POLYLINE
  5
43
  8
6MM_PLYWOOD
 66
     1
 10
0.0
 20
0.0
 30
-0.0000000000000001
  0
VERTEX
  5
45
  8
6MM_PLYWOOD
 10
401.0
 20
447.0
 30
-0.0000000000000001
  0
VERTEX
  5
46
  8
6MM_PLYWOOD
 10
401.0
 20
435.0
 30
-0.0000000000000001
  0
VERTEX
  5
47
  8
6MM_PLYWOOD
 10
403.0
 20
435.0
 30
0.0
  0
VERTEX
  5
48
  8
6MM_PLYWOOD
 10
403.0
 20
447.0
 30
0.0
  0
VERTEX
  5
49
  8
6MM_PLYWOOD
 10
401.0
 20
447.0
 30
-0.0000000000000001
  0
SEQEND
  5
44
  8
6MM_PLYWOOD
  0
POLYLINE
  5
4A
  8
6MM_PLYWOOD
 66
     1
 10
0.0
 20
0.0
 30
0.0000000000000013
  0
VERTEX
  5
4C
  8
6MM_PLYWOOD
 10
426.4540049317551
 20
514.0638093015051
 30
0.0000000000000013
  0
VERTEX
  5
4D
  8
6MM_PLYWOOD
 10
423.0341055462664
 20
512.9394035948611
 30
-0.0000000000000002
  0
VERTEX
  5
4E
  8
6MM_PLYWOOD
 10
423.6743921292164
 20
510.9919608892355
 30
0.0
  0
VERTEX
  5
4F
  8
6MM_PLYWOOD
 10
421.5844536158622
 20
510.3048240685087
 30
-0.0000000000000001
  0
VERTEX
  5
50
  8
6MM_PLYWOOD
 10
420.9441670329121
 20
512.2522667741341
 30
-0.0000000000000003
  0
VERTEX
  5
51
  8
6MM_PLYWOOD
 10
419.2342173401678
 20
511.6900639208122
 30
-0.0000000000000004
  0
VERTEX
  5
52
  8
6MM_PLYWOOD
 10
418.4533800438871
 20
514.0649940496238
 30
-0.0000000000000006
  0
VERTEX
  5
53
  8
6MM_PLYWOOD
 10
420.1633297366316
 20
514.6271969029458
 30
-0.0000000000000005
  0
VERTEX
  5
54
  8
6MM_PLYWOOD
 10
419.5230431536814
 20
516.5746396085714
 30
-0.0000000000000007
  0
VERTEX
  5
55
  8
6MM_PLYWOOD
 10
421.6129816670357
 20
517.2617764292983
 30
-0.0000000000000005
  0
VERTEX
  5
56
  8
6MM_PLYWOOD
 10
422.2532682499857
 20
515.3143337236727
 30
-0.0000000000000004
  0
VERTEX
  5
57
  8
6MM_PLYWOOD
 10
425.6731676354717
 20
516.4387394303159
 30
0.0000000000000014
  0
VERTEX
  5
58
  8
6MM_PLYWOOD
 10
400.9999999999997
 20
591.4826051240041
 30
-0.0000000000000001
  0
VERTEX
  5
59
  8
6MM_PLYWOOD
 10
401.0
 20
604.75
 30
-0.0000000000000002
  0
VERTEX
  5
5A
  8
6MM_PLYWOOD
 10
397.4
 20
604.75
 30
-0.0000000000000017
  0
VERTEX
  5
5B
  8
6MM_PLYWOOD
 10
397.4
 20
602.6999999999999
 30
-0.0000000000000016
  0
VERTEX
  5
5C
  8
6MM_PLYWOOD
 10
395.2000000000001
 20
602.6999999999999
 30
-0.0000000000000017
  0
VERTEX
  5
5D
  8
6MM_PLYWOOD
 10
395.2000000000001
 20
604.75
 30
-0.0000000000000019
  0
VERTEX
  5
5E
  8
6MM_PLYWOOD
 10
393.4
 20
604.75
 30
-0.000000000000002
  0
VERTEX
  5
5F
  8
6MM_PLYWOOD
 10
393.4
 20
607.25
 30
-0.0000000000000021
  0
VERTEX
  5
60
  8
6MM_PLYWOOD
 10
395.2000000000001
 20
607.25
 30
-0.000000000000002
  0
VERTEX
  5
61
  8
6MM_PLYWOOD
 10
395.2000000000001
 20
609.3
 30
-0.0000000000000021
  0
VERTEX
  5
62
  8
6MM_PLYWOOD
 10
397.4
 20
609.3
 30
-0.000000000000002
  0
VERTEX
  5
63
  8
6MM_PLYWOOD
 10
397.4
 20
607.25
 30
-0.0000000000000019
  0
VERTEX
  5
64
  8
6MM_PLYWOOD
 10
400.999999999997
 20
607.25
 30
-0.0000000000000002
  0
VERTEX
  5
65
  8
6MM_PLYWOOD
 10
400.9999999999997
 20
624.75
 30
-0.0000000000000001
  0
VERTEX
  5
66
  8
6MM_PLYWOOD
 10
399.2000000000001
 20
624.75
 30
-0.0000000000000006
  0
VERTEX
  5
67
  8
6MM_PLYWOOD
 10
397.4
 20
626.0
 30
-0.0000000000000003
  0
VERTEX
  5
68
  8
6MM_PLYWOOD
 10
399.2000000000001
 20
627.25
 30
-0.0000000000000007
  0
VERTEX
  5
69
  8
6MM_PLYWOOD
 10
400.9999999999998
 20
627.25
 30
-0.0000000000000001
  0
VERTEX
  5
6A
  8
6MM_PLYWOOD
 10
401.0
 20
644.75
 30
-0.0000000000000001
  0
VERTEX
  5
6B
  8
6MM_PLYWOOD
 10
397.4
 20
644.75
 30
-0.0000000000000019
  0
VERTEX
  5
6C
  8
6MM_PLYWOOD
 10
397.4
 20
642.6999999999999
 30
-0.000000000000002
  0
VERTEX
  5
6D
  8
6MM_PLYWOOD
 10
395.2000000000001
 20
642.6999999999999
 30
-0.0000000000000021
  0
VERTEX
  5
6E
  8
6MM_PLYWOOD
 10
395.2000000000001
 20
644.75
 30
-0.000000000000002
  0
VERTEX
  5
6F
  8
6MM_PLYWOOD
 10
393.4
 20
644.75
 30
-0.0000000000000021
  0
VERTEX
  5
70
  8
6MM_PLYWOOD
 10
393.4
 20
647.25
 30
-0.000000000000002
  0
VERTEX
  5
71
  8
6MM_PLYWOOD
 10
395.2000000000001
 20
647.25
 30
-0.0000000000000019
  0
VERTEX
  5
72
  8
6MM_PLYWOOD
 10
395.2000000000001
 20
649.3
 30
-0.0000000000000017
  0
VERTEX
  5
73
  8
6MM_PLYWOOD
 10
397.4
 20
649.3
 30
-0.0000000000000016
  0
VERTEX
  5
74
  8
6MM_PLYWOOD
 10
397.4
 20
647.25
 30
-0.0000000000000017
  0
VERTEX
  5
75
  8
6MM_PLYWOOD
 10
401.0
 20
647.25
 30
-0.0000000000000002
  0
VERTEX
  5
76
  8
6MM_PLYWOOD
 10
401.0
 20
649.5
 30
-0.0000000000000001
 42
0.4142135623730865
  0
VERTEX
  5
77
  8
6MM_PLYWOOD
 10
406.0
 20
654.5
 30
0.0000000000000002
  0
VERTEX
  5
78
  8
6MM_PLYWOOD
 10
406.0
 20
661.9999999999909
 30
0.0000000000000002
 42
0.414213562374081
  0
VERTEX
  5
79
  8
6MM_PLYWOOD
 10
402.0000000000044
 20
666.0
 30
-0.0000000000000001
  0
VERTEX
  5
7A
  8
6MM_PLYWOOD
 10
396.0
 20
666.0
 30
-0.0000000000000004
 42
0.414213562373095
  0
VERTEX
  5
7B
  8
6MM_PLYWOOD
 10
394.0
 20
664.0
 30
-0.0000000000000006
  0
VERTEX
  5
7C
  8
6MM_PLYWOOD
 10
394.0
 20
661.0
 30
-0.0000000000000006
  0
VERTEX
  5
7D
  8
6MM_PLYWOOD
 10
389.25
 20
660.9999999999973
 30
-0.0000000000000005
  0
VERTEX
  5
7E
  8
6MM_PLYWOOD
 10
389.25
 20
657.3999999999999
 30
0.0000000000000108
  0
VERTEX
  5
7F
  8
6MM_PLYWOOD
 10
391.3
 20
657.3999999999999
 30
0.0000000000000108
  0
VERTEX
  5
80
  8
6MM_PLYWOOD
 10
391.3
 20
655.1999999999999
 30
0.0000000000000105
  0
VERTEX
  5
81
  8
6MM_PLYWOOD
 10
389.25
 20
655.1999999999999
 30
0.0000000000000105
  0
VERTEX
  5
82
  8
6MM_PLYWOOD
 10
389.25
 20
653.3999999999999
 30
0.0000000000000103
  0
VERTEX
  5
83
  8
6MM_PLYWOOD
 10
386.75
 20
653.3999999999999
 30
0.0000000000000103
  0
VERTEX
  5
84
  8
6MM_PLYWOOD
 10
386.75
 20
655.1999999999999
 30
0.0000000000000105
  0
VERTEX
  5
85
  8
6MM_PLYWOOD
 10
384.7000000000001
 20
655.1999999999999
 30
0.0000000000000105
  0
VERTEX
  5
86
  8
6MM_PLYWOOD
 10
384.7000000000001
 20
657.3999999999999
 30
0.0000000000000108
  0
VERTEX
  5
87
  8
6MM_PLYWOOD
 10
386.75
 20
657.3999999999999
 30
0.0000000000000108
  0
VERTEX
  5
88
  8
6MM_PLYWOOD
 10
386.75
 20
661.0
 30
-0.0000000000000002
  0
VERTEX
  5
89
  8
6MM_PLYWOOD
 10
380.999999999997
 20
661.0000000000002
 30
-0.0000000000000013
  0
VERTEX
  5
8A
  8
6MM_PLYWOOD
 10
380.9999999999994
 20
664.0
 30
-0.0000000000000013
  0
VERTEX
  5
8B
  8
6MM_PLYWOOD
 10
366.9999999999999
 20
664.0
 30
-0.0000000000000022
  0
VERTEX
  5
8C
  8
6MM_PLYWOOD
 10
366.9999999999999
 20
655.0
 30
-0.0000000000000022
  0
VERTEX
  5
8D
  8
6MM_PLYWOOD
 10
375.0
 20
655.0
 30
-0.0000000000000017
  0
VERTEX
  5
8E
  8
6MM_PLYWOOD
 10
375.0
 20
647.25
 30
-0.0000000000000017
  0
VERTEX
  5
8F
  8
6MM_PLYWOOD
 10
378.6
 20
647.25
 30
-0.0000000000000029
  0
VERTEX
  5
90
  8
6MM_PLYWOOD
 10
378.6
 20
649.3
 30
-0.0000000000000028
  0
VERTEX
  5
91
  8
6MM_PLYWOOD
 10
380.8
 20
649.3
 30
-0.0000000000000026
  0
VERTEX
  5
92
  8
6MM_PLYWOOD
 10
380.8
 20
647.25
 30
-0.0000000000000028
  0
VERTEX
  5
93
  8
6MM_PLYWOOD
 10
382.6
 20
647.25
 30
-0.0000000000000026
  0
VERTEX
  5
94
  8
6MM_PLYWOOD
 10
382.6
 20
644.75
 30
-0.0000000000000028
  0
VERTEX
  5
95
  8
6MM_PLYWOOD
 10
380.8
 20
644.75
 30
-0.0000000000000029
  0
VERTEX
  5
96
  8
6MM_PLYWOOD
 10
380.8
 20
642.6999999999999
 30
-0.000000000000003
  0
VERTEX
  5
97
  8
6MM_PLYWOOD
 10
378.6
 20
642.6999999999999
 30
-0.0000000000000032
  0
VERTEX
  5
98
  8
6MM_PLYWOOD
 10
378.6
 20
644.75
 30
-0.000000000000003
  0
VERTEX
  5
99
  8
6MM_PLYWOOD
 10
375.0
 20
644.75
 30
-0.0000000000000017
  0
VERTEX
  5
9A
  8
6MM_PLYWOOD
 10
374.9999999999991
 20
486.5921765175845
 30
-0.0000000000000017
  0
VERTEX
  5
9B
  8
6MM_PLYWOOD
 10
330.5717237395155
 20
421.3120342780078
 30
-0.0000000000000044
 42
0.6973641555775125
  0
VERTEX
  5
9C
  8
6MM_PLYWOOD
 10
336.0266102052459
 20
413.6766094613356
 30
-0.0000000000000041
  0
VERTEX
  5
9D
  8
6MM_PLYWOOD
 10
381.0
 20
426.0
 30
-0.0000000000000013
  0
VERTEX
  5
9E
  8
6MM_PLYWOOD
 10
381.0
 20
428.9999999999982
 30
-0.0000000000000013
  0
VERTEX
  5
9F
  8
6MM_PLYWOOD
 10
386.75
 20
429.0
 30
-0.0000000000000002
  0
VERTEX
  5
A0
  8
6MM_PLYWOOD
 10
386.75
 20
432.6
 30
0.0000000000000108
  0
VERTEX
  5
A1
  8
6MM_PLYWOOD
 10
384.7000000000001
 20
432.6
 30
0.0000000000000108
  0
VERTEX
  5
A2
  8
6MM_PLYWOOD
 10
384.7000000000001
 20
434.8
 30
0.0000000000000105
  0
VERTEX
  5
A3
  8
6MM_PLYWOOD
 10
386.75
 20
434.8
 30
0.0000000000000105
  0
VERTEX
  5
A4
  8
6MM_PLYWOOD
 10
386.75
 20
436.6
 30
0.0000000000000103
  0
VERTEX
  5
A5
  8
6MM_PLYWOOD
 10
389.25
 20
436.6
 30
0.0000000000000103
  0
VERTEX
  5
A6
  8
6MM_PLYWOOD
 10
389.25
 20
434.8
 30
0.0000000000000105
  0
VERTEX
  5
A7
  8
6MM_PLYWOOD
 10
391.3
 20
434.8
 30
0.0000000000000105
  0
VERTEX
  5
A8
  8
6MM_PLYWOOD
 10
391.3
 20
432.6
 30
0.0000000000000108
  0
VERTEX
  5
A9
  8
6MM_PLYWOOD
 10
389.25
 20
432.6
 30
0.0000000000000108
  0
VERTEX
  5
AA
  8
6MM_PLYWOOD
 10
389.25
 20
429.000000000003
 30
-0.0000000000000005
  0
VERTEX
  5
AB
  8
6MM_PLYWOOD
 10
394.0
 20
429.0
 30
-0.0000000000000006
  0
VERTEX
  5
AC
  8
6MM_PLYWOOD
 10
394.0
 20
425.9999999999998
 30
-0.0000000000000006
 42
0.4142135623730232
  0
VERTEX
  5
AD
  8
6MM_PLYWOOD
 10
396.0000000000002
 20
424.0
 30
-0.0000000000000004
  0
VERTEX
  5
AE
  8
6MM_PLYWOOD
 10
401.0
 20
424.0
 30
-0.0000000000000001
 42
0.3888787318530018
  0
VERTEX
  5
AF
  8
6MM_PLYWOOD
 10
402.9923893961835
 20
425.8256885145047
 30
0.0000000000000016
  0
VERTEX
  5
B0
  8
6MM_PLYWOOD
 10
420.0659761285959
 20
431.4391982090488
 30
0.0000000000000014
  0
VERTEX
  5
B1
  8
6MM_PLYWOOD
 10
418.9415704219518
 20
434.8590975945375
 30
0.0000000000000127
  0
VERTEX
  5
B2
  8
6MM_PLYWOOD
 10
416.9941277163264
 20
434.2188110115874
 30
0.0000000000000127
  0
VERTEX
  5
B3
  8
6MM_PLYWOOD
 10
416.3069908955994
 20
436.3087495249416
 30
0.0000000000000124
  0
VERTEX
  5
B4
  8
6MM_PLYWOOD
 10
418.254433601225
 20
436.9490361078917
 30
0.0000000000000124
  0
VERTEX
  5
B5
  8
6MM_PLYWOOD
 10
417.692230747903
 20
438.6589858006361
 30
0.0000000000000122
  0
VERTEX
  5
B6
  8
6MM_PLYWOOD
 10
420.0671608767145
 20
439.4398230969167
 30
0.0000000000000122
  0
VERTEX
  5
B7
  8
6MM_PLYWOOD
 10
420.6293637300366
 20
437.7298734041724
 30
0.0000000000000124
  0
VERTEX
  5
B8
  8
6MM_PLYWOOD
 10
422.5768064356621
 20
438.3701599871224
 30
0.0000000000000124
  0
VERTEX
  5
B9
  8
6MM_PLYWOOD
 10
423.263943256389
 20
436.2802214737682
 30
0.0000000000000127
  0
VERTEX
  5
BA
  8
6MM_PLYWOOD
 10
421.3165005507635
 20
435.6399348908182
 30
0.0000000000000127
  0
VERTEX
  5
BB
  8
6MM_PLYWOOD
 10
422.4409062574059
 20
432.2200355053343
 30
0.0000000000000013
  0
VERTEX
  5
BC
  8
6MM_PLYWOOD
 10
439.065417159089
 20
437.6858965792934
 30
0.0000000000000026
  0
VERTEX
  5
BD
  8
6MM_PLYWOOD
 10
437.9410114524449
 20
441.1057959647822
 30
0.0000000000000139
  0
VERTEX
  5
BE
  8
6MM_PLYWOOD
 10
435.9935687468194
 20
440.4655093818321
 30
0.0000000000000139
  0
VERTEX
  5
BF
  8
6MM_PLYWOOD
 10
435.3064319260925
 20
442.5554478951863
 30
0.0000000000000136
  0
VERTEX
  5
C0
  8
6MM_PLYWOOD
 10
437.253874631718
 20
443.1957344781364
 30
0.0000000000000136
  0
VERTEX
  5
C1
  8
6MM_PLYWOOD
 10
436.691671778396
 20
444.9056841708807
 30
0.0000000000000133
  0
VERTEX
  5
C2
  8
6MM_PLYWOOD
 10
439.0666019072077
 20
445.6865214671614
 30
0.0000000000000133
  0
VERTEX
  5
C3
  8
6MM_PLYWOOD
 10
439.6288047605297
 20
443.976571774417
 30
0.0000000000000136
  0
VERTEX
  5
C4
  8
6MM_PLYWOOD
 10
441.5762474661551
 20
444.6168583573671
 30
0.0000000000000136
  0
VERTEX
  5
C5
  8
6MM_PLYWOOD
 10
442.2633842868821
 20
442.5269198440128
 30
0.0000000000000139
  0
VERTEX
  5
C6
  8
6MM_PLYWOOD
 10
440.3159415812565
 20
441.8866332610628
 30
0.0000000000000139
  0
VERTEX
  5
C7
  8
6MM_PLYWOOD
 10
441.4403472878996
 20
438.4667338755768
 30
0.0000000000000025
  0
VERTEX
  5
C8
  8
6MM_PLYWOOD
 10
450.3463352709438
 20
441.3948737366275
 30
0.0000000000000029
  0
VERTEX
  5
C9
  8
6MM_PLYWOOD
 10
438.9474016722429
 20
476.0649272405185
 30
0.0000000000000022
  0
VERTEX
  5
CA
  8
6MM_PLYWOOD
 10
435.5275022867556
 20
474.940521533875
 30
0.0000000000000006
  0
VERTEX
  5
CB
  8
6MM_PLYWOOD
 10
436.1677888697057
 20
472.9930788282495
 30
0.0000000000000008
  0
VERTEX
  5
CC
  8
6MM_PLYWOOD
 10
434.0778503563515
 20
472.3059420075226
 30
0.0000000000000006
  0
VERTEX
  5
CD
  8
6MM_PLYWOOD
 10
433.4375637734014
 20
474.2533847131481
 30
0.0000000000000005
  0
VERTEX
  5
CE
  8
6MM_PLYWOOD
 10
431.7276140806571
 20
473.6911818598261
 30
0.0000000000000004
  0
VERTEX
  5
CF
  8
6MM_PLYWOOD
 10
430.9467767843764
 20
476.0661119886377
 30
0.0000000000000002
  0
VERTEX
  5
D0
  8
6MM_PLYWOOD
 10
432.6567264771209
 20
476.6283148419598
 30
0.0000000000000003
  0
VERTEX
  5
D1
  8
6MM_PLYWOOD
 10
432.0164398941707
 20
478.5757575475852
 30
0.0000000000000001
  0
VERTEX
  5
D2
  8
6MM_PLYWOOD
 10
434.106378407525
 20
479.2628943683121
 30
0.0000000000000002
  0
VERTEX
  5
D3
  8
6MM_PLYWOOD
 10
434.746664990475
 20
477.3154516626867
 30
0.0000000000000004
  0
VERTEX
  5
D4
  8
6MM_PLYWOOD
 10
438.166564375961
 20
478.4398573693297
 30
0.0000000000000021
  0
VERTEX
  5
D5
  8
6MM_PLYWOOD
 10
426.4540049317523
 20
514.0638093015042
 30
0.0000000000000014
  0
SEQEND
  5
4B
  8
6MM_PLYWOOD
  0
POLYLINE
  5
D6
  8
6MM_PLYWOOD
 66
     1
 10
0.0
 20
0.0
 30
0.0000000000000013
  0
VERTEX
  5
D8
  8
6MM_PLYWOOD
 10
346.4540049317551
 20
564.9361906984949
 30
0.0000000000000013
  0
VERTEX
  5
D9
  8
6MM_PLYWOOD
 10
343.0341055462664
 20
566.0605964051389
 30
-0.0000000000000002
  0
VERTEX
  5
DA
  8
6MM_PLYWOOD
 10
343.6743921292164
 20
568.0080391107645
 30
0.0
  0
VERTEX
  5
DB
  8
6MM_PLYWOOD
 10
341.5844536158622
 20
568.6951759314914
 30
-0.0000000000000001
  0
VERTEX
  5
DC
  8
6MM_PLYWOOD
 10
340.9441670329121
 20
566.7477332258659
 30
-0.0000000000000003
  0
VERTEX
  5
DD
  8
6MM_PLYWOOD
 10
339.2342173401677
 20
567.3099360791878
 30
-0.0000000000000004
  0
VERTEX
  5
DE
  8
6MM_PLYWOOD
 10
338.4533800438871
 20
564.9350059503762
 30
-0.0000000000000006
  0
VERTEX
  5
DF
  8
6MM_PLYWOOD
 10
340.1633297366315
 20
564.3728030970542
 30
-0.0000000000000005
  0
VERTEX
  5
E0
  8
6MM_PLYWOOD
 10
339.5230431536814
 20
562.4253603914286
 30
-0.0000000000000007
  0
VERTEX
  5
E1
  8
6MM_PLYWOOD
 10
341.6129816670357
 20
561.7382235707017
 30
-0.0000000000000005
  0
VERTEX
  5
E2
  8
6MM_PLYWOOD
 10
342.2532682499858
 20
563.6856662763273
 30
-0.0000000000000004
  0
VERTEX
  5
E3
  8
6MM_PLYWOOD
 10
345.6731676354717
 20
562.5612605696841
 30
0.0000000000000014
  0
VERTEX
  5
E4
  8
6MM_PLYWOOD
 10
320.9999999999997
 20
487.5173948759958
 30
-0.0000000000000001
  0
VERTEX
  5
E5
  8
6MM_PLYWOOD
 10
321.0
 20
474.25
 30
-0.0000000000000002
  0
VERTEX
  5
E6
  8
6MM_PLYWOOD
 10
317.4
 20
474.25
 30
-0.0000000000000017
  0
VERTEX
  5
E7
  8
6MM_PLYWOOD
 10
317.4
 20
476.3
 30
-0.0000000000000016
  0
VERTEX
  5
E8
  8
6MM_PLYWOOD
 10
315.2
 20
476.3
 30
-0.0000000000000017
  0
VERTEX
  5
E9
  8
6MM_PLYWOOD
 10
315.2
 20
474.25
 30
-0.0000000000000019
  0
VERTEX
  5
EA
  8
6MM_PLYWOOD
 10
313.4
 20
474.25
 30
-0.000000000000002
  0
VERTEX
  5
EB
  8
6MM_PLYWOOD
 10
313.4
 20
471.75
 30
-0.0000000000000021
  0
VERTEX
  5
EC
  8
6MM_PLYWOOD
 10
315.2
 20
471.75
 30
-0.000000000000002
  0
VERTEX
  5
ED
  8
6MM_PLYWOOD
 10
315.2
 20
469.7
 30
-0.0000000000000021
  0
VERTEX
  5
EE
  8
6MM_PLYWOOD
 10
317.4
 20
469.7
 30
-0.000000000000002
  0
VERTEX
  5
EF
  8
6MM_PLYWOOD
 10
317.4
 20
471.75
 30
-0.0000000000000019
  0
VERTEX
  5
F0
  8
6MM_PLYWOOD
 10
320.999999999997
 20
471.75
 30
-0.0000000000000002
  0
VERTEX
  5
F1
  8
6MM_PLYWOOD
 10
320.9999999999997
 20
454.25
 30
-0.0000000000000001
  0
VERTEX
  5
F2
  8
6MM_PLYWOOD
 10
319.2
 20
454.25
 30
-0.0000000000000006
  0
VERTEX
  5
F3
  8
6MM_PLYWOOD
 10
317.4
 20
453.0
 30
-0.0000000000000003
  0
VERTEX
  5
F4
  8
6MM_PLYWOOD
 10
319.2
 20
451.75
 30
-0.0000000000000007
  0
VERTEX
  5
F5
  8
6MM_PLYWOOD
 10
320.9999999999997
 20
451.75
 30
-0.0000000000000001
  0
VERTEX
  5
F6
  8
6MM_PLYWOOD
 10
321.0
 20
434.25
 30
-0.0000000000000001
  0
VERTEX
  5
F7
  8
6MM_PLYWOOD
 10
317.4
 20
434.25
 30
-0.0000000000000019
  0
VERTEX
  5
F8
  8
6MM_PLYWOOD
 10
317.4
 20
436.3
 30
-0.000000000000002
  0
VERTEX
  5
F9
  8
6MM_PLYWOOD
 10
315.2
 20
436.3
 30
-0.0000000000000021
  0
VERTEX
  5
FA
  8
6MM_PLYWOOD
 10
315.2
 20
434.25
 30
-0.000000000000002
  0
VERTEX
  5
FB
  8
6MM_PLYWOOD
 10
313.4
 20
434.25
 30
-0.0000000000000021
  0
VERTEX
  5
FC
  8
6MM_PLYWOOD
 10
313.4
 20
431.75
 30
-0.000000000000002
  0
VERTEX
  5
FD
  8
6MM_PLYWOOD
 10
315.2
 20
431.75
 30
-0.0000000000000019
  0
VERTEX
  5
FE
  8
6MM_PLYWOOD
 10
315.2
 20
429.7
 30
-0.0000000000000017
  0
VERTEX
  5
FF
  8
6MM_PLYWOOD
 10
317.4
 20
429.7
 30
-0.0000000000000016
  0
VERTEX
  5
100
  8
6MM_PLYWOOD
 10
317.4
 20
431.75
 30
-0.0000000000000017
  0
VERTEX
  5
101
  8
6MM_PLYWOOD
 10
321.0
 20
431.75
 30
-0.0000000000000002
  0
VERTEX
  5
102
  8
6MM_PLYWOOD
 10
321.0
 20
429.5
 30
-0.0000000000000001
 42
-0.4142135623730913
  0
VERTEX
  5
103
  8
6MM_PLYWOOD
 10
326.0
 20
424.5
 30
0.0000000000000002
  0
VERTEX
  5
104
  8
6MM_PLYWOOD
 10
326.0
 20
417.0000000000089
 30
0.0000000000000002
 42
-0.4142135623740748
  0
VERTEX
  5
105
  8
6MM_PLYWOOD
 10
322.0000000000044
 20
413.0
 30
-0.0000000000000001
  0
VERTEX
  5
106
  8
6MM_PLYWOOD
 10
316.0
 20
413.0
 30
-0.0000000000000004
 42
-0.414213562373095
  0
VERTEX
  5
107
  8
6MM_PLYWOOD
 10
314.0
 20
415.0
 30
-0.0000000000000006
  0
VERTEX
  5
108
  8
6MM_PLYWOOD
 10
314.0
 20
418.0
 30
-0.0000000000000006
  0
VERTEX
  5
109
  8
6MM_PLYWOOD
 10
309.25
 20
418.0000000000026
 30
-0.0000000000000005
  0
VERTEX
  5
10A
  8
6MM_PLYWOOD
 10
309.25
 20
421.6
 30
0.0000000000000108
  0
VERTEX
  5
10B
  8
6MM_PLYWOOD
 10
311.3
 20
421.6
 30
0.0000000000000108
  0
VERTEX
  5
10C
  8
6MM_PLYWOOD
 10
311.3
 20
423.8
 30
0.0000000000000105
  0
VERTEX
  5
10D
  8
6MM_PLYWOOD
 10
309.25
 20
423.8
 30
0.0000000000000105
  0
VERTEX
  5
10E
  8
6MM_PLYWOOD
 10
309.25
 20
425.6
 30
0.0000000000000103
  0
VERTEX
  5
10F
  8
6MM_PLYWOOD
 10
306.75
 20
425.6
 30
0.0000000000000103
  0
VERTEX
  5
110
  8
6MM_PLYWOOD
 10
306.75
 20
423.8
 30
0.0000000000000105
  0
VERTEX
  5
111
  8
6MM_PLYWOOD
 10
304.7
 20
423.8
 30
0.0000000000000105
  0
VERTEX
  5
112
  8
6MM_PLYWOOD
 10
304.7
 20
421.6
 30
0.0000000000000108
  0
VERTEX
  5
113
  8
6MM_PLYWOOD
 10
306.75
 20
421.6
 30
0.0000000000000108
  0
VERTEX
  5
114
  8
6MM_PLYWOOD
 10
306.75
 20
418.0
 30
-0.0000000000000002
  0
VERTEX
  5
115
  8
6MM_PLYWOOD
 10
300.9999999999971
 20
417.9999999999998
 30
-0.0000000000000013
  0
VERTEX
  5
116
  8
6MM_PLYWOOD
 10
300.9999999999994
 20
415.0
 30
-0.0000000000000013
  0
VERTEX
  5
117
  8
6MM_PLYWOOD
 10
286.9999999999999
 20
415.0
 30
-0.0000000000000022
  0
VERTEX
  5
118
  8
6MM_PLYWOOD
 10
286.9999999999999
 20
424.0
 30
-0.0000000000000022
  0
VERTEX
  5
119
  8
6MM_PLYWOOD
 10
295.0
 20
424.0
 30
-0.0000000000000017
  0
VERTEX
  5
11A
  8
6MM_PLYWOOD
 10
295.0
 20
431.75
 30
-0.0000000000000017
  0
VERTEX
  5
11B
  8
6MM_PLYWOOD
 10
298.6
 20
431.75
 30
-0.0000000000000029
  0
VERTEX
  5
11C
  8
6MM_PLYWOOD
 10
298.6
 20
429.7
 30
-0.0000000000000028
  0
VERTEX
  5
11D
  8
6MM_PLYWOOD
 10
300.8
 20
429.7
 30
-0.0000000000000026
  0
VERTEX
  5
11E
  8
6MM_PLYWOOD
 10
300.8
 20
431.75
 30
-0.0000000000000028
  0
VERTEX
  5
11F
  8
6MM_PLYWOOD
 10
302.6
 20
431.75
 30
-0.0000000000000026
  0
VERTEX
  5
120
  8
6MM_PLYWOOD
 10
302.6
 20
434.25
 30
-0.0000000000000028
  0
VERTEX
  5
121
  8
6MM_PLYWOOD
 10
300.8
 20
434.25
 30
-0.0000000000000029
  0
VERTEX
  5
122
  8
6MM_PLYWOOD
 10
300.8
 20
436.3
 30
-0.000000000000003
  0
VERTEX
  5
123
  8
6MM_PLYWOOD
 10
298.6
 20
436.3
 30
-0.0000000000000032
  0
VERTEX
  5
124
  8
6MM_PLYWOOD
 10
298.6
 20
434.25
 30
-0.000000000000003
  0
VERTEX
  5
125
  8
6MM_PLYWOOD
 10
295.0
 20
434.25
 30
-0.0000000000000017
  0
VERTEX
  5
126
  8
6MM_PLYWOOD
 10
294.999999999999
 20
592.4078234824156
 30
-0.0000000000000017
  0
VERTEX
  5
127
  8
6MM_PLYWOOD
 10
250.5717237395153
 20
657.6879657219921
 30
-0.0000000000000044
 42
-0.6973641555775302
  0
VERTEX
  5
128
  8
6MM_PLYWOOD
 10
256.0266102052459
 20
665.3233905386644
 30
-0.0000000000000041
  0
VERTEX
  5
129
  8
6MM_PLYWOOD
 10
301.0
 20
653.0
 30
-0.0000000000000013
  0
VERTEX
  5
12A
  8
6MM_PLYWOOD
 10
301.0
 20
650.0000000000018
 30
-0.0000000000000013
  0
VERTEX
  5
12B
  8
6MM_PLYWOOD
 10
306.75
 20
650.0
 30
-0.0000000000000002
  0
VERTEX
  5
12C
  8
6MM_PLYWOOD
 10
306.75
 20
646.4
 30
0.0000000000000108
  0
VERTEX
  5
12D
  8
6MM_PLYWOOD
 10
304.7
 20
646.4
 30
0.0000000000000108
  0
VERTEX
  5
12E
  8
6MM_PLYWOOD
 10
304.7
 20
644.2000000000001
 30
0.0000000000000105
  0
VERTEX
  5
12F
  8
6MM_PLYWOOD
 10
306.75
 20
644.2000000000001
 30
0.0000000000000105
  0
VERTEX
  5
130
  8
6MM_PLYWOOD
 10
306.75
 20
642.4
 30
0.0000000000000103
  0
VERTEX
  5
131
  8
6MM_PLYWOOD
 10
309.25
 20
642.4
 30
0.0000000000000103
  0
VERTEX
  5
132
  8
6MM_PLYWOOD
 10
309.25
 20
644.2000000000001
 30
0.0000000000000105
  0
VERTEX
  5
133
  8
6MM_PLYWOOD
 10
311.3
 20
644.2000000000001
 30
0.0000000000000105
  0
VERTEX
  5
134
  8
6MM_PLYWOOD
 10
311.3
 20
646.4
 30
0.0000000000000108
  0
VERTEX
  5
135
  8
6MM_PLYWOOD
 10
309.25
 20
646.4
 30
0.0000000000000108
  0
VERTEX
  5
136
  8
6MM_PLYWOOD
 10
309.25
 20
649.999999999997
 30
-0.0000000000000005
  0
VERTEX
  5
137
  8
6MM_PLYWOOD
 10
314.0
 20
650.0
 30
-0.0000000000000006
  0
VERTEX
  5
138
  8
6MM_PLYWOOD
 10
314.0
 20
653.0000000000002
 30
-0.0000000000000006
 42
-0.4142135623730373
  0
VERTEX
  5
139
  8
6MM_PLYWOOD
 10
316.0000000000002
 20
655.0
 30
-0.0000000000000004
  0
VERTEX
  5
13A
  8
6MM_PLYWOOD
 10
321.0
 20
655.0
 30
-0.0000000000000001
 42
-0.3888787318529908
  0
VERTEX
  5
13B
  8
6MM_PLYWOOD
 10
322.9923893961835
 20
653.1743114854953
 30
0.0000000000000016
  0
VERTEX
  5
13C
  8
6MM_PLYWOOD
 10
340.0659761285959
 20
647.5608017909513
 30
0.0000000000000014
  0
VERTEX
  5
13D
  8
6MM_PLYWOOD
 10
338.9415704219518
 20
644.1409024054625
 30
0.0000000000000127
  0
VERTEX
  5
13E
  8
6MM_PLYWOOD
 10
336.9941277163263
 20
644.7811889884126
 30
0.0000000000000127
  0
VERTEX
  5
13F
  8
6MM_PLYWOOD
 10
336.3069908955994
 20
642.6912504750584
 30
0.0000000000000124
  0
VERTEX
  5
140
  8
6MM_PLYWOOD
 10
338.254433601225
 20
642.0509638921083
 30
0.0000000000000124
  0
VERTEX
  5
141
  8
6MM_PLYWOOD
 10
337.692230747903
 20
640.3410141993639
 30
0.0000000000000122
  0
VERTEX
  5
142
  8
6MM_PLYWOOD
 10
340.0671608767146
 20
639.5601769030833
 30
0.0000000000000122
  0
VERTEX
  5
143
  8
6MM_PLYWOOD
 10
340.6293637300366
 20
641.2701265958276
 30
0.0000000000000124
  0
VERTEX
  5
144
  8
6MM_PLYWOOD
 10
342.5768064356621
 20
640.6298400128776
 30
0.0000000000000124
  0
VERTEX
  5
145
  8
6MM_PLYWOOD
 10
343.263943256389
 20
642.7197785262318
 30
0.0000000000000127
  0
VERTEX
  5
146
  8
6MM_PLYWOOD
 10
341.3165005507635
 20
643.3600651091819
 30
0.0000000000000127
  0
VERTEX
  5
147
  8
6MM_PLYWOOD
 10
342.4409062574059
 20
646.7799644946657
 30
0.0000000000000013
  0
VERTEX
  5
148
  8
6MM_PLYWOOD
 10
359.065417159089
 20
641.3141034207066
 30
0.0000000000000026
  0
VERTEX
  5
149
  8
6MM_PLYWOOD
 10
357.9410114524449
 20
637.8942040352179
 30
0.0000000000000139
  0
VERTEX
  5
14A
  8
6MM_PLYWOOD
 10
355.9935687468194
 20
638.5344906181679
 30
0.0000000000000139
  0
VERTEX
  5
14B
  8
6MM_PLYWOOD
 10
355.3064319260924
 20
636.4445521048137
 30
0.0000000000000136
  0
VERTEX
  5
14C
  8
6MM_PLYWOOD
 10
357.253874631718
 20
635.8042655218636
 30
0.0000000000000136
  0
VERTEX
  5
14D
  8
6MM_PLYWOOD
 10
356.691671778396
 20
634.0943158291193
 30
0.0000000000000133
  0
VERTEX
  5
14E
  8
6MM_PLYWOOD
 10
359.0666019072077
 20
633.3134785328386
 30
0.0000000000000133
  0
VERTEX
  5
14F
  8
6MM_PLYWOOD
 10
359.6288047605297
 20
635.023428225583
 30
0.0000000000000136
  0
VERTEX
  5
150
  8
6MM_PLYWOOD
 10
361.5762474661552
 20
634.383141642633
 30
0.0000000000000136
  0
VERTEX
  5
151
  8
6MM_PLYWOOD
 10
362.2633842868821
 20
636.4730801559872
 30
0.0000000000000139
  0
VERTEX
  5
152
  8
6MM_PLYWOOD
 10
360.3159415812565
 20
637.1133667389372
 30
0.0000000000000139
  0
VERTEX
  5
153
  8
6MM_PLYWOOD
 10
361.4403472878997
 20
640.5332661244232
 30
0.0000000000000025
  0
VERTEX
  5
154
  8
6MM_PLYWOOD
 10
370.3463352709438
 20
637.6051262633724
 30
0.0000000000000029
  0
VERTEX
  5
155
  8
6MM_PLYWOOD
 10
358.947401672243
 20
602.9350727594815
 30
0.0000000000000022
  0
VERTEX
  5
156
  8
6MM_PLYWOOD
 10
355.5275022867556
 20
604.059478466125
 30
0.0000000000000006
  0
VERTEX
  5
157
  8
6MM_PLYWOOD
 10
356.1677888697057
 20
606.0069211717505
 30
0.0000000000000008
  0
VERTEX
  5
158
  8
6MM_PLYWOOD
 10
354.0778503563515
 20
606.6940579924774
 30
0.0000000000000006
  0
VERTEX
  5
159
  8
6MM_PLYWOOD
 10
353.4375637734014
 20
604.7466152868519
 30
0.0000000000000005
  0
VERTEX
  5
15A
  8
6MM_PLYWOOD
 10
351.727614080657
 20
605.3088181401739
 30
0.0000000000000004
  0
VERTEX
  5
15B
  8
6MM_PLYWOOD
 10
350.9467767843764
 20
602.9338880113623
 30
0.0000000000000002
  0
VERTEX
  5
15C
  8
6MM_PLYWOOD
 10
352.6567264771208
 20
602.3716851580402
 30
0.0000000000000003
  0
VERTEX
  5
15D
  8
6MM_PLYWOOD
 10
352.0164398941707
 20
600.4242424524148
 30
0.0000000000000001
  0
VERTEX
  5
15E
  8
6MM_PLYWOOD
 10
354.106378407525
 20
599.7371056316879
 30
0.0000000000000002
  0
VERTEX
  5
15F
  8
6MM_PLYWOOD
 10
354.746664990475
 20
601.6845483373133
 30
0.0000000000000004
  0
VERTEX
  5
160
  8
6MM_PLYWOOD
 10
358.166564375961
 20
600.5601426306703
 30
0.0000000000000021
  0
VERTEX
  5
161
  8
6MM_PLYWOOD
 10
346.4540049317523
 20
564.9361906984958
 30
0.0000000000000014
  0
SEQEND
  5
D7
  8
6MM_PLYWOOD
  0
POLYLINE
  5
162
  8
6MM_PLYWOOD
 66
     1
 10
0.0
 20
0.0
 30
-0.0000000000000001
  0
VERTEX
  5
164
  8
6MM_PLYWOOD
 10
321.0
 20
632.0
 30
-0.0000000000000001
  0
VERTEX
  5
165
  8
6MM_PLYWOOD
 10
321.0
 20
644.0
 30
-0.0000000000000001
  0
VERTEX
  5
166
  8
6MM_PLYWOOD
 10
323.0
 20
644.0
 30
0.0
  0
VERTEX
  5
167
  8
6MM_PLYWOOD
 10
323.0
 20
632.0
 30
0.0
  0
VERTEX
  5
168
  8
6MM_PLYWOOD
 10
321.0
 20
632.0
 30
-0.0000000000000001
  0
SEQEND
  5
163
  8
6MM_PLYWOOD
  0
POLYLINE
  5
169
  8
6MM_PLYWOOD
 66
     1
 10
0.0
 20
0.0
 30
-0.0000000000000001
  0
VERTEX
  5
16B
  8
6MM_PLYWOOD
 10
321.000000000003
 20
590.0
 30
-0.0000000000000001
  0
VERTEX
  5
16C
  8
6MM_PLYWOOD
 10
321.000000000003
 20
602.0
 30
-0.0000000000000001
  0
VERTEX
  5
16D
  8
6MM_PLYWOOD
 10
323.000000000003
 20
602.0
 30
0.0
  0
VERTEX
  5
16E
  8
6MM_PLYWOOD
 10
323.000000000003
 20
590.0
 30
0.0
  0
VERTEX
  5
16F
  8
6MM_PLYWOOD
 10
321.000000000003
 20
590.0
 30
-0.0000000000000001
  0
SEQEND
  5
16A
  8
6MM_PLYWOOD
  0
POLYLINE
  5
170
  8
6MM_PLYWOOD
 66
     1
 10
0.0
 20
0.0
 30
-0.0000000000000001
  0
VERTEX
  5
172
  8
6MM_PLYWOOD
 10
321.0
 20
550.0
 30
-0.0000000000000001
  0
VERTEX
  5
173
  8
6MM_PLYWOOD
 10
321.0
 20
562.0
 30
-0.0000000000000001
  0
VERTEX
  5
174
  8
6MM_PLYWOOD
 10
323.0
 20
562.0
 30
0.0
  0
VERTEX
  5
175
  8
6MM_PLYWOOD
 10
323.0
 20
550.0
 30
0.0
  0
VERTEX
  5
176
  8
6MM_PLYWOOD
 10
321.0
 20
550.0
 30
-0.0000000000000001
  0
SEQEND
  5
171
  8
6MM_PLYWOOD
  0
POLYLINE
  5
177
  8
6MM_PLYWOOD
 66
     1
 10
0.0
 20
0.0
 30
-0.0000000000000001
  0
VERTEX
  5
179
  8
6MM_PLYWOOD
 10
321.0
 20
510.0
 30
-0.0000000000000001
  0
VERTEX
  5
17A
  8
6MM_PLYWOOD
 10
321.0
 20
522.0
 30
-0.0000000000000001
  0
VERTEX
  5
17B
  8
6MM_PLYWOOD
 10
323.0
 20
522.0
 30
0.0
  0
VERTEX
  5
17C
  8
6MM_PLYWOOD
 10
323.0
 20
510.0
 30
0.0
  0
VERTEX
  5
17D
  8
6MM_PLYWOOD
 10
321.0
 20
510.0
 30
-0.0000000000000001
  0
SEQEND
  5
178
  8
6MM_PLYWOOD
  0
CIRCLE
  5
17E
  8
6MM_PLYWOOD
 10
322.0
 20
417.0
 30
-0.0000000000000001
 40
2.25
  0
CIRCLE
  5
17F
  8
6MM_PLYWOOD
 10
323.6
 20
424.0
 30
0.0
 40
0.5
  0
CIRCLE
  5
180
  8
6MM_PLYWOOD
 10
321.0
 20
651.0
 30
-0.0000000000000001
 40
0.95
  0
ENDSEC
  0
EOF
