  0
SECTION
  2
HEADER
  9
$ACADVER
  1
AC1009
  9
$DWGCODEPAGE
  3
ansi_1252
  9
$INSBASE
 10
0.0
 20
0.0
 30
0.0
  9
$EXTMIN
 10
-113.0000000000123
 20
110.9999999999998
 30
-0.0000000000000052
  9
$EXTMAX
 10
-51.0
 20
239.9999999999972
 30
0.0000000000000108
  9
$LIMMIN
 10
0.0
 20
0.0
  9
$LIMMAX
 10
12.0
 20
9.0
  9
$ORTHOMODE
 70
     0
  9
$REGENMODE
 70
     1
  9
$FILLMODE
 70
     1
  9
$QTEXTMODE
 70
     0
  9
$MIRRTEXT
 70
     1
  9
$DRAGMODE
 70
     2
  9
$LTSCALE
 40
1.0
  9
$OSMODE
 70
    37
  9
$ATTMODE
 70
     1
  9
$TEXTSIZE
 40
0.2
  9
$TRACEWID
 40
0.05
  9
$TEXTSTYLE
  7
STANDARD
  9
$CLAYER
  8
SIDE_RAIL_BOTTOM_CAMERA
  9
$CELTYPE
  6
BYLAYER
  9
$CECOLOR
 62
   256
  9
$DIMSCALE
 40
1.0
  9
$DIMASZ
 40
0.18
  9
$DIMEXO
 40
0.0625
  9
$DIMDLI
 40
0.38
  9
$DIMRND
 40
0.0
  9
$DIMDLE
 40
0.0
  9
$DIMEXE
 40
0.18
  9
$DIMTP
 40
0.0
  9
$DIMTM
 40
0.0
  9
$DIMTXT
 40
0.18
  9
$DIMCEN
 40
0.09
  9
$DIMTSZ
 40
0.0
  9
$DIMTOL
 70
     0
  9
$DIMLIM
 70
     0
  9
$DIMTIH
 70
     1
  9
$DIMTOH
 70
     1
  9
$DIMSE1
 70
     0
  9
$DIMSE2
 70
     0
  9
$DIMTAD
 70
     0
  9
$DIMZIN
 70
     0
  9
$DIMBLK
  1

  9
$DIMASO
 70
     1
  9
$DIMSHO
 70
     1
  9
$DIMPOST
  1

  9
$DIMAPOST
  1

  9
$DIMALT
 70
     0
  9
$DIMALTD
 70
     2
  9
$DIMALTF
 40
25.4
  9
$DIMLFAC
 40
1.0
  9
$DIMTOFL
 70
     0
  9
$DIMTVP
 40
0.0
  9
$DIMTIX
 70
     0
  9
$DIMSOXD
 70
     0
  9
$DIMSAH
 70
     0
  9
$DIMBLK1
  1

  9
$DIMBLK2
  1

  9
$DIMSTYLE
  2
STANDARD
  9
$DIMCLRD
 70
     0
  9
$DIMCLRE
 70
     0
  9
$DIMCLRT
 70
     0
  9
$DIMTFAC
 40
1.0
  9
$DIMGAP
 40
0.09
  9
$LUNITS
 70
     2
  9
$LUPREC
 70
     3
  9
$SKETCHINC
 40
0.1
  9
$FILLETRAD
 40
0.5
  9
$AUNITS
 70
     0
  9
$AUPREC
 70
     0
  9
$MENU
  1
.
  9
$ELEVATION
 40
0.0
  9
$PELEVATION
 40
0.0
  9
$THICKNESS
 40
0.0
  9
$LIMCHECK
 70
     0
  9
$CHAMFERA
 40
0.5
  9
$CHAMFERB
 40
0.5
  9
$SKPOLY
 70
     0
  9
$TDCREATE
 40
2457449.455537616
  9
$TDUPDATE
 40
2457449.455537628
  9
$TDINDWG
 40
0.0000000116
  9
$TDUSRTIMER
 40
0.0000000116
  9
$USRTIMER
 70
     1
  9
$ANGBASE
 50
0.0
  9
$ANGDIR
 70
     0
  9
$PDMODE
 70
     0
  9
$PDSIZE
 40
0.0
  9
$PLINEWID
 40
0.0
  9
$COORDS
 70
     1
  9
$SPLFRAME
 70
     0
  9
$SPLINETYPE
 70
     6
  9
$SPLINESEGS
 70
     8
  9
$ATTDIA
 70
     0
  9
$ATTREQ
 70
     1
  9
$HANDLING
 70
     1
  9
$HANDSEED
  5
147
  9
$SURFTAB1
 70
     6
  9
$SURFTAB2
 70
     6
  9
$SURFTYPE
 70
     6
  9
$SURFU
 70
     6
  9
$SURFV
 70
     6
  9
$UCSNAME
  2

  9
$UCSORG
 10
0.0
 20
0.0
 30
0.0
  9
$UCSXDIR
 10
1.0
 20
0.0
 30
0.0
  9
$UCSYDIR
 10
0.0
 20
1.0
 30
0.0
  9
$PUCSNAME
  2

  9
$PUCSORG
 10
0.0
 20
0.0
 30
0.0
  9
$PUCSXDIR
 10
1.0
 20
0.0
 30
0.0
  9
$PUCSYDIR
 10
0.0
 20
1.0
 30
0.0
  9
$USERI1
 70
     0
  9
$USERI2
 70
     0
  9
$USERI3
 70
     0
  9
$USERI4
 70
     0
  9
$USERI5
 70
     0
  9
$USERR1
 40
0.0
  9
$USERR2
 40
0.0
  9
$USERR3
 40
0.0
  9
$USERR4
 40
0.0
  9
$USERR5
 40
0.0
  9
$WORLDVIEW
 70
     1
  9
$SHADEDGE
 70
     3
  9
$SHADEDIF
 70
    70
  9
$TILEMODE
 70
     1
  9
$MAXACTVP
 70
    64
  9
$PLIMCHECK
 70
     0
  9
$PEXTMIN
 10
1.000000000000000E+20
 20
1.000000000000000E+20
 30
1.000000000000000E+20
  9
$PEXTMAX
 10
-1.000000000000000E+20
 20
-1.000000000000000E+20
 30
-1.000000000000000E+20
  9
$PLIMMIN
 10
0.0
 20
0.0
  9
$PLIMMAX
 10
12.0
 20
9.0
  9
$UNITMODE
 70
     0
  9
$VISRETAIN
 70
     1
  9
$PLINEGEN
 70
     0
  9
$PSLTSCALE
 70
     1
  0
ENDSEC
  0
SECTION
  2
TABLES
  0
TABLE
  2
VPORT
 70
     2
  0
VPORT
  2
*ACTIVE
 70
     0
 10
0.0
 20
0.0
 11
1.0
 21
1.0
 12
-82.00000000000614
 22
175.4999999999985
 13
0.0
 23
0.0
 14
0.5
 24
0.5
 15
0.5
 25
0.5
 16
0.0
 26
0.0
 36
1.0
 17
0.0
 27
0.0
 37
0.0
 40
129.0012899999969
 41
1.6
 42
50.0
 43
0.0
 44
0.0
 50
0.0
 51
0.0
 71
     0
 72
   100
 73
     1
 74
     3
 75
     0
 76
     0
 77
     0
 78
     0
  0
ENDTAB
  0
TABLE
  2
LTYPE
 70
     1
  0
LTYPE
  2
CONTINUOUS
 70
     0
  3
Solid line
 72
    65
 73
     0
 40
0.0
  0
ENDTAB
  0
TABLE
  2
LAYER
 70
     2
  0
LAYER
  2
0
 70
     0
 62
     7
  6
CONTINUOUS
  0
LAYER
  2
SIDE_RAIL_BOTTOM_CAMERA
 70
     0
 62
     1
  6
CONTINUOUS
  0
ENDTAB
  0
TABLE
  2
STYLE
 70
     1
  0
STYLE
  2
STANDARD
 70
     0
 40
0.0
 41
1.0
 50
0.0
 71
     0
 42
0.2
  3
txt
  4

  0
ENDTAB
  0
TABLE
  2
VIEW
 70
     0
  0
ENDTAB
  0
TABLE
  2
UCS
 70
     0
  0
ENDTAB
  0
TABLE
  2
APPID
 70
     1
  0
APPID
  2
ACAD
 70
     0
  0
ENDTAB
  0
TABLE
  2
DIMSTYLE
 70
     1
  0
DIMSTYLE
  2
STANDARD
 70
     0
  3

  4

  5

  6

  7

 40
1.0
 41
0.18
 42
0.0625
 43
0.38
 44
0.18
 45
0.0
 46
0.0
 47
0.0
 48
0.0
140
0.18
141
0.09
142
0.0
143
25.4
144
1.0
145
0.0
146
1.0
147
0.09
 71
     0
 72
     0
 73
     1
 74
     1
 75
     0
 76
     0
 77
     0
 78
     0
170
     0
171
     2
172
     0
173
     0
174
     0
175
     0
176
     0
177
     0
178
     0
  0
ENDTAB
  0
ENDSEC
  0
SECTION
  2
BLOCKS
  0
BLOCK
  8
0
  2
$MODEL_SPACE
 70
     0
 10
0.0
 20
0.0
 30
0.0
  3
$MODEL_SPACE
  1

  0
ENDBLK
  5
21
  8
0
  0
BLOCK
 67
     1
  8
0
  2
$PAPER_SPACE
 70
     0
 10
0.0
 20
0.0
 30
0.0
  3
$PAPER_SPACE
  1

  0
ENDBLK
  5
1D
 67
     1
  8
0
  0
BLOCK
  8
0
  2
$PAPER_SPACE0
 70
     0
 10
0.0
 20
0.0
 30
0.0
  3
$PAPER_SPACE0
  1

  0
ENDBLK
  5
25
  8
0
  0
ENDSEC
  0
SECTION
  2
ENTITIES
  0
POLYLINE
  5
2B
  8
SIDE_RAIL_BOTTOM_CAMERA
 66
     1
 10
0.0
 20
0.0
 30
-0.0000000000000028
  0
VERTEX
  5
2D
  8
SIDE_RAIL_BOTTOM_CAMERA
 10
-100.2500000000123
 20
124.9999999999998
 30
-0.0000000000000028
  0
VERTEX
  5
2E
  8
SIDE_RAIL_BOTTOM_CAMERA
 10
-100.2500000000123
 20
128.5999999999969
 30
0.0000000000000085
  0
VERTEX
  5
2F
  8
SIDE_RAIL_BOTTOM_CAMERA
 10
-102.3000000000123
 20
128.5999999999969
 30
0.0000000000000083
  0
VERTEX
  5
30
  8
SIDE_RAIL_BOTTOM_CAMERA
 10
-102.3000000000123
 20
130.7999999999969
 30
0.000000000000008
  0
VERTEX
  5
31
  8
SIDE_RAIL_BOTTOM_CAMERA
 10
-100.2500000000123
 20
130.7999999999969
 30
0.0000000000000083
  0
VERTEX
  5
32
  8
SIDE_RAIL_BOTTOM_CAMERA
 10
-100.2500000000123
 20
132.5999999999969
 30
0.000000000000008
  0
VERTEX
  5
33
  8
SIDE_RAIL_BOTTOM_CAMERA
 10
-97.75000000001226
 20
132.5999999999969
 30
0.0000000000000083
  0
VERTEX
  5
34
  8
SIDE_RAIL_BOTTOM_CAMERA
 10
-97.75000000001225
 20
130.7999999999969
 30
0.0000000000000086
  0
VERTEX
  5
35
  8
SIDE_RAIL_BOTTOM_CAMERA
 10
-95.70000000001225
 20
130.7999999999969
 30
0.0000000000000088
  0
VERTEX
  5
36
  8
SIDE_RAIL_BOTTOM_CAMERA
 10
-95.70000000001225
 20
128.5999999999969
 30
0.0000000000000091
  0
VERTEX
  5
37
  8
SIDE_RAIL_BOTTOM_CAMERA
 10
-97.75000000001226
 20
128.5999999999969
 30
0.0000000000000088
  0
VERTEX
  5
38
  8
SIDE_RAIL_BOTTOM_CAMERA
 10
-97.75000000001226
 20
124.9999999999969
 30
-0.0000000000000022
  0
SEQEND
  5
2C
  8
SIDE_RAIL_BOTTOM_CAMERA
  0
POLYLINE
  5
39
  8
SIDE_RAIL_BOTTOM_CAMERA
 66
     1
 10
0.0
 20
0.0
 30
-0.0000000000000022
  0
VERTEX
  5
3B
  8
SIDE_RAIL_BOTTOM_CAMERA
 10
-86.00000000000145
 20
130.9999999999986
 30
-0.0000000000000022
  0
VERTEX
  5
3C
  8
SIDE_RAIL_BOTTOM_CAMERA
 10
-86.00000000001081
 20
228.9999999999952
 30
-0.0000000000000022
  0
VERTEX
  5
3D
  8
SIDE_RAIL_BOTTOM_CAMERA
 10
-78.0000000000108
 20
229.0000000000007
 30
-0.0000000000000017
  0
VERTEX
  5
3E
  8
SIDE_RAIL_BOTTOM_CAMERA
 10
-78.00000000001081
 20
237.9999999999921
 30
-0.0000000000000017
  0
VERTEX
  5
3F
  8
SIDE_RAIL_BOTTOM_CAMERA
 10
-92.00000000001226
 20
237.9999999999969
 30
-0.0000000000000026
  0
VERTEX
  5
40
  8
SIDE_RAIL_BOTTOM_CAMERA
 10
-92.00000000001226
 20
235.0000000000006
 30
-0.0000000000000026
  0
VERTEX
  5
41
  8
SIDE_RAIL_BOTTOM_CAMERA
 10
-105.0000000000123
 20
234.9999999999969
 30
-0.0000000000000034
  0
VERTEX
  5
42
  8
SIDE_RAIL_BOTTOM_CAMERA
 10
-105.0000000000123
 20
237.9999999999971
 30
-0.0000000000000034
 42
0.4142135623730322
  0
VERTEX
  5
43
  8
SIDE_RAIL_BOTTOM_CAMERA
 10
-107.0000000000125
 20
239.9999999999969
 30
-0.0000000000000035
  0
VERTEX
  5
44
  8
SIDE_RAIL_BOTTOM_CAMERA
 10
-111.0000000000123
 20
239.9999999999969
 30
-0.0000000000000037
 42
0.4142135623730927
  0
VERTEX
  5
45
  8
SIDE_RAIL_BOTTOM_CAMERA
 10
-113.0000000000123
 20
237.9999999999969
 30
-0.0000000000000006
  0
VERTEX
  5
46
  8
SIDE_RAIL_BOTTOM_CAMERA
 10
-113.0000000000123
 20
231.9999999999969
 30
0.0000000000000034
  0
VERTEX
  5
47
  8
SIDE_RAIL_BOTTOM_CAMERA
 10
-112.0000000000141
 20
231.9999999999969
 30
-0.0000000000000026
  0
VERTEX
  5
48
  8
SIDE_RAIL_BOTTOM_CAMERA
 10
-112.0000000000141
 20
127.9999999999969
 30
-0.0000000000000026
  0
VERTEX
  5
49
  8
SIDE_RAIL_BOTTOM_CAMERA
 10
-113.0000000000123
 20
127.9999999999969
 30
0.0000000000000034
  0
VERTEX
  5
4A
  8
SIDE_RAIL_BOTTOM_CAMERA
 10
-113.0000000000123
 20
121.9999999999969
 30
-0.0000000000000006
 42
0.4142135623730958
  0
VERTEX
  5
4B
  8
SIDE_RAIL_BOTTOM_CAMERA
 10
-111.0000000000123
 20
119.9999999999969
 30
-0.0000000000000037
  0
VERTEX
  5
4C
  8
SIDE_RAIL_BOTTOM_CAMERA
 10
-107.0000000000125
 20
119.9999999999969
 30
-0.0000000000000035
 42
0.4142135623731614
  0
VERTEX
  5
4D
  8
SIDE_RAIL_BOTTOM_CAMERA
 10
-105.0000000000123
 20
121.9999999999967
 30
-0.0000000000000034
  0
VERTEX
  5
4E
  8
SIDE_RAIL_BOTTOM_CAMERA
 10
-105.0000000000123
 20
124.9999999999969
 30
-0.0000000000000034
  0
VERTEX
  5
4F
  8
SIDE_RAIL_BOTTOM_CAMERA
 10
-92.00000000001226
 20
124.9999999999951
 30
-0.0000000000000026
  0
VERTEX
  5
50
  8
SIDE_RAIL_BOTTOM_CAMERA
 10
-92.00000000001226
 20
121.9999999999969
 30
-0.0000000000000026
  0
VERTEX
  5
51
  8
SIDE_RAIL_BOTTOM_CAMERA
 10
-78.00000000001081
 20
122.0000000000017
 30
-0.0000000000000017
  0
VERTEX
  5
52
  8
SIDE_RAIL_BOTTOM_CAMERA
 10
-78.0000000000108
 20
130.9999999999932
 30
-0.0000000000000017
  0
VERTEX
  5
53
  8
SIDE_RAIL_BOTTOM_CAMERA
 10
-86.00000000001081
 20
130.9999999999986
 30
-0.0000000000000022
  0
SEQEND
  5
3A
  8
SIDE_RAIL_BOTTOM_CAMERA
  0
POLYLINE
  5
54
  8
SIDE_RAIL_BOTTOM_CAMERA
 66
     1
 10
0.0
 20
0.0
 30
-0.0000000000000023
  0
VERTEX
  5
56
  8
SIDE_RAIL_BOTTOM_CAMERA
 10
-86.00000000000809
 20
138.7499999999969
 30
-0.0000000000000023
  0
VERTEX
  5
57
  8
SIDE_RAIL_BOTTOM_CAMERA
 10
-89.6000000000081
 20
138.7499999999969
 30
-0.0000000000000038
  0
VERTEX
  5
58
  8
SIDE_RAIL_BOTTOM_CAMERA
 10
-89.6000000000081
 20
136.6999999999969
 30
-0.0000000000000037
  0
VERTEX
  5
59
  8
SIDE_RAIL_BOTTOM_CAMERA
 10
-91.80000000000808
 20
136.6999999999969
 30
-0.0000000000000038
  0
VERTEX
  5
5A
  8
SIDE_RAIL_BOTTOM_CAMERA
 10
-91.80000000000808
 20
138.7499999999969
 30
-0.000000000000004
  0
VERTEX
  5
5B
  8
SIDE_RAIL_BOTTOM_CAMERA
 10
-93.6000000000081
 20
138.7499999999969
 30
-0.0000000000000041
  0
VERTEX
  5
5C
  8
SIDE_RAIL_BOTTOM_CAMERA
 10
-93.6000000000081
 20
141.2499999999969
 30
-0.0000000000000042
  0
VERTEX
  5
5D
  8
SIDE_RAIL_BOTTOM_CAMERA
 10
-91.8000000000081
 20
141.2499999999969
 30
-0.0000000000000041
  0
VERTEX
  5
5E
  8
SIDE_RAIL_BOTTOM_CAMERA
 10
-91.80000000000808
 20
143.2999999999969
 30
-0.0000000000000042
  0
VERTEX
  5
5F
  8
SIDE_RAIL_BOTTOM_CAMERA
 10
-89.6000000000081
 20
143.2999999999969
 30
-0.0000000000000041
  0
VERTEX
  5
60
  8
SIDE_RAIL_BOTTOM_CAMERA
 10
-89.6000000000081
 20
141.2499999999969
 30
-0.000000000000004
  0
VERTEX
  5
61
  8
SIDE_RAIL_BOTTOM_CAMERA
 10
-86.00000000001104
 20
141.2499999999969
 30
-0.0000000000000022
  0
SEQEND
  5
55
  8
SIDE_RAIL_BOTTOM_CAMERA
  0
POLYLINE
  5
62
  8
SIDE_RAIL_BOTTOM_CAMERA
 66
     1
 10
0.0
 20
0.0
 30
-0.0000000000000022
  0
VERTEX
  5
64
  8
SIDE_RAIL_BOTTOM_CAMERA
 10
-97.75000000001226
 20
234.9999999999969
 30
-0.0000000000000022
  0
VERTEX
  5
65
  8
SIDE_RAIL_BOTTOM_CAMERA
 10
-97.75000000001226
 20
231.3999999999969
 30
0.0000000000000088
  0
VERTEX
  5
66
  8
SIDE_RAIL_BOTTOM_CAMERA
 10
-95.70000000001225
 20
231.3999999999969
 30
0.0000000000000091
  0
VERTEX
  5
67
  8
SIDE_RAIL_BOTTOM_CAMERA
 10
-95.70000000001225
 20
229.1999999999969
 30
0.0000000000000088
  0
VERTEX
  5
68
  8
SIDE_RAIL_BOTTOM_CAMERA
 10
-97.75000000001225
 20
229.1999999999969
 30
0.0000000000000086
  0
VERTEX
  5
69
  8
SIDE_RAIL_BOTTOM_CAMERA
 10
-97.75000000001226
 20
227.3999999999969
 30
0.0000000000000083
  0
VERTEX
  5
6A
  8
SIDE_RAIL_BOTTOM_CAMERA
 10
-100.2500000000123
 20
227.3999999999969
 30
0.000000000000008
  0
VERTEX
  5
6B
  8
SIDE_RAIL_BOTTOM_CAMERA
 10
-100.2500000000123
 20
229.1999999999969
 30
0.0000000000000083
  0
VERTEX
  5
6C
  8
SIDE_RAIL_BOTTOM_CAMERA
 10
-102.3000000000123
 20
229.1999999999969
 30
0.000000000000008
  0
VERTEX
  5
6D
  8
SIDE_RAIL_BOTTOM_CAMERA
 10
-102.3000000000123
 20
231.3999999999969
 30
0.0000000000000083
  0
VERTEX
  5
6E
  8
SIDE_RAIL_BOTTOM_CAMERA
 10
-100.2500000000123
 20
231.3999999999969
 30
0.0000000000000085
  0
VERTEX
  5
6F
  8
SIDE_RAIL_BOTTOM_CAMERA
 10
-100.2500000000123
 20
234.999999999994
 30
-0.0000000000000028
  0
SEQEND
  5
63
  8
SIDE_RAIL_BOTTOM_CAMERA
  0
POLYLINE
  5
70
  8
SIDE_RAIL_BOTTOM_CAMERA
 66
     1
 10
0.0
 20
0.0
 30
-0.000000000000004
  0
VERTEX
  5
72
  8
SIDE_RAIL_BOTTOM_CAMERA
 10
-112.0000000000123
 20
221.2499999999969
 30
-0.000000000000004
  0
VERTEX
  5
73
  8
SIDE_RAIL_BOTTOM_CAMERA
 10
-108.4000000000123
 20
221.2499999999969
 30
-0.000000000000005
  0
VERTEX
  5
74
  8
SIDE_RAIL_BOTTOM_CAMERA
 10
-108.4000000000123
 20
223.2999999999969
 30
-0.0000000000000048
  0
VERTEX
  5
75
  8
SIDE_RAIL_BOTTOM_CAMERA
 10
-106.2000000000123
 20
223.2999999999969
 30
-0.0000000000000047
  0
VERTEX
  5
76
  8
SIDE_RAIL_BOTTOM_CAMERA
 10
-106.2000000000123
 20
221.2499999999969
 30
-0.0000000000000048
  0
VERTEX
  5
77
  8
SIDE_RAIL_BOTTOM_CAMERA
 10
-104.4000000000123
 20
221.2499999999969
 30
-0.0000000000000047
  0
VERTEX
  5
78
  8
SIDE_RAIL_BOTTOM_CAMERA
 10
-104.4000000000123
 20
218.7499999999969
 30
-0.0000000000000049
  0
VERTEX
  5
79
  8
SIDE_RAIL_BOTTOM_CAMERA
 10
-106.2000000000123
 20
218.7499999999969
 30
-0.000000000000005
  0
VERTEX
  5
7A
  8
SIDE_RAIL_BOTTOM_CAMERA
 10
-106.2000000000123
 20
216.6999999999969
 30
-0.0000000000000051
  0
VERTEX
  5
7B
  8
SIDE_RAIL_BOTTOM_CAMERA
 10
-108.4000000000123
 20
216.6999999999969
 30
-0.0000000000000052
  0
VERTEX
  5
7C
  8
SIDE_RAIL_BOTTOM_CAMERA
 10
-108.4000000000123
 20
218.7499999999969
 30
-0.0000000000000051
  0
VERTEX
  5
7D
  8
SIDE_RAIL_BOTTOM_CAMERA
 10
-112.0000000000093
 20
218.7499999999969
 30
-0.0000000000000038
  0
SEQEND
  5
71
  8
SIDE_RAIL_BOTTOM_CAMERA
  0
POLYLINE
  5
7E
  8
SIDE_RAIL_BOTTOM_CAMERA
 66
     1
 10
0.0
 20
0.0
 30
-0.0000000000000038
  0
VERTEX
  5
80
  8
SIDE_RAIL_BOTTOM_CAMERA
 10
-112.0000000000119
 20
201.2499999999969
 30
-0.0000000000000038
  0
VERTEX
  5
81
  8
SIDE_RAIL_BOTTOM_CAMERA
 10
-110.2000000000123
 20
201.2499999999969
 30
-0.000000000000004
  0
VERTEX
  5
82
  8
SIDE_RAIL_BOTTOM_CAMERA
 10
-108.4000000000123
 20
199.9999999999969
 30
-0.0000000000000036
  0
VERTEX
  5
83
  8
SIDE_RAIL_BOTTOM_CAMERA
 10
-110.2000000000123
 20
198.7499999999969
 30
-0.0000000000000041
  0
VERTEX
  5
84
  8
SIDE_RAIL_BOTTOM_CAMERA
 10
-112.000000000012
 20
198.7499999999969
 30
-0.0000000000000038
  0
SEQEND
  5
7F
  8
SIDE_RAIL_BOTTOM_CAMERA
  0
POLYLINE
  5
85
  8
SIDE_RAIL_BOTTOM_CAMERA
 66
     1
 10
0.0
 20
0.0
 30
-0.0000000000000039
  0
VERTEX
  5
87
  8
SIDE_RAIL_BOTTOM_CAMERA
 10
-112.0000000000123
 20
181.2499999999969
 30
-0.0000000000000039
  0
VERTEX
  5
88
  8
SIDE_RAIL_BOTTOM_CAMERA
 10
-108.4000000000123
 20
181.2499999999969
 30
-0.000000000000005
  0
VERTEX
  5
89
  8
SIDE_RAIL_BOTTOM_CAMERA
 10
-108.4000000000123
 20
183.2999999999969
 30
-0.0000000000000048
  0
VERTEX
  5
8A
  8
SIDE_RAIL_BOTTOM_CAMERA
 10
-106.2000000000123
 20
183.2999999999969
 30
-0.0000000000000047
  0
VERTEX
  5
8B
  8
SIDE_RAIL_BOTTOM_CAMERA
 10
-106.2000000000123
 20
181.2499999999969
 30
-0.0000000000000048
  0
VERTEX
  5
8C
  8
SIDE_RAIL_BOTTOM_CAMERA
 10
-104.4000000000123
 20
181.2499999999969
 30
-0.0000000000000047
  0
VERTEX
  5
8D
  8
SIDE_RAIL_BOTTOM_CAMERA
 10
-104.4000000000123
 20
178.7499999999969
 30
-0.0000000000000048
  0
VERTEX
  5
8E
  8
SIDE_RAIL_BOTTOM_CAMERA
 10
-106.2000000000123
 20
178.7499999999969
 30
-0.0000000000000048
  0
VERTEX
  5
8F
  8
SIDE_RAIL_BOTTOM_CAMERA
 10
-106.2000000000123
 20
176.6999999999969
 30
-0.0000000000000047
  0
VERTEX
  5
90
  8
SIDE_RAIL_BOTTOM_CAMERA
 10
-108.4000000000123
 20
176.6999999999969
 30
-0.0000000000000048
  0
VERTEX
  5
91
  8
SIDE_RAIL_BOTTOM_CAMERA
 10
-108.4000000000123
 20
178.7499999999969
 30
-0.000000000000005
  0
VERTEX
  5
92
  8
SIDE_RAIL_BOTTOM_CAMERA
 10
-112.0000000000123
 20
178.7499999999969
 30
-0.0000000000000039
  0
SEQEND
  5
86
  8
SIDE_RAIL_BOTTOM_CAMERA
  0
POLYLINE
  5
93
  8
SIDE_RAIL_BOTTOM_CAMERA
 66
     1
 10
0.0
 20
0.0
 30
-0.0000000000000022
  0
VERTEX
  5
95
  8
SIDE_RAIL_BOTTOM_CAMERA
 10
-86.00000000001104
 20
218.7499999999969
 30
-0.0000000000000022
  0
VERTEX
  5
96
  8
SIDE_RAIL_BOTTOM_CAMERA
 10
-89.6000000000081
 20
218.7499999999969
 30
-0.000000000000004
  0
VERTEX
  5
97
  8
SIDE_RAIL_BOTTOM_CAMERA
 10
-89.6000000000081
 20
216.6999999999969
 30
-0.0000000000000041
  0
VERTEX
  5
98
  8
SIDE_RAIL_BOTTOM_CAMERA
 10
-91.80000000000808
 20
216.6999999999969
 30
-0.0000000000000042
  0
VERTEX
  5
99
  8
SIDE_RAIL_BOTTOM_CAMERA
 10
-91.8000000000081
 20
218.7499999999969
 30
-0.0000000000000041
  0
VERTEX
  5
9A
  8
SIDE_RAIL_BOTTOM_CAMERA
 10
-93.6000000000081
 20
218.7499999999969
 30
-0.0000000000000042
  0
VERTEX
  5
9B
  8
SIDE_RAIL_BOTTOM_CAMERA
 10
-93.6000000000081
 20
221.2499999999969
 30
-0.0000000000000041
  0
VERTEX
  5
9C
  8
SIDE_RAIL_BOTTOM_CAMERA
 10
-91.80000000000808
 20
221.2499999999969
 30
-0.000000000000004
  0
VERTEX
  5
9D
  8
SIDE_RAIL_BOTTOM_CAMERA
 10
-91.80000000000808
 20
223.2999999999969
 30
-0.0000000000000038
  0
VERTEX
  5
9E
  8
SIDE_RAIL_BOTTOM_CAMERA
 10
-89.6000000000081
 20
223.2999999999969
 30
-0.0000000000000037
  0
VERTEX
  5
9F
  8
SIDE_RAIL_BOTTOM_CAMERA
 10
-89.6000000000081
 20
221.2499999999969
 30
-0.0000000000000038
  0
VERTEX
  5
A0
  8
SIDE_RAIL_BOTTOM_CAMERA
 10
-86.00000000000809
 20
221.2499999999969
 30
-0.0000000000000023
  0
SEQEND
  5
94
  8
SIDE_RAIL_BOTTOM_CAMERA
  0
POLYLINE
  5
A1
  8
SIDE_RAIL_BOTTOM_CAMERA
 66
     1
 10
0.0
 20
0.0
 30
-0.0000000000000038
  0
VERTEX
  5
A3
  8
SIDE_RAIL_BOTTOM_CAMERA
 10
-112.000000000012
 20
161.2499999999969
 30
-0.0000000000000038
  0
VERTEX
  5
A4
  8
SIDE_RAIL_BOTTOM_CAMERA
 10
-110.2000000000123
 20
161.2499999999969
 30
-0.0000000000000041
  0
VERTEX
  5
A5
  8
SIDE_RAIL_BOTTOM_CAMERA
 10
-108.4000000000123
 20
159.9999999999969
 30
-0.0000000000000036
  0
VERTEX
  5
A6
  8
SIDE_RAIL_BOTTOM_CAMERA
 10
-110.2000000000123
 20
158.7499999999969
 30
-0.000000000000004
  0
VERTEX
  5
A7
  8
SIDE_RAIL_BOTTOM_CAMERA
 10
-112.0000000000119
 20
158.7499999999969
 30
-0.0000000000000038
  0
SEQEND
  5
A2
  8
SIDE_RAIL_BOTTOM_CAMERA
  0
POLYLINE
  5
A8
  8
SIDE_RAIL_BOTTOM_CAMERA
 66
     1
 10
0.0
 20
0.0
 30
-0.0000000000000038
  0
VERTEX
  5
AA
  8
SIDE_RAIL_BOTTOM_CAMERA
 10
-112.0000000000093
 20
141.2499999999969
 30
-0.0000000000000038
  0
VERTEX
  5
AB
  8
SIDE_RAIL_BOTTOM_CAMERA
 10
-108.4000000000123
 20
141.2499999999969
 30
-0.0000000000000051
  0
VERTEX
  5
AC
  8
SIDE_RAIL_BOTTOM_CAMERA
 10
-108.4000000000123
 20
143.2999999999969
 30
-0.0000000000000052
  0
VERTEX
  5
AD
  8
SIDE_RAIL_BOTTOM_CAMERA
 10
-106.2000000000123
 20
143.2999999999969
 30
-0.0000000000000051
  0
VERTEX
  5
AE
  8
SIDE_RAIL_BOTTOM_CAMERA
 10
-106.2000000000123
 20
141.2499999999969
 30
-0.000000000000005
  0
VERTEX
  5
AF
  8
SIDE_RAIL_BOTTOM_CAMERA
 10
-104.4000000000123
 20
141.2499999999969
 30
-0.0000000000000049
  0
VERTEX
  5
B0
  8
SIDE_RAIL_BOTTOM_CAMERA
 10
-104.4000000000123
 20
138.7499999999969
 30
-0.0000000000000047
  0
VERTEX
  5
B1
  8
SIDE_RAIL_BOTTOM_CAMERA
 10
-106.2000000000123
 20
138.7499999999969
 30
-0.0000000000000048
  0
VERTEX
  5
B2
  8
SIDE_RAIL_BOTTOM_CAMERA
 10
-106.2000000000123
 20
136.6999999999969
 30
-0.0000000000000047
  0
VERTEX
  5
B3
  8
SIDE_RAIL_BOTTOM_CAMERA
 10
-108.4000000000123
 20
136.6999999999969
 30
-0.0000000000000048
  0
VERTEX
  5
B4
  8
SIDE_RAIL_BOTTOM_CAMERA
 10
-108.4000000000123
 20
138.7499999999969
 30
-0.000000000000005
  0
VERTEX
  5
B5
  8
SIDE_RAIL_BOTTOM_CAMERA
 10
-112.0000000000123
 20
138.7499999999969
 30
-0.000000000000004
  0
SEQEND
  5
A9
  8
SIDE_RAIL_BOTTOM_CAMERA
  0
POLYLINE
  5
B6
  8
SIDE_RAIL_BOTTOM_CAMERA
 66
     1
 10
0.0
 20
0.0
 30
-0.0000000000000005
  0
VERTEX
  5
B8
  8
SIDE_RAIL_BOTTOM_CAMERA
 10
-63.75
 20
116.0000000000029
 30
-0.0000000000000005
  0
VERTEX
  5
B9
  8
SIDE_RAIL_BOTTOM_CAMERA
 10
-63.75000000000001
 20
119.6
 30
0.0000000000000108
  0
VERTEX
  5
BA
  8
SIDE_RAIL_BOTTOM_CAMERA
 10
-61.69999999999999
 20
119.6
 30
0.0000000000000108
  0
VERTEX
  5
BB
  8
SIDE_RAIL_BOTTOM_CAMERA
 10
-61.69999999999999
 20
121.8
 30
0.0000000000000105
  0
VERTEX
  5
BC
  8
SIDE_RAIL_BOTTOM_CAMERA
 10
-63.75000000000001
 20
121.8
 30
0.0000000000000105
  0
VERTEX
  5
BD
  8
SIDE_RAIL_BOTTOM_CAMERA
 10
-63.75
 20
123.6
 30
0.0000000000000103
  0
VERTEX
  5
BE
  8
SIDE_RAIL_BOTTOM_CAMERA
 10
-66.25
 20
123.6
 30
0.0000000000000103
  0
VERTEX
  5
BF
  8
SIDE_RAIL_BOTTOM_CAMERA
 10
-66.25
 20
121.8
 30
0.0000000000000105
  0
VERTEX
  5
C0
  8
SIDE_RAIL_BOTTOM_CAMERA
 10
-68.30000000000001
 20
121.8
 30
0.0000000000000105
  0
VERTEX
  5
C1
  8
SIDE_RAIL_BOTTOM_CAMERA
 10
-68.30000000000001
 20
119.6
 30
0.0000000000000108
  0
VERTEX
  5
C2
  8
SIDE_RAIL_BOTTOM_CAMERA
 10
-66.25
 20
119.6
 30
0.0000000000000108
  0
VERTEX
  5
C3
  8
SIDE_RAIL_BOTTOM_CAMERA
 10
-66.25
 20
116.0
 30
-0.0000000000000002
  0
SEQEND
  5
B7
  8
SIDE_RAIL_BOTTOM_CAMERA
  0
POLYLINE
  5
C4
  8
SIDE_RAIL_BOTTOM_CAMERA
 66
     1
 10
0.0
 20
0.0
 30
-0.0000000000000017
  0
VERTEX
  5
C6
  8
SIDE_RAIL_BOTTOM_CAMERA
 10
-78.00000000001081
 20
122.0000000000017
 30
-0.0000000000000017
  0
VERTEX
  5
C7
  8
SIDE_RAIL_BOTTOM_CAMERA
 10
-78.00000000000145
 20
219.9999999999983
 30
-0.0000000000000017
  0
VERTEX
  5
C8
  8
SIDE_RAIL_BOTTOM_CAMERA
 10
-86.00000000000146
 20
220.0000000000038
 30
-0.0000000000000022
  0
VERTEX
  5
C9
  8
SIDE_RAIL_BOTTOM_CAMERA
 10
-86.00000000000145
 20
228.9999999999952
 30
-0.0000000000000022
  0
VERTEX
  5
CA
  8
SIDE_RAIL_BOTTOM_CAMERA
 10
-72.0
 20
229.0
 30
-0.0000000000000013
  0
VERTEX
  5
CB
  8
SIDE_RAIL_BOTTOM_CAMERA
 10
-72.0
 20
226.0000000000037
 30
-0.0000000000000013
  0
VERTEX
  5
CC
  8
SIDE_RAIL_BOTTOM_CAMERA
 10
-59.0
 20
226.0
 30
-0.0000000000000006
  0
VERTEX
  5
CD
  8
SIDE_RAIL_BOTTOM_CAMERA
 10
-59.0
 20
229.0000000000002
 30
-0.0000000000000006
 42
-0.4142135623730283
  0
VERTEX
  5
CE
  8
SIDE_RAIL_BOTTOM_CAMERA
 10
-56.99999999999977
 20
231.0
 30
-0.0000000000000004
  0
VERTEX
  5
CF
  8
SIDE_RAIL_BOTTOM_CAMERA
 10
-53.0
 20
231.0
 30
-0.0000000000000002
 42
-0.414213562373092
  0
VERTEX
  5
D0
  8
SIDE_RAIL_BOTTOM_CAMERA
 10
-51.0
 20
229.0
 30
0.0000000000000032
  0
VERTEX
  5
D1
  8
SIDE_RAIL_BOTTOM_CAMERA
 10
-51.0
 20
223.0
 30
0.0000000000000072
  0
VERTEX
  5
D2
  8
SIDE_RAIL_BOTTOM_CAMERA
 10
-51.9999999999982
 20
223.0
 30
0.0000000000000011
  0
VERTEX
  5
D3
  8
SIDE_RAIL_BOTTOM_CAMERA
 10
-51.9999999999982
 20
119.0
 30
0.0000000000000011
  0
VERTEX
  5
D4
  8
SIDE_RAIL_BOTTOM_CAMERA
 10
-51.0
 20
119.0
 30
0.0000000000000072
  0
VERTEX
  5
D5
  8
SIDE_RAIL_BOTTOM_CAMERA
 10
-51.0
 20
113.0
 30
0.0000000000000032
 42
-0.4142135623730944
  0
VERTEX
  5
D6
  8
SIDE_RAIL_BOTTOM_CAMERA
 10
-53.0
 20
111.0
 30
-0.0000000000000002
  0
VERTEX
  5
D7
  8
SIDE_RAIL_BOTTOM_CAMERA
 10
-56.99999999999977
 20
111.0
 30
-0.0000000000000004
 42
-0.4142135623731609
  0
VERTEX
  5
D8
  8
SIDE_RAIL_BOTTOM_CAMERA
 10
-59.0
 20
112.9999999999998
 30
-0.0000000000000006
  0
VERTEX
  5
D9
  8
SIDE_RAIL_BOTTOM_CAMERA
 10
-59.0
 20
116.0
 30
-0.0000000000000006
  0
VERTEX
  5
DA
  8
SIDE_RAIL_BOTTOM_CAMERA
 10
-72.0
 20
115.9999999999982
 30
-0.0000000000000013
  0
VERTEX
  5
DB
  8
SIDE_RAIL_BOTTOM_CAMERA
 10
-72.0
 20
113.0
 30
-0.0000000000000013
  0
VERTEX
  5
DC
  8
SIDE_RAIL_BOTTOM_CAMERA
 10
-86.00000000000145
 20
113.0000000000048
 30
-0.0000000000000022
  0
VERTEX
  5
DD
  8
SIDE_RAIL_BOTTOM_CAMERA
 10
-86.00000000000146
 20
121.9999999999963
 30
-0.0000000000000022
  0
VERTEX
  5
DE
  8
SIDE_RAIL_BOTTOM_CAMERA
 10
-78.00000000000145
 20
122.0000000000017
 30
-0.0000000000000017
  0
SEQEND
  5
C5
  8
SIDE_RAIL_BOTTOM_CAMERA
  0
POLYLINE
  5
DF
  8
SIDE_RAIL_BOTTOM_CAMERA
 66
     1
 10
0.0
 20
0.0
 30
-0.0000000000000018
  0
VERTEX
  5
E1
  8
SIDE_RAIL_BOTTOM_CAMERA
 10
-78.00000000000418
 20
129.75
 30
-0.0000000000000018
  0
VERTEX
  5
E2
  8
SIDE_RAIL_BOTTOM_CAMERA
 10
-74.40000000000417
 20
129.75
 30
-0.0000000000000029
  0
VERTEX
  5
E3
  8
SIDE_RAIL_BOTTOM_CAMERA
 10
-74.40000000000417
 20
127.7
 30
-0.0000000000000028
  0
VERTEX
  5
E4
  8
SIDE_RAIL_BOTTOM_CAMERA
 10
-72.20000000000418
 20
127.7
 30
-0.0000000000000026
  0
VERTEX
  5
E5
  8
SIDE_RAIL_BOTTOM_CAMERA
 10
-72.20000000000418
 20
129.75
 30
-0.0000000000000028
  0
VERTEX
  5
E6
  8
SIDE_RAIL_BOTTOM_CAMERA
 10
-70.40000000000417
 20
129.75
 30
-0.0000000000000026
  0
VERTEX
  5
E7
  8
SIDE_RAIL_BOTTOM_CAMERA
 10
-70.40000000000417
 20
132.25
 30
-0.0000000000000028
  0
VERTEX
  5
E8
  8
SIDE_RAIL_BOTTOM_CAMERA
 10
-72.20000000000417
 20
132.25
 30
-0.0000000000000029
  0
VERTEX
  5
E9
  8
SIDE_RAIL_BOTTOM_CAMERA
 10
-72.20000000000418
 20
134.3
 30
-0.000000000000003
  0
VERTEX
  5
EA
  8
SIDE_RAIL_BOTTOM_CAMERA
 10
-74.40000000000417
 20
134.3
 30
-0.0000000000000032
  0
VERTEX
  5
EB
  8
SIDE_RAIL_BOTTOM_CAMERA
 10
-74.40000000000417
 20
132.25
 30
-0.000000000000003
  0
VERTEX
  5
EC
  8
SIDE_RAIL_BOTTOM_CAMERA
 10
-78.00000000000122
 20
132.25
 30
-0.0000000000000017
  0
SEQEND
  5
E0
  8
SIDE_RAIL_BOTTOM_CAMERA
  0
POLYLINE
  5
ED
  8
SIDE_RAIL_BOTTOM_CAMERA
 66
     1
 10
0.0
 20
0.0
 30
-0.0000000000000002
  0
VERTEX
  5
EF
  8
SIDE_RAIL_BOTTOM_CAMERA
 10
-66.25
 20
226.0
 30
-0.0000000000000002
  0
VERTEX
  5
F0
  8
SIDE_RAIL_BOTTOM_CAMERA
 10
-66.25
 20
222.4
 30
0.0000000000000108
  0
VERTEX
  5
F1
  8
SIDE_RAIL_BOTTOM_CAMERA
 10
-68.30000000000001
 20
222.4
 30
0.0000000000000108
  0
VERTEX
  5
F2
  8
SIDE_RAIL_BOTTOM_CAMERA
 10
-68.30000000000001
 20
220.2
 30
0.0000000000000105
  0
VERTEX
  5
F3
  8
SIDE_RAIL_BOTTOM_CAMERA
 10
-66.25
 20
220.2
 30
0.0000000000000105
  0
VERTEX
  5
F4
  8
SIDE_RAIL_BOTTOM_CAMERA
 10
-66.25
 20
218.4
 30
0.0000000000000103
  0
VERTEX
  5
F5
  8
SIDE_RAIL_BOTTOM_CAMERA
 10
-63.75
 20
218.4
 30
0.0000000000000103
  0
VERTEX
  5
F6
  8
SIDE_RAIL_BOTTOM_CAMERA
 10
-63.75000000000001
 20
220.2
 30
0.0000000000000105
  0
VERTEX
  5
F7
  8
SIDE_RAIL_BOTTOM_CAMERA
 10
-61.69999999999999
 20
220.2
 30
0.0000000000000105
  0
VERTEX
  5
F8
  8
SIDE_RAIL_BOTTOM_CAMERA
 10
-61.69999999999999
 20
222.4
 30
0.0000000000000108
  0
VERTEX
  5
F9
  8
SIDE_RAIL_BOTTOM_CAMERA
 10
-63.75000000000001
 20
222.4
 30
0.0000000000000108
  0
VERTEX
  5
FA
  8
SIDE_RAIL_BOTTOM_CAMERA
 10
-63.75
 20
225.9999999999971
 30
-0.0000000000000005
  0
SEQEND
  5
EE
  8
SIDE_RAIL_BOTTOM_CAMERA
  0
POLYLINE
  5
FB
  8
SIDE_RAIL_BOTTOM_CAMERA
 66
     1
 10
0.0
 20
0.0
 30
-0.0000000000000003
  0
VERTEX
  5
FD
  8
SIDE_RAIL_BOTTOM_CAMERA
 10
-52.0
 20
212.25
 30
-0.0000000000000003
  0
VERTEX
  5
FE
  8
SIDE_RAIL_BOTTOM_CAMERA
 10
-55.60000000000001
 20
212.25
 30
-0.0000000000000017
  0
VERTEX
  5
FF
  8
SIDE_RAIL_BOTTOM_CAMERA
 10
-55.59999999999999
 20
214.3
 30
-0.0000000000000016
  0
VERTEX
  5
100
  8
SIDE_RAIL_BOTTOM_CAMERA
 10
-57.8
 20
214.3
 30
-0.0000000000000017
  0
VERTEX
  5
101
  8
SIDE_RAIL_BOTTOM_CAMERA
 10
-57.8
 20
212.25
 30
-0.0000000000000019
  0
VERTEX
  5
102
  8
SIDE_RAIL_BOTTOM_CAMERA
 10
-59.60000000000001
 20
212.25
 30
-0.000000000000002
  0
VERTEX
  5
103
  8
SIDE_RAIL_BOTTOM_CAMERA
 10
-59.59999999999999
 20
209.75
 30
-0.0000000000000021
  0
VERTEX
  5
104
  8
SIDE_RAIL_BOTTOM_CAMERA
 10
-57.8
 20
209.75
 30
-0.000000000000002
  0
VERTEX
  5
105
  8
SIDE_RAIL_BOTTOM_CAMERA
 10
-57.8
 20
207.7
 30
-0.0000000000000021
  0
VERTEX
  5
106
  8
SIDE_RAIL_BOTTOM_CAMERA
 10
-55.60000000000001
 20
207.7
 30
-0.000000000000002
  0
VERTEX
  5
107
  8
SIDE_RAIL_BOTTOM_CAMERA
 10
-55.59999999999999
 20
209.75
 30
-0.0000000000000019
  0
VERTEX
  5
108
  8
SIDE_RAIL_BOTTOM_CAMERA
 10
-52.00000000000295
 20
209.75
 30
-0.0000000000000002
  0
SEQEND
  5
FC
  8
SIDE_RAIL_BOTTOM_CAMERA
  0
POLYLINE
  5
109
  8
SIDE_RAIL_BOTTOM_CAMERA
 66
     1
 10
0.0
 20
0.0
 30
-0.0000000000000001
  0
VERTEX
  5
10B
  8
SIDE_RAIL_BOTTOM_CAMERA
 10
-52.00000000000035
 20
192.25
 30
-0.0000000000000001
  0
VERTEX
  5
10C
  8
SIDE_RAIL_BOTTOM_CAMERA
 10
-53.8
 20
192.25
 30
-0.0000000000000006
  0
VERTEX
  5
10D
  8
SIDE_RAIL_BOTTOM_CAMERA
 10
-55.60000000000001
 20
191.0
 30
-0.0000000000000003
  0
VERTEX
  5
10E
  8
SIDE_RAIL_BOTTOM_CAMERA
 10
-53.8
 20
189.75
 30
-0.0000000000000007
  0
VERTEX
  5
10F
  8
SIDE_RAIL_BOTTOM_CAMERA
 10
-52.00000000000029
 20
189.75
 30
-0.0000000000000001
  0
SEQEND
  5
10A
  8
SIDE_RAIL_BOTTOM_CAMERA
  0
POLYLINE
  5
110
  8
SIDE_RAIL_BOTTOM_CAMERA
 66
     1
 10
0.0
 20
0.0
 30
-0.0000000000000002
  0
VERTEX
  5
112
  8
SIDE_RAIL_BOTTOM_CAMERA
 10
-52.0
 20
172.25
 30
-0.0000000000000002
  0
VERTEX
  5
113
  8
SIDE_RAIL_BOTTOM_CAMERA
 10
-55.60000000000001
 20
172.25
 30
-0.0000000000000017
  0
VERTEX
  5
114
  8
SIDE_RAIL_BOTTOM_CAMERA
 10
-55.6
 20
174.3
 30
-0.0000000000000016
  0
VERTEX
  5
115
  8
SIDE_RAIL_BOTTOM_CAMERA
 10
-57.8
 20
174.3
 30
-0.0000000000000017
  0
VERTEX
  5
116
  8
SIDE_RAIL_BOTTOM_CAMERA
 10
-57.8
 20
172.25
 30
-0.0000000000000019
  0
VERTEX
  5
117
  8
SIDE_RAIL_BOTTOM_CAMERA
 10
-59.6
 20
172.25
 30
-0.000000000000002
  0
VERTEX
  5
118
  8
SIDE_RAIL_BOTTOM_CAMERA
 10
-59.60000000000001
 20
169.75
 30
-0.0000000000000021
  0
VERTEX
  5
119
  8
SIDE_RAIL_BOTTOM_CAMERA
 10
-57.8
 20
169.75
 30
-0.0000000000000019
  0
VERTEX
  5
11A
  8
SIDE_RAIL_BOTTOM_CAMERA
 10
-57.8
 20
167.7
 30
-0.0000000000000017
  0
VERTEX
  5
11B
  8
SIDE_RAIL_BOTTOM_CAMERA
 10
-55.6
 20
167.7
 30
-0.0000000000000016
  0
VERTEX
  5
11C
  8
SIDE_RAIL_BOTTOM_CAMERA
 10
-55.60000000000001
 20
169.75
 30
-0.0000000000000017
  0
VERTEX
  5
11D
  8
SIDE_RAIL_BOTTOM_CAMERA
 10
-52.0
 20
169.75
 30
-0.0000000000000002
  0
SEQEND
  5
111
  8
SIDE_RAIL_BOTTOM_CAMERA
  0
POLYLINE
  5
11E
  8
SIDE_RAIL_BOTTOM_CAMERA
 66
     1
 10
0.0
 20
0.0
 30
-0.0000000000000017
  0
VERTEX
  5
120
  8
SIDE_RAIL_BOTTOM_CAMERA
 10
-78.00000000000122
 20
209.75
 30
-0.0000000000000017
  0
VERTEX
  5
121
  8
SIDE_RAIL_BOTTOM_CAMERA
 10
-74.40000000000417
 20
209.75
 30
-0.000000000000003
  0
VERTEX
  5
122
  8
SIDE_RAIL_BOTTOM_CAMERA
 10
-74.40000000000417
 20
207.7
 30
-0.0000000000000032
  0
VERTEX
  5
123
  8
SIDE_RAIL_BOTTOM_CAMERA
 10
-72.20000000000418
 20
207.7
 30
-0.000000000000003
  0
VERTEX
  5
124
  8
SIDE_RAIL_BOTTOM_CAMERA
 10
-72.20000000000417
 20
209.75
 30
-0.0000000000000029
  0
VERTEX
  5
125
  8
SIDE_RAIL_BOTTOM_CAMERA
 10
-70.40000000000417
 20
209.75
 30
-0.0000000000000028
  0
VERTEX
  5
126
  8
SIDE_RAIL_BOTTOM_CAMERA
 10
-70.40000000000417
 20
212.25
 30
-0.0000000000000026
  0
VERTEX
  5
127
  8
SIDE_RAIL_BOTTOM_CAMERA
 10
-72.20000000000418
 20
212.25
 30
-0.0000000000000028
  0
VERTEX
  5
128
  8
SIDE_RAIL_BOTTOM_CAMERA
 10
-72.20000000000418
 20
214.3
 30
-0.0000000000000026
  0
VERTEX
  5
129
  8
SIDE_RAIL_BOTTOM_CAMERA
 10
-74.40000000000417
 20
214.3
 30
-0.0000000000000028
  0
VERTEX
  5
12A
  8
SIDE_RAIL_BOTTOM_CAMERA
 10
-74.40000000000417
 20
212.25
 30
-0.0000000000000029
  0
VERTEX
  5
12B
  8
SIDE_RAIL_BOTTOM_CAMERA
 10
-78.00000000000418
 20
212.25
 30
-0.0000000000000018
  0
SEQEND
  5
11F
  8
SIDE_RAIL_BOTTOM_CAMERA
  0
POLYLINE
  5
12C
  8
SIDE_RAIL_BOTTOM_CAMERA
 66
     1
 10
0.0
 20
0.0
 30
-0.0000000000000001
  0
VERTEX
  5
12E
  8
SIDE_RAIL_BOTTOM_CAMERA
 10
-52.00000000000029
 20
152.25
 30
-0.0000000000000001
  0
VERTEX
  5
12F
  8
SIDE_RAIL_BOTTOM_CAMERA
 10
-53.8
 20
152.25
 30
-0.0000000000000007
  0
VERTEX
  5
130
  8
SIDE_RAIL_BOTTOM_CAMERA
 10
-55.60000000000001
 20
151.0
 30
-0.0000000000000003
  0
VERTEX
  5
131
  8
SIDE_RAIL_BOTTOM_CAMERA
 10
-53.8
 20
149.75
 30
-0.0000000000000006
  0
VERTEX
  5
132
  8
SIDE_RAIL_BOTTOM_CAMERA
 10
-52.00000000000035
 20
149.75
 30
-0.0000000000000001
  0
SEQEND
  5
12D
  8
SIDE_RAIL_BOTTOM_CAMERA
  0
POLYLINE
  5
133
  8
SIDE_RAIL_BOTTOM_CAMERA
 66
     1
 10
0.0
 20
0.0
 30
-0.0000000000000002
  0
VERTEX
  5
135
  8
SIDE_RAIL_BOTTOM_CAMERA
 10
-52.00000000000295
 20
132.25
 30
-0.0000000000000002
  0
VERTEX
  5
136
  8
SIDE_RAIL_BOTTOM_CAMERA
 10
-55.59999999999999
 20
132.25
 30
-0.0000000000000019
  0
VERTEX
  5
137
  8
SIDE_RAIL_BOTTOM_CAMERA
 10
-55.60000000000001
 20
134.3
 30
-0.000000000000002
  0
VERTEX
  5
138
  8
SIDE_RAIL_BOTTOM_CAMERA
 10
-57.8
 20
134.3
 30
-0.0000000000000021
  0
VERTEX
  5
139
  8
SIDE_RAIL_BOTTOM_CAMERA
 10
-57.8
 20
132.25
 30
-0.000000000000002
  0
VERTEX
  5
13A
  8
SIDE_RAIL_BOTTOM_CAMERA
 10
-59.59999999999999
 20
132.25
 30
-0.0000000000000021
  0
VERTEX
  5
13B
  8
SIDE_RAIL_BOTTOM_CAMERA
 10
-59.60000000000001
 20
129.75
 30
-0.000000000000002
  0
VERTEX
  5
13C
  8
SIDE_RAIL_BOTTOM_CAMERA
 10
-57.8
 20
129.75
 30
-0.0000000000000019
  0
VERTEX
  5
13D
  8
SIDE_RAIL_BOTTOM_CAMERA
 10
-57.8
 20
127.7
 30
-0.0000000000000017
  0
VERTEX
  5
13E
  8
SIDE_RAIL_BOTTOM_CAMERA
 10
-55.59999999999999
 20
127.7
 30
-0.0000000000000016
  0
VERTEX
  5
13F
  8
SIDE_RAIL_BOTTOM_CAMERA
 10
-55.60000000000001
 20
129.75
 30
-0.0000000000000017
  0
VERTEX
  5
140
  8
SIDE_RAIL_BOTTOM_CAMERA
 10
-52.0
 20
129.75
 30
-0.0000000000000003
  0
SEQEND
  5
134
  8
SIDE_RAIL_BOTTOM_CAMERA
  0
ENDSEC
  0
EOF
