  0
SECTION
  2
HEADER
  9
$ACADVER
  1
AC1009
  9
$DWGCODEPAGE
  3
ansi_1252
  9
$INSBASE
 10
0.0
 20
0.0
 30
0.0
  9
$EXTMIN
 10
5.000000000000227
 20
8.999999999997044
 30
-0.0000000000000146
  9
$EXTMAX
 10
477.0
 20
233.0
 30
0.0000000000000106
  9
$LIMMIN
 10
0.0
 20
0.0
  9
$LIMMAX
 10
12.0
 20
9.0
  9
$ORTHOMODE
 70
     0
  9
$REGENMODE
 70
     1
  9
$FILLMODE
 70
     1
  9
$QTEXTMODE
 70
     0
  9
$MIRRTEXT
 70
     1
  9
$DRAGMODE
 70
     2
  9
$LTSCALE
 40
1.0
  9
$OSMODE
 70
    37
  9
$ATTMODE
 70
     1
  9
$TEXTSIZE
 40
0.2
  9
$TRACEWID
 40
0.05
  9
$TEXTSTYLE
  7
STANDARD
  9
$CLAYER
  8
6MM_PLYWOOD
  9
$CELTYPE
  6
BYLAYER
  9
$CECOLOR
 62
   256
  9
$DIMSCALE
 40
1.0
  9
$DIMASZ
 40
0.18
  9
$DIMEXO
 40
0.0625
  9
$DIMDLI
 40
0.38
  9
$DIMRND
 40
0.0
  9
$DIMDLE
 40
0.0
  9
$DIMEXE
 40
0.18
  9
$DIMTP
 40
0.0
  9
$DIMTM
 40
0.0
  9
$DIMTXT
 40
0.18
  9
$DIMCEN
 40
0.09
  9
$DIMTSZ
 40
0.0
  9
$DIMTOL
 70
     0
  9
$DIMLIM
 70
     0
  9
$DIMTIH
 70
     1
  9
$DIMTOH
 70
     1
  9
$DIMSE1
 70
     0
  9
$DIMSE2
 70
     0
  9
$DIMTAD
 70
     0
  9
$DIMZIN
 70
     0
  9
$DIMBLK
  1

  9
$DIMASO
 70
     1
  9
$DIMSHO
 70
     1
  9
$DIMPOST
  1

  9
$DIMAPOST
  1

  9
$DIMALT
 70
     0
  9
$DIMALTD
 70
     2
  9
$DIMALTF
 40
25.4
  9
$DIMLFAC
 40
1.0
  9
$DIMTOFL
 70
     0
  9
$DIMTVP
 40
0.0
  9
$DIMTIX
 70
     0
  9
$DIMSOXD
 70
     0
  9
$DIMSAH
 70
     0
  9
$DIMBLK1
  1

  9
$DIMBLK2
  1

  9
$DIMSTYLE
  2
STANDARD
  9
$DIMCLRD
 70
     0
  9
$DIMCLRE
 70
     0
  9
$DIMCLRT
 70
     0
  9
$DIMTFAC
 40
1.0
  9
$DIMGAP
 40
0.09
  9
$LUNITS
 70
     2
  9
$LUPREC
 70
     3
  9
$SKETCHINC
 40
0.1
  9
$FILLETRAD
 40
0.5
  9
$AUNITS
 70
     0
  9
$AUPREC
 70
     0
  9
$MENU
  1
.
  9
$ELEVATION
 40
0.0
  9
$PELEVATION
 40
0.0
  9
$THICKNESS
 40
0.0
  9
$LIMCHECK
 70
     0
  9
$CHAMFERA
 40
0.5
  9
$CHAMFERB
 40
0.5
  9
$SKPOLY
 70
     0
  9
$TDCREATE
 40
2457434.656009433
  9
$TDUPDATE
 40
2457434.656009445
  9
$TDINDWG
 40
0.0000000116
  9
$TDUSRTIMER
 40
0.0000000116
  9
$USRTIMER
 70
     1
  9
$ANGBASE
 50
0.0
  9
$ANGDIR
 70
     0
  9
$PDMODE
 70
     0
  9
$PDSIZE
 40
0.0
  9
$PLINEWID
 40
0.0
  9
$COORDS
 70
     1
  9
$SPLFRAME
 70
     0
  9
$SPLINETYPE
 70
     6
  9
$SPLINESEGS
 70
     8
  9
$ATTDIA
 70
     0
  9
$ATTREQ
 70
     1
  9
$HANDLING
 70
     1
  9
$HANDSEED
  5
29D
  9
$SURFTAB1
 70
     6
  9
$SURFTAB2
 70
     6
  9
$SURFTYPE
 70
     6
  9
$SURFU
 70
     6
  9
$SURFV
 70
     6
  9
$UCSNAME
  2

  9
$UCSORG
 10
0.0
 20
0.0
 30
0.0
  9
$UCSXDIR
 10
1.0
 20
0.0
 30
0.0
  9
$UCSYDIR
 10
0.0
 20
1.0
 30
0.0
  9
$PUCSNAME
  2

  9
$PUCSORG
 10
0.0
 20
0.0
 30
0.0
  9
$PUCSXDIR
 10
1.0
 20
0.0
 30
0.0
  9
$PUCSYDIR
 10
0.0
 20
1.0
 30
0.0
  9
$USERI1
 70
     0
  9
$USERI2
 70
     0
  9
$USERI3
 70
     0
  9
$USERI4
 70
     0
  9
$USERI5
 70
     0
  9
$USERR1
 40
0.0
  9
$USERR2
 40
0.0
  9
$USERR3
 40
0.0
  9
$USERR4
 40
0.0
  9
$USERR5
 40
0.0
  9
$WORLDVIEW
 70
     1
  9
$SHADEDGE
 70
     3
  9
$SHADEDIF
 70
    70
  9
$TILEMODE
 70
     1
  9
$MAXACTVP
 70
    64
  9
$PLIMCHECK
 70
     0
  9
$PEXTMIN
 10
1.000000000000000E+20
 20
1.000000000000000E+20
 30
1.000000000000000E+20
  9
$PEXTMAX
 10
-1.000000000000000E+20
 20
-1.000000000000000E+20
 30
-1.000000000000000E+20
  9
$PLIMMIN
 10
0.0
 20
0.0
  9
$PLIMMAX
 10
12.0
 20
9.0
  9
$UNITMODE
 70
     0
  9
$VISRETAIN
 70
     1
  9
$PLINEGEN
 70
     0
  9
$PSLTSCALE
 70
     1
  0
ENDSEC
  0
SECTION
  2
TABLES
  0
TABLE
  2
VPORT
 70
     2
  0
VPORT
  2
*ACTIVE
 70
     0
 10
0.0
 20
0.0
 11
1.0
 21
1.0
 12
241.0000000000001
 22
120.9999999999985
 13
0.0
 23
0.0
 14
0.5
 24
0.5
 15
0.5
 25
0.5
 16
0.0
 26
0.0
 36
1.0
 17
0.0
 27
0.0
 37
0.0
 40
295.0029499999998
 41
1.6
 42
50.0
 43
0.0
 44
0.0
 50
0.0
 51
0.0
 71
     0
 72
   100
 73
     1
 74
     3
 75
     0
 76
     0
 77
     0
 78
     0
  0
ENDTAB
  0
TABLE
  2
LTYPE
 70
     1
  0
LTYPE
  2
CONTINUOUS
 70
     0
  3
Solid line
 72
    65
 73
     0
 40
0.0
  0
ENDTAB
  0
TABLE
  2
LAYER
 70
     2
  0
LAYER
  2
0
 70
     0
 62
     7
  6
CONTINUOUS
  0
LAYER
  2
6MM_PLYWOOD
 70
     0
 62
     1
  6
CONTINUOUS
  0
ENDTAB
  0
TABLE
  2
STYLE
 70
     1
  0
STYLE
  2
STANDARD
 70
     0
 40
0.0
 41
1.0
 50
0.0
 71
     0
 42
0.2
  3
txt
  4

  0
ENDTAB
  0
TABLE
  2
VIEW
 70
     0
  0
ENDTAB
  0
TABLE
  2
UCS
 70
     0
  0
ENDTAB
  0
TABLE
  2
APPID
 70
     1
  0
APPID
  2
ACAD
 70
     0
  0
ENDTAB
  0
TABLE
  2
DIMSTYLE
 70
     1
  0
DIMSTYLE
  2
STANDARD
 70
     0
  3

  4

  5

  6

  7

 40
1.0
 41
0.18
 42
0.0625
 43
0.38
 44
0.18
 45
0.0
 46
0.0
 47
0.0
 48
0.0
140
0.18
141
0.09
142
0.0
143
25.4
144
1.0
145
0.0
146
1.0
147
0.09
 71
     0
 72
     0
 73
     1
 74
     1
 75
     0
 76
     0
 77
     0
 78
     0
170
     0
171
     2
172
     0
173
     0
174
     0
175
     0
176
     0
177
     0
178
     0
  0
ENDTAB
  0
ENDSEC
  0
SECTION
  2
BLOCKS
  0
BLOCK
  8
0
  2
$MODEL_SPACE
 70
     0
 10
0.0
 20
0.0
 30
0.0
  3
$MODEL_SPACE
  1

  0
ENDBLK
  5
21
  8
0
  0
BLOCK
 67
     1
  8
0
  2
$PAPER_SPACE
 70
     0
 10
0.0
 20
0.0
 30
0.0
  3
$PAPER_SPACE
  1

  0
ENDBLK
  5
1D
 67
     1
  8
0
  0
BLOCK
  8
0
  2
$PAPER_SPACE0
 70
     0
 10
0.0
 20
0.0
 30
0.0
  3
$PAPER_SPACE0
  1

  0
ENDBLK
  5
25
  8
0
  0
ENDSEC
  0
SECTION
  2
ENTITIES
  0
POLYLINE
  5
2B
  8
6MM_PLYWOOD
 66
     1
 10
0.0
 20
0.0
 30
-0.0000000000000019
  0
VERTEX
  5
2D
  8
6MM_PLYWOOD
 10
435.4999999999275
 20
158.9999999999994
 30
-0.0000000000000019
  0
VERTEX
  5
2E
  8
6MM_PLYWOOD
 10
435.499999999971
 20
189.9999999999756
 30
0.0
  0
VERTEX
  5
2F
  8
6MM_PLYWOOD
 10
429.4999999999754
 20
189.9999999999166
 30
0.0
  0
VERTEX
  5
30
  8
6MM_PLYWOOD
 10
429.5000000000001
 20
187.9999999999166
 30
-0.0000000000000001
  0
VERTEX
  5
31
  8
6MM_PLYWOOD
 10
428.2500000000001
 20
187.9999999999839
 30
-0.0000000000000001
  0
VERTEX
  5
32
  8
6MM_PLYWOOD
 10
428.2500000000001
 20
184.4
 30
-0.0000000000000017
  0
VERTEX
  5
33
  8
6MM_PLYWOOD
 10
430.3000000000001
 20
184.4
 30
-0.0000000000000016
  0
VERTEX
  5
34
  8
6MM_PLYWOOD
 10
430.3000000000001
 20
182.2
 30
-0.0000000000000017
  0
VERTEX
  5
35
  8
6MM_PLYWOOD
 10
428.2500000000001
 20
182.2
 30
-0.0000000000000019
  0
VERTEX
  5
36
  8
6MM_PLYWOOD
 10
428.2500000000001
 20
180.4
 30
-0.000000000000002
  0
VERTEX
  5
37
  8
6MM_PLYWOOD
 10
425.7500000000001
 20
180.4
 30
-0.0000000000000021
  0
VERTEX
  5
38
  8
6MM_PLYWOOD
 10
425.7500000000001
 20
182.2
 30
-0.000000000000002
  0
VERTEX
  5
39
  8
6MM_PLYWOOD
 10
423.7000000000001
 20
182.2
 30
-0.0000000000000021
  0
VERTEX
  5
3A
  8
6MM_PLYWOOD
 10
423.7000000000001
 20
184.4
 30
-0.000000000000002
  0
VERTEX
  5
3B
  8
6MM_PLYWOOD
 10
425.7500000000001
 20
184.4
 30
-0.0000000000000019
  0
VERTEX
  5
3C
  8
6MM_PLYWOOD
 10
425.7500000000001
 20
187.9999999999837
 30
-0.0000000000000001
  0
VERTEX
  5
3D
  8
6MM_PLYWOOD
 10
417.2500000000001
 20
188.0
 30
-0.0000000000000001
  0
VERTEX
  5
3E
  8
6MM_PLYWOOD
 10
417.2500000000001
 20
184.4
 30
-0.0000000000000019
  0
VERTEX
  5
3F
  8
6MM_PLYWOOD
 10
419.3000000000001
 20
184.4
 30
-0.000000000000002
  0
VERTEX
  5
40
  8
6MM_PLYWOOD
 10
419.3000000000001
 20
182.2
 30
-0.0000000000000021
  0
VERTEX
  5
41
  8
6MM_PLYWOOD
 10
417.2500000000001
 20
182.2
 30
-0.000000000000002
  0
VERTEX
  5
42
  8
6MM_PLYWOOD
 10
417.2500000000001
 20
180.4
 30
-0.0000000000000021
  0
VERTEX
  5
43
  8
6MM_PLYWOOD
 10
414.7500000000001
 20
180.4
 30
-0.000000000000002
  0
VERTEX
  5
44
  8
6MM_PLYWOOD
 10
414.7500000000001
 20
182.2
 30
-0.0000000000000019
  0
VERTEX
  5
45
  8
6MM_PLYWOOD
 10
412.7000000000001
 20
182.2
 30
-0.0000000000000017
  0
VERTEX
  5
46
  8
6MM_PLYWOOD
 10
412.7000000000001
 20
184.4
 30
-0.0000000000000016
  0
VERTEX
  5
47
  8
6MM_PLYWOOD
 10
414.7500000000001
 20
184.4
 30
-0.0000000000000017
  0
VERTEX
  5
48
  8
6MM_PLYWOOD
 10
414.7500000000001
 20
187.9999999999974
 30
-0.0000000000000001
  0
VERTEX
  5
49
  8
6MM_PLYWOOD
 10
410.5000000000002
 20
188.0
 30
-0.0000000000000001
 42
1.752018933840225
  0
VERTEX
  5
4A
  8
6MM_PLYWOOD
 10
391.9655172413793
 20
177.0530818110342
 30
-0.0000000000000008
 42
-0.2732608139403023
  0
VERTEX
  5
4B
  8
6MM_PLYWOOD
 10
393.0000000000001
 20
175.3015749007995
 30
-0.0000000000000009
  0
VERTEX
  5
4C
  8
6MM_PLYWOOD
 10
393.0000000000001
 20
172.0
 30
-0.0000000000000011
 42
0.414213562373095
  0
VERTEX
  5
4D
  8
6MM_PLYWOOD
 10
395.0000000000001
 20
170.0
 30
-0.0000000000000012
  0
VERTEX
  5
4E
  8
6MM_PLYWOOD
 10
399.0000000000001
 20
170.0
 30
-0.0000000000000012
  0
VERTEX
  5
4F
  8
6MM_PLYWOOD
 10
398.9999999999984
 20
167.25
 30
-0.0000000000000008
  0
VERTEX
  5
50
  8
6MM_PLYWOOD
 10
402.5999999999967
 20
167.25
 30
0.0000000000000102
  0
VERTEX
  5
51
  8
6MM_PLYWOOD
 10
402.5999999999967
 20
169.3
 30
0.0000000000000102
  0
VERTEX
  5
52
  8
6MM_PLYWOOD
 10
404.7999999999967
 20
169.3
 30
0.0000000000000099
  0
VERTEX
  5
53
  8
6MM_PLYWOOD
 10
404.7999999999967
 20
167.25
 30
0.0000000000000099
  0
VERTEX
  5
54
  8
6MM_PLYWOOD
 10
406.5999999999967
 20
167.25
 30
0.0000000000000097
  0
VERTEX
  5
55
  8
6MM_PLYWOOD
 10
406.5999999999967
 20
164.75
 30
0.0000000000000097
  0
VERTEX
  5
56
  8
6MM_PLYWOOD
 10
404.7999999999967
 20
164.75
 30
0.0000000000000099
  0
VERTEX
  5
57
  8
6MM_PLYWOOD
 10
404.7999999999967
 20
162.7
 30
0.0000000000000099
  0
VERTEX
  5
58
  8
6MM_PLYWOOD
 10
402.5999999999967
 20
162.7
 30
0.0000000000000102
  0
VERTEX
  5
59
  8
6MM_PLYWOOD
 10
402.5999999999967
 20
164.75
 30
0.0000000000000102
  0
VERTEX
  5
5A
  8
6MM_PLYWOOD
 10
398.9999999999984
 20
164.75
 30
0.0000000000000015
  0
VERTEX
  5
5B
  8
6MM_PLYWOOD
 10
399.0000000000001
 20
162.0
 30
-0.0000000000000017
  0
VERTEX
  5
5C
  8
6MM_PLYWOOD
 10
395.9999999999992
 20
161.999999999997
 30
0.000000000000001
  0
VERTEX
  5
5D
  8
6MM_PLYWOOD
 10
396.0000000000001
 20
158.999999999997
 30
-0.0000000000000005
  0
VERTEX
  5
5E
  8
6MM_PLYWOOD
 10
435.499999999971
 20
158.9999999999994
 30
-0.0000000000000017
  0
SEQEND
  5
2C
  8
6MM_PLYWOOD
  0
CIRCLE
  5
5F
  8
6MM_PLYWOOD
 10
398.0000000000001
 20
188.0
 30
-0.0000000000000001
 40
3.5
  0
CIRCLE
  5
60
  8
6MM_PLYWOOD
 10
389.5000000000001
 20
188.0
 30
-0.0000000000000001
 40
1.5
  0
CIRCLE
  5
61
  8
6MM_PLYWOOD
 10
406.5000000000001
 20
188.0
 30
-0.0000000000000001
 40
1.5
  0
POLYLINE
  5
62
  8
6MM_PLYWOOD
 66
     1
 10
0.0
 20
0.0
 30
-0.0000000000000045
  0
VERTEX
  5
64
  8
6MM_PLYWOOD
 10
455.5
 20
155.7
 30
-0.0000000000000045
  0
VERTEX
  5
65
  8
6MM_PLYWOOD
 10
374.5
 20
155.7
 30
-0.0000000000000045
  0
VERTEX
  5
66
  8
6MM_PLYWOOD
 10
374.5
 20
202.7
 30
-0.0000000000000016
  0
VERTEX
  5
67
  8
6MM_PLYWOOD
 10
455.5
 20
202.7
 30
-0.0000000000000016
  0
VERTEX
  5
68
  8
6MM_PLYWOOD
 10
455.5
 20
155.7
 30
-0.0000000000000045
  0
SEQEND
  5
63
  8
6MM_PLYWOOD
  0
LINE
  5
69
  8
6MM_PLYWOOD
 10
392.0000000000002
 20
226.9999999999999
 30
-0.0000000000000001
 11
387.2500000000002
 21
226.9999999999899
 31
-0.0000000000000001
  0
ARC
  5
6A
  8
6MM_PLYWOOD
 10
475.0
 20
222.0000000000002
 30
-0.0000000000000004
 40
2.0
 50
270.0
 51
0.0
  0
LINE
  5
6B
  8
6MM_PLYWOOD
 10
474.0000000000005
 20
219.9999999999999
 30
-0.0000000000000006
 11
475.0
 21
219.9999999999999
 31
-0.0000000000000006
  0
LINE
  5
6C
  8
6MM_PLYWOOD
 10
477.0
 20
229.9999999999999
 30
0.0000000000000001
 11
477.0
 21
222.0000000000002
 31
-0.0000000000000004
  0
ARC
  5
6D
  8
6MM_PLYWOOD
 10
475.0
 20
229.9999999999999
 30
0.0000000000000001
 40
2.0
 50
359.9999999999976
 51
90.0
  0
LINE
  5
6E
  8
6MM_PLYWOOD
 10
475.0
 20
231.9999999999999
 30
0.0000000000000002
 11
394.0000000000002
 21
231.9999999999999
 31
0.0000000000000002
  0
ARC
  5
6F
  8
6MM_PLYWOOD
 10
394.0000000000002
 20
229.9999999999999
 30
0.0000000000000001
 40
2.0
 50
90.0
 51
180.0
  0
LINE
  5
70
  8
6MM_PLYWOOD
 10
392.0000000000002
 20
226.9999999999999
 30
-0.0000000000000001
 11
392.0000000000002
 21
229.9999999999999
 31
0.0000000000000001
  0
CIRCLE
  5
71
  8
6MM_PLYWOOD
 10
379.0000000000002
 20
222.9999999999999
 30
-0.0000000000000004
 40
0.95
  0
CIRCLE
  5
72
  8
6MM_PLYWOOD
 10
383.0000000000002
 20
139.0
 30
-0.0000000000000055
 40
0.95
  0
CIRCLE
  5
73
  8
6MM_PLYWOOD
 10
447.0
 20
138.9999999999999
 30
-0.0000000000000055
 40
0.95
  0
CIRCLE
  5
74
  8
6MM_PLYWOOD
 10
474.0
 20
226.9999999999999
 30
-0.0000000000000001
 40
0.95
  0
ARC
  5
75
  8
6MM_PLYWOOD
 10
11.00000000000023
 20
227.0
 30
-0.0000000000000001
 40
6.0
 50
90.0
 51
180.0
  0
ARC
  5
76
  8
6MM_PLYWOOD
 10
20.50000000000023
 20
230.0
 30
0.0000000000000001
 40
3.0
 50
0.0
 51
90.0
  0
LINE
  5
77
  8
6MM_PLYWOOD
 10
10.99999999998863
 20
233.0
 30
0.0000000000000002
 11
20.50000000000023
 21
233.0
 31
0.0000000000000002
  0
LINE
  5
78
  8
6MM_PLYWOOD
 10
23.50000000000023
 20
227.0
 30
-0.0000000000000001
 11
23.50000000000023
 21
230.0
 31
0.0000000000000001
  0
LINE
  5
79
  8
6MM_PLYWOOD
 10
18.00000000000023
 20
121.0
 30
-0.0000000000000066
 11
9.000000000007276
 21
121.0
 31
-0.0000000000000066
  0
LINE
  5
7A
  8
6MM_PLYWOOD
 10
18.00000000000023
 20
129.0
 30
-0.0000000000000061
 11
18.00000000000023
 21
121.0
 31
-0.0000000000000066
  0
LINE
  5
7B
  8
6MM_PLYWOOD
 10
25.75000000000023
 20
129.0
 30
-0.0000000000000061
 11
18.00000000000023
 21
129.0
 31
-0.0000000000000061
  0
LINE
  5
7C
  8
6MM_PLYWOOD
 10
25.75000000000023
 20
132.5999999999999
 30
-0.0000000000000073
 11
25.75000000000023
 21
129.0
 31
-0.0000000000000061
  0
LINE
  5
7D
  8
6MM_PLYWOOD
 10
23.70000000000027
 20
132.5999999999999
 30
-0.0000000000000072
 11
25.75000000000023
 21
132.5999999999999
 31
-0.0000000000000073
  0
LINE
  5
7E
  8
6MM_PLYWOOD
 10
23.70000000000027
 20
134.8
 30
-0.000000000000007
 11
23.70000000000027
 21
132.5999999999999
 31
-0.0000000000000072
  0
LINE
  5
7F
  8
6MM_PLYWOOD
 10
25.75000000000023
 20
134.8
 30
-0.0000000000000072
 11
23.70000000000027
 21
134.8
 31
-0.000000000000007
  0
LINE
  5
80
  8
6MM_PLYWOOD
 10
25.75000000000023
 20
136.5999999999999
 30
-0.0000000000000071
 11
25.75000000000023
 21
134.8
 31
-0.0000000000000072
  0
LINE
  5
81
  8
6MM_PLYWOOD
 10
28.25000000000023
 20
136.5999999999999
 30
-0.0000000000000072
 11
25.75000000000023
 21
136.5999999999999
 31
-0.0000000000000071
  0
LINE
  5
82
  8
6MM_PLYWOOD
 10
28.25000000000023
 20
134.8
 30
-0.0000000000000073
 11
28.25000000000023
 21
136.5999999999999
 31
-0.0000000000000072
  0
LINE
  5
83
  8
6MM_PLYWOOD
 10
30.30000000000018
 20
134.8
 30
-0.0000000000000074
 11
28.25000000000023
 21
134.8
 31
-0.0000000000000073
  0
LINE
  5
84
  8
6MM_PLYWOOD
 10
30.30000000000018
 20
132.5999999999999
 30
-0.0000000000000076
 11
30.30000000000018
 21
134.8
 31
-0.0000000000000074
  0
LINE
  5
85
  8
6MM_PLYWOOD
 10
28.25000000000023
 20
132.5999999999999
 30
-0.0000000000000074
 11
30.30000000000018
 21
132.5999999999999
 31
-0.0000000000000076
  0
LINE
  5
86
  8
6MM_PLYWOOD
 10
28.25000000000023
 20
129.0
 30
-0.0000000000000061
 11
28.25000000000023
 21
132.5999999999999
 31
-0.0000000000000074
  0
LINE
  5
87
  8
6MM_PLYWOOD
 10
36.00000000000023
 20
129.0
 30
-0.0000000000000061
 11
28.25000000000023
 21
129.0
 31
-0.0000000000000061
  0
LINE
  5
88
  8
6MM_PLYWOOD
 10
36.00000000000023
 20
194.0
 30
-0.0000000000000021
 11
36.00000000000023
 21
129.0
 31
-0.0000000000000061
  0
ARC
  5
89
  8
6MM_PLYWOOD
 10
38.00000000000046
 20
194.0
 30
-0.0000000000000021
 40
2.000000000000028
 50
90.00000000001303
 51
180.000000000009
  0
LINE
  5
8A
  8
6MM_PLYWOOD
 10
356.0000000000002
 20
196.0
 30
-0.000000000000002
 11
38.00000000000023
 21
196.0
 31
-0.000000000000002
  0
LINE
  5
8B
  8
6MM_PLYWOOD
 10
358.0000000000002
 20
128.9999999999995
 30
-0.0000000000000061
 11
358.0000000000002
 21
194.0
 31
-0.0000000000000021
  0
LINE
  5
8C
  8
6MM_PLYWOOD
 10
454.75
 20
128.9999999999986
 30
-0.0000000000000061
 11
358.0000000000002
 21
128.9999999999995
 31
-0.0000000000000061
  0
LINE
  5
8D
  8
6MM_PLYWOOD
 10
454.75
 20
132.5999999999958
 30
-0.0000000000000074
 11
454.75
 21
128.9999999999986
 31
-0.0000000000000061
  0
LINE
  5
8E
  8
6MM_PLYWOOD
 10
452.7000000000003
 20
132.5999999999958
 30
-0.0000000000000076
 11
454.75
 21
132.5999999999958
 31
-0.0000000000000074
  0
LINE
  5
8F
  8
6MM_PLYWOOD
 10
452.7000000000003
 20
134.7999999999958
 30
-0.0000000000000074
 11
452.7000000000003
 21
132.5999999999958
 31
-0.0000000000000076
  0
LINE
  5
90
  8
6MM_PLYWOOD
 10
454.75
 20
134.7999999999958
 30
-0.0000000000000073
 11
452.7000000000003
 21
134.7999999999958
 31
-0.0000000000000074
  0
LINE
  5
91
  8
6MM_PLYWOOD
 10
454.75
 20
136.5999999999958
 30
-0.0000000000000072
 11
454.75
 21
134.7999999999958
 31
-0.0000000000000073
  0
LINE
  5
92
  8
6MM_PLYWOOD
 10
457.25
 20
136.5999999999958
 30
-0.0000000000000071
 11
454.75
 21
136.5999999999958
 31
-0.0000000000000072
  0
LINE
  5
93
  8
6MM_PLYWOOD
 10
457.25
 20
134.7999999999958
 30
-0.0000000000000072
 11
457.25
 21
136.5999999999958
 31
-0.0000000000000071
  0
LINE
  5
94
  8
6MM_PLYWOOD
 10
459.3000000000002
 20
134.7999999999958
 30
-0.000000000000007
 11
457.25
 21
134.7999999999958
 31
-0.0000000000000072
  0
LINE
  5
95
  8
6MM_PLYWOOD
 10
459.3000000000002
 20
132.5999999999958
 30
-0.0000000000000072
 11
459.3000000000002
 21
134.7999999999958
 31
-0.000000000000007
  0
LINE
  5
96
  8
6MM_PLYWOOD
 10
457.25
 20
132.5999999999958
 30
-0.0000000000000073
 11
459.3000000000002
 21
132.5999999999958
 31
-0.0000000000000072
  0
LINE
  5
97
  8
6MM_PLYWOOD
 10
457.25
 20
128.9999999999959
 30
-0.0000000000000062
 11
457.25
 21
132.5999999999958
 31
-0.0000000000000073
  0
LINE
  5
98
  8
6MM_PLYWOOD
 10
464.9999999999984
 20
128.9999999999986
 30
-0.0000000000000061
 11
457.25
 21
128.9999999999959
 31
-0.0000000000000062
  0
LINE
  5
99
  8
6MM_PLYWOOD
 10
465.0000000000039
 20
120.9999999999986
 30
-0.0000000000000066
 11
464.9999999999984
 21
128.9999999999986
 31
-0.0000000000000061
  0
LINE
  5
9A
  8
6MM_PLYWOOD
 10
473.9999999999877
 20
120.9999999999986
 30
-0.0000000000000066
 11
465.0000000000039
 21
120.9999999999986
 31
-0.0000000000000066
  0
LINE
  5
9B
  8
6MM_PLYWOOD
 10
474.0
 20
170.9999999999999
 30
-0.0000000000000036
 11
473.9999999999877
 21
120.9999999999986
 31
-0.0000000000000066
  0
LINE
  5
9C
  8
6MM_PLYWOOD
 10
471.0000000000018
 20
170.9999999999999
 30
-0.0000000000000036
 11
474.0
 21
170.9999999999999
 31
-0.0000000000000036
  0
LINE
  5
9D
  8
6MM_PLYWOOD
 10
471.0
 20
176.7499999999999
 30
-0.0000000000000024
 11
471.0000000000018
 21
170.9999999999999
 31
-0.0000000000000036
  0
LINE
  5
9E
  8
6MM_PLYWOOD
 10
467.4000000000001
 20
176.7499999999999
 30
0.0000000000000086
 11
471.0
 21
176.7499999999999
 31
-0.0000000000000024
  0
LINE
  5
9F
  8
6MM_PLYWOOD
 10
467.4000000000001
 20
174.7
 30
0.0000000000000086
 11
467.4000000000001
 21
176.7499999999999
 31
0.0000000000000086
  0
LINE
  5
A0
  8
6MM_PLYWOOD
 10
465.2000000000003
 20
174.7
 30
0.0000000000000083
 11
467.4000000000001
 21
174.7
 31
0.0000000000000086
  0
LINE
  5
A1
  8
6MM_PLYWOOD
 10
465.2000000000003
 20
176.7499999999999
 30
0.0000000000000083
 11
465.2000000000003
 21
174.7
 31
0.0000000000000083
  0
LINE
  5
A2
  8
6MM_PLYWOOD
 10
463.4000000000001
 20
176.7499999999999
 30
0.0000000000000081
 11
465.2000000000003
 21
176.7499999999999
 31
0.0000000000000083
  0
LINE
  5
A3
  8
6MM_PLYWOOD
 10
465.2000000000003
 20
179.2499999999999
 30
0.0000000000000083
 11
463.4000000000001
 21
179.2499999999999
 31
0.0000000000000081
  0
LINE
  5
A4
  8
6MM_PLYWOOD
 10
465.2000000000003
 20
181.2999999999999
 30
0.0000000000000083
 11
465.2000000000003
 21
179.2499999999999
 31
0.0000000000000083
  0
LINE
  5
A5
  8
6MM_PLYWOOD
 10
467.4000000000001
 20
181.2999999999999
 30
0.0000000000000086
 11
465.2000000000003
 21
181.2999999999999
 31
0.0000000000000083
  0
LINE
  5
A6
  8
6MM_PLYWOOD
 10
467.4000000000001
 20
179.2499999999999
 30
0.0000000000000086
 11
467.4000000000001
 21
181.2999999999999
 31
0.0000000000000086
  0
LINE
  5
A7
  8
6MM_PLYWOOD
 10
470.9999999999973
 20
179.2499999999999
 30
-0.0000000000000027
 11
467.4000000000001
 21
179.2499999999999
 31
0.0000000000000086
  0
LINE
  5
A8
  8
6MM_PLYWOOD
 10
471.0
 20
183.9999999999999
 30
-0.0000000000000028
 11
470.9999999999973
 21
179.2499999999999
 31
-0.0000000000000027
  0
LINE
  5
A9
  8
6MM_PLYWOOD
 10
474.0000000000005
 20
183.9999999999999
 30
-0.0000000000000028
 11
471.0
 21
183.9999999999999
 31
-0.0000000000000028
  0
LINE
  5
AA
  8
6MM_PLYWOOD
 10
474.0000000000005
 20
219.9999999999999
 30
-0.0000000000000006
 11
474.0000000000005
 21
183.9999999999999
 31
-0.0000000000000028
  0
LINE
  5
AB
  8
6MM_PLYWOOD
 10
387.2500000000002
 20
223.3999999999973
 30
-0.0000000000000019
 11
387.2500000000002
 21
226.9999999999943
 31
-0.0000000000000001
  0
LINE
  5
AC
  8
6MM_PLYWOOD
 10
389.3000000000002
 20
223.3999999999973
 30
-0.000000000000002
 11
387.2500000000002
 21
223.3999999999973
 31
-0.0000000000000019
  0
LINE
  5
AD
  8
6MM_PLYWOOD
 10
389.3000000000002
 20
221.1999999999973
 30
-0.0000000000000021
 11
389.3000000000002
 21
223.3999999999973
 31
-0.000000000000002
  0
LINE
  5
AE
  8
6MM_PLYWOOD
 10
387.2500000000002
 20
221.1999999999973
 30
-0.000000000000002
 11
389.3000000000002
 21
221.1999999999973
 31
-0.0000000000000021
  0
LINE
  5
AF
  8
6MM_PLYWOOD
 10
387.2500000000002
 20
219.3999999999973
 30
-0.0000000000000021
 11
387.2500000000002
 21
221.1999999999973
 31
-0.000000000000002
  0
LINE
  5
B0
  8
6MM_PLYWOOD
 10
384.7500000000002
 20
219.3999999999973
 30
-0.000000000000002
 11
387.2500000000002
 21
219.3999999999973
 31
-0.0000000000000021
  0
LINE
  5
B1
  8
6MM_PLYWOOD
 10
384.7500000000002
 20
221.1999999999973
 30
-0.0000000000000019
 11
384.7500000000002
 21
219.3999999999973
 31
-0.000000000000002
  0
LINE
  5
B2
  8
6MM_PLYWOOD
 10
382.7000000000003
 20
221.1999999999973
 30
-0.0000000000000017
 11
384.7500000000002
 21
221.1999999999973
 31
-0.0000000000000019
  0
LINE
  5
B3
  8
6MM_PLYWOOD
 10
382.7000000000003
 20
223.3999999999973
 30
-0.0000000000000016
 11
382.7000000000003
 21
221.1999999999973
 31
-0.0000000000000017
  0
LINE
  5
B4
  8
6MM_PLYWOOD
 10
384.7500000000002
 20
223.3999999999973
 30
-0.0000000000000017
 11
382.7000000000003
 21
223.3999999999973
 31
-0.0000000000000016
  0
LINE
  5
B5
  8
6MM_PLYWOOD
 10
384.7500000000002
 20
226.9999999999959
 30
-0.0000000000000002
 11
384.7500000000002
 21
223.3999999999973
 31
-0.0000000000000017
  0
LINE
  5
B6
  8
6MM_PLYWOOD
 10
357.2500000000002
 20
226.9999999999984
 30
-0.0000000000000001
 11
384.7500000000002
 21
226.9999999999959
 31
-0.0000000000000002
  0
LINE
  5
B7
  8
6MM_PLYWOOD
 10
357.2500000000002
 20
225.2
 30
-0.0000000000000007
 11
357.2500000000002
 21
226.9999999999984
 31
-0.0000000000000001
  0
LINE
  5
B8
  8
6MM_PLYWOOD
 10
356.0000000000002
 20
223.4
 30
-0.0000000000000003
 11
357.2500000000002
 21
225.2
 31
-0.0000000000000007
  0
LINE
  5
B9
  8
6MM_PLYWOOD
 10
354.7500000000002
 20
225.2
 30
-0.0000000000000006
 11
356.0000000000002
 21
223.4
 31
-0.0000000000000003
  0
LINE
  5
BA
  8
6MM_PLYWOOD
 10
354.7500000000002
 20
226.9999999999995
 30
-0.0000000000000001
 11
354.7500000000002
 21
225.2
 31
-0.0000000000000006
  0
LINE
  5
BB
  8
6MM_PLYWOOD
 10
327.2500000000002
 20
226.999999999997
 30
-0.0000000000000001
 11
354.7500000000002
 21
226.9999999999995
 31
-0.0000000000000001
  0
LINE
  5
BC
  8
6MM_PLYWOOD
 10
327.2500000000002
 20
223.4
 30
-0.0000000000000019
 11
327.2500000000002
 21
226.999999999997
 31
-0.0000000000000001
  0
LINE
  5
BD
  8
6MM_PLYWOOD
 10
329.3000000000002
 20
223.4
 30
-0.000000000000002
 11
327.2500000000002
 21
223.4
 31
-0.0000000000000019
  0
LINE
  5
BE
  8
6MM_PLYWOOD
 10
329.3000000000002
 20
221.2
 30
-0.0000000000000021
 11
329.3000000000002
 21
223.4
 31
-0.000000000000002
  0
LINE
  5
BF
  8
6MM_PLYWOOD
 10
327.2500000000002
 20
221.2
 30
-0.000000000000002
 11
329.3000000000002
 21
221.2
 31
-0.0000000000000021
  0
LINE
  5
C0
  8
6MM_PLYWOOD
 10
327.2500000000002
 20
219.4
 30
-0.0000000000000021
 11
327.2500000000002
 21
221.2
 31
-0.000000000000002
  0
LINE
  5
C1
  8
6MM_PLYWOOD
 10
324.7500000000002
 20
219.4
 30
-0.000000000000002
 11
327.2500000000002
 21
219.4
 31
-0.0000000000000021
  0
LINE
  5
C2
  8
6MM_PLYWOOD
 10
324.7500000000002
 20
221.2
 30
-0.0000000000000019
 11
324.7500000000002
 21
219.4
 31
-0.000000000000002
  0
LINE
  5
C3
  8
6MM_PLYWOOD
 10
322.7000000000003
 20
221.2
 30
-0.0000000000000017
 11
324.7500000000002
 21
221.2
 31
-0.0000000000000019
  0
LINE
  5
C4
  8
6MM_PLYWOOD
 10
322.7000000000003
 20
223.4
 30
-0.0000000000000016
 11
322.7000000000003
 21
221.2
 31
-0.0000000000000017
  0
LINE
  5
C5
  8
6MM_PLYWOOD
 10
324.7500000000002
 20
223.4
 30
-0.0000000000000017
 11
322.7000000000003
 21
223.4
 31
-0.0000000000000016
  0
LINE
  5
C6
  8
6MM_PLYWOOD
 10
324.7500000000002
 20
226.9999999999986
 30
-0.0000000000000002
 11
324.7500000000002
 21
223.4
 31
-0.0000000000000017
  0
LINE
  5
C7
  8
6MM_PLYWOOD
 10
297.2500000000002
 20
226.9999999999995
 30
-0.0000000000000001
 11
324.7500000000002
 21
226.9999999999986
 31
-0.0000000000000002
  0
LINE
  5
C8
  8
6MM_PLYWOOD
 10
297.2500000000002
 20
225.2
 30
-0.0000000000000007
 11
297.2500000000002
 21
226.9999999999995
 31
-0.0000000000000001
  0
LINE
  5
C9
  8
6MM_PLYWOOD
 10
296.0000000000002
 20
223.4
 30
-0.0000000000000003
 11
297.2500000000002
 21
225.2
 31
-0.0000000000000007
  0
LINE
  5
CA
  8
6MM_PLYWOOD
 10
294.7500000000002
 20
225.2
 30
-0.0000000000000006
 11
296.0000000000002
 21
223.4
 31
-0.0000000000000003
  0
LINE
  5
CB
  8
6MM_PLYWOOD
 10
294.7500000000002
 20
226.9999999999995
 30
-0.0000000000000001
 11
294.7500000000002
 21
225.2
 31
-0.0000000000000006
  0
LINE
  5
CC
  8
6MM_PLYWOOD
 10
267.2500000000002
 20
226.999999999997
 30
-0.0000000000000001
 11
294.7500000000002
 21
226.9999999999995
 31
-0.0000000000000001
  0
LINE
  5
CD
  8
6MM_PLYWOOD
 10
267.2500000000002
 20
223.4000000000001
 30
-0.0000000000000019
 11
267.2500000000002
 21
226.999999999997
 31
-0.0000000000000001
  0
LINE
  5
CE
  8
6MM_PLYWOOD
 10
269.3000000000002
 20
223.4000000000001
 30
-0.000000000000002
 11
267.2500000000002
 21
223.4000000000001
 31
-0.0000000000000019
  0
LINE
  5
CF
  8
6MM_PLYWOOD
 10
269.3000000000002
 20
221.2000000000001
 30
-0.0000000000000021
 11
269.3000000000002
 21
223.4000000000001
 31
-0.000000000000002
  0
LINE
  5
D0
  8
6MM_PLYWOOD
 10
267.2500000000002
 20
221.2000000000001
 30
-0.000000000000002
 11
269.3000000000002
 21
221.2000000000001
 31
-0.0000000000000021
  0
LINE
  5
D1
  8
6MM_PLYWOOD
 10
267.2500000000002
 20
219.4000000000001
 30
-0.0000000000000021
 11
267.2500000000002
 21
221.2000000000001
 31
-0.000000000000002
  0
LINE
  5
D2
  8
6MM_PLYWOOD
 10
264.7500000000002
 20
219.4000000000001
 30
-0.000000000000002
 11
267.2500000000002
 21
219.4000000000001
 31
-0.0000000000000021
  0
LINE
  5
D3
  8
6MM_PLYWOOD
 10
264.7500000000002
 20
221.2000000000001
 30
-0.0000000000000019
 11
264.7500000000002
 21
219.4000000000001
 31
-0.000000000000002
  0
LINE
  5
D4
  8
6MM_PLYWOOD
 10
262.7000000000003
 20
221.2000000000001
 30
-0.0000000000000017
 11
264.7500000000002
 21
221.2000000000001
 31
-0.0000000000000019
  0
LINE
  5
D5
  8
6MM_PLYWOOD
 10
262.7000000000003
 20
223.4000000000001
 30
-0.0000000000000016
 11
262.7000000000003
 21
221.2000000000001
 31
-0.0000000000000017
  0
LINE
  5
D6
  8
6MM_PLYWOOD
 10
264.7500000000002
 20
223.4000000000001
 30
-0.0000000000000017
 11
262.7000000000003
 21
223.4000000000001
 31
-0.0000000000000016
  0
LINE
  5
D7
  8
6MM_PLYWOOD
 10
264.7500000000002
 20
226.9999999999986
 30
-0.0000000000000002
 11
264.7500000000002
 21
223.4000000000001
 31
-0.0000000000000017
  0
LINE
  5
D8
  8
6MM_PLYWOOD
 10
237.2500000000002
 20
226.9999999999996
 30
-0.0000000000000001
 11
264.7500000000002
 21
226.9999999999986
 31
-0.0000000000000002
  0
LINE
  5
D9
  8
6MM_PLYWOOD
 10
237.2500000000002
 20
225.2000000000001
 30
-0.0000000000000007
 11
237.2500000000002
 21
226.9999999999996
 31
-0.0000000000000001
  0
LINE
  5
DA
  8
6MM_PLYWOOD
 10
236.0000000000002
 20
223.4000000000001
 30
-0.0000000000000003
 11
237.2500000000002
 21
225.2000000000001
 31
-0.0000000000000007
  0
LINE
  5
DB
  8
6MM_PLYWOOD
 10
234.7500000000002
 20
225.2000000000001
 30
-0.0000000000000006
 11
236.0000000000002
 21
223.4000000000001
 31
-0.0000000000000003
  0
LINE
  5
DC
  8
6MM_PLYWOOD
 10
234.7500000000002
 20
226.9999999999996
 30
-0.0000000000000001
 11
234.7500000000002
 21
225.2000000000001
 31
-0.0000000000000006
  0
LINE
  5
DD
  8
6MM_PLYWOOD
 10
207.2500000000002
 20
226.999999999997
 30
-0.0000000000000001
 11
234.7500000000002
 21
226.9999999999996
 31
-0.0000000000000001
  0
LINE
  5
DE
  8
6MM_PLYWOOD
 10
207.2500000000002
 20
223.4000000000001
 30
-0.0000000000000019
 11
207.2500000000002
 21
226.999999999997
 31
-0.0000000000000001
  0
LINE
  5
DF
  8
6MM_PLYWOOD
 10
209.3000000000002
 20
223.4000000000001
 30
-0.000000000000002
 11
207.2500000000002
 21
223.4000000000001
 31
-0.0000000000000019
  0
LINE
  5
E0
  8
6MM_PLYWOOD
 10
209.3000000000002
 20
221.2000000000001
 30
-0.0000000000000021
 11
209.3000000000002
 21
223.4000000000001
 31
-0.000000000000002
  0
LINE
  5
E1
  8
6MM_PLYWOOD
 10
207.2500000000002
 20
221.2000000000001
 30
-0.000000000000002
 11
209.3000000000002
 21
221.2000000000001
 31
-0.0000000000000021
  0
LINE
  5
E2
  8
6MM_PLYWOOD
 10
207.2500000000002
 20
219.4000000000001
 30
-0.0000000000000021
 11
207.2500000000002
 21
221.2000000000001
 31
-0.000000000000002
  0
LINE
  5
E3
  8
6MM_PLYWOOD
 10
204.7500000000002
 20
219.4000000000001
 30
-0.000000000000002
 11
207.2500000000002
 21
219.4000000000001
 31
-0.0000000000000021
  0
LINE
  5
E4
  8
6MM_PLYWOOD
 10
204.7500000000002
 20
221.2000000000001
 30
-0.0000000000000019
 11
204.7500000000002
 21
219.4000000000001
 31
-0.000000000000002
  0
LINE
  5
E5
  8
6MM_PLYWOOD
 10
202.7000000000003
 20
221.2000000000001
 30
-0.0000000000000017
 11
204.7500000000002
 21
221.2000000000001
 31
-0.0000000000000019
  0
LINE
  5
E6
  8
6MM_PLYWOOD
 10
202.7000000000003
 20
223.4000000000001
 30
-0.0000000000000016
 11
202.7000000000003
 21
221.2000000000001
 31
-0.0000000000000017
  0
LINE
  5
E7
  8
6MM_PLYWOOD
 10
204.7500000000002
 20
223.4000000000001
 30
-0.0000000000000017
 11
202.7000000000003
 21
223.4000000000001
 31
-0.0000000000000016
  0
LINE
  5
E8
  8
6MM_PLYWOOD
 10
204.7500000000002
 20
226.9999999999986
 30
-0.0000000000000002
 11
204.7500000000002
 21
223.4000000000001
 31
-0.0000000000000017
  0
LINE
  5
E9
  8
6MM_PLYWOOD
 10
177.2500000000002
 20
226.9999999999996
 30
-0.0000000000000001
 11
204.7500000000002
 21
226.9999999999986
 31
-0.0000000000000002
  0
LINE
  5
EA
  8
6MM_PLYWOOD
 10
177.2500000000002
 20
225.2000000000001
 30
-0.0000000000000007
 11
177.2500000000002
 21
226.9999999999996
 31
-0.0000000000000001
  0
LINE
  5
EB
  8
6MM_PLYWOOD
 10
176.0000000000002
 20
223.4000000000001
 30
-0.0000000000000003
 11
177.2500000000002
 21
225.2000000000001
 31
-0.0000000000000007
  0
LINE
  5
EC
  8
6MM_PLYWOOD
 10
174.7500000000002
 20
225.2000000000001
 30
-0.0000000000000006
 11
176.0000000000002
 21
223.4000000000001
 31
-0.0000000000000003
  0
LINE
  5
ED
  8
6MM_PLYWOOD
 10
174.7500000000002
 20
226.9999999999996
 30
-0.0000000000000001
 11
174.7500000000002
 21
225.2000000000001
 31
-0.0000000000000006
  0
LINE
  5
EE
  8
6MM_PLYWOOD
 10
147.2500000000002
 20
226.999999999997
 30
-0.0000000000000001
 11
174.7500000000002
 21
226.9999999999996
 31
-0.0000000000000001
  0
LINE
  5
EF
  8
6MM_PLYWOOD
 10
147.2500000000002
 20
223.4000000000001
 30
-0.0000000000000019
 11
147.2500000000002
 21
226.999999999997
 31
-0.0000000000000001
  0
LINE
  5
F0
  8
6MM_PLYWOOD
 10
149.3000000000002
 20
223.4000000000001
 30
-0.000000000000002
 11
147.2500000000002
 21
223.4000000000001
 31
-0.0000000000000019
  0
LINE
  5
F1
  8
6MM_PLYWOOD
 10
149.3000000000002
 20
221.2000000000001
 30
-0.0000000000000021
 11
149.3000000000002
 21
223.4000000000001
 31
-0.000000000000002
  0
LINE
  5
F2
  8
6MM_PLYWOOD
 10
147.2500000000002
 20
221.2000000000001
 30
-0.000000000000002
 11
149.3000000000002
 21
221.2000000000001
 31
-0.0000000000000021
  0
LINE
  5
F3
  8
6MM_PLYWOOD
 10
147.2500000000002
 20
219.4000000000001
 30
-0.0000000000000021
 11
147.2500000000002
 21
221.2000000000001
 31
-0.000000000000002
  0
LINE
  5
F4
  8
6MM_PLYWOOD
 10
144.7500000000002
 20
219.4000000000001
 30
-0.000000000000002
 11
147.2500000000002
 21
219.4000000000001
 31
-0.0000000000000021
  0
LINE
  5
F5
  8
6MM_PLYWOOD
 10
144.7500000000002
 20
221.2000000000001
 30
-0.0000000000000019
 11
144.7500000000002
 21
219.4000000000001
 31
-0.000000000000002
  0
LINE
  5
F6
  8
6MM_PLYWOOD
 10
142.7000000000003
 20
221.2000000000001
 30
-0.0000000000000017
 11
144.7500000000002
 21
221.2000000000001
 31
-0.0000000000000019
  0
LINE
  5
F7
  8
6MM_PLYWOOD
 10
142.7000000000003
 20
223.4000000000001
 30
-0.0000000000000016
 11
142.7000000000003
 21
221.2000000000001
 31
-0.0000000000000017
  0
LINE
  5
F8
  8
6MM_PLYWOOD
 10
144.7500000000002
 20
223.4000000000001
 30
-0.0000000000000017
 11
142.7000000000003
 21
223.4000000000001
 31
-0.0000000000000016
  0
LINE
  5
F9
  8
6MM_PLYWOOD
 10
144.7500000000002
 20
226.9999999999986
 30
-0.0000000000000002
 11
144.7500000000002
 21
223.4000000000001
 31
-0.0000000000000017
  0
LINE
  5
FA
  8
6MM_PLYWOOD
 10
117.2500000000002
 20
226.9999999999996
 30
-0.0000000000000001
 11
144.7500000000002
 21
226.9999999999986
 31
-0.0000000000000002
  0
LINE
  5
FB
  8
6MM_PLYWOOD
 10
117.2500000000002
 20
225.2000000000001
 30
-0.0000000000000007
 11
117.2500000000002
 21
226.9999999999996
 31
-0.0000000000000001
  0
LINE
  5
FC
  8
6MM_PLYWOOD
 10
116.0000000000002
 20
223.4000000000001
 30
-0.0000000000000003
 11
117.2500000000002
 21
225.2000000000001
 31
-0.0000000000000007
  0
LINE
  5
FD
  8
6MM_PLYWOOD
 10
114.7500000000002
 20
225.2000000000001
 30
-0.0000000000000006
 11
116.0000000000002
 21
223.4000000000001
 31
-0.0000000000000003
  0
LINE
  5
FE
  8
6MM_PLYWOOD
 10
114.7500000000002
 20
226.9999999999996
 30
-0.0000000000000001
 11
114.7500000000002
 21
225.2000000000001
 31
-0.0000000000000006
  0
LINE
  5
FF
  8
6MM_PLYWOOD
 10
87.25000000000023
 20
226.999999999997
 30
-0.0000000000000001
 11
114.7500000000002
 21
226.9999999999996
 31
-0.0000000000000001
  0
LINE
  5
100
  8
6MM_PLYWOOD
 10
87.25000000000023
 20
223.4000000000001
 30
-0.0000000000000019
 11
87.25000000000023
 21
226.999999999997
 31
-0.0000000000000001
  0
LINE
  5
101
  8
6MM_PLYWOOD
 10
89.30000000000018
 20
223.4000000000001
 30
-0.000000000000002
 11
87.25000000000023
 21
223.4000000000001
 31
-0.0000000000000019
  0
LINE
  5
102
  8
6MM_PLYWOOD
 10
89.30000000000018
 20
221.2000000000001
 30
-0.0000000000000021
 11
89.30000000000018
 21
223.4000000000001
 31
-0.000000000000002
  0
LINE
  5
103
  8
6MM_PLYWOOD
 10
87.25000000000023
 20
221.2000000000001
 30
-0.000000000000002
 11
89.30000000000018
 21
221.2000000000001
 31
-0.0000000000000021
  0
LINE
  5
104
  8
6MM_PLYWOOD
 10
87.25000000000023
 20
219.4000000000001
 30
-0.0000000000000021
 11
87.25000000000023
 21
221.2000000000001
 31
-0.000000000000002
  0
LINE
  5
105
  8
6MM_PLYWOOD
 10
84.75000000000023
 20
219.4000000000001
 30
-0.000000000000002
 11
87.25000000000023
 21
219.4000000000001
 31
-0.0000000000000021
  0
LINE
  5
106
  8
6MM_PLYWOOD
 10
84.75000000000023
 20
221.2000000000001
 30
-0.0000000000000019
 11
84.75000000000023
 21
219.4000000000001
 31
-0.000000000000002
  0
LINE
  5
107
  8
6MM_PLYWOOD
 10
82.70000000000027
 20
221.2000000000001
 30
-0.0000000000000017
 11
84.75000000000023
 21
221.2000000000001
 31
-0.0000000000000019
  0
LINE
  5
108
  8
6MM_PLYWOOD
 10
82.70000000000027
 20
223.4000000000001
 30
-0.0000000000000016
 11
82.70000000000027
 21
221.2000000000001
 31
-0.0000000000000017
  0
LINE
  5
109
  8
6MM_PLYWOOD
 10
84.75000000000023
 20
223.4000000000001
 30
-0.0000000000000017
 11
82.70000000000027
 21
223.4000000000001
 31
-0.0000000000000016
  0
LINE
  5
10A
  8
6MM_PLYWOOD
 10
84.75000000000023
 20
226.9999999999986
 30
-0.0000000000000002
 11
84.75000000000023
 21
223.4000000000001
 31
-0.0000000000000017
  0
LINE
  5
10B
  8
6MM_PLYWOOD
 10
57.25000000000023
 20
226.9999999999996
 30
-0.0000000000000001
 11
84.75000000000023
 21
226.9999999999986
 31
-0.0000000000000002
  0
LINE
  5
10C
  8
6MM_PLYWOOD
 10
57.25000000000023
 20
225.2000000000001
 30
-0.0000000000000007
 11
57.25000000000023
 21
226.9999999999996
 31
-0.0000000000000001
  0
LINE
  5
10D
  8
6MM_PLYWOOD
 10
56.00000000000023
 20
223.4000000000001
 30
-0.0000000000000003
 11
57.25000000000023
 21
225.2000000000001
 31
-0.0000000000000007
  0
LINE
  5
10E
  8
6MM_PLYWOOD
 10
54.75000000000023
 20
225.2000000000001
 30
-0.0000000000000006
 11
56.00000000000023
 21
223.4000000000001
 31
-0.0000000000000003
  0
LINE
  5
10F
  8
6MM_PLYWOOD
 10
54.75000000000023
 20
226.9999999999996
 30
-0.0000000000000001
 11
54.75000000000023
 21
225.2000000000001
 31
-0.0000000000000006
  0
LINE
  5
110
  8
6MM_PLYWOOD
 10
27.25000000000023
 20
226.999999999997
 30
-0.0000000000000001
 11
54.75000000000023
 21
226.9999999999996
 31
-0.0000000000000001
  0
LINE
  5
111
  8
6MM_PLYWOOD
 10
27.25000000000023
 20
223.4000000000001
 30
-0.0000000000000019
 11
27.25000000000023
 21
226.999999999997
 31
-0.0000000000000001
  0
LINE
  5
112
  8
6MM_PLYWOOD
 10
29.30000000000018
 20
223.4000000000001
 30
-0.000000000000002
 11
27.25000000000023
 21
223.4000000000001
 31
-0.0000000000000019
  0
LINE
  5
113
  8
6MM_PLYWOOD
 10
29.30000000000018
 20
221.2000000000001
 30
-0.0000000000000021
 11
29.30000000000018
 21
223.4000000000001
 31
-0.000000000000002
  0
LINE
  5
114
  8
6MM_PLYWOOD
 10
27.25000000000023
 20
221.2000000000001
 30
-0.000000000000002
 11
29.30000000000018
 21
221.2000000000001
 31
-0.0000000000000021
  0
LINE
  5
115
  8
6MM_PLYWOOD
 10
27.25000000000023
 20
219.4000000000001
 30
-0.0000000000000021
 11
27.25000000000023
 21
221.2000000000001
 31
-0.000000000000002
  0
LINE
  5
116
  8
6MM_PLYWOOD
 10
24.75000000000023
 20
219.4000000000001
 30
-0.000000000000002
 11
27.25000000000023
 21
219.4000000000001
 31
-0.0000000000000021
  0
LINE
  5
117
  8
6MM_PLYWOOD
 10
24.75000000000023
 20
221.2000000000001
 30
-0.0000000000000019
 11
24.75000000000023
 21
219.4000000000001
 31
-0.000000000000002
  0
LINE
  5
118
  8
6MM_PLYWOOD
 10
22.70000000000027
 20
221.2000000000001
 30
-0.0000000000000017
 11
24.75000000000023
 21
221.2000000000001
 31
-0.0000000000000019
  0
LINE
  5
119
  8
6MM_PLYWOOD
 10
22.70000000000027
 20
223.4000000000001
 30
-0.0000000000000016
 11
22.70000000000027
 21
221.2000000000001
 31
-0.0000000000000017
  0
LINE
  5
11A
  8
6MM_PLYWOOD
 10
24.75000000000023
 20
223.4000000000001
 30
-0.0000000000000017
 11
22.70000000000027
 21
223.4000000000001
 31
-0.0000000000000016
  0
LINE
  5
11B
  8
6MM_PLYWOOD
 10
24.75000000000023
 20
226.9999999999982
 30
-0.0000000000000002
 11
24.75000000000023
 21
223.4000000000001
 31
-0.0000000000000017
  0
LINE
  5
11C
  8
6MM_PLYWOOD
 10
23.50000000000023
 20
227.0
 30
-0.0000000000000001
 11
24.75000000000023
 21
226.9999999999982
 31
-0.0000000000000002
  0
CIRCLE
  5
11D
  8
6MM_PLYWOOD
 10
11.00000000000023
 20
227.0
 30
-0.0000000000000001
 40
3.05
  0
POLYLINE
  5
11E
  8
6MM_PLYWOOD
 66
     1
 10
0.0
 20
0.0
 30
-0.0000000000000049
  0
VERTEX
  5
120
  8
6MM_PLYWOOD
 10
402.0000000000002
 20
148.9
 30
-0.0000000000000049
  0
VERTEX
  5
121
  8
6MM_PLYWOOD
 10
395.9000000000001
 20
148.9000000000001
 30
-0.0000000000000049
  0
VERTEX
  5
122
  8
6MM_PLYWOOD
 10
395.9000000000001
 20
150.7
 30
-0.0000000000000048
  0
VERTEX
  5
123
  8
6MM_PLYWOOD
 10
434.1000000000001
 20
150.7
 30
-0.0000000000000048
  0
VERTEX
  5
124
  8
6MM_PLYWOOD
 10
434.1000000000001
 20
148.9
 30
-0.0000000000000049
  0
VERTEX
  5
125
  8
6MM_PLYWOOD
 10
428.0
 20
148.9
 30
-0.0000000000000049
  0
VERTEX
  5
126
  8
6MM_PLYWOOD
 10
428.0
 20
137.9
 30
-0.0000000000000056
  0
VERTEX
  5
127
  8
6MM_PLYWOOD
 10
402.0000000000002
 20
137.9
 30
-0.0000000000000056
  0
VERTEX
  5
128
  8
6MM_PLYWOOD
 10
402.0000000000002
 20
148.9
 30
-0.0000000000000049
  0
SEQEND
  5
11F
  8
6MM_PLYWOOD
  0
CIRCLE
  5
129
  8
6MM_PLYWOOD
 10
18.00000000000023
 20
229.5999999999999
 30
0.0
 40
0.5
  0
CIRCLE
  5
12A
  8
6MM_PLYWOOD
 10
56.00000000000023
 20
219.0
 30
-0.0000000000000006
 40
1.35
  0
POLYLINE
  5
12B
  8
6MM_PLYWOOD
 66
     1
 10
0.0
 20
0.0
 30
-0.000000000000001
  0
VERTEX
  5
12D
  8
6MM_PLYWOOD
 10
60.0
 20
216.0
 30
-0.000000000000001
  0
VERTEX
  5
12E
  8
6MM_PLYWOOD
 10
64.0
 20
216.0
 30
-0.0000000000000013
  0
VERTEX
  5
12F
  8
6MM_PLYWOOD
 10
64.0
 20
222.0
 30
-0.0000000000000009
  0
VERTEX
  5
130
  8
6MM_PLYWOOD
 10
60.0
 20
222.0
 30
-0.0000000000000007
  0
VERTEX
  5
131
  8
6MM_PLYWOOD
 10
60.0
 20
216.0
 30
-0.000000000000001
  0
SEQEND
  5
12C
  8
6MM_PLYWOOD
  0
POLYLINE
  5
132
  8
6MM_PLYWOOD
 66
     1
 10
0.0
 20
0.0
 30
-0.0000000000000002
  0
VERTEX
  5
134
  8
6MM_PLYWOOD
 10
52.0
 20
222.0
 30
-0.0000000000000002
  0
VERTEX
  5
135
  8
6MM_PLYWOOD
 10
48.0
 20
222.0
 30
0.0000000000000001
  0
VERTEX
  5
136
  8
6MM_PLYWOOD
 10
48.0
 20
216.0
 30
-0.0000000000000003
  0
VERTEX
  5
137
  8
6MM_PLYWOOD
 10
52.0
 20
216.0
 30
-0.0000000000000006
  0
VERTEX
  5
138
  8
6MM_PLYWOOD
 10
52.0
 20
222.0
 30
-0.0000000000000002
  0
SEQEND
  5
133
  8
6MM_PLYWOOD
  0
CIRCLE
  5
139
  8
6MM_PLYWOOD
 10
116.0000000000002
 20
219.0
 30
-0.0000000000000006
 40
2.5
  0
CIRCLE
  5
13A
  8
6MM_PLYWOOD
 10
176.0000000000002
 20
219.0
 30
-0.0000000000000006
 40
1.35
  0
POLYLINE
  5
13B
  8
6MM_PLYWOOD
 66
     1
 10
0.0
 20
0.0
 30
-0.000000000000001
  0
VERTEX
  5
13D
  8
6MM_PLYWOOD
 10
180.0000000000002
 20
216.0
 30
-0.000000000000001
  0
VERTEX
  5
13E
  8
6MM_PLYWOOD
 10
184.0000000000002
 20
216.0
 30
-0.0000000000000013
  0
VERTEX
  5
13F
  8
6MM_PLYWOOD
 10
184.0000000000002
 20
222.0
 30
-0.0000000000000009
  0
VERTEX
  5
140
  8
6MM_PLYWOOD
 10
180.0000000000002
 20
222.0
 30
-0.0000000000000007
  0
VERTEX
  5
141
  8
6MM_PLYWOOD
 10
180.0000000000002
 20
216.0
 30
-0.000000000000001
  0
SEQEND
  5
13C
  8
6MM_PLYWOOD
  0
POLYLINE
  5
142
  8
6MM_PLYWOOD
 66
     1
 10
0.0
 20
0.0
 30
-0.0000000000000002
  0
VERTEX
  5
144
  8
6MM_PLYWOOD
 10
172.0000000000002
 20
222.0
 30
-0.0000000000000002
  0
VERTEX
  5
145
  8
6MM_PLYWOOD
 10
168.0000000000002
 20
222.0
 30
0.0000000000000001
  0
VERTEX
  5
146
  8
6MM_PLYWOOD
 10
168.0000000000002
 20
216.0
 30
-0.0000000000000003
  0
VERTEX
  5
147
  8
6MM_PLYWOOD
 10
172.0000000000002
 20
216.0
 30
-0.0000000000000006
  0
VERTEX
  5
148
  8
6MM_PLYWOOD
 10
172.0000000000002
 20
222.0
 30
-0.0000000000000002
  0
SEQEND
  5
143
  8
6MM_PLYWOOD
  0
CIRCLE
  5
149
  8
6MM_PLYWOOD
 10
236.0000000000002
 20
219.0
 30
-0.0000000000000006
 40
2.5
  0
CIRCLE
  5
14A
  8
6MM_PLYWOOD
 10
296.0000000000002
 20
218.9999999999999
 30
-0.0000000000000006
 40
1.35
  0
POLYLINE
  5
14B
  8
6MM_PLYWOOD
 66
     1
 10
0.0
 20
0.0
 30
-0.000000000000001
  0
VERTEX
  5
14D
  8
6MM_PLYWOOD
 10
300.0000000000002
 20
215.9999999999999
 30
-0.000000000000001
  0
VERTEX
  5
14E
  8
6MM_PLYWOOD
 10
304.0000000000002
 20
215.9999999999999
 30
-0.0000000000000013
  0
VERTEX
  5
14F
  8
6MM_PLYWOOD
 10
304.0000000000002
 20
221.9999999999999
 30
-0.0000000000000009
  0
VERTEX
  5
150
  8
6MM_PLYWOOD
 10
300.0000000000002
 20
221.9999999999999
 30
-0.0000000000000007
  0
VERTEX
  5
151
  8
6MM_PLYWOOD
 10
300.0000000000002
 20
215.9999999999999
 30
-0.000000000000001
  0
SEQEND
  5
14C
  8
6MM_PLYWOOD
  0
POLYLINE
  5
152
  8
6MM_PLYWOOD
 66
     1
 10
0.0
 20
0.0
 30
-0.0000000000000002
  0
VERTEX
  5
154
  8
6MM_PLYWOOD
 10
292.0000000000002
 20
221.9999999999999
 30
-0.0000000000000002
  0
VERTEX
  5
155
  8
6MM_PLYWOOD
 10
288.0000000000002
 20
221.9999999999999
 30
0.0000000000000001
  0
VERTEX
  5
156
  8
6MM_PLYWOOD
 10
288.0000000000002
 20
215.9999999999999
 30
-0.0000000000000003
  0
VERTEX
  5
157
  8
6MM_PLYWOOD
 10
292.0000000000002
 20
215.9999999999999
 30
-0.0000000000000006
  0
VERTEX
  5
158
  8
6MM_PLYWOOD
 10
292.0000000000002
 20
221.9999999999999
 30
-0.0000000000000002
  0
SEQEND
  5
153
  8
6MM_PLYWOOD
  0
CIRCLE
  5
159
  8
6MM_PLYWOOD
 10
356.0000000000002
 20
218.9999999999999
 30
-0.0000000000000006
 40
2.5
  0
ARC
  5
15A
  8
6MM_PLYWOOD
 10
8.000000000000227
 20
220.0
 30
-0.0000000000000006
 40
3.0
 50
180.0
 51
270.0
  0
LINE
  5
15B
  8
6MM_PLYWOOD
 10
9.000000000000227
 20
203.9999999999996
 30
-0.0000000000000015
 11
12.0
 21
203.999999999997
 31
-0.0000000000000015
  0
LINE
  5
15C
  8
6MM_PLYWOOD
 10
12.0
 20
203.999999999997
 30
-0.0000000000000015
 11
12.00000000000023
 21
209.75
 31
-0.0000000000000004
  0
LINE
  5
15D
  8
6MM_PLYWOOD
 10
12.00000000000023
 20
209.75
 30
-0.0000000000000004
 11
15.60000000000036
 21
209.75
 31
0.0000000000000106
  0
LINE
  5
15E
  8
6MM_PLYWOOD
 10
15.60000000000036
 20
209.75
 30
0.0000000000000106
 11
15.60000000000036
 21
207.7000000000001
 31
0.0000000000000106
  0
LINE
  5
15F
  8
6MM_PLYWOOD
 10
15.60000000000036
 20
207.7000000000001
 30
0.0000000000000106
 11
17.80000000000018
 21
207.7000000000001
 31
0.0000000000000103
  0
LINE
  5
160
  8
6MM_PLYWOOD
 10
17.80000000000018
 20
207.7000000000001
 30
0.0000000000000103
 11
17.80000000000018
 21
209.75
 31
0.0000000000000103
  0
LINE
  5
161
  8
6MM_PLYWOOD
 10
17.80000000000018
 20
209.75
 30
0.0000000000000103
 11
19.60000000000036
 21
209.75
 31
0.0000000000000101
  0
LINE
  5
162
  8
6MM_PLYWOOD
 10
19.60000000000036
 20
209.75
 30
0.0000000000000101
 11
19.60000000000036
 21
212.25
 31
0.0000000000000101
  0
LINE
  5
163
  8
6MM_PLYWOOD
 10
19.60000000000036
 20
212.25
 30
0.0000000000000101
 11
17.80000000000018
 21
212.25
 31
0.0000000000000103
  0
LINE
  5
164
  8
6MM_PLYWOOD
 10
17.80000000000018
 20
212.25
 30
0.0000000000000103
 11
17.80000000000018
 21
214.3
 31
0.0000000000000103
  0
LINE
  5
165
  8
6MM_PLYWOOD
 10
17.80000000000018
 20
214.3
 30
0.0000000000000103
 11
15.60000000000036
 21
214.3
 31
0.0000000000000106
  0
LINE
  5
166
  8
6MM_PLYWOOD
 10
15.60000000000036
 20
214.3
 30
0.0000000000000106
 11
15.60000000000036
 21
212.25
 31
0.0000000000000106
  0
LINE
  5
167
  8
6MM_PLYWOOD
 10
15.60000000000036
 20
212.25
 30
0.0000000000000106
 11
12.00000000000273
 21
212.25
 31
-0.0000000000000007
  0
LINE
  5
168
  8
6MM_PLYWOOD
 10
12.00000000000273
 20
212.25
 30
-0.0000000000000007
 11
12.00000000000023
 21
217.0
 31
-0.0000000000000007
  0
LINE
  5
169
  8
6MM_PLYWOOD
 10
12.00000000000023
 20
217.0
 30
-0.0000000000000007
 11
8.000000000000227
 21
217.0
 31
-0.0000000000000007
  0
LINE
  5
16A
  8
6MM_PLYWOOD
 10
9.000000000007276
 20
121.0
 30
-0.0000000000000066
 11
9.000000000000455
 21
203.9999999999996
 31
-0.0000000000000015
  0
LINE
  5
16B
  8
6MM_PLYWOOD
 10
5.000000000000227
 20
227.0
 30
-0.0000000000000001
 11
5.000000000000227
 21
220.0
 31
-0.0000000000000006
  0
ARC
  5
16C
  8
6MM_PLYWOOD
 10
356.0000000000002
 20
194.0
 30
-0.0000000000000021
 40
2.0
 50
0.0
 51
90.0
  0
CIRCLE
  5
16D
  8
6MM_PLYWOOD
 10
38.00000000000478
 20
209.0
 30
-0.0000000000000012
 40
1.2
  0
CIRCLE
  5
16E
  8
6MM_PLYWOOD
 10
458.5
 20
205.7
 30
-0.0000000000000014
 40
1.2
  0
CIRCLE
  5
16F
  8
6MM_PLYWOOD
 10
458.5
 20
152.7
 30
-0.0000000000000047
 40
1.2
  0
CIRCLE
  5
170
  8
6MM_PLYWOOD
 10
371.5000000000002
 20
152.7
 30
-0.0000000000000047
 40
1.2
  0
CIRCLE
  5
171
  8
6MM_PLYWOOD
 10
52.00000000000023
 20
200.0
 30
-0.0000000000000018
 40
1.2
  0
CIRCLE
  5
172
  8
6MM_PLYWOOD
 10
122.0000000000002
 20
200.0
 30
-0.0000000000000018
 40
1.2
  0
CIRCLE
  5
173
  8
6MM_PLYWOOD
 10
202.8000000000002
 20
204.5
 30
-0.0000000000000015
 40
1.2
  0
CIRCLE
  5
174
  8
6MM_PLYWOOD
 10
254.8000000000002
 20
199.5
 30
-0.0000000000000018
 40
1.2
  0
CIRCLE
  5
175
  8
6MM_PLYWOOD
 10
272.0000000000002
 20
200.0
 30
-0.0000000000000018
 40
1.2
  0
CIRCLE
  5
176
  8
6MM_PLYWOOD
 10
342.0000000000002
 20
199.9999999999999
 30
-0.0000000000000018
 40
1.2
  0
CIRCLE
  5
177
  8
6MM_PLYWOOD
 10
371.5000000000002
 20
205.7
 30
-0.0000000000000014
 40
1.2
  0
CIRCLE
  5
178
  8
6MM_PLYWOOD
 10
347.9999999999957
 20
208.9999999999999
 30
-0.0000000000000012
 40
1.2
  0
CIRCLE
  5
179
  8
6MM_PLYWOOD
 10
364.0000000000002
 20
208.9999999999999
 30
-0.0000000000000012
 40
1.2
  0
CIRCLE
  5
17A
  8
6MM_PLYWOOD
 10
471.0
 20
188.9999999999999
 30
-0.0000000000000024
 40
1.2
  0
CIRCLE
  5
17B
  8
6MM_PLYWOOD
 10
471.0
 20
221.9999999999999
 30
-0.0000000000000004
 40
1.2
  0
CIRCLE
  5
17C
  8
6MM_PLYWOOD
 10
38.00000000000478
 20
32.99999999999704
 30
-0.000000000000012
 40
1.2
  0
CIRCLE
  5
17D
  8
6MM_PLYWOOD
 10
458.5
 20
36.29999999999694
 30
-0.0000000000000118
 40
1.2
  0
CIRCLE
  5
17E
  8
6MM_PLYWOOD
 10
458.5
 20
89.29999999999694
 30
-0.0000000000000086
 40
1.2
  0
CIRCLE
  5
17F
  8
6MM_PLYWOOD
 10
371.5000000000002
 20
89.29999999999697
 30
-0.0000000000000086
 40
1.2
  0
CIRCLE
  5
180
  8
6MM_PLYWOOD
 10
52.00000000000023
 20
41.99999999999704
 30
-0.0000000000000115
 40
1.2
  0
CIRCLE
  5
181
  8
6MM_PLYWOOD
 10
122.0000000000002
 20
41.99999999999704
 30
-0.0000000000000115
 40
1.2
  0
CIRCLE
  5
182
  8
6MM_PLYWOOD
 10
202.8000000000002
 20
37.49999999999704
 30
-0.0000000000000117
 40
1.2
  0
CIRCLE
  5
183
  8
6MM_PLYWOOD
 10
254.8000000000002
 20
42.49999999999704
 30
-0.0000000000000114
 40
1.2
  0
CIRCLE
  5
184
  8
6MM_PLYWOOD
 10
272.0000000000002
 20
41.99999999999704
 30
-0.0000000000000115
 40
1.2
  0
CIRCLE
  5
185
  8
6MM_PLYWOOD
 10
342.0000000000002
 20
41.99999999999704
 30
-0.0000000000000115
 40
1.2
  0
CIRCLE
  5
186
  8
6MM_PLYWOOD
 10
371.5000000000002
 20
36.29999999999694
 30
-0.0000000000000118
 40
1.2
  0
CIRCLE
  5
187
  8
6MM_PLYWOOD
 10
347.9999999999957
 20
32.99999999999699
 30
-0.000000000000012
 40
1.2
  0
CIRCLE
  5
188
  8
6MM_PLYWOOD
 10
364.0000000000002
 20
32.99999999999699
 30
-0.000000000000012
 40
1.2
  0
CIRCLE
  5
189
  8
6MM_PLYWOOD
 10
471.0
 20
52.99999999999699
 30
-0.0000000000000108
 40
1.2
  0
CIRCLE
  5
18A
  8
6MM_PLYWOOD
 10
471.0
 20
19.99999999999699
 30
-0.0000000000000128
 40
1.2
  0
LINE
  5
18B
  8
6MM_PLYWOOD
 10
5.000000000000227
 20
14.99999999999704
 30
-0.0000000000000131
 11
5.000000000000227
 21
21.99999999999704
 31
-0.0000000000000127
  0
LINE
  5
18C
  8
6MM_PLYWOOD
 10
9.000000000007276
 20
120.9999999999973
 30
-0.0000000000000066
 11
9.000000000000455
 21
37.99999999999773
 31
-0.0000000000000117
  0
ARC
  5
18D
  8
6MM_PLYWOOD
 10
8.000000000000227
 20
21.99999999999704
 30
-0.0000000000000127
 40
3.0
 50
90.0
 51
179.9999999999999
  0
LINE
  5
18E
  8
6MM_PLYWOOD
 10
9.000000000000227
 20
37.99999999999773
 30
-0.0000000000000117
 11
12.0
 21
38.0
 31
-0.0000000000000117
  0
LINE
  5
18F
  8
6MM_PLYWOOD
 10
12.0
 20
38.0
 30
-0.0000000000000117
 11
12.00000000000023
 21
32.24999999999704
 31
-0.0000000000000113
  0
LINE
  5
190
  8
6MM_PLYWOOD
 10
12.00000000000023
 20
32.24999999999704
 30
-0.0000000000000113
 11
15.60000000000036
 21
32.24999999999704
 31
-0.0000000000000003
  0
LINE
  5
191
  8
6MM_PLYWOOD
 10
15.60000000000036
 20
32.24999999999704
 30
-0.0000000000000003
 11
15.60000000000036
 21
34.299999999997
 31
0.0
  0
LINE
  5
192
  8
6MM_PLYWOOD
 10
15.60000000000036
 20
34.299999999997
 30
0.0
 11
17.80000000000018
 21
34.299999999997
 31
-0.0000000000000003
  0
LINE
  5
193
  8
6MM_PLYWOOD
 10
17.80000000000018
 20
34.299999999997
 30
-0.0000000000000003
 11
17.80000000000018
 21
32.24999999999704
 31
-0.0000000000000006
  0
LINE
  5
194
  8
6MM_PLYWOOD
 10
17.80000000000018
 20
32.24999999999704
 30
-0.0000000000000006
 11
19.60000000000036
 21
32.24999999999704
 31
-0.0000000000000008
  0
LINE
  5
195
  8
6MM_PLYWOOD
 10
19.60000000000036
 20
32.24999999999704
 30
-0.0000000000000008
 11
19.60000000000036
 21
29.74999999999704
 31
-0.0000000000000011
  0
LINE
  5
196
  8
6MM_PLYWOOD
 10
19.60000000000036
 20
29.74999999999704
 30
-0.0000000000000011
 11
17.80000000000018
 21
29.74999999999704
 31
-0.0000000000000009
  0
LINE
  5
197
  8
6MM_PLYWOOD
 10
17.80000000000018
 20
29.74999999999704
 30
-0.0000000000000009
 11
17.80000000000018
 21
27.69999999999709
 31
-0.0000000000000011
  0
LINE
  5
198
  8
6MM_PLYWOOD
 10
17.80000000000018
 20
27.69999999999709
 30
-0.0000000000000011
 11
15.60000000000036
 21
27.69999999999709
 31
-0.0000000000000008
  0
LINE
  5
199
  8
6MM_PLYWOOD
 10
15.60000000000036
 20
27.69999999999709
 30
-0.0000000000000008
 11
15.60000000000036
 21
29.74999999999704
 31
-0.0000000000000006
  0
LINE
  5
19A
  8
6MM_PLYWOOD
 10
15.60000000000036
 20
29.74999999999704
 30
-0.0000000000000006
 11
12.00000000000273
 21
29.74999999999704
 31
-0.0000000000000119
  0
LINE
  5
19B
  8
6MM_PLYWOOD
 10
12.00000000000273
 20
29.74999999999704
 30
-0.0000000000000119
 11
12.00000000000023
 21
24.99999999999704
 31
-0.0000000000000125
  0
LINE
  5
19C
  8
6MM_PLYWOOD
 10
12.00000000000023
 20
24.99999999999704
 30
-0.0000000000000125
 11
8.000000000000227
 21
24.99999999999704
 31
-0.0000000000000125
  0
CIRCLE
  5
19D
  8
6MM_PLYWOOD
 10
56.00000000000023
 20
22.99999999999704
 30
-0.0000000000000126
 40
2.5
  0
POLYLINE
  5
19E
  8
6MM_PLYWOOD
 66
     1
 10
0.0
 20
0.0
 30
-0.0000000000000126
  0
VERTEX
  5
1A0
  8
6MM_PLYWOOD
 10
352.0
 20
19.99999999999699
 30
-0.0000000000000126
  0
VERTEX
  5
1A1
  8
6MM_PLYWOOD
 10
348.0
 20
19.99999999999699
 30
-0.0000000000000123
  0
VERTEX
  5
1A2
  8
6MM_PLYWOOD
 10
348.0
 20
25.99999999999699
 30
-0.0000000000000119
  0
VERTEX
  5
1A3
  8
6MM_PLYWOOD
 10
352.0
 20
25.99999999999699
 30
-0.0000000000000122
  0
VERTEX
  5
1A4
  8
6MM_PLYWOOD
 10
352.0
 20
19.99999999999699
 30
-0.0000000000000126
  0
SEQEND
  5
19F
  8
6MM_PLYWOOD
  0
POLYLINE
  5
1A5
  8
6MM_PLYWOOD
 66
     1
 10
0.0
 20
0.0
 30
-0.0000000000000127
  0
VERTEX
  5
1A7
  8
6MM_PLYWOOD
 10
360.0
 20
25.99999999999699
 30
-0.0000000000000127
  0
VERTEX
  5
1A8
  8
6MM_PLYWOOD
 10
364.0
 20
25.99999999999699
 30
-0.0000000000000129
  0
VERTEX
  5
1A9
  8
6MM_PLYWOOD
 10
364.0
 20
19.99999999999699
 30
-0.0000000000000133
  0
VERTEX
  5
1AA
  8
6MM_PLYWOOD
 10
360.0
 20
19.99999999999699
 30
-0.000000000000013
  0
VERTEX
  5
1AB
  8
6MM_PLYWOOD
 10
360.0
 20
25.99999999999699
 30
-0.0000000000000127
  0
SEQEND
  5
1A6
  8
6MM_PLYWOOD
  0
CIRCLE
  5
1AC
  8
6MM_PLYWOOD
 10
356.0000000000002
 20
22.99999999999699
 30
-0.0000000000000126
 40
1.35
  0
CIRCLE
  5
1AD
  8
6MM_PLYWOOD
 10
296.0000000000002
 20
22.99999999999704
 30
-0.0000000000000126
 40
2.5
  0
POLYLINE
  5
1AE
  8
6MM_PLYWOOD
 66
     1
 10
0.0
 20
0.0
 30
-0.0000000000000126
  0
VERTEX
  5
1B0
  8
6MM_PLYWOOD
 10
232.0
 20
19.99999999999704
 30
-0.0000000000000126
  0
VERTEX
  5
1B1
  8
6MM_PLYWOOD
 10
228.0
 20
19.99999999999704
 30
-0.0000000000000123
  0
VERTEX
  5
1B2
  8
6MM_PLYWOOD
 10
228.0
 20
25.99999999999704
 30
-0.0000000000000119
  0
VERTEX
  5
1B3
  8
6MM_PLYWOOD
 10
232.0
 20
25.99999999999704
 30
-0.0000000000000122
  0
VERTEX
  5
1B4
  8
6MM_PLYWOOD
 10
232.0
 20
19.99999999999704
 30
-0.0000000000000126
  0
SEQEND
  5
1AF
  8
6MM_PLYWOOD
  0
POLYLINE
  5
1B5
  8
6MM_PLYWOOD
 66
     1
 10
0.0
 20
0.0
 30
-0.0000000000000127
  0
VERTEX
  5
1B7
  8
6MM_PLYWOOD
 10
240.0
 20
25.99999999999704
 30
-0.0000000000000127
  0
VERTEX
  5
1B8
  8
6MM_PLYWOOD
 10
244.0
 20
25.99999999999704
 30
-0.0000000000000129
  0
VERTEX
  5
1B9
  8
6MM_PLYWOOD
 10
244.0
 20
19.99999999999704
 30
-0.0000000000000133
  0
VERTEX
  5
1BA
  8
6MM_PLYWOOD
 10
240.0
 20
19.99999999999704
 30
-0.000000000000013
  0
VERTEX
  5
1BB
  8
6MM_PLYWOOD
 10
240.0
 20
25.99999999999704
 30
-0.0000000000000127
  0
SEQEND
  5
1B6
  8
6MM_PLYWOOD
  0
CIRCLE
  5
1BC
  8
6MM_PLYWOOD
 10
236.0000000000002
 20
22.99999999999704
 30
-0.0000000000000126
 40
1.35
  0
CIRCLE
  5
1BD
  8
6MM_PLYWOOD
 10
176.0000000000002
 20
22.99999999999704
 30
-0.0000000000000126
 40
2.5
  0
POLYLINE
  5
1BE
  8
6MM_PLYWOOD
 66
     1
 10
0.0
 20
0.0
 30
-0.0000000000000126
  0
VERTEX
  5
1C0
  8
6MM_PLYWOOD
 10
112.0
 20
19.99999999999704
 30
-0.0000000000000126
  0
VERTEX
  5
1C1
  8
6MM_PLYWOOD
 10
108.0
 20
19.99999999999704
 30
-0.0000000000000123
  0
VERTEX
  5
1C2
  8
6MM_PLYWOOD
 10
108.0
 20
25.99999999999704
 30
-0.0000000000000119
  0
VERTEX
  5
1C3
  8
6MM_PLYWOOD
 10
112.0
 20
25.99999999999704
 30
-0.0000000000000122
  0
VERTEX
  5
1C4
  8
6MM_PLYWOOD
 10
112.0
 20
19.99999999999704
 30
-0.0000000000000126
  0
SEQEND
  5
1BF
  8
6MM_PLYWOOD
  0
POLYLINE
  5
1C5
  8
6MM_PLYWOOD
 66
     1
 10
0.0
 20
0.0
 30
-0.0000000000000127
  0
VERTEX
  5
1C7
  8
6MM_PLYWOOD
 10
120.0
 20
25.99999999999704
 30
-0.0000000000000127
  0
VERTEX
  5
1C8
  8
6MM_PLYWOOD
 10
124.0
 20
25.99999999999704
 30
-0.0000000000000129
  0
VERTEX
  5
1C9
  8
6MM_PLYWOOD
 10
124.0
 20
19.99999999999704
 30
-0.0000000000000133
  0
VERTEX
  5
1CA
  8
6MM_PLYWOOD
 10
120.0
 20
19.99999999999704
 30
-0.000000000000013
  0
VERTEX
  5
1CB
  8
6MM_PLYWOOD
 10
120.0
 20
25.99999999999704
 30
-0.0000000000000127
  0
SEQEND
  5
1C6
  8
6MM_PLYWOOD
  0
CIRCLE
  5
1CC
  8
6MM_PLYWOOD
 10
116.0000000000002
 20
22.99999999999704
 30
-0.0000000000000126
 40
1.35
  0
POLYLINE
  5
1CD
  8
6MM_PLYWOOD
 66
     1
 10
0.0
 20
0.0
 30
-0.0000000000000087
  0
VERTEX
  5
1CF
  8
6MM_PLYWOOD
 10
455.5
 20
86.29999999999694
 30
-0.0000000000000087
  0
VERTEX
  5
1D0
  8
6MM_PLYWOOD
 10
374.5
 20
86.29999999999697
 30
-0.0000000000000087
  0
VERTEX
  5
1D1
  8
6MM_PLYWOOD
 10
374.5
 20
39.29999999999694
 30
-0.0000000000000116
  0
VERTEX
  5
1D2
  8
6MM_PLYWOOD
 10
455.5
 20
39.29999999999694
 30
-0.0000000000000116
  0
VERTEX
  5
1D3
  8
6MM_PLYWOOD
 10
455.5
 20
86.29999999999694
 30
-0.0000000000000087
  0
SEQEND
  5
1CE
  8
6MM_PLYWOOD
  0
LINE
  5
1D4
  8
6MM_PLYWOOD
 10
392.0000000000002
 20
14.99999999999699
 30
-0.0000000000000131
 11
387.2500000000002
 21
15.00000000000676
 31
-0.0000000000000131
  0
ARC
  5
1D5
  8
6MM_PLYWOOD
 10
475.0
 20
19.99999999999676
 30
-0.0000000000000128
 40
2.0
 50
0.0
 51
90.0
  0
LINE
  5
1D6
  8
6MM_PLYWOOD
 10
474.0000000000005
 20
21.99999999999699
 30
-0.0000000000000127
 11
475.0
 21
21.99999999999699
 31
-0.0000000000000127
  0
LINE
  5
1D7
  8
6MM_PLYWOOD
 10
477.0
 20
11.99999999999722
 30
-0.0000000000000133
 11
477.0
 21
19.99999999999676
 31
-0.0000000000000128
  0
ARC
  5
1D8
  8
6MM_PLYWOOD
 10
475.0
 20
11.99999999999699
 30
-0.0000000000000133
 40
2.0
 50
270.0
 51
0.0000000000021373
  0
LINE
  5
1D9
  8
6MM_PLYWOOD
 10
475.0
 20
9.999999999996987
 30
-0.0000000000000134
 11
394.0000000000002
 21
9.999999999996987
 31
-0.0000000000000134
  0
ARC
  5
1DA
  8
6MM_PLYWOOD
 10
394.0000000000002
 20
11.99999999999699
 30
-0.0000000000000133
 40
2.0
 50
179.9999999999996
 51
270.0
  0
LINE
  5
1DB
  8
6MM_PLYWOOD
 10
392.0000000000002
 20
14.99999999999699
 30
-0.0000000000000131
 11
392.0000000000002
 21
11.99999999999699
 31
-0.0000000000000133
  0
CIRCLE
  5
1DC
  8
6MM_PLYWOOD
 10
379.0000000000002
 20
18.99999999999699
 30
-0.0000000000000129
 40
0.95
  0
CIRCLE
  5
1DD
  8
6MM_PLYWOOD
 10
383.0000000000002
 20
102.999999999997
 30
-0.0000000000000077
 40
0.95
  0
CIRCLE
  5
1DE
  8
6MM_PLYWOOD
 10
447.0
 20
102.999999999997
 30
-0.0000000000000077
 40
0.95
  0
CIRCLE
  5
1DF
  8
6MM_PLYWOOD
 10
474.0
 20
14.99999999999699
 30
-0.0000000000000131
 40
0.95
  0
ARC
  5
1E0
  8
6MM_PLYWOOD
 10
11.00000000000023
 20
14.99999999999704
 30
-0.0000000000000131
 40
6.0
 50
180.0
 51
270.0
  0
ARC
  5
1E1
  8
6MM_PLYWOOD
 10
20.50000000000023
 20
11.99999999999704
 30
-0.0000000000000133
 40
3.0
 50
270.0
 51
0.0
  0
LINE
  5
1E2
  8
6MM_PLYWOOD
 10
10.99999999998863
 20
8.999999999997044
 30
-0.0000000000000135
 11
20.50000000000023
 21
8.999999999997044
 31
-0.0000000000000135
  0
LINE
  5
1E3
  8
6MM_PLYWOOD
 10
23.50000000000023
 20
14.99999999999704
 30
-0.0000000000000131
 11
23.50000000000023
 21
11.99999999999704
 31
-0.0000000000000133
  0
LINE
  5
1E4
  8
6MM_PLYWOOD
 10
18.00000000000023
 20
120.9999999999973
 30
-0.0000000000000066
 11
9.000000000007276
 21
120.9999999999973
 31
-0.0000000000000066
  0
LINE
  5
1E5
  8
6MM_PLYWOOD
 10
18.00000000000023
 20
112.999999999997
 30
-0.0000000000000071
 11
18.00000000000023
 21
120.9999999999973
 31
-0.0000000000000066
  0
LINE
  5
1E6
  8
6MM_PLYWOOD
 10
25.75000000000023
 20
112.999999999997
 30
-0.0000000000000071
 11
18.00000000000023
 21
112.999999999997
 31
-0.0000000000000071
  0
LINE
  5
1E7
  8
6MM_PLYWOOD
 10
25.75000000000023
 20
109.3999999999969
 30
-0.0000000000000087
 11
25.75000000000023
 21
112.999999999997
 31
-0.0000000000000071
  0
LINE
  5
1E8
  8
6MM_PLYWOOD
 10
23.70000000000027
 20
109.3999999999969
 30
-0.0000000000000086
 11
25.75000000000023
 21
109.3999999999969
 31
-0.0000000000000087
  0
LINE
  5
1E9
  8
6MM_PLYWOOD
 10
23.70000000000027
 20
107.1999999999971
 30
-0.0000000000000087
 11
23.70000000000027
 21
109.3999999999969
 31
-0.0000000000000086
  0
LINE
  5
1EA
  8
6MM_PLYWOOD
 10
25.75000000000023
 20
107.1999999999971
 30
-0.0000000000000089
 11
23.70000000000027
 21
107.1999999999971
 31
-0.0000000000000087
  0
LINE
  5
1EB
  8
6MM_PLYWOOD
 10
25.75000000000023
 20
105.3999999999969
 30
-0.000000000000009
 11
25.75000000000023
 21
107.1999999999971
 31
-0.0000000000000089
  0
LINE
  5
1EC
  8
6MM_PLYWOOD
 10
28.25000000000023
 20
105.3999999999969
 30
-0.0000000000000091
 11
25.75000000000023
 21
105.3999999999969
 31
-0.000000000000009
  0
LINE
  5
1ED
  8
6MM_PLYWOOD
 10
28.25000000000023
 20
107.1999999999971
 30
-0.000000000000009
 11
28.25000000000023
 21
105.3999999999969
 31
-0.0000000000000091
  0
LINE
  5
1EE
  8
6MM_PLYWOOD
 10
30.30000000000018
 20
107.1999999999971
 30
-0.0000000000000091
 11
28.25000000000023
 21
107.1999999999971
 31
-0.000000000000009
  0
LINE
  5
1EF
  8
6MM_PLYWOOD
 10
30.30000000000018
 20
109.3999999999969
 30
-0.000000000000009
 11
30.30000000000018
 21
107.1999999999971
 31
-0.0000000000000091
  0
LINE
  5
1F0
  8
6MM_PLYWOOD
 10
28.25000000000023
 20
109.3999999999971
 30
-0.0000000000000089
 11
30.30000000000018
 21
109.3999999999969
 31
-0.000000000000009
  0
LINE
  5
1F1
  8
6MM_PLYWOOD
 10
28.25000000000023
 20
112.999999999997
 30
-0.0000000000000071
 11
28.25000000000023
 21
109.3999999999971
 31
-0.0000000000000089
  0
LINE
  5
1F2
  8
6MM_PLYWOOD
 10
36.00000000000023
 20
112.999999999997
 30
-0.0000000000000071
 11
28.25000000000023
 21
112.999999999997
 31
-0.0000000000000071
  0
LINE
  5
1F3
  8
6MM_PLYWOOD
 10
36.00000000000023
 20
47.99999999999704
 30
-0.0000000000000111
 11
36.00000000000023
 21
112.999999999997
 31
-0.0000000000000071
  0
ARC
  5
1F4
  8
6MM_PLYWOOD
 10
38.00000000000046
 20
47.99999999999704
 30
-0.0000000000000111
 40
2.000000000000028
 50
179.9999999999911
 51
269.999999999987
  0
LINE
  5
1F5
  8
6MM_PLYWOOD
 10
356.0000000000002
 20
45.99999999999699
 30
-0.0000000000000112
 11
38.00000000000023
 21
45.99999999999704
 31
-0.0000000000000112
  0
ARC
  5
1F6
  8
6MM_PLYWOOD
 10
356.0000000000002
 20
47.99999999999699
 30
-0.0000000000000111
 40
2.0
 50
270.0
 51
0.0
  0
LINE
  5
1F7
  8
6MM_PLYWOOD
 10
358.0000000000002
 20
112.9999999999975
 30
-0.0000000000000071
 11
358.0000000000002
 21
47.99999999999699
 31
-0.0000000000000111
  0
LINE
  5
1F8
  8
6MM_PLYWOOD
 10
454.75
 20
112.9999999999981
 30
-0.0000000000000071
 11
358.0000000000002
 21
112.9999999999975
 31
-0.0000000000000071
  0
LINE
  5
1F9
  8
6MM_PLYWOOD
 10
454.75
 20
109.4000000000012
 30
-0.0000000000000089
 11
454.75
 21
112.9999999999981
 31
-0.0000000000000071
  0
LINE
  5
1FA
  8
6MM_PLYWOOD
 10
452.7000000000003
 20
109.4000000000012
 30
-0.000000000000009
 11
454.75
 21
109.4000000000012
 31
-0.0000000000000089
  0
LINE
  5
1FB
  8
6MM_PLYWOOD
 10
452.7000000000003
 20
107.2000000000011
 30
-0.0000000000000091
 11
452.7000000000003
 21
109.4000000000012
 31
-0.000000000000009
  0
LINE
  5
1FC
  8
6MM_PLYWOOD
 10
454.75
 20
107.2000000000011
 30
-0.000000000000009
 11
452.7000000000003
 21
107.2000000000011
 31
-0.0000000000000091
  0
LINE
  5
1FD
  8
6MM_PLYWOOD
 10
454.75
 20
105.4000000000012
 30
-0.0000000000000091
 11
454.75
 21
107.2000000000011
 31
-0.000000000000009
  0
LINE
  5
1FE
  8
6MM_PLYWOOD
 10
457.25
 20
105.4000000000012
 30
-0.000000000000009
 11
454.75
 21
105.4000000000012
 31
-0.0000000000000091
  0
LINE
  5
1FF
  8
6MM_PLYWOOD
 10
457.25
 20
107.2000000000011
 30
-0.0000000000000089
 11
457.25
 21
105.4000000000012
 31
-0.000000000000009
  0
LINE
  5
200
  8
6MM_PLYWOOD
 10
459.3000000000002
 20
107.2000000000011
 30
-0.0000000000000087
 11
457.25
 21
107.2000000000011
 31
-0.0000000000000089
  0
LINE
  5
201
  8
6MM_PLYWOOD
 10
459.3000000000002
 20
109.4000000000012
 30
-0.0000000000000086
 11
459.3000000000002
 21
107.2000000000011
 31
-0.0000000000000087
  0
LINE
  5
202
  8
6MM_PLYWOOD
 10
457.25
 20
109.4000000000012
 30
-0.0000000000000087
 11
459.3000000000002
 21
109.4000000000012
 31
-0.0000000000000086
  0
LINE
  5
203
  8
6MM_PLYWOOD
 10
457.25
 20
113.0000000000013
 30
-0.0000000000000072
 11
457.25
 21
109.4000000000012
 31
-0.0000000000000087
  0
LINE
  5
204
  8
6MM_PLYWOOD
 10
464.9999999999984
 20
112.9999999999986
 30
-0.0000000000000071
 11
457.25
 21
113.0000000000013
 31
-0.0000000000000072
  0
LINE
  5
205
  8
6MM_PLYWOOD
 10
465.0000000000039
 20
120.9999999999986
 30
-0.0000000000000066
 11
464.9999999999984
 21
112.9999999999986
 31
-0.0000000000000071
  0
LINE
  5
206
  8
6MM_PLYWOOD
 10
473.9999999999877
 20
120.9999999999986
 30
-0.0000000000000066
 11
465.0000000000039
 21
120.9999999999986
 31
-0.0000000000000066
  0
LINE
  5
207
  8
6MM_PLYWOOD
 10
474.0
 20
70.99999999999699
 30
-0.0000000000000097
 11
473.9999999999877
 21
120.9999999999986
 31
-0.0000000000000066
  0
LINE
  5
208
  8
6MM_PLYWOOD
 10
471.0000000000018
 20
70.99999999999699
 30
-0.0000000000000097
 11
474.0
 21
70.99999999999699
 31
-0.0000000000000097
  0
LINE
  5
209
  8
6MM_PLYWOOD
 10
471.0
 20
65.24999999999699
 30
-0.0000000000000093
 11
471.0000000000018
 21
70.99999999999699
 31
-0.0000000000000097
  0
LINE
  5
20A
  8
6MM_PLYWOOD
 10
467.4000000000001
 20
65.24999999999699
 30
0.0000000000000017
 11
471.0
 21
65.24999999999699
 31
-0.0000000000000093
  0
LINE
  5
20B
  8
6MM_PLYWOOD
 10
467.4000000000001
 20
67.29999999999694
 30
0.000000000000002
 11
467.4000000000001
 21
65.24999999999699
 31
0.0000000000000017
  0
LINE
  5
20C
  8
6MM_PLYWOOD
 10
465.2000000000003
 20
67.29999999999694
 30
0.0000000000000017
 11
467.4000000000001
 21
67.29999999999694
 31
0.000000000000002
  0
LINE
  5
20D
  8
6MM_PLYWOOD
 10
465.2000000000003
 20
65.24999999999699
 30
0.0000000000000015
 11
465.2000000000003
 21
67.29999999999694
 31
0.0000000000000017
  0
LINE
  5
20E
  8
6MM_PLYWOOD
 10
463.4000000000001
 20
65.24999999999699
 30
0.0000000000000012
 11
465.2000000000003
 21
65.24999999999699
 31
0.0000000000000015
  0
LINE
  5
20F
  8
6MM_PLYWOOD
 10
463.4000000000001
 20
62.74999999999699
 30
0.0000000000000009
 11
463.4000000000001
 21
65.24999999999699
 31
0.0000000000000012
  0
LINE
  5
210
  8
6MM_PLYWOOD
 10
465.2000000000003
 20
62.74999999999699
 30
0.0000000000000012
 11
463.4000000000001
 21
62.74999999999699
 31
0.0000000000000009
  0
LINE
  5
211
  8
6MM_PLYWOOD
 10
465.2000000000003
 20
60.69999999999703
 30
0.0000000000000009
 11
465.2000000000003
 21
62.74999999999699
 31
0.0000000000000012
  0
LINE
  5
212
  8
6MM_PLYWOOD
 10
467.4000000000001
 20
60.69999999999703
 30
0.0000000000000012
 11
465.2000000000003
 21
60.69999999999703
 31
0.0000000000000009
  0
LINE
  5
213
  8
6MM_PLYWOOD
 10
467.4000000000001
 20
62.74999999999699
 30
0.0000000000000014
 11
467.4000000000001
 21
60.69999999999703
 31
0.0000000000000012
  0
LINE
  5
214
  8
6MM_PLYWOOD
 10
470.9999999999973
 20
62.74999999999699
 30
-0.0000000000000099
 11
467.4000000000001
 21
62.74999999999699
 31
0.0000000000000014
  0
LINE
  5
215
  8
6MM_PLYWOOD
 10
471.0
 20
57.99999999999699
 30
-0.0000000000000105
 11
470.9999999999973
 21
62.74999999999699
 31
-0.0000000000000099
  0
LINE
  5
216
  8
6MM_PLYWOOD
 10
474.0000000000005
 20
57.99999999999699
 30
-0.0000000000000105
 11
471.0
 21
57.99999999999699
 31
-0.0000000000000105
  0
LINE
  5
217
  8
6MM_PLYWOOD
 10
474.0000000000005
 20
21.99999999999699
 30
-0.0000000000000127
 11
474.0000000000005
 21
57.99999999999699
 31
-0.0000000000000105
  0
LINE
  5
218
  8
6MM_PLYWOOD
 10
387.2500000000002
 20
18.59999999999963
 30
-0.0000000000000144
 11
387.2500000000002
 21
15.00000000000267
 31
-0.0000000000000131
  0
LINE
  5
219
  8
6MM_PLYWOOD
 10
389.3000000000002
 20
18.59999999999963
 30
-0.0000000000000146
 11
387.2500000000002
 21
18.59999999999963
 31
-0.0000000000000144
  0
LINE
  5
21A
  8
6MM_PLYWOOD
 10
389.3000000000002
 20
20.79999999999967
 30
-0.0000000000000144
 11
389.3000000000002
 21
18.59999999999963
 31
-0.0000000000000146
  0
LINE
  5
21B
  8
6MM_PLYWOOD
 10
387.2500000000002
 20
20.79999999999967
 30
-0.0000000000000143
 11
389.3000000000002
 21
20.79999999999967
 31
-0.0000000000000144
  0
LINE
  5
21C
  8
6MM_PLYWOOD
 10
387.2500000000002
 20
22.59999999999963
 30
-0.0000000000000142
 11
387.2500000000002
 21
20.79999999999967
 31
-0.0000000000000143
  0
LINE
  5
21D
  8
6MM_PLYWOOD
 10
384.7500000000002
 20
22.59999999999963
 30
-0.000000000000014
 11
387.2500000000002
 21
22.59999999999963
 31
-0.0000000000000142
  0
LINE
  5
21E
  8
6MM_PLYWOOD
 10
384.7500000000002
 20
20.79999999999967
 30
-0.0000000000000141
 11
384.7500000000002
 21
22.59999999999963
 31
-0.000000000000014
  0
LINE
  5
21F
  8
6MM_PLYWOOD
 10
382.7000000000003
 20
20.79999999999967
 30
-0.000000000000014
 11
384.7500000000002
 21
20.79999999999967
 31
-0.0000000000000141
  0
LINE
  5
220
  8
6MM_PLYWOOD
 10
382.7000000000003
 20
18.59999999999963
 30
-0.0000000000000142
 11
382.7000000000003
 21
20.79999999999967
 31
-0.000000000000014
  0
LINE
  5
221
  8
6MM_PLYWOOD
 10
384.7500000000002
 20
18.59999999999963
 30
-0.0000000000000143
 11
382.7000000000003
 21
18.59999999999963
 31
-0.0000000000000142
  0
LINE
  5
222
  8
6MM_PLYWOOD
 10
384.7500000000002
 20
15.00000000000108
 30
-0.0000000000000131
 11
384.7500000000002
 21
18.59999999999963
 31
-0.0000000000000143
  0
LINE
  5
223
  8
6MM_PLYWOOD
 10
357.2500000000002
 20
14.99999999999858
 30
-0.0000000000000131
 11
384.7500000000002
 21
15.00000000000108
 31
-0.0000000000000131
  0
LINE
  5
224
  8
6MM_PLYWOOD
 10
357.2500000000002
 20
16.79999999999694
 30
-0.0000000000000134
 11
357.2500000000002
 21
14.99999999999858
 31
-0.0000000000000131
  0
LINE
  5
225
  8
6MM_PLYWOOD
 10
356.0000000000002
 20
18.59999999999712
 30
-0.0000000000000129
 11
357.2500000000002
 21
16.79999999999694
 31
-0.0000000000000134
  0
LINE
  5
226
  8
6MM_PLYWOOD
 10
354.7500000000002
 20
16.79999999999694
 30
-0.0000000000000134
 11
356.0000000000002
 21
18.59999999999712
 31
-0.0000000000000129
  0
LINE
  5
227
  8
6MM_PLYWOOD
 10
354.7500000000002
 20
14.99999999999722
 30
-0.0000000000000131
 11
354.7500000000002
 21
16.79999999999694
 31
-0.0000000000000134
  0
LINE
  5
228
  8
6MM_PLYWOOD
 10
327.2500000000002
 20
15.0
 30
-0.0000000000000131
 11
354.7500000000002
 21
14.99999999999722
 31
-0.0000000000000131
  0
LINE
  5
229
  8
6MM_PLYWOOD
 10
327.2500000000002
 20
18.59999999999718
 30
-0.0000000000000144
 11
327.2500000000002
 21
15.0
 31
-0.0000000000000131
  0
LINE
  5
22A
  8
6MM_PLYWOOD
 10
329.3000000000002
 20
18.59999999999718
 30
-0.0000000000000146
 11
327.2500000000002
 21
18.59999999999718
 31
-0.0000000000000144
  0
LINE
  5
22B
  8
6MM_PLYWOOD
 10
329.3000000000002
 20
20.799999999997
 30
-0.0000000000000144
 11
329.3000000000002
 21
18.59999999999718
 31
-0.0000000000000146
  0
LINE
  5
22C
  8
6MM_PLYWOOD
 10
327.2500000000002
 20
20.799999999997
 30
-0.0000000000000143
 11
329.3000000000002
 21
20.799999999997
 31
-0.0000000000000144
  0
LINE
  5
22D
  8
6MM_PLYWOOD
 10
327.2500000000002
 20
22.59999999999718
 30
-0.0000000000000142
 11
327.2500000000002
 21
20.799999999997
 31
-0.0000000000000143
  0
LINE
  5
22E
  8
6MM_PLYWOOD
 10
324.7500000000002
 20
22.59999999999718
 30
-0.000000000000014
 11
327.2500000000002
 21
22.59999999999718
 31
-0.0000000000000142
  0
LINE
  5
22F
  8
6MM_PLYWOOD
 10
324.7500000000002
 20
20.799999999997
 30
-0.0000000000000141
 11
324.7500000000002
 21
22.59999999999718
 31
-0.000000000000014
  0
LINE
  5
230
  8
6MM_PLYWOOD
 10
322.7000000000003
 20
20.799999999997
 30
-0.000000000000014
 11
324.7500000000002
 21
20.799999999997
 31
-0.0000000000000141
  0
LINE
  5
231
  8
6MM_PLYWOOD
 10
322.7000000000003
 20
18.59999999999718
 30
-0.0000000000000142
 11
322.7000000000003
 21
20.799999999997
 31
-0.000000000000014
  0
LINE
  5
232
  8
6MM_PLYWOOD
 10
324.7500000000002
 20
18.59999999999718
 30
-0.0000000000000143
 11
322.7000000000003
 21
18.59999999999718
 31
-0.0000000000000142
  0
LINE
  5
233
  8
6MM_PLYWOOD
 10
324.7500000000002
 20
14.99999999999864
 30
-0.0000000000000131
 11
324.7500000000002
 21
18.59999999999718
 31
-0.0000000000000143
  0
LINE
  5
234
  8
6MM_PLYWOOD
 10
297.2500000000002
 20
14.99999999999727
 30
-0.0000000000000131
 11
324.7500000000002
 21
14.99999999999864
 31
-0.0000000000000131
  0
LINE
  5
235
  8
6MM_PLYWOOD
 10
297.2500000000002
 20
16.799999999997
 30
-0.0000000000000134
 11
297.2500000000002
 21
14.99999999999727
 31
-0.0000000000000131
  0
LINE
  5
236
  8
6MM_PLYWOOD
 10
296.0000000000002
 20
18.59999999999718
 30
-0.0000000000000129
 11
297.2500000000002
 21
16.799999999997
 31
-0.0000000000000134
  0
LINE
  5
237
  8
6MM_PLYWOOD
 10
294.7500000000002
 20
16.799999999997
 30
-0.0000000000000134
 11
296.0000000000002
 21
18.59999999999718
 31
-0.0000000000000129
  0
LINE
  5
238
  8
6MM_PLYWOOD
 10
294.7500000000002
 20
14.99999999999727
 30
-0.0000000000000131
 11
294.7500000000002
 21
16.799999999997
 31
-0.0000000000000134
  0
LINE
  5
239
  8
6MM_PLYWOOD
 10
267.2500000000002
 20
15.0
 30
-0.0000000000000131
 11
294.7500000000002
 21
14.99999999999727
 31
-0.0000000000000131
  0
LINE
  5
23A
  8
6MM_PLYWOOD
 10
267.2500000000002
 20
18.59999999999718
 30
-0.0000000000000144
 11
267.2500000000002
 21
15.0
 31
-0.0000000000000131
  0
LINE
  5
23B
  8
6MM_PLYWOOD
 10
269.3000000000002
 20
18.59999999999718
 30
-0.0000000000000146
 11
267.2500000000002
 21
18.59999999999718
 31
-0.0000000000000144
  0
LINE
  5
23C
  8
6MM_PLYWOOD
 10
269.3000000000002
 20
20.799999999997
 30
-0.0000000000000144
 11
269.3000000000002
 21
18.59999999999718
 31
-0.0000000000000146
  0
LINE
  5
23D
  8
6MM_PLYWOOD
 10
267.2500000000002
 20
20.799999999997
 30
-0.0000000000000143
 11
269.3000000000002
 21
20.799999999997
 31
-0.0000000000000144
  0
LINE
  5
23E
  8
6MM_PLYWOOD
 10
267.2500000000002
 20
22.59999999999718
 30
-0.0000000000000142
 11
267.2500000000002
 21
20.799999999997
 31
-0.0000000000000143
  0
LINE
  5
23F
  8
6MM_PLYWOOD
 10
264.7500000000002
 20
22.59999999999718
 30
-0.000000000000014
 11
267.2500000000002
 21
22.59999999999718
 31
-0.0000000000000142
  0
LINE
  5
240
  8
6MM_PLYWOOD
 10
264.7500000000002
 20
20.799999999997
 30
-0.0000000000000141
 11
264.7500000000002
 21
22.59999999999718
 31
-0.000000000000014
  0
LINE
  5
241
  8
6MM_PLYWOOD
 10
262.7000000000003
 20
20.799999999997
 30
-0.000000000000014
 11
264.7500000000002
 21
20.799999999997
 31
-0.0000000000000141
  0
LINE
  5
242
  8
6MM_PLYWOOD
 10
262.7000000000003
 20
18.59999999999718
 30
-0.0000000000000142
 11
262.7000000000003
 21
20.799999999997
 31
-0.000000000000014
  0
LINE
  5
243
  8
6MM_PLYWOOD
 10
264.7500000000002
 20
18.59999999999718
 30
-0.0000000000000143
 11
262.7000000000003
 21
18.59999999999718
 31
-0.0000000000000142
  0
LINE
  5
244
  8
6MM_PLYWOOD
 10
264.7500000000002
 20
14.99999999999864
 30
-0.0000000000000131
 11
264.7500000000002
 21
18.59999999999718
 31
-0.0000000000000143
  0
LINE
  5
245
  8
6MM_PLYWOOD
 10
237.2500000000002
 20
14.99999999999727
 30
-0.0000000000000131
 11
264.7500000000002
 21
14.99999999999864
 31
-0.0000000000000131
  0
LINE
  5
246
  8
6MM_PLYWOOD
 10
237.2500000000002
 20
16.799999999997
 30
-0.0000000000000134
 11
237.2500000000002
 21
14.99999999999727
 31
-0.0000000000000131
  0
LINE
  5
247
  8
6MM_PLYWOOD
 10
236.0000000000002
 20
18.59999999999718
 30
-0.0000000000000129
 11
237.2500000000002
 21
16.799999999997
 31
-0.0000000000000134
  0
LINE
  5
248
  8
6MM_PLYWOOD
 10
234.7500000000002
 20
16.799999999997
 30
-0.0000000000000134
 11
236.0000000000002
 21
18.59999999999718
 31
-0.0000000000000129
  0
LINE
  5
249
  8
6MM_PLYWOOD
 10
234.7500000000002
 20
14.99999999999727
 30
-0.0000000000000131
 11
234.7500000000002
 21
16.799999999997
 31
-0.0000000000000134
  0
LINE
  5
24A
  8
6MM_PLYWOOD
 10
207.2500000000002
 20
15.0
 30
-0.0000000000000131
 11
234.7500000000002
 21
14.99999999999727
 31
-0.0000000000000131
  0
LINE
  5
24B
  8
6MM_PLYWOOD
 10
207.2500000000002
 20
18.59999999999718
 30
-0.0000000000000144
 11
207.2500000000002
 21
15.0
 31
-0.0000000000000131
  0
LINE
  5
24C
  8
6MM_PLYWOOD
 10
209.3000000000002
 20
18.59999999999718
 30
-0.0000000000000146
 11
207.2500000000002
 21
18.59999999999718
 31
-0.0000000000000144
  0
LINE
  5
24D
  8
6MM_PLYWOOD
 10
209.3000000000002
 20
20.799999999997
 30
-0.0000000000000144
 11
209.3000000000002
 21
18.59999999999718
 31
-0.0000000000000146
  0
LINE
  5
24E
  8
6MM_PLYWOOD
 10
207.2500000000002
 20
20.799999999997
 30
-0.0000000000000143
 11
209.3000000000002
 21
20.799999999997
 31
-0.0000000000000144
  0
LINE
  5
24F
  8
6MM_PLYWOOD
 10
207.2500000000002
 20
22.59999999999718
 30
-0.0000000000000142
 11
207.2500000000002
 21
20.799999999997
 31
-0.0000000000000143
  0
LINE
  5
250
  8
6MM_PLYWOOD
 10
204.7500000000002
 20
22.59999999999718
 30
-0.000000000000014
 11
207.2500000000002
 21
22.59999999999718
 31
-0.0000000000000142
  0
LINE
  5
251
  8
6MM_PLYWOOD
 10
204.7500000000002
 20
20.799999999997
 30
-0.0000000000000141
 11
204.7500000000002
 21
22.59999999999718
 31
-0.000000000000014
  0
LINE
  5
252
  8
6MM_PLYWOOD
 10
202.7000000000003
 20
20.799999999997
 30
-0.000000000000014
 11
204.7500000000002
 21
20.799999999997
 31
-0.0000000000000141
  0
LINE
  5
253
  8
6MM_PLYWOOD
 10
202.7000000000003
 20
18.59999999999718
 30
-0.0000000000000142
 11
202.7000000000003
 21
20.799999999997
 31
-0.000000000000014
  0
LINE
  5
254
  8
6MM_PLYWOOD
 10
204.7500000000002
 20
18.59999999999718
 30
-0.0000000000000143
 11
202.7000000000003
 21
18.59999999999718
 31
-0.0000000000000142
  0
LINE
  5
255
  8
6MM_PLYWOOD
 10
204.7500000000002
 20
14.99999999999864
 30
-0.0000000000000131
 11
204.7500000000002
 21
18.59999999999718
 31
-0.0000000000000143
  0
LINE
  5
256
  8
6MM_PLYWOOD
 10
177.2500000000002
 20
14.99999999999727
 30
-0.0000000000000131
 11
204.7500000000002
 21
14.99999999999864
 31
-0.0000000000000131
  0
LINE
  5
257
  8
6MM_PLYWOOD
 10
177.2500000000002
 20
16.799999999997
 30
-0.0000000000000134
 11
177.2500000000002
 21
14.99999999999727
 31
-0.0000000000000131
  0
LINE
  5
258
  8
6MM_PLYWOOD
 10
176.0000000000002
 20
18.59999999999718
 30
-0.0000000000000129
 11
177.2500000000002
 21
16.799999999997
 31
-0.0000000000000134
  0
LINE
  5
259
  8
6MM_PLYWOOD
 10
174.7500000000002
 20
16.799999999997
 30
-0.0000000000000134
 11
176.0000000000002
 21
18.59999999999718
 31
-0.0000000000000129
  0
LINE
  5
25A
  8
6MM_PLYWOOD
 10
174.7500000000002
 20
14.99999999999727
 30
-0.0000000000000131
 11
174.7500000000002
 21
16.799999999997
 31
-0.0000000000000134
  0
LINE
  5
25B
  8
6MM_PLYWOOD
 10
147.2500000000002
 20
15.0
 30
-0.0000000000000131
 11
174.7500000000002
 21
14.99999999999727
 31
-0.0000000000000131
  0
LINE
  5
25C
  8
6MM_PLYWOOD
 10
147.2500000000002
 20
18.59999999999718
 30
-0.0000000000000144
 11
147.2500000000002
 21
15.0
 31
-0.0000000000000131
  0
LINE
  5
25D
  8
6MM_PLYWOOD
 10
149.3000000000002
 20
18.59999999999718
 30
-0.0000000000000146
 11
147.2500000000002
 21
18.59999999999718
 31
-0.0000000000000144
  0
LINE
  5
25E
  8
6MM_PLYWOOD
 10
149.3000000000002
 20
20.799999999997
 30
-0.0000000000000144
 11
149.3000000000002
 21
18.59999999999718
 31
-0.0000000000000146
  0
LINE
  5
25F
  8
6MM_PLYWOOD
 10
147.2500000000002
 20
20.799999999997
 30
-0.0000000000000143
 11
149.3000000000002
 21
20.799999999997
 31
-0.0000000000000144
  0
LINE
  5
260
  8
6MM_PLYWOOD
 10
147.2500000000002
 20
22.59999999999718
 30
-0.0000000000000142
 11
147.2500000000002
 21
20.799999999997
 31
-0.0000000000000143
  0
LINE
  5
261
  8
6MM_PLYWOOD
 10
144.7500000000002
 20
22.59999999999718
 30
-0.000000000000014
 11
147.2500000000002
 21
22.59999999999718
 31
-0.0000000000000142
  0
LINE
  5
262
  8
6MM_PLYWOOD
 10
144.7500000000002
 20
20.799999999997
 30
-0.0000000000000141
 11
144.7500000000002
 21
22.59999999999718
 31
-0.000000000000014
  0
LINE
  5
263
  8
6MM_PLYWOOD
 10
142.7000000000003
 20
20.799999999997
 30
-0.000000000000014
 11
144.7500000000002
 21
20.799999999997
 31
-0.0000000000000141
  0
LINE
  5
264
  8
6MM_PLYWOOD
 10
142.7000000000003
 20
18.59999999999718
 30
-0.0000000000000142
 11
142.7000000000003
 21
20.799999999997
 31
-0.000000000000014
  0
LINE
  5
265
  8
6MM_PLYWOOD
 10
144.7500000000002
 20
18.59999999999718
 30
-0.0000000000000143
 11
142.7000000000003
 21
18.59999999999718
 31
-0.0000000000000142
  0
LINE
  5
266
  8
6MM_PLYWOOD
 10
144.7500000000002
 20
14.99999999999864
 30
-0.0000000000000131
 11
144.7500000000002
 21
18.59999999999718
 31
-0.0000000000000143
  0
LINE
  5
267
  8
6MM_PLYWOOD
 10
117.2500000000002
 20
14.99999999999727
 30
-0.0000000000000131
 11
144.7500000000002
 21
14.99999999999864
 31
-0.0000000000000131
  0
LINE
  5
268
  8
6MM_PLYWOOD
 10
117.2500000000002
 20
16.799999999997
 30
-0.0000000000000134
 11
117.2500000000002
 21
14.99999999999727
 31
-0.0000000000000131
  0
LINE
  5
269
  8
6MM_PLYWOOD
 10
116.0000000000002
 20
18.59999999999718
 30
-0.0000000000000129
 11
117.2500000000002
 21
16.799999999997
 31
-0.0000000000000134
  0
LINE
  5
26A
  8
6MM_PLYWOOD
 10
114.7500000000002
 20
16.799999999997
 30
-0.0000000000000134
 11
116.0000000000002
 21
18.59999999999718
 31
-0.0000000000000129
  0
LINE
  5
26B
  8
6MM_PLYWOOD
 10
114.7500000000002
 20
14.99999999999727
 30
-0.0000000000000131
 11
114.7500000000002
 21
16.799999999997
 31
-0.0000000000000134
  0
LINE
  5
26C
  8
6MM_PLYWOOD
 10
87.25000000000023
 20
15.0
 30
-0.0000000000000131
 11
114.7500000000002
 21
14.99999999999727
 31
-0.0000000000000131
  0
LINE
  5
26D
  8
6MM_PLYWOOD
 10
87.25000000000023
 20
18.59999999999718
 30
-0.0000000000000144
 11
87.25000000000023
 21
15.0
 31
-0.0000000000000131
  0
LINE
  5
26E
  8
6MM_PLYWOOD
 10
89.30000000000018
 20
18.59999999999718
 30
-0.0000000000000146
 11
87.25000000000023
 21
18.59999999999718
 31
-0.0000000000000144
  0
LINE
  5
26F
  8
6MM_PLYWOOD
 10
89.30000000000018
 20
20.799999999997
 30
-0.0000000000000144
 11
89.30000000000018
 21
18.59999999999718
 31
-0.0000000000000146
  0
LINE
  5
270
  8
6MM_PLYWOOD
 10
87.25000000000023
 20
20.799999999997
 30
-0.0000000000000143
 11
89.30000000000018
 21
20.799999999997
 31
-0.0000000000000144
  0
LINE
  5
271
  8
6MM_PLYWOOD
 10
87.25000000000023
 20
22.59999999999718
 30
-0.0000000000000142
 11
87.25000000000023
 21
20.799999999997
 31
-0.0000000000000143
  0
LINE
  5
272
  8
6MM_PLYWOOD
 10
84.75000000000023
 20
22.59999999999718
 30
-0.000000000000014
 11
87.25000000000023
 21
22.59999999999718
 31
-0.0000000000000142
  0
LINE
  5
273
  8
6MM_PLYWOOD
 10
84.75000000000023
 20
20.799999999997
 30
-0.0000000000000141
 11
84.75000000000023
 21
22.59999999999718
 31
-0.000000000000014
  0
LINE
  5
274
  8
6MM_PLYWOOD
 10
82.70000000000027
 20
20.799999999997
 30
-0.000000000000014
 11
84.75000000000023
 21
20.799999999997
 31
-0.0000000000000141
  0
LINE
  5
275
  8
6MM_PLYWOOD
 10
82.70000000000027
 20
18.59999999999718
 30
-0.0000000000000142
 11
82.70000000000027
 21
20.799999999997
 31
-0.000000000000014
  0
LINE
  5
276
  8
6MM_PLYWOOD
 10
84.75000000000023
 20
18.59999999999718
 30
-0.0000000000000143
 11
82.70000000000027
 21
18.59999999999718
 31
-0.0000000000000142
  0
LINE
  5
277
  8
6MM_PLYWOOD
 10
84.75000000000023
 20
14.99999999999864
 30
-0.0000000000000131
 11
84.75000000000023
 21
18.59999999999718
 31
-0.0000000000000143
  0
LINE
  5
278
  8
6MM_PLYWOOD
 10
57.25000000000023
 20
14.99999999999727
 30
-0.0000000000000131
 11
84.75000000000023
 21
14.99999999999864
 31
-0.0000000000000131
  0
LINE
  5
279
  8
6MM_PLYWOOD
 10
57.25000000000023
 20
16.799999999997
 30
-0.0000000000000134
 11
57.25000000000023
 21
14.99999999999727
 31
-0.0000000000000131
  0
LINE
  5
27A
  8
6MM_PLYWOOD
 10
56.00000000000023
 20
18.59999999999718
 30
-0.0000000000000129
 11
57.25000000000023
 21
16.799999999997
 31
-0.0000000000000134
  0
LINE
  5
27B
  8
6MM_PLYWOOD
 10
54.75000000000023
 20
16.799999999997
 30
-0.0000000000000134
 11
56.00000000000023
 21
18.59999999999718
 31
-0.0000000000000129
  0
LINE
  5
27C
  8
6MM_PLYWOOD
 10
54.75000000000023
 20
14.99999999999727
 30
-0.0000000000000131
 11
54.75000000000023
 21
16.799999999997
 31
-0.0000000000000134
  0
LINE
  5
27D
  8
6MM_PLYWOOD
 10
27.25000000000023
 20
15.0
 30
-0.0000000000000131
 11
54.75000000000023
 21
14.99999999999727
 31
-0.0000000000000131
  0
LINE
  5
27E
  8
6MM_PLYWOOD
 10
27.25000000000023
 20
18.59999999999718
 30
-0.0000000000000144
 11
27.25000000000023
 21
15.0
 31
-0.0000000000000131
  0
LINE
  5
27F
  8
6MM_PLYWOOD
 10
29.30000000000018
 20
18.59999999999718
 30
-0.0000000000000146
 11
27.25000000000023
 21
18.59999999999718
 31
-0.0000000000000144
  0
LINE
  5
280
  8
6MM_PLYWOOD
 10
29.30000000000018
 20
20.799999999997
 30
-0.0000000000000144
 11
29.30000000000018
 21
18.59999999999718
 31
-0.0000000000000146
  0
LINE
  5
281
  8
6MM_PLYWOOD
 10
27.25000000000023
 20
20.799999999997
 30
-0.0000000000000143
 11
29.30000000000018
 21
20.799999999997
 31
-0.0000000000000144
  0
LINE
  5
282
  8
6MM_PLYWOOD
 10
27.25000000000023
 20
22.59999999999718
 30
-0.0000000000000142
 11
27.25000000000023
 21
20.799999999997
 31
-0.0000000000000143
  0
LINE
  5
283
  8
6MM_PLYWOOD
 10
24.75000000000023
 20
22.59999999999718
 30
-0.000000000000014
 11
27.25000000000023
 21
22.59999999999718
 31
-0.0000000000000142
  0
LINE
  5
284
  8
6MM_PLYWOOD
 10
24.75000000000023
 20
20.799999999997
 30
-0.0000000000000141
 11
24.75000000000023
 21
22.59999999999718
 31
-0.000000000000014
  0
LINE
  5
285
  8
6MM_PLYWOOD
 10
22.70000000000027
 20
20.799999999997
 30
-0.000000000000014
 11
24.75000000000023
 21
20.799999999997
 31
-0.0000000000000141
  0
LINE
  5
286
  8
6MM_PLYWOOD
 10
22.70000000000027
 20
18.59999999999718
 30
-0.0000000000000142
 11
22.70000000000027
 21
20.799999999997
 31
-0.000000000000014
  0
LINE
  5
287
  8
6MM_PLYWOOD
 10
24.75000000000023
 20
18.59999999999718
 30
-0.0000000000000143
 11
22.70000000000027
 21
18.59999999999718
 31
-0.0000000000000142
  0
LINE
  5
288
  8
6MM_PLYWOOD
 10
24.75000000000023
 20
14.99999999999886
 30
-0.0000000000000131
 11
24.75000000000023
 21
18.59999999999718
 31
-0.0000000000000143
  0
LINE
  5
289
  8
6MM_PLYWOOD
 10
23.50000000000023
 20
14.99999999999704
 30
-0.0000000000000131
 11
24.75000000000023
 21
14.99999999999886
 31
-0.0000000000000131
  0
CIRCLE
  5
28A
  8
6MM_PLYWOOD
 10
11.00000000000023
 20
14.99999999999704
 30
-0.0000000000000131
 40
3.05
  0
POLYLINE
  5
28B
  8
6MM_PLYWOOD
 66
     1
 10
0.0
 20
0.0
 30
-0.0000000000000083
  0
VERTEX
  5
28D
  8
6MM_PLYWOOD
 10
402.0000000000002
 20
93.09999999999712
 30
-0.0000000000000083
  0
VERTEX
  5
28E
  8
6MM_PLYWOOD
 10
395.9000000000001
 20
93.09999999999715
 30
-0.0000000000000083
  0
VERTEX
  5
28F
  8
6MM_PLYWOOD
 10
395.9000000000001
 20
91.29999999999697
 30
-0.0000000000000084
  0
VERTEX
  5
290
  8
6MM_PLYWOOD
 10
434.1000000000001
 20
91.29999999999694
 30
-0.0000000000000084
  0
VERTEX
  5
291
  8
6MM_PLYWOOD
 10
434.1000000000001
 20
93.09999999999712
 30
-0.0000000000000083
  0
VERTEX
  5
292
  8
6MM_PLYWOOD
 10
428.0
 20
93.09999999999712
 30
-0.0000000000000083
  0
VERTEX
  5
293
  8
6MM_PLYWOOD
 10
428.0
 20
104.0999999999971
 30
-0.0000000000000076
  0
VERTEX
  5
294
  8
6MM_PLYWOOD
 10
402.0000000000002
 20
104.0999999999971
 30
-0.0000000000000076
  0
VERTEX
  5
295
  8
6MM_PLYWOOD
 10
402.0000000000002
 20
93.09999999999712
 30
-0.0000000000000083
  0
SEQEND
  5
28C
  8
6MM_PLYWOOD
  0
CIRCLE
  5
296
  8
6MM_PLYWOOD
 10
18.00000000000023
 20
12.39999999999714
 30
-0.0000000000000133
 40
0.5
  0
ENDSEC
  0
EOF
