  0
SECTION
  2
HEADER
  9
$ACADVER
  1
AC1009
  9
$DWGCODEPAGE
  3
ansi_1252
  9
$INSBASE
 10
0.0
 20
0.0
 30
0.0
  9
$EXTMIN
 10
87.5459461196165
 20
39.0
 30
-0.0000000000000134
  9
$EXTMAX
 10
206.0000000000088
 20
170.0000000000003
 30
0.0000000000000108
  9
$LIMMIN
 10
0.0
 20
0.0
  9
$LIMMAX
 10
12.0
 20
9.0
  9
$ORTHOMODE
 70
     0
  9
$REGENMODE
 70
     1
  9
$FILLMODE
 70
     1
  9
$QTEXTMODE
 70
     0
  9
$MIRRTEXT
 70
     1
  9
$DRAGMODE
 70
     2
  9
$LTSCALE
 40
1.0
  9
$OSMODE
 70
    37
  9
$ATTMODE
 70
     1
  9
$TEXTSIZE
 40
0.2
  9
$TRACEWID
 40
0.05
  9
$TEXTSTYLE
  7
STANDARD
  9
$CLAYER
  8
6MM_PLYWOOD
  9
$CELTYPE
  6
BYLAYER
  9
$CECOLOR
 62
   256
  9
$DIMSCALE
 40
1.0
  9
$DIMASZ
 40
0.18
  9
$DIMEXO
 40
0.0625
  9
$DIMDLI
 40
0.38
  9
$DIMRND
 40
0.0
  9
$DIMDLE
 40
0.0
  9
$DIMEXE
 40
0.18
  9
$DIMTP
 40
0.0
  9
$DIMTM
 40
0.0
  9
$DIMTXT
 40
0.18
  9
$DIMCEN
 40
0.09
  9
$DIMTSZ
 40
0.0
  9
$DIMTOL
 70
     0
  9
$DIMLIM
 70
     0
  9
$DIMTIH
 70
     1
  9
$DIMTOH
 70
     1
  9
$DIMSE1
 70
     0
  9
$DIMSE2
 70
     0
  9
$DIMTAD
 70
     0
  9
$DIMZIN
 70
     0
  9
$DIMBLK
  1

  9
$DIMASO
 70
     1
  9
$DIMSHO
 70
     1
  9
$DIMPOST
  1

  9
$DIMAPOST
  1

  9
$DIMALT
 70
     0
  9
$DIMALTD
 70
     2
  9
$DIMALTF
 40
25.4
  9
$DIMLFAC
 40
1.0
  9
$DIMTOFL
 70
     0
  9
$DIMTVP
 40
0.0
  9
$DIMTIX
 70
     0
  9
$DIMSOXD
 70
     0
  9
$DIMSAH
 70
     0
  9
$DIMBLK1
  1

  9
$DIMBLK2
  1

  9
$DIMSTYLE
  2
STANDARD
  9
$DIMCLRD
 70
     0
  9
$DIMCLRE
 70
     0
  9
$DIMCLRT
 70
     0
  9
$DIMTFAC
 40
1.0
  9
$DIMGAP
 40
0.09
  9
$LUNITS
 70
     2
  9
$LUPREC
 70
     3
  9
$SKETCHINC
 40
0.1
  9
$FILLETRAD
 40
0.5
  9
$AUNITS
 70
     0
  9
$AUPREC
 70
     0
  9
$MENU
  1
.
  9
$ELEVATION
 40
0.0
  9
$PELEVATION
 40
0.0
  9
$THICKNESS
 40
0.0
  9
$LIMCHECK
 70
     0
  9
$CHAMFERA
 40
0.5
  9
$CHAMFERB
 40
0.5
  9
$SKPOLY
 70
     0
  9
$TDCREATE
 40
2457413.809620972
  9
$TDUPDATE
 40
2457413.809620984
  9
$TDINDWG
 40
0.0000000116
  9
$TDUSRTIMER
 40
0.0000000116
  9
$USRTIMER
 70
     1
  9
$ANGBASE
 50
0.0
  9
$ANGDIR
 70
     0
  9
$PDMODE
 70
     0
  9
$PDSIZE
 40
0.0
  9
$PLINEWID
 40
0.0
  9
$COORDS
 70
     1
  9
$SPLFRAME
 70
     0
  9
$SPLINETYPE
 70
     6
  9
$SPLINESEGS
 70
     8
  9
$ATTDIA
 70
     0
  9
$ATTREQ
 70
     1
  9
$HANDLING
 70
     1
  9
$HANDSEED
  5
1A7
  9
$SURFTAB1
 70
     6
  9
$SURFTAB2
 70
     6
  9
$SURFTYPE
 70
     6
  9
$SURFU
 70
     6
  9
$SURFV
 70
     6
  9
$UCSNAME
  2

  9
$UCSORG
 10
0.0
 20
0.0
 30
0.0
  9
$UCSXDIR
 10
1.0
 20
0.0
 30
0.0
  9
$UCSYDIR
 10
0.0
 20
1.0
 30
0.0
  9
$PUCSNAME
  2

  9
$PUCSORG
 10
0.0
 20
0.0
 30
0.0
  9
$PUCSXDIR
 10
1.0
 20
0.0
 30
0.0
  9
$PUCSYDIR
 10
0.0
 20
1.0
 30
0.0
  9
$USERI1
 70
     0
  9
$USERI2
 70
     0
  9
$USERI3
 70
     0
  9
$USERI4
 70
     0
  9
$USERI5
 70
     0
  9
$USERR1
 40
0.0
  9
$USERR2
 40
0.0
  9
$USERR3
 40
0.0
  9
$USERR4
 40
0.0
  9
$USERR5
 40
0.0
  9
$WORLDVIEW
 70
     1
  9
$SHADEDGE
 70
     3
  9
$SHADEDIF
 70
    70
  9
$TILEMODE
 70
     1
  9
$MAXACTVP
 70
    64
  9
$PLIMCHECK
 70
     0
  9
$PEXTMIN
 10
1.000000000000000E+20
 20
1.000000000000000E+20
 30
1.000000000000000E+20
  9
$PEXTMAX
 10
-1.000000000000000E+20
 20
-1.000000000000000E+20
 30
-1.000000000000000E+20
  9
$PLIMMIN
 10
0.0
 20
0.0
  9
$PLIMMAX
 10
12.0
 20
9.0
  9
$UNITMODE
 70
     0
  9
$VISRETAIN
 70
     1
  9
$PLINEGEN
 70
     0
  9
$PSLTSCALE
 70
     1
  0
ENDSEC
  0
SECTION
  2
TABLES
  0
TABLE
  2
VPORT
 70
     2
  0
VPORT
  2
*ACTIVE
 70
     0
 10
0.0
 20
0.0
 11
1.0
 21
1.0
 12
147.0
 22
104.5
 13
0.0
 23
0.0
 14
0.5
 24
0.5
 15
0.5
 25
0.5
 16
0.0
 26
0.0
 36
1.0
 17
0.0
 27
0.0
 37
0.0
 40
131.00131
 41
1.6
 42
50.0
 43
0.0
 44
0.0
 50
0.0
 51
0.0
 71
     0
 72
   100
 73
     1
 74
     3
 75
     0
 76
     0
 77
     0
 78
     0
  0
ENDTAB
  0
TABLE
  2
LTYPE
 70
     1
  0
LTYPE
  2
CONTINUOUS
 70
     0
  3
Solid line
 72
    65
 73
     0
 40
0.0
  0
ENDTAB
  0
TABLE
  2
LAYER
 70
     2
  0
LAYER
  2
0
 70
     0
 62
     7
  6
CONTINUOUS
  0
LAYER
  2
6MM_PLYWOOD
 70
     0
 62
   188
  6
CONTINUOUS
  0
ENDTAB
  0
TABLE
  2
STYLE
 70
     1
  0
STYLE
  2
STANDARD
 70
     0
 40
0.0
 41
1.0
 50
0.0
 71
     0
 42
0.2
  3
txt
  4

  0
ENDTAB
  0
TABLE
  2
VIEW
 70
     0
  0
ENDTAB
  0
TABLE
  2
UCS
 70
     0
  0
ENDTAB
  0
TABLE
  2
APPID
 70
     1
  0
APPID
  2
ACAD
 70
     0
  0
ENDTAB
  0
TABLE
  2
DIMSTYLE
 70
     1
  0
DIMSTYLE
  2
STANDARD
 70
     0
  3

  4

  5

  6

  7

 40
1.0
 41
0.18
 42
0.0625
 43
0.38
 44
0.18
 45
0.0
 46
0.0
 47
0.0
 48
0.0
140
0.18
141
0.09
142
0.0
143
25.4
144
1.0
145
0.0
146
1.0
147
0.09
 71
     0
 72
     0
 73
     1
 74
     1
 75
     0
 76
     0
 77
     0
 78
     0
170
     0
171
     2
172
     0
173
     0
174
     0
175
     0
176
     0
177
     0
178
     0
  0
ENDTAB
  0
ENDSEC
  0
SECTION
  2
BLOCKS
  0
BLOCK
  8
0
  2
$MODEL_SPACE
 70
     0
 10
0.0
 20
0.0
 30
0.0
  3
$MODEL_SPACE
  1

  0
ENDBLK
  5
21
  8
0
  0
BLOCK
 67
     1
  8
0
  2
$PAPER_SPACE
 70
     0
 10
0.0
 20
0.0
 30
0.0
  3
$PAPER_SPACE
  1

  0
ENDBLK
  5
1D
 67
     1
  8
0
  0
BLOCK
  8
0
  2
$PAPER_SPACE0
 70
     0
 10
0.0
 20
0.0
 30
0.0
  3
$PAPER_SPACE0
  1

  0
ENDBLK
  5
25
  8
0
  0
ENDSEC
  0
SECTION
  2
ENTITIES
  0
POLYLINE
  5
2B
  8
6MM_PLYWOOD
 66
     1
 10
0.0
 20
0.0
 30
0.0
  0
VERTEX
  5
2D
  8
6MM_PLYWOOD
 10
98.0
 20
139.0
 30
0.0
  0
VERTEX
  5
2E
  8
6MM_PLYWOOD
 10
92.0
 20
139.0
 30
0.0
  0
VERTEX
  5
2F
  8
6MM_PLYWOOD
 10
92.0
 20
130.0
 30
0.0
  0
VERTEX
  5
30
  8
6MM_PLYWOOD
 10
98.0
 20
130.0
 30
0.0
  0
VERTEX
  5
31
  8
6MM_PLYWOOD
 10
98.0
 20
136.0
 30
0.0
  0
VERTEX
  5
32
  8
6MM_PLYWOOD
 10
106.0
 20
136.0
 30
0.0
  0
VERTEX
  5
33
  8
6MM_PLYWOOD
 10
106.0
 20
139.0
 30
0.0
  0
VERTEX
  5
34
  8
6MM_PLYWOOD
 10
97.90000000000001
 20
139.0
 30
0.0
  0
SEQEND
  5
2C
  8
6MM_PLYWOOD
  0
POLYLINE
  5
35
  8
6MM_PLYWOOD
 66
     1
 10
0.0
 20
0.0
 30
0.0
  0
VERTEX
  5
37
  8
6MM_PLYWOOD
 10
128.1
 20
139.0
 30
0.0
  0
VERTEX
  5
38
  8
6MM_PLYWOOD
 10
120.0
 20
139.0
 30
0.0
  0
VERTEX
  5
39
  8
6MM_PLYWOOD
 10
120.0
 20
136.0
 30
0.0
  0
VERTEX
  5
3A
  8
6MM_PLYWOOD
 10
128.0
 20
136.0
 30
0.0
  0
VERTEX
  5
3B
  8
6MM_PLYWOOD
 10
128.0
 20
130.0
 30
0.0
  0
VERTEX
  5
3C
  8
6MM_PLYWOOD
 10
134.0
 20
130.0
 30
0.0
  0
VERTEX
  5
3D
  8
6MM_PLYWOOD
 10
134.0
 20
139.0
 30
0.0
  0
VERTEX
  5
3E
  8
6MM_PLYWOOD
 10
128.0
 20
139.0
 30
0.0
  0
SEQEND
  5
36
  8
6MM_PLYWOOD
  0
POLYLINE
  5
3F
  8
6MM_PLYWOOD
 66
     1
 10
0.0
 20
0.0
 30
0.0
  0
VERTEX
  5
41
  8
6MM_PLYWOOD
 10
128.0
 20
143.0
 30
0.0
  0
VERTEX
  5
42
  8
6MM_PLYWOOD
 10
134.0
 20
143.0
 30
0.0
  0
VERTEX
  5
43
  8
6MM_PLYWOOD
 10
134.0
 20
152.0
 30
0.0
  0
VERTEX
  5
44
  8
6MM_PLYWOOD
 10
128.0
 20
152.0
 30
0.0
  0
VERTEX
  5
45
  8
6MM_PLYWOOD
 10
128.0
 20
146.0
 30
0.0
  0
VERTEX
  5
46
  8
6MM_PLYWOOD
 10
120.0
 20
146.0
 30
0.0
  0
VERTEX
  5
47
  8
6MM_PLYWOOD
 10
120.0
 20
143.0
 30
0.0
  0
VERTEX
  5
48
  8
6MM_PLYWOOD
 10
128.1
 20
143.0
 30
0.0
  0
SEQEND
  5
40
  8
6MM_PLYWOOD
  0
POLYLINE
  5
49
  8
6MM_PLYWOOD
 66
     1
 10
0.0
 20
0.0
 30
0.0
  0
VERTEX
  5
4B
  8
6MM_PLYWOOD
 10
97.90000000000001
 20
143.0
 30
0.0
  0
VERTEX
  5
4C
  8
6MM_PLYWOOD
 10
106.0
 20
143.0
 30
0.0
  0
VERTEX
  5
4D
  8
6MM_PLYWOOD
 10
106.0
 20
146.0
 30
0.0
  0
VERTEX
  5
4E
  8
6MM_PLYWOOD
 10
98.0
 20
146.0
 30
0.0
  0
VERTEX
  5
4F
  8
6MM_PLYWOOD
 10
98.0
 20
152.0
 30
0.0
  0
VERTEX
  5
50
  8
6MM_PLYWOOD
 10
92.0
 20
152.0
 30
0.0
  0
VERTEX
  5
51
  8
6MM_PLYWOOD
 10
92.0
 20
143.0
 30
0.0
  0
VERTEX
  5
52
  8
6MM_PLYWOOD
 10
98.0
 20
143.0
 30
0.0
  0
SEQEND
  5
4A
  8
6MM_PLYWOOD
  0
POLYLINE
  5
53
  8
6MM_PLYWOOD
 66
     1
 10
0.0
 20
0.0
 30
0.0
  0
VERTEX
  5
55
  8
6MM_PLYWOOD
 10
88.0
 20
116.0
 30
0.0
  0
VERTEX
  5
56
  8
6MM_PLYWOOD
 10
138.0
 20
116.0
 30
0.0
  0
VERTEX
  5
57
  8
6MM_PLYWOOD
 10
138.0
 20
166.0
 30
0.0
  0
VERTEX
  5
58
  8
6MM_PLYWOOD
 10
88.0
 20
166.0
 30
0.0
  0
VERTEX
  5
59
  8
6MM_PLYWOOD
 10
88.0
 20
116.0
 30
0.0
  0
SEQEND
  5
54
  8
6MM_PLYWOOD
  0
CIRCLE
  5
5A
  8
6MM_PLYWOOD
 10
131.0
 20
161.0
 30
0.0
 40
1.35
  0
CIRCLE
  5
5B
  8
6MM_PLYWOOD
 10
95.0
 20
161.0
 30
0.0
 40
1.35
  0
CIRCLE
  5
5C
  8
6MM_PLYWOOD
 10
95.0
 20
121.0
 30
0.0
 40
1.35
  0
CIRCLE
  5
5D
  8
6MM_PLYWOOD
 10
131.0
 20
121.0
 30
0.0
 40
1.35
  0
POLYLINE
  5
5E
  8
6MM_PLYWOOD
 66
     1
 10
0.0
 20
0.0
 30
0.0
  0
VERTEX
  5
60
  8
6MM_PLYWOOD
 10
101.0000000000834
 20
108.4999999999803
 30
0.0
  0
VERTEX
  5
61
  8
6MM_PLYWOOD
 10
103.0000000000834
 20
108.5
 30
-0.0000000000000001
  0
VERTEX
  5
62
  8
6MM_PLYWOOD
 10
103.0000000000161
 20
102.25
 30
-0.0000000000000001
  0
VERTEX
  5
63
  8
6MM_PLYWOOD
 10
106.6
 20
102.25
 30
0.0000000000000011
  0
VERTEX
  5
64
  8
6MM_PLYWOOD
 10
106.6
 20
104.3
 30
0.0000000000000009
  0
VERTEX
  5
65
  8
6MM_PLYWOOD
 10
108.8
 20
104.3
 30
0.0000000000000008
  0
VERTEX
  5
66
  8
6MM_PLYWOOD
 10
108.8
 20
102.25
 30
0.0000000000000009
  0
VERTEX
  5
67
  8
6MM_PLYWOOD
 10
110.6
 20
102.25
 30
0.0000000000000008
  0
VERTEX
  5
68
  8
6MM_PLYWOOD
 10
110.6
 20
99.75
 30
0.000000000000001
  0
VERTEX
  5
69
  8
6MM_PLYWOOD
 10
108.8
 20
99.75
 30
0.0000000000000011
  0
VERTEX
  5
6A
  8
6MM_PLYWOOD
 10
108.8
 20
97.69999999999999
 30
0.0000000000000012
  0
VERTEX
  5
6B
  8
6MM_PLYWOOD
 10
106.6
 20
97.69999999999999
 30
0.0000000000000013
  0
VERTEX
  5
6C
  8
6MM_PLYWOOD
 10
106.6
 20
99.75
 30
0.0000000000000012
  0
VERTEX
  5
6D
  8
6MM_PLYWOOD
 10
103.0000000000142
 20
99.75
 30
-0.0000000000000001
  0
VERTEX
  5
6E
  8
6MM_PLYWOOD
 10
103.0
 20
81.25
 30
-0.0000000000000001
  0
VERTEX
  5
6F
  8
6MM_PLYWOOD
 10
106.6
 20
81.25
 30
0.0000000000000012
  0
VERTEX
  5
70
  8
6MM_PLYWOOD
 10
106.6
 20
83.30000000000001
 30
0.0000000000000013
  0
VERTEX
  5
71
  8
6MM_PLYWOOD
 10
108.8
 20
83.30000000000001
 30
0.0000000000000012
  0
VERTEX
  5
72
  8
6MM_PLYWOOD
 10
108.8
 20
81.25
 30
0.0000000000000011
  0
VERTEX
  5
73
  8
6MM_PLYWOOD
 10
110.6
 20
81.25
 30
0.000000000000001
  0
VERTEX
  5
74
  8
6MM_PLYWOOD
 10
110.6
 20
78.75
 30
0.0000000000000008
  0
VERTEX
  5
75
  8
6MM_PLYWOOD
 10
108.8
 20
78.75
 30
0.0000000000000009
  0
VERTEX
  5
76
  8
6MM_PLYWOOD
 10
108.8
 20
76.69999999999999
 30
0.0000000000000008
  0
VERTEX
  5
77
  8
6MM_PLYWOOD
 10
106.6
 20
76.69999999999999
 30
0.0000000000000009
  0
VERTEX
  5
78
  8
6MM_PLYWOOD
 10
106.6
 20
78.75
 30
0.0000000000000011
  0
VERTEX
  5
79
  8
6MM_PLYWOOD
 10
103.0
 20
78.75
 30
-0.0000000000000001
  0
VERTEX
  5
7A
  8
6MM_PLYWOOD
 10
103.0
 20
76.5
 30
-0.0000000000000001
  0
VERTEX
  5
7B
  8
6MM_PLYWOOD
 10
102.0
 20
76.49999999999996
 30
-0.0000000000000001
 42
1.752018933840385
  0
VERTEX
  5
7C
  8
6MM_PLYWOOD
 10
112.9469181889658
 20
57.96551724137925
 30
-0.0000000000000007
 42
-0.2732608139403073
  0
VERTEX
  5
7D
  8
6MM_PLYWOOD
 10
114.6984250992004
 20
59.0
 30
-0.0000000000000008
  0
VERTEX
  5
7E
  8
6MM_PLYWOOD
 10
116.0
 20
59.0
 30
-0.0000000000000009
 42
0.4142135623730944
  0
VERTEX
  5
7F
  8
6MM_PLYWOOD
 10
118.0
 20
61.0
 30
-0.000000000000001
  0
VERTEX
  5
80
  8
6MM_PLYWOOD
 10
118.0
 20
65.0
 30
-0.000000000000001
  0
VERTEX
  5
81
  8
6MM_PLYWOOD
 10
120.75
 20
64.99999999999832
 30
-0.0000000000000018
  0
VERTEX
  5
82
  8
6MM_PLYWOOD
 10
120.75
 20
68.59999999999667
 30
-0.0000000000000128
  0
VERTEX
  5
83
  8
6MM_PLYWOOD
 10
118.7
 20
68.59999999999667
 30
-0.0000000000000126
  0
VERTEX
  5
84
  8
6MM_PLYWOOD
 10
118.7
 20
70.79999999999666
 30
-0.0000000000000123
  0
VERTEX
  5
85
  8
6MM_PLYWOOD
 10
120.75
 20
70.79999999999666
 30
-0.0000000000000125
  0
VERTEX
  5
86
  8
6MM_PLYWOOD
 10
120.75
 20
72.59999999999667
 30
-0.0000000000000123
  0
VERTEX
  5
87
  8
6MM_PLYWOOD
 10
123.25
 20
72.59999999999667
 30
-0.0000000000000126
  0
VERTEX
  5
88
  8
6MM_PLYWOOD
 10
123.25
 20
70.79999999999666
 30
-0.0000000000000129
  0
VERTEX
  5
89
  8
6MM_PLYWOOD
 10
125.3
 20
70.79999999999666
 30
-0.0000000000000131
  0
VERTEX
  5
8A
  8
6MM_PLYWOOD
 10
125.3
 20
68.59999999999667
 30
-0.0000000000000134
  0
VERTEX
  5
8B
  8
6MM_PLYWOOD
 10
123.25
 20
68.59999999999667
 30
-0.0000000000000131
  0
VERTEX
  5
8C
  8
6MM_PLYWOOD
 10
123.25
 20
64.99999999999832
 30
-0.0000000000000044
  0
VERTEX
  5
8D
  8
6MM_PLYWOOD
 10
126.0
 20
65.0
 30
-0.0000000000000015
  0
VERTEX
  5
8E
  8
6MM_PLYWOOD
 10
126.0000000000029
 20
61.99999999999909
 30
-0.0000000000000043
  0
VERTEX
  5
8F
  8
6MM_PLYWOOD
 10
129.0000000000029
 20
62.0
 30
-0.0000000000000031
  0
VERTEX
  5
90
  8
6MM_PLYWOOD
 10
129.0000000000002
 20
108.5
 30
-0.0000000000000018
  0
VERTEX
  5
91
  8
6MM_PLYWOOD
 10
135.0
 20
108.5
 30
-0.0000000000000021
  0
VERTEX
  5
92
  8
6MM_PLYWOOD
 10
135.0
 20
114.5
 30
-0.0000000000000021
  0
VERTEX
  5
93
  8
6MM_PLYWOOD
 10
101.0000000000244
 20
114.499999999971
 30
0.0
  0
VERTEX
  5
94
  8
6MM_PLYWOOD
 10
101.0000000000834
 20
108.4999999999705
 30
0.0
  0
SEQEND
  5
5F
  8
6MM_PLYWOOD
  0
CIRCLE
  5
95
  8
6MM_PLYWOOD
 10
102.0
 20
72.5
 30
-0.0000000000000001
 40
1.5
  0
CIRCLE
  5
96
  8
6MM_PLYWOOD
 10
102.0
 20
55.5
 30
-0.0000000000000001
 40
1.5
  0
CIRCLE
  5
97
  8
6MM_PLYWOOD
 10
102.0
 20
64.0
 30
-0.0000000000000001
 40
3.2
  0
CIRCLE
  5
98
  8
6MM_PLYWOOD
 10
111.0
 20
107.0
 30
-0.0000000000000006
 40
1.35
  0
CIRCLE
  5
99
  8
6MM_PLYWOOD
 10
140.0
 20
43.0
 30
-0.0000000000000001
 40
2.25
  0
CIRCLE
  5
9A
  8
6MM_PLYWOOD
 10
203.6
 20
61.0
 30
0.0
 40
0.5
  0
CIRCLE
  5
9B
  8
6MM_PLYWOOD
 10
193.0
 20
103.0
 30
-0.0000000000000006
 40
2.5
  0
CIRCLE
  5
9C
  8
6MM_PLYWOOD
 10
201.0
 20
168.0
 30
-0.0000000000000001
 40
0.98
  0
CIRCLE
  5
9D
  8
6MM_PLYWOOD
 10
202.0
 20
54.0
 30
-0.0000000000000001
 40
2.25
  0
POLYLINE
  5
9E
  8
6MM_PLYWOOD
 66
     1
 10
0.0
 20
0.0
 30
-0.0000000000000004
  0
VERTEX
  5
A0
  8
6MM_PLYWOOD
 10
196.0
 20
50.0
 30
-0.0000000000000004
 42
-0.414213562373098
  0
VERTEX
  5
A1
  8
6MM_PLYWOOD
 10
194.0
 20
52.0
 30
-0.0000000000000006
  0
VERTEX
  5
A2
  8
6MM_PLYWOOD
 10
194.0
 20
55.0
 30
-0.0000000000000006
  0
VERTEX
  5
A3
  8
6MM_PLYWOOD
 10
190.25
 20
55.0
 30
-0.0000000000000002
  0
VERTEX
  5
A4
  8
6MM_PLYWOOD
 10
190.25
 20
58.60000000000002
 30
0.0000000000000108
  0
VERTEX
  5
A5
  8
6MM_PLYWOOD
 10
192.3
 20
58.60000000000002
 30
0.0000000000000108
  0
VERTEX
  5
A6
  8
6MM_PLYWOOD
 10
192.3
 20
60.80000000000001
 30
0.0000000000000106
  0
VERTEX
  5
A7
  8
6MM_PLYWOOD
 10
190.25
 20
60.80000000000001
 30
0.0000000000000106
  0
VERTEX
  5
A8
  8
6MM_PLYWOOD
 10
190.25
 20
62.60000000000002
 30
0.0000000000000103
  0
VERTEX
  5
A9
  8
6MM_PLYWOOD
 10
187.75
 20
62.60000000000002
 30
0.0000000000000103
  0
VERTEX
  5
AA
  8
6MM_PLYWOOD
 10
187.75
 20
60.80000000000001
 30
0.0000000000000106
  0
VERTEX
  5
AB
  8
6MM_PLYWOOD
 10
185.7
 20
60.80000000000001
 30
0.0000000000000106
  0
VERTEX
  5
AC
  8
6MM_PLYWOOD
 10
185.7
 20
58.60000000000002
 30
0.0000000000000108
  0
VERTEX
  5
AD
  8
6MM_PLYWOOD
 10
187.75
 20
58.60000000000002
 30
0.0000000000000108
  0
VERTEX
  5
AE
  8
6MM_PLYWOOD
 10
187.75
 20
55.0
 30
0.0000000000000006
  0
VERTEX
  5
AF
  8
6MM_PLYWOOD
 10
180.9999999999971
 20
54.99999999999977
 30
-0.0000000000000013
  0
VERTEX
  5
B0
  8
6MM_PLYWOOD
 10
180.9999999999994
 20
52.0
 30
-0.0000000000000013
  0
VERTEX
  5
B1
  8
6MM_PLYWOOD
 10
168.9999999999999
 20
52.0
 30
-0.0000000000000021
  0
VERTEX
  5
B2
  8
6MM_PLYWOOD
 10
168.9999999999999
 20
61.0
 30
-0.0000000000000021
  0
VERTEX
  5
B3
  8
6MM_PLYWOOD
 10
175.0
 20
61.0
 30
-0.0000000000000017
  0
VERTEX
  5
B4
  8
6MM_PLYWOOD
 10
175.0
 20
68.75
 30
-0.0000000000000017
  0
VERTEX
  5
B5
  8
6MM_PLYWOOD
 10
178.6
 20
68.75
 30
-0.0000000000000029
  0
VERTEX
  5
B6
  8
6MM_PLYWOOD
 10
178.6
 20
66.69999999999999
 30
-0.0000000000000028
  0
VERTEX
  5
B7
  8
6MM_PLYWOOD
 10
180.8
 20
66.69999999999999
 30
-0.0000000000000026
  0
VERTEX
  5
B8
  8
6MM_PLYWOOD
 10
180.8
 20
68.75
 30
-0.0000000000000028
  0
VERTEX
  5
B9
  8
6MM_PLYWOOD
 10
182.6
 20
68.75
 30
-0.0000000000000026
  0
VERTEX
  5
BA
  8
6MM_PLYWOOD
 10
182.6
 20
71.25
 30
-0.0000000000000028
  0
VERTEX
  5
BB
  8
6MM_PLYWOOD
 10
180.8
 20
71.25
 30
-0.0000000000000029
  0
VERTEX
  5
BC
  8
6MM_PLYWOOD
 10
180.8
 20
73.30000000000001
 30
-0.000000000000003
  0
VERTEX
  5
BD
  8
6MM_PLYWOOD
 10
178.6
 20
73.30000000000001
 30
-0.0000000000000032
  0
VERTEX
  5
BE
  8
6MM_PLYWOOD
 10
178.6
 20
71.25
 30
-0.000000000000003
  0
VERTEX
  5
BF
  8
6MM_PLYWOOD
 10
175.0
 20
71.25
 30
-0.0000000000000017
  0
VERTEX
  5
C0
  8
6MM_PLYWOOD
 10
174.9999999999988
 20
148.75
 30
-0.0000000000000017
  0
VERTEX
  5
C1
  8
6MM_PLYWOOD
 10
178.5999999999958
 20
148.75
 30
-0.000000000000003
  0
VERTEX
  5
C2
  8
6MM_PLYWOOD
 10
178.5999999999958
 20
146.7
 30
-0.0000000000000032
  0
VERTEX
  5
C3
  8
6MM_PLYWOOD
 10
180.7999999999958
 20
146.7
 30
-0.000000000000003
  0
VERTEX
  5
C4
  8
6MM_PLYWOOD
 10
180.7999999999958
 20
148.75
 30
-0.0000000000000029
  0
VERTEX
  5
C5
  8
6MM_PLYWOOD
 10
182.5999999999958
 20
148.75
 30
-0.0000000000000028
  0
VERTEX
  5
C6
  8
6MM_PLYWOOD
 10
182.5999999999958
 20
151.25
 30
-0.0000000000000026
  0
VERTEX
  5
C7
  8
6MM_PLYWOOD
 10
180.7999999999958
 20
151.25
 30
-0.0000000000000028
  0
VERTEX
  5
C8
  8
6MM_PLYWOOD
 10
180.7999999999958
 20
153.3
 30
-0.0000000000000026
  0
VERTEX
  5
C9
  8
6MM_PLYWOOD
 10
178.5999999999958
 20
153.3
 30
-0.0000000000000028
  0
VERTEX
  5
CA
  8
6MM_PLYWOOD
 10
178.5999999999958
 20
151.25
 30
-0.0000000000000029
  0
VERTEX
  5
CB
  8
6MM_PLYWOOD
 10
174.9999999999958
 20
151.25
 30
-0.0000000000000018
  0
VERTEX
  5
CC
  8
6MM_PLYWOOD
 10
174.9999999999986
 20
158.9999999999983
 30
-0.0000000000000017
  0
VERTEX
  5
CD
  8
6MM_PLYWOOD
 10
168.9999999999986
 20
158.9999999999983
 30
-0.0000000000000021
  0
VERTEX
  5
CE
  8
6MM_PLYWOOD
 10
168.9999999999986
 20
167.9999999999983
 30
-0.0000000000000021
  0
VERTEX
  5
CF
  8
6MM_PLYWOOD
 10
181.0
 20
168.0
 30
-0.0000000000000013
  0
VERTEX
  5
D0
  8
6MM_PLYWOOD
 10
181.0
 20
165.0
 30
-0.0000000000000013
  0
VERTEX
  5
D1
  8
6MM_PLYWOOD
 10
187.75
 20
165.0
 30
0.0000000000000006
  0
VERTEX
  5
D2
  8
6MM_PLYWOOD
 10
187.75
 20
161.4
 30
0.0000000000000108
  0
VERTEX
  5
D3
  8
6MM_PLYWOOD
 10
185.7
 20
161.4
 30
0.0000000000000108
  0
VERTEX
  5
D4
  8
6MM_PLYWOOD
 10
185.7
 20
159.2
 30
0.0000000000000106
  0
VERTEX
  5
D5
  8
6MM_PLYWOOD
 10
187.75
 20
159.2
 30
0.0000000000000106
  0
VERTEX
  5
D6
  8
6MM_PLYWOOD
 10
187.75
 20
157.4
 30
0.0000000000000103
  0
VERTEX
  5
D7
  8
6MM_PLYWOOD
 10
190.25
 20
157.4
 30
0.0000000000000103
  0
VERTEX
  5
D8
  8
6MM_PLYWOOD
 10
190.25
 20
159.2
 30
0.0000000000000106
  0
VERTEX
  5
D9
  8
6MM_PLYWOOD
 10
192.3
 20
159.2
 30
0.0000000000000106
  0
VERTEX
  5
DA
  8
6MM_PLYWOOD
 10
192.3
 20
161.4
 30
0.0000000000000108
  0
VERTEX
  5
DB
  8
6MM_PLYWOOD
 10
190.25
 20
161.4
 30
0.0000000000000108
  0
VERTEX
  5
DC
  8
6MM_PLYWOOD
 10
190.25
 20
165.0
 30
-0.0000000000000002
  0
VERTEX
  5
DD
  8
6MM_PLYWOOD
 10
194.0
 20
165.0
 30
-0.0000000000000006
  0
VERTEX
  5
DE
  8
6MM_PLYWOOD
 10
194.0
 20
168.0000000000002
 30
-0.0000000000000006
 42
-0.4142135623730254
  0
VERTEX
  5
DF
  8
6MM_PLYWOOD
 10
196.0000000000002
 20
170.0
 30
-0.0000000000000004
  0
VERTEX
  5
E0
  8
6MM_PLYWOOD
 10
201.0
 20
170.0
 30
-0.0000000000000001
 42
-0.414213562373095
  0
VERTEX
  5
E1
  8
6MM_PLYWOOD
 10
203.0
 20
168.0
 30
0.0000000000000033
  0
VERTEX
  5
E2
  8
6MM_PLYWOOD
 10
203.0
 20
162.0
 30
0.0000000000000089
  0
VERTEX
  5
E3
  8
6MM_PLYWOOD
 10
201.0000000000018
 20
162.0
 30
0.0000000000000023
  0
VERTEX
  5
E4
  8
6MM_PLYWOOD
 10
201.0
 20
151.25
 30
-0.0000000000000003
  0
VERTEX
  5
E5
  8
6MM_PLYWOOD
 10
197.4
 20
151.25
 30
-0.0000000000000017
  0
VERTEX
  5
E6
  8
6MM_PLYWOOD
 10
197.4
 20
153.3
 30
-0.0000000000000016
  0
VERTEX
  5
E7
  8
6MM_PLYWOOD
 10
195.2
 20
153.3
 30
-0.0000000000000017
  0
VERTEX
  5
E8
  8
6MM_PLYWOOD
 10
195.2
 20
151.25
 30
-0.0000000000000019
  0
VERTEX
  5
E9
  8
6MM_PLYWOOD
 10
193.4
 20
151.25
 30
-0.000000000000002
  0
VERTEX
  5
EA
  8
6MM_PLYWOOD
 10
193.4
 20
148.75
 30
-0.0000000000000021
  0
VERTEX
  5
EB
  8
6MM_PLYWOOD
 10
195.2
 20
148.75
 30
-0.000000000000002
  0
VERTEX
  5
EC
  8
6MM_PLYWOOD
 10
195.2
 20
146.7
 30
-0.0000000000000021
  0
VERTEX
  5
ED
  8
6MM_PLYWOOD
 10
197.4
 20
146.7
 30
-0.000000000000002
  0
VERTEX
  5
EE
  8
6MM_PLYWOOD
 10
197.4
 20
148.75
 30
-0.0000000000000019
  0
VERTEX
  5
EF
  8
6MM_PLYWOOD
 10
200.999999999997
 20
148.75
 30
-0.0000000000000002
  0
VERTEX
  5
F0
  8
6MM_PLYWOOD
 10
200.9999999999997
 20
131.25
 30
-0.0000000000000001
  0
VERTEX
  5
F1
  8
6MM_PLYWOOD
 10
199.2
 20
131.25
 30
-0.0000000000000006
  0
VERTEX
  5
F2
  8
6MM_PLYWOOD
 10
197.4
 20
130.0
 30
-0.0000000000000003
  0
VERTEX
  5
F3
  8
6MM_PLYWOOD
 10
199.2
 20
128.75
 30
-0.0000000000000007
  0
VERTEX
  5
F4
  8
6MM_PLYWOOD
 10
200.9999999999997
 20
128.75
 30
-0.0000000000000001
  0
VERTEX
  5
F5
  8
6MM_PLYWOOD
 10
201.0
 20
111.25
 30
-0.0000000000000002
  0
VERTEX
  5
F6
  8
6MM_PLYWOOD
 10
197.4
 20
111.25
 30
-0.0000000000000017
  0
VERTEX
  5
F7
  8
6MM_PLYWOOD
 10
197.4
 20
113.3
 30
-0.0000000000000016
  0
VERTEX
  5
F8
  8
6MM_PLYWOOD
 10
195.2
 20
113.3
 30
-0.0000000000000017
  0
VERTEX
  5
F9
  8
6MM_PLYWOOD
 10
195.2
 20
111.25
 30
-0.0000000000000019
  0
VERTEX
  5
FA
  8
6MM_PLYWOOD
 10
193.4
 20
111.25
 30
-0.000000000000002
  0
VERTEX
  5
FB
  8
6MM_PLYWOOD
 10
193.4
 20
108.75
 30
-0.0000000000000021
  0
VERTEX
  5
FC
  8
6MM_PLYWOOD
 10
195.2
 20
108.75
 30
-0.000000000000002
  0
VERTEX
  5
FD
  8
6MM_PLYWOOD
 10
195.2
 20
106.7
 30
-0.0000000000000021
  0
VERTEX
  5
FE
  8
6MM_PLYWOOD
 10
197.4
 20
106.7
 30
-0.000000000000002
  0
VERTEX
  5
FF
  8
6MM_PLYWOOD
 10
197.4
 20
108.75
 30
-0.0000000000000019
  0
VERTEX
  5
100
  8
6MM_PLYWOOD
 10
200.999999999997
 20
108.75
 30
-0.0000000000000002
  0
VERTEX
  5
101
  8
6MM_PLYWOOD
 10
200.9999999999997
 20
91.25
 30
-0.0000000000000001
  0
VERTEX
  5
102
  8
6MM_PLYWOOD
 10
199.2
 20
91.25
 30
-0.0000000000000006
  0
VERTEX
  5
103
  8
6MM_PLYWOOD
 10
197.4
 20
90.0
 30
-0.0000000000000003
  0
VERTEX
  5
104
  8
6MM_PLYWOOD
 10
199.2
 20
88.75
 30
-0.0000000000000007
  0
VERTEX
  5
105
  8
6MM_PLYWOOD
 10
200.9999999999997
 20
88.75
 30
-0.0000000000000001
  0
VERTEX
  5
106
  8
6MM_PLYWOOD
 10
201.0
 20
71.25
 30
-0.0000000000000001
  0
VERTEX
  5
107
  8
6MM_PLYWOOD
 10
197.4
 20
71.25
 30
-0.0000000000000019
  0
VERTEX
  5
108
  8
6MM_PLYWOOD
 10
197.4
 20
73.30000000000001
 30
-0.000000000000002
  0
VERTEX
  5
109
  8
6MM_PLYWOOD
 10
195.2
 20
73.30000000000001
 30
-0.0000000000000021
  0
VERTEX
  5
10A
  8
6MM_PLYWOOD
 10
195.2
 20
71.25
 30
-0.000000000000002
  0
VERTEX
  5
10B
  8
6MM_PLYWOOD
 10
193.4
 20
71.25
 30
-0.0000000000000021
  0
VERTEX
  5
10C
  8
6MM_PLYWOOD
 10
193.4
 20
68.75
 30
-0.000000000000002
  0
VERTEX
  5
10D
  8
6MM_PLYWOOD
 10
195.2
 20
68.75
 30
-0.0000000000000019
  0
VERTEX
  5
10E
  8
6MM_PLYWOOD
 10
195.2
 20
66.69999999999999
 30
-0.0000000000000017
  0
VERTEX
  5
10F
  8
6MM_PLYWOOD
 10
197.4
 20
66.69999999999999
 30
-0.0000000000000016
  0
VERTEX
  5
110
  8
6MM_PLYWOOD
 10
197.4
 20
68.75
 30
-0.0000000000000017
  0
VERTEX
  5
111
  8
6MM_PLYWOOD
 10
201.0
 20
68.75
 30
-0.0000000000000002
  0
VERTEX
  5
112
  8
6MM_PLYWOOD
 10
201.0
 20
66.5
 30
-0.0000000000000001
 42
-0.4142135623730946
  0
VERTEX
  5
113
  8
6MM_PLYWOOD
 10
206.0
 20
61.5
 30
0.0000000000000002
  0
VERTEX
  5
114
  8
6MM_PLYWOOD
 10
206.0
 20
54.00000000000875
 30
0.0000000000000002
 42
-0.4142135623740556
  0
VERTEX
  5
115
  8
6MM_PLYWOOD
 10
202.0000000000044
 20
50.0
 30
-0.0000000000000001
  0
VERTEX
  5
116
  8
6MM_PLYWOOD
 10
196.0
 20
50.0
 30
-0.0000000000000004
  0
SEQEND
  5
9F
  8
6MM_PLYWOOD
  0
POLYLINE
  5
117
  8
6MM_PLYWOOD
 66
     1
 10
0.0
 20
0.0
 30
-0.0000000000000004
  0
VERTEX
  5
119
  8
6MM_PLYWOOD
 10
146.0
 20
39.0
 30
-0.0000000000000004
 42
0.414213562373098
  0
VERTEX
  5
11A
  8
6MM_PLYWOOD
 10
148.0
 20
41.0
 30
-0.0000000000000006
  0
VERTEX
  5
11B
  8
6MM_PLYWOOD
 10
148.0
 20
44.0
 30
-0.0000000000000006
  0
VERTEX
  5
11C
  8
6MM_PLYWOOD
 10
151.75
 20
44.0
 30
-0.0000000000000014
  0
VERTEX
  5
11D
  8
6MM_PLYWOOD
 10
151.75
 20
47.60000000000002
 30
-0.0000000000000124
  0
VERTEX
  5
11E
  8
6MM_PLYWOOD
 10
149.7
 20
47.60000000000002
 30
-0.0000000000000121
  0
VERTEX
  5
11F
  8
6MM_PLYWOOD
 10
149.7
 20
49.80000000000001
 30
-0.0000000000000119
  0
VERTEX
  5
120
  8
6MM_PLYWOOD
 10
151.75
 20
49.80000000000001
 30
-0.0000000000000121
  0
VERTEX
  5
121
  8
6MM_PLYWOOD
 10
151.75
 20
51.60000000000002
 30
-0.0000000000000119
  0
VERTEX
  5
122
  8
6MM_PLYWOOD
 10
154.25
 20
51.60000000000002
 30
-0.0000000000000122
  0
VERTEX
  5
123
  8
6MM_PLYWOOD
 10
154.25
 20
49.80000000000001
 30
-0.0000000000000124
  0
VERTEX
  5
124
  8
6MM_PLYWOOD
 10
156.3
 20
49.80000000000001
 30
-0.0000000000000127
  0
VERTEX
  5
125
  8
6MM_PLYWOOD
 10
156.3
 20
47.60000000000002
 30
-0.0000000000000129
  0
VERTEX
  5
126
  8
6MM_PLYWOOD
 10
154.25
 20
47.60000000000002
 30
-0.0000000000000127
  0
VERTEX
  5
127
  8
6MM_PLYWOOD
 10
154.25
 20
44.0
 30
-0.0000000000000025
  0
VERTEX
  5
128
  8
6MM_PLYWOOD
 10
161.0000000000029
 20
43.99999999999977
 30
-0.0000000000000013
  0
VERTEX
  5
129
  8
6MM_PLYWOOD
 10
161.0000000000006
 20
41.0
 30
-0.0000000000000013
  0
VERTEX
  5
12A
  8
6MM_PLYWOOD
 10
173.0000000000001
 20
41.0
 30
-0.0000000000000021
  0
VERTEX
  5
12B
  8
6MM_PLYWOOD
 10
173.0000000000001
 20
50.0
 30
-0.0000000000000021
  0
VERTEX
  5
12C
  8
6MM_PLYWOOD
 10
167.0
 20
50.0
 30
-0.0000000000000017
  0
VERTEX
  5
12D
  8
6MM_PLYWOOD
 10
167.0
 20
57.75
 30
-0.0000000000000017
  0
VERTEX
  5
12E
  8
6MM_PLYWOOD
 10
163.4
 20
57.75
 30
-0.0000000000000001
  0
VERTEX
  5
12F
  8
6MM_PLYWOOD
 10
163.4
 20
55.69999999999999
 30
-0.0000000000000002
  0
VERTEX
  5
130
  8
6MM_PLYWOOD
 10
161.2
 20
55.69999999999999
 30
-0.0000000000000001
  0
VERTEX
  5
131
  8
6MM_PLYWOOD
 10
161.2
 20
57.75
 30
0.0
  0
VERTEX
  5
132
  8
6MM_PLYWOOD
 10
159.4
 20
57.75
 30
0.0000000000000001
  0
VERTEX
  5
133
  8
6MM_PLYWOOD
 10
159.4
 20
60.25
 30
0.0000000000000003
  0
VERTEX
  5
134
  8
6MM_PLYWOOD
 10
161.2
 20
60.25
 30
0.0000000000000002
  0
VERTEX
  5
135
  8
6MM_PLYWOOD
 10
161.2
 20
62.30000000000001
 30
0.0000000000000003
  0
VERTEX
  5
136
  8
6MM_PLYWOOD
 10
163.4
 20
62.30000000000001
 30
0.0000000000000002
  0
VERTEX
  5
137
  8
6MM_PLYWOOD
 10
163.4
 20
60.25
 30
0.0000000000000001
  0
VERTEX
  5
138
  8
6MM_PLYWOOD
 10
167.0
 20
60.25
 30
-0.0000000000000017
  0
VERTEX
  5
139
  8
6MM_PLYWOOD
 10
167.0000000000012
 20
137.75
 30
-0.0000000000000017
  0
VERTEX
  5
13A
  8
6MM_PLYWOOD
 10
163.4000000000042
 20
137.75
 30
0.0000000000000001
  0
VERTEX
  5
13B
  8
6MM_PLYWOOD
 10
163.4000000000042
 20
135.7
 30
0.0000000000000002
  0
VERTEX
  5
13C
  8
6MM_PLYWOOD
 10
161.2000000000042
 20
135.7
 30
0.0000000000000003
  0
VERTEX
  5
13D
  8
6MM_PLYWOOD
 10
161.2000000000042
 20
137.75
 30
0.0000000000000002
  0
VERTEX
  5
13E
  8
6MM_PLYWOOD
 10
159.4000000000042
 20
137.75
 30
0.0000000000000003
  0
VERTEX
  5
13F
  8
6MM_PLYWOOD
 10
159.4000000000042
 20
140.25
 30
0.0000000000000001
  0
VERTEX
  5
140
  8
6MM_PLYWOOD
 10
161.2000000000042
 20
140.25
 30
0.0
  0
VERTEX
  5
141
  8
6MM_PLYWOOD
 10
161.2000000000042
 20
142.3
 30
-0.0000000000000001
  0
VERTEX
  5
142
  8
6MM_PLYWOOD
 10
163.4000000000042
 20
142.3
 30
-0.0000000000000002
  0
VERTEX
  5
143
  8
6MM_PLYWOOD
 10
163.4000000000042
 20
140.25
 30
-0.0000000000000001
  0
VERTEX
  5
144
  8
6MM_PLYWOOD
 10
167.0000000000042
 20
140.25
 30
-0.0000000000000016
  0
VERTEX
  5
145
  8
6MM_PLYWOOD
 10
167.0000000000015
 20
147.9999999999983
 30
-0.0000000000000017
  0
VERTEX
  5
146
  8
6MM_PLYWOOD
 10
173.0000000000015
 20
147.9999999999983
 30
-0.0000000000000021
  0
VERTEX
  5
147
  8
6MM_PLYWOOD
 10
173.0000000000015
 20
156.9999999999983
 30
-0.0000000000000021
  0
VERTEX
  5
148
  8
6MM_PLYWOOD
 10
161.0
 20
157.0
 30
-0.0000000000000013
  0
VERTEX
  5
149
  8
6MM_PLYWOOD
 10
161.0
 20
154.0
 30
-0.0000000000000013
  0
VERTEX
  5
14A
  8
6MM_PLYWOOD
 10
154.25
 20
154.0
 30
-0.0000000000000025
  0
VERTEX
  5
14B
  8
6MM_PLYWOOD
 10
154.25
 20
150.4
 30
-0.0000000000000127
  0
VERTEX
  5
14C
  8
6MM_PLYWOOD
 10
156.3
 20
150.4
 30
-0.0000000000000129
  0
VERTEX
  5
14D
  8
6MM_PLYWOOD
 10
156.3
 20
148.2
 30
-0.0000000000000127
  0
VERTEX
  5
14E
  8
6MM_PLYWOOD
 10
154.25
 20
148.2
 30
-0.0000000000000124
  0
VERTEX
  5
14F
  8
6MM_PLYWOOD
 10
154.25
 20
146.4
 30
-0.0000000000000122
  0
VERTEX
  5
150
  8
6MM_PLYWOOD
 10
151.75
 20
146.4
 30
-0.0000000000000119
  0
VERTEX
  5
151
  8
6MM_PLYWOOD
 10
151.75
 20
148.2
 30
-0.0000000000000121
  0
VERTEX
  5
152
  8
6MM_PLYWOOD
 10
149.7
 20
148.2
 30
-0.0000000000000119
  0
VERTEX
  5
153
  8
6MM_PLYWOOD
 10
149.7
 20
150.4
 30
-0.0000000000000121
  0
VERTEX
  5
154
  8
6MM_PLYWOOD
 10
151.75
 20
150.4
 30
-0.0000000000000124
  0
VERTEX
  5
155
  8
6MM_PLYWOOD
 10
151.75
 20
154.0
 30
-0.0000000000000014
  0
VERTEX
  5
156
  8
6MM_PLYWOOD
 10
148.0
 20
154.0
 30
-0.0000000000000006
  0
VERTEX
  5
157
  8
6MM_PLYWOOD
 10
148.0
 20
157.0000000000002
 30
-0.0000000000000006
 42
0.4142135623730254
  0
VERTEX
  5
158
  8
6MM_PLYWOOD
 10
145.9999999999998
 20
159.0
 30
-0.0000000000000004
  0
VERTEX
  5
159
  8
6MM_PLYWOOD
 10
141.0
 20
159.0
 30
-0.0000000000000001
 42
0.414213562373095
  0
VERTEX
  5
15A
  8
6MM_PLYWOOD
 10
139.0
 20
157.0
 30
-0.0000000000000033
  0
VERTEX
  5
15B
  8
6MM_PLYWOOD
 10
139.0
 20
151.0
 30
-0.0000000000000089
  0
VERTEX
  5
15C
  8
6MM_PLYWOOD
 10
140.9999999999982
 20
151.0
 30
-0.0000000000000025
  0
VERTEX
  5
15D
  8
6MM_PLYWOOD
 10
141.0
 20
140.25
 30
0.0000000000000001
  0
VERTEX
  5
15E
  8
6MM_PLYWOOD
 10
144.6
 20
140.25
 30
0.0000000000000011
  0
VERTEX
  5
15F
  8
6MM_PLYWOOD
 10
144.6
 20
142.3
 30
0.0000000000000009
  0
VERTEX
  5
160
  8
6MM_PLYWOOD
 10
146.8
 20
142.3
 30
0.0000000000000008
  0
VERTEX
  5
161
  8
6MM_PLYWOOD
 10
146.8
 20
140.25
 30
0.0000000000000009
  0
VERTEX
  5
162
  8
6MM_PLYWOOD
 10
148.6
 20
140.25
 30
0.0000000000000008
  0
VERTEX
  5
163
  8
6MM_PLYWOOD
 10
148.6
 20
137.75
 30
0.000000000000001
  0
VERTEX
  5
164
  8
6MM_PLYWOOD
 10
146.8
 20
137.75
 30
0.0000000000000011
  0
VERTEX
  5
165
  8
6MM_PLYWOOD
 10
146.8
 20
135.7
 30
0.0000000000000012
  0
VERTEX
  5
166
  8
6MM_PLYWOOD
 10
144.6
 20
135.7
 30
0.0000000000000013
  0
VERTEX
  5
167
  8
6MM_PLYWOOD
 10
144.6
 20
137.75
 30
0.0000000000000012
  0
VERTEX
  5
168
  8
6MM_PLYWOOD
 10
141.000000000003
 20
137.75
 30
-0.0000000000000001
  0
VERTEX
  5
169
  8
6MM_PLYWOOD
 10
141.0000000000003
 20
120.25
 30
-0.0000000000000001
  0
VERTEX
  5
16A
  8
6MM_PLYWOOD
 10
142.8
 20
120.25
 30
0.0000000000000001
  0
VERTEX
  5
16B
  8
6MM_PLYWOOD
 10
144.6
 20
119.0
 30
-0.0000000000000003
  0
VERTEX
  5
16C
  8
6MM_PLYWOOD
 10
142.8
 20
117.75
 30
0.0000000000000002
  0
VERTEX
  5
16D
  8
6MM_PLYWOOD
 10
141.0000000000003
 20
117.75
 30
-0.0000000000000001
  0
VERTEX
  5
16E
  8
6MM_PLYWOOD
 10
141.0
 20
100.25
 30
0.0
  0
VERTEX
  5
16F
  8
6MM_PLYWOOD
 10
144.6
 20
100.25
 30
0.0000000000000011
  0
VERTEX
  5
170
  8
6MM_PLYWOOD
 10
144.6
 20
102.3
 30
0.0000000000000009
  0
VERTEX
  5
171
  8
6MM_PLYWOOD
 10
146.8
 20
102.3
 30
0.0000000000000008
  0
VERTEX
  5
172
  8
6MM_PLYWOOD
 10
146.8
 20
100.25
 30
0.0000000000000009
  0
VERTEX
  5
173
  8
6MM_PLYWOOD
 10
148.6
 20
100.25
 30
0.0000000000000008
  0
VERTEX
  5
174
  8
6MM_PLYWOOD
 10
148.6
 20
97.75
 30
0.000000000000001
  0
VERTEX
  5
175
  8
6MM_PLYWOOD
 10
146.8
 20
97.75
 30
0.0000000000000011
  0
VERTEX
  5
176
  8
6MM_PLYWOOD
 10
146.8
 20
95.69999999999999
 30
0.0000000000000012
  0
VERTEX
  5
177
  8
6MM_PLYWOOD
 10
144.6
 20
95.69999999999999
 30
0.0000000000000013
  0
VERTEX
  5
178
  8
6MM_PLYWOOD
 10
144.6
 20
97.75
 30
0.0000000000000012
  0
VERTEX
  5
179
  8
6MM_PLYWOOD
 10
141.000000000003
 20
97.75
 30
-0.0000000000000001
  0
VERTEX
  5
17A
  8
6MM_PLYWOOD
 10
141.0000000000003
 20
80.25
 30
-0.0000000000000001
  0
VERTEX
  5
17B
  8
6MM_PLYWOOD
 10
142.8
 20
80.25
 30
0.0000000000000001
  0
VERTEX
  5
17C
  8
6MM_PLYWOOD
 10
144.6
 20
79.0
 30
-0.0000000000000003
  0
VERTEX
  5
17D
  8
6MM_PLYWOOD
 10
142.8
 20
77.75
 30
0.0000000000000002
  0
VERTEX
  5
17E
  8
6MM_PLYWOOD
 10
141.0000000000003
 20
77.75
 30
-0.0000000000000001
  0
VERTEX
  5
17F
  8
6MM_PLYWOOD
 10
141.0
 20
60.25
 30
-0.0000000000000001
  0
VERTEX
  5
180
  8
6MM_PLYWOOD
 10
144.6
 20
60.25
 30
0.0000000000000012
  0
VERTEX
  5
181
  8
6MM_PLYWOOD
 10
144.6
 20
62.30000000000001
 30
0.0000000000000013
  0
VERTEX
  5
182
  8
6MM_PLYWOOD
 10
146.8
 20
62.30000000000001
 30
0.0000000000000012
  0
VERTEX
  5
183
  8
6MM_PLYWOOD
 10
146.8
 20
60.25
 30
0.0000000000000011
  0
VERTEX
  5
184
  8
6MM_PLYWOOD
 10
148.6
 20
60.25
 30
0.000000000000001
  0
VERTEX
  5
185
  8
6MM_PLYWOOD
 10
148.6
 20
57.75
 30
0.0000000000000008
  0
VERTEX
  5
186
  8
6MM_PLYWOOD
 10
146.8
 20
57.75
 30
0.0000000000000009
  0
VERTEX
  5
187
  8
6MM_PLYWOOD
 10
146.8
 20
55.69999999999999
 30
0.0000000000000008
  0
VERTEX
  5
188
  8
6MM_PLYWOOD
 10
144.6
 20
55.69999999999999
 30
0.0000000000000009
  0
VERTEX
  5
189
  8
6MM_PLYWOOD
 10
144.6
 20
57.75
 30
0.0000000000000011
  0
VERTEX
  5
18A
  8
6MM_PLYWOOD
 10
141.0
 20
57.75
 30
-0.0000000000000001
  0
VERTEX
  5
18B
  8
6MM_PLYWOOD
 10
141.0
 20
55.5
 30
-0.0000000000000001
 42
0.4142135623730946
  0
VERTEX
  5
18C
  8
6MM_PLYWOOD
 10
136.0
 20
50.5
 30
0.0000000000000002
  0
VERTEX
  5
18D
  8
6MM_PLYWOOD
 10
136.0
 20
43.00000000000881
 30
0.0000000000000002
 42
0.4142135623740619
  0
VERTEX
  5
18E
  8
6MM_PLYWOOD
 10
139.9999999999956
 20
39.0
 30
-0.0000000000000001
  0
VERTEX
  5
18F
  8
6MM_PLYWOOD
 10
146.0
 20
39.0
 30
-0.0000000000000004
  0
SEQEND
  5
118
  8
6MM_PLYWOOD
  0
CIRCLE
  5
190
  8
6MM_PLYWOOD
 10
141.0
 20
157.0
 30
-0.0000000000000001
 40
0.98
  0
POLYLINE
  5
191
  8
6MM_PLYWOOD
 66
     1
 10
0.0
 20
0.0
 30
-0.0000000000000008
  0
VERTEX
  5
193
  8
6MM_PLYWOOD
 10
152.0
 20
80.0
 30
-0.0000000000000008
  0
VERTEX
  5
194
  8
6MM_PLYWOOD
 10
152.0
 20
86.0
 30
-0.0000000000000008
  0
VERTEX
  5
195
  8
6MM_PLYWOOD
 10
146.0
 20
86.0
 30
-0.0000000000000004
  0
VERTEX
  5
196
  8
6MM_PLYWOOD
 10
146.0
 20
80.0
 30
-0.0000000000000004
  0
VERTEX
  5
197
  8
6MM_PLYWOOD
 10
152.0
 20
80.0
 30
-0.0000000000000008
  0
SEQEND
  5
192
  8
6MM_PLYWOOD
  0
CIRCLE
  5
198
  8
6MM_PLYWOOD
 10
149.0
 20
92.0
 30
-0.0000000000000006
 40
1.35
  0
CIRCLE
  5
199
  8
6MM_PLYWOOD
 10
138.4
 20
50.0
 30
0.0
 40
0.5
  0
POLYLINE
  5
19A
  8
6MM_PLYWOOD
 66
     1
 10
0.0
 20
0.0
 30
-0.0000000000000008
  0
VERTEX
  5
19C
  8
6MM_PLYWOOD
 10
152.0
 20
108.0
 30
-0.0000000000000008
  0
VERTEX
  5
19D
  8
6MM_PLYWOOD
 10
152.0
 20
114.0
 30
-0.0000000000000008
  0
VERTEX
  5
19E
  8
6MM_PLYWOOD
 10
146.0
 20
114.0
 30
-0.0000000000000004
  0
VERTEX
  5
19F
  8
6MM_PLYWOOD
 10
146.0
 20
108.0
 30
-0.0000000000000004
  0
VERTEX
  5
1A0
  8
6MM_PLYWOOD
 10
152.0
 20
108.0
 30
-0.0000000000000008
  0
SEQEND
  5
19B
  8
6MM_PLYWOOD
  0
ENDSEC
  0
EOF
