  0
SECTION
  2
HEADER
  9
$ACADVER
  1
AC1009
  9
$DWGCODEPAGE
  3
ansi_1252
  9
$INSBASE
 10
0.0
 20
0.0
 30
0.0
  9
$EXTMIN
 10
-23.14999999992352
 20
49.99999999999835
 30
0.0
  9
$EXTMAX
 10
105.4999999998471
 20
150.0000000000018
 30
0.0
  9
$LIMMIN
 10
0.0
 20
0.0
  9
$LIMMAX
 10
12.0
 20
9.0
  9
$ORTHOMODE
 70
     0
  9
$REGENMODE
 70
     1
  9
$FILLMODE
 70
     1
  9
$QTEXTMODE
 70
     0
  9
$MIRRTEXT
 70
     1
  9
$DRAGMODE
 70
     2
  9
$LTSCALE
 40
1.0
  9
$OSMODE
 70
    37
  9
$ATTMODE
 70
     1
  9
$TEXTSIZE
 40
0.2
  9
$TRACEWID
 40
0.05
  9
$TEXTSTYLE
  7
STANDARD
  9
$CLAYER
  8
0
  9
$CELTYPE
  6
BYLAYER
  9
$CECOLOR
 62
   256
  9
$DIMSCALE
 40
1.0
  9
$DIMASZ
 40
0.18
  9
$DIMEXO
 40
0.0625
  9
$DIMDLI
 40
0.38
  9
$DIMRND
 40
0.0
  9
$DIMDLE
 40
0.0
  9
$DIMEXE
 40
0.18
  9
$DIMTP
 40
0.0
  9
$DIMTM
 40
0.0
  9
$DIMTXT
 40
0.18
  9
$DIMCEN
 40
0.09
  9
$DIMTSZ
 40
0.0
  9
$DIMTOL
 70
     0
  9
$DIMLIM
 70
     0
  9
$DIMTIH
 70
     1
  9
$DIMTOH
 70
     1
  9
$DIMSE1
 70
     0
  9
$DIMSE2
 70
     0
  9
$DIMTAD
 70
     0
  9
$DIMZIN
 70
     0
  9
$DIMBLK
  1

  9
$DIMASO
 70
     1
  9
$DIMSHO
 70
     1
  9
$DIMPOST
  1

  9
$DIMAPOST
  1

  9
$DIMALT
 70
     0
  9
$DIMALTD
 70
     2
  9
$DIMALTF
 40
25.4
  9
$DIMLFAC
 40
1.0
  9
$DIMTOFL
 70
     0
  9
$DIMTVP
 40
0.0
  9
$DIMTIX
 70
     0
  9
$DIMSOXD
 70
     0
  9
$DIMSAH
 70
     0
  9
$DIMBLK1
  1

  9
$DIMBLK2
  1

  9
$DIMSTYLE
  2
STANDARD
  9
$DIMCLRD
 70
     0
  9
$DIMCLRE
 70
     0
  9
$DIMCLRT
 70
     0
  9
$DIMTFAC
 40
1.0
  9
$DIMGAP
 40
0.09
  9
$LUNITS
 70
     2
  9
$LUPREC
 70
     3
  9
$SKETCHINC
 40
0.1
  9
$FILLETRAD
 40
0.5
  9
$AUNITS
 70
     0
  9
$AUPREC
 70
     0
  9
$MENU
  1
.
  9
$ELEVATION
 40
0.0
  9
$PELEVATION
 40
0.0
  9
$THICKNESS
 40
0.0
  9
$LIMCHECK
 70
     0
  9
$CHAMFERA
 40
0.5
  9
$CHAMFERB
 40
0.5
  9
$SKPOLY
 70
     0
  9
$TDCREATE
 40
2457812.600898298
  9
$TDUPDATE
 40
2457812.60089831
  9
$TDINDWG
 40
0.0000000116
  9
$TDUSRTIMER
 40
0.0000000116
  9
$USRTIMER
 70
     1
  9
$ANGBASE
 50
0.0
  9
$ANGDIR
 70
     0
  9
$PDMODE
 70
     0
  9
$PDSIZE
 40
0.0
  9
$PLINEWID
 40
0.0
  9
$COORDS
 70
     1
  9
$SPLFRAME
 70
     0
  9
$SPLINETYPE
 70
     6
  9
$SPLINESEGS
 70
     8
  9
$ATTDIA
 70
     0
  9
$ATTREQ
 70
     1
  9
$HANDLING
 70
     1
  9
$HANDSEED
  5
166
  9
$SURFTAB1
 70
     6
  9
$SURFTAB2
 70
     6
  9
$SURFTYPE
 70
     6
  9
$SURFU
 70
     6
  9
$SURFV
 70
     6
  9
$UCSNAME
  2

  9
$UCSORG
 10
0.0
 20
0.0
 30
0.0
  9
$UCSXDIR
 10
1.0
 20
0.0
 30
0.0
  9
$UCSYDIR
 10
0.0
 20
1.0
 30
0.0
  9
$PUCSNAME
  2

  9
$PUCSORG
 10
0.0
 20
0.0
 30
0.0
  9
$PUCSXDIR
 10
1.0
 20
0.0
 30
0.0
  9
$PUCSYDIR
 10
0.0
 20
1.0
 30
0.0
  9
$USERI1
 70
     0
  9
$USERI2
 70
     0
  9
$USERI3
 70
     0
  9
$USERI4
 70
     0
  9
$USERI5
 70
     0
  9
$USERR1
 40
0.0
  9
$USERR2
 40
0.0
  9
$USERR3
 40
0.0
  9
$USERR4
 40
0.0
  9
$USERR5
 40
0.0
  9
$WORLDVIEW
 70
     1
  9
$SHADEDGE
 70
     3
  9
$SHADEDIF
 70
    70
  9
$TILEMODE
 70
     1
  9
$MAXACTVP
 70
    64
  9
$PLIMCHECK
 70
     0
  9
$PEXTMIN
 10
1.000000000000000E+20
 20
1.000000000000000E+20
 30
1.000000000000000E+20
  9
$PEXTMAX
 10
-1.000000000000000E+20
 20
-1.000000000000000E+20
 30
-1.000000000000000E+20
  9
$PLIMMIN
 10
0.0
 20
0.0
  9
$PLIMMAX
 10
12.0
 20
9.0
  9
$UNITMODE
 70
     0
  9
$VISRETAIN
 70
     1
  9
$PLINEGEN
 70
     0
  9
$PSLTSCALE
 70
     1
  0
ENDSEC
  0
SECTION
  2
TABLES
  0
TABLE
  2
VPORT
 70
     1
  0
VPORT
  2
*ACTIVE
 70
     0
 10
0.0
 20
0.0
 11
1.0
 21
1.0
 12
0.0
 22
0.0
 13
0.0
 23
0.0
 14
0.5
 24
0.5
 15
0.5
 25
0.5
 16
0.0
 26
0.0
 36
1.0
 17
41.17499999996177
 27
100.0000000000001
 37
0.0
 40
102.0000000000035
 41
1.286499999997662
 42
50.0
 43
0.0
 44
0.0
 50
0.0
 51
0.0
 71
     0
 72
   100
 73
     1
 74
     3
 75
     0
 76
     0
 77
     0
 78
     0
  0
ENDTAB
  0
TABLE
  2
LTYPE
 70
     1
  0
LTYPE
  2
CONTINUOUS
 70
     0
  3
Solid line
 72
    65
 73
     0
 40
0.0
  0
ENDTAB
  0
TABLE
  2
LAYER
 70
     2
  0
LAYER
  2
0
 70
     0
 62
     7
  6
CONTINUOUS
  0
LAYER
  2
CAMERA_TOP_RAIL
 70
     0
 62
     1
  6
CONTINUOUS
  0
ENDTAB
  0
TABLE
  2
STYLE
 70
     1
  0
STYLE
  2
STANDARD
 70
     0
 40
0.0
 41
1.0
 50
0.0
 71
     0
 42
0.2
  3
txt
  4

  0
ENDTAB
  0
TABLE
  2
VIEW
 70
     0
  0
ENDTAB
  0
TABLE
  2
UCS
 70
     0
  0
ENDTAB
  0
TABLE
  2
APPID
 70
     1
  0
APPID
  2
ACAD
 70
     0
  0
ENDTAB
  0
TABLE
  2
DIMSTYLE
 70
     1
  0
DIMSTYLE
  2
STANDARD
 70
     0
  3

  4

  5

  6

  7

 40
1.0
 41
0.18
 42
0.0625
 43
0.38
 44
0.18
 45
0.0
 46
0.0
 47
0.0
 48
0.0
140
0.18
141
0.09
142
0.0
143
25.4
144
1.0
145
0.0
146
1.0
147
0.09
 71
     0
 72
     0
 73
     1
 74
     1
 75
     0
 76
     0
 77
     0
 78
     0
170
     0
171
     2
172
     0
173
     0
174
     0
175
     0
176
     0
177
     0
178
     0
  0
ENDTAB
  0
ENDSEC
  0
SECTION
  2
BLOCKS
  0
BLOCK
  8
0
  2
$MODEL_SPACE
 70
     0
 10
0.0
 20
0.0
 30
0.0
  3
$MODEL_SPACE
  1

  0
ENDBLK
  5
21
  8
0
  0
BLOCK
 67
     1
  8
0
  2
$PAPER_SPACE
 70
     0
 10
0.0
 20
0.0
 30
0.0
  3
$PAPER_SPACE
  1

  0
ENDBLK
  5
1D
 67
     1
  8
0
  0
ENDSEC
  0
SECTION
  2
ENTITIES
  0
CIRCLE
  5
5E
  8
CAMERA_TOP_RAIL
 10
-1.149999999923505
 20
75.00000000000009
 30
0.0
 40
1.0
  0
CIRCLE
  5
5F
  8
CAMERA_TOP_RAIL
 10
66.72499999950935
 20
70.00000000000134
 30
0.0
 40
1.1
  0
CIRCLE
  5
60
  8
CAMERA_TOP_RAIL
 10
90.99999999969413
 20
75.00000000000009
 30
0.0
 40
1.1
  0
CIRCLE
  5
61
  8
CAMERA_TOP_RAIL
 10
66.72499999950935
 20
80.00000000000134
 30
0.0
 40
1.1
  0
POLYLINE
  5
62
  8
CAMERA_TOP_RAIL
 66
     1
 10
0.0
 20
0.0
 30
0.0
  0
VERTEX
  5
64
  8
CAMERA_TOP_RAIL
 10
80.99999999992353
 20
99.99999999999822
 30
0.0
  0
VERTEX
  5
65
  8
CAMERA_TOP_RAIL
 10
80.99999999992421
 20
96.40000000000335
 30
-0.0000000000000008
  0
VERTEX
  5
66
  8
CAMERA_TOP_RAIL
 10
83.0499999999236
 20
96.40000000000335
 30
-0.0000000000000017
  0
VERTEX
  5
67
  8
CAMERA_TOP_RAIL
 10
83.0499999999236
 20
94.2000000000033
 30
-0.0000000000000017
  0
VERTEX
  5
68
  8
CAMERA_TOP_RAIL
 10
80.99999999992353
 20
94.2000000000033
 30
-0.0000000000000015
  0
VERTEX
  5
69
  8
CAMERA_TOP_RAIL
 10
80.99999999992353
 20
92.40000000000329
 30
-0.0000000000000015
  0
VERTEX
  5
6A
  8
CAMERA_TOP_RAIL
 10
78.49999999992353
 20
92.40000000000335
 30
-0.0000000000000014
  0
VERTEX
  5
6B
  8
CAMERA_TOP_RAIL
 10
78.49999999992353
 20
94.2000000000033
 30
-0.0000000000000014
  0
VERTEX
  5
6C
  8
CAMERA_TOP_RAIL
 10
76.44999999992358
 20
94.2000000000033
 30
-0.0000000000000013
  0
VERTEX
  5
6D
  8
CAMERA_TOP_RAIL
 10
76.44999999992358
 20
96.40000000000335
 30
-0.0000000000000013
  0
VERTEX
  5
6E
  8
CAMERA_TOP_RAIL
 10
78.49999999992353
 20
96.40000000000329
 30
-0.0000000000000007
  0
VERTEX
  5
6F
  8
CAMERA_TOP_RAIL
 10
78.49999999992353
 20
100.0000000000018
 30
0.0
  0
SEQEND
  5
63
  8
CAMERA_TOP_RAIL
  0
POLYLINE
  5
70
  8
CAMERA_TOP_RAIL
 66
     1
 10
0.0
 20
0.0
 30
0.0
  0
VERTEX
  5
72
  8
CAMERA_TOP_RAIL
 10
105.4999999998471
 20
55.90000000000006
 30
0.0
  0
VERTEX
  5
73
  8
CAMERA_TOP_RAIL
 10
101.8999999998485
 20
55.90000000000006
 30
-0.0000000000000007
  0
VERTEX
  5
74
  8
CAMERA_TOP_RAIL
 10
101.8999999998486
 20
53.85000000000011
 30
-0.0000000000000013
  0
VERTEX
  5
75
  8
CAMERA_TOP_RAIL
 10
99.69999999984853
 20
53.85000000000011
 30
-0.0000000000000013
  0
VERTEX
  5
76
  8
CAMERA_TOP_RAIL
 10
99.69999999984853
 20
55.90000000000006
 30
-0.0000000000000014
  0
VERTEX
  5
77
  8
CAMERA_TOP_RAIL
 10
97.89999999984857
 20
55.90000000000006
 30
-0.0000000000000014
  0
VERTEX
  5
78
  8
CAMERA_TOP_RAIL
 10
97.89999999984852
 20
58.40000000000006
 30
-0.0000000000000015
  0
VERTEX
  5
79
  8
CAMERA_TOP_RAIL
 10
99.69999999984853
 20
58.40000000000006
 30
-0.0000000000000015
  0
VERTEX
  5
7A
  8
CAMERA_TOP_RAIL
 10
99.69999999984853
 20
60.45000000000013
 30
-0.0000000000000017
  0
VERTEX
  5
7B
  8
CAMERA_TOP_RAIL
 10
101.8999999998486
 20
60.45000000000013
 30
-0.0000000000000017
  0
VERTEX
  5
7C
  8
CAMERA_TOP_RAIL
 10
101.8999999998486
 20
58.40000000000074
 30
-0.0000000000000008
  0
VERTEX
  5
7D
  8
CAMERA_TOP_RAIL
 10
105.4999999998435
 20
58.40000000000006
 30
0.0
  0
SEQEND
  5
71
  8
CAMERA_TOP_RAIL
  0
POLYLINE
  5
7E
  8
CAMERA_TOP_RAIL
 66
     1
 10
0.0
 20
0.0
 30
0.0
  0
VERTEX
  5
80
  8
CAMERA_TOP_RAIL
 10
50.99999999992353
 20
99.99999999999822
 30
0.0
  0
VERTEX
  5
81
  8
CAMERA_TOP_RAIL
 10
50.99999999992421
 20
96.40000000000335
 30
-0.0000000000000008
  0
VERTEX
  5
82
  8
CAMERA_TOP_RAIL
 10
53.0499999999236
 20
96.40000000000335
 30
-0.0000000000000017
  0
VERTEX
  5
83
  8
CAMERA_TOP_RAIL
 10
53.0499999999236
 20
94.2000000000033
 30
-0.0000000000000017
  0
VERTEX
  5
84
  8
CAMERA_TOP_RAIL
 10
50.99999999992353
 20
94.2000000000033
 30
-0.0000000000000015
  0
VERTEX
  5
85
  8
CAMERA_TOP_RAIL
 10
50.99999999992353
 20
92.40000000000329
 30
-0.0000000000000015
  0
VERTEX
  5
86
  8
CAMERA_TOP_RAIL
 10
48.49999999992353
 20
92.40000000000335
 30
-0.0000000000000014
  0
VERTEX
  5
87
  8
CAMERA_TOP_RAIL
 10
48.49999999992353
 20
94.2000000000033
 30
-0.0000000000000014
  0
VERTEX
  5
88
  8
CAMERA_TOP_RAIL
 10
46.44999999992358
 20
94.2000000000033
 30
-0.0000000000000013
  0
VERTEX
  5
89
  8
CAMERA_TOP_RAIL
 10
46.44999999992358
 20
96.40000000000335
 30
-0.0000000000000013
  0
VERTEX
  5
8A
  8
CAMERA_TOP_RAIL
 10
48.49999999992353
 20
96.40000000000329
 30
-0.0000000000000007
  0
VERTEX
  5
8B
  8
CAMERA_TOP_RAIL
 10
48.49999999992353
 20
100.0000000000018
 30
0.0
  0
SEQEND
  5
7F
  8
CAMERA_TOP_RAIL
  0
POLYLINE
  5
8C
  8
CAMERA_TOP_RAIL
 66
     1
 10
0.0
 20
0.0
 30
0.0
  0
VERTEX
  5
8E
  8
CAMERA_TOP_RAIL
 10
20.99999999992353
 20
99.99999999999822
 30
0.0
  0
VERTEX
  5
8F
  8
CAMERA_TOP_RAIL
 10
20.99999999992421
 20
96.40000000000335
 30
-0.0000000000000008
  0
VERTEX
  5
90
  8
CAMERA_TOP_RAIL
 10
23.0499999999236
 20
96.40000000000335
 30
-0.0000000000000017
  0
VERTEX
  5
91
  8
CAMERA_TOP_RAIL
 10
23.0499999999236
 20
94.2000000000033
 30
-0.0000000000000017
  0
VERTEX
  5
92
  8
CAMERA_TOP_RAIL
 10
20.99999999992353
 20
94.2000000000033
 30
-0.0000000000000015
  0
VERTEX
  5
93
  8
CAMERA_TOP_RAIL
 10
20.99999999992353
 20
92.40000000000329
 30
-0.0000000000000015
  0
VERTEX
  5
94
  8
CAMERA_TOP_RAIL
 10
18.49999999992353
 20
92.40000000000335
 30
-0.0000000000000014
  0
VERTEX
  5
95
  8
CAMERA_TOP_RAIL
 10
18.49999999992353
 20
94.2000000000033
 30
-0.0000000000000014
  0
VERTEX
  5
96
  8
CAMERA_TOP_RAIL
 10
16.44999999992358
 20
94.2000000000033
 30
-0.0000000000000013
  0
VERTEX
  5
97
  8
CAMERA_TOP_RAIL
 10
16.44999999992358
 20
96.40000000000335
 30
-0.0000000000000013
  0
VERTEX
  5
98
  8
CAMERA_TOP_RAIL
 10
18.49999999992353
 20
96.40000000000329
 30
-0.0000000000000007
  0
VERTEX
  5
99
  8
CAMERA_TOP_RAIL
 10
18.49999999992353
 20
100.0000000000018
 30
0.0
  0
SEQEND
  5
8D
  8
CAMERA_TOP_RAIL
  0
CIRCLE
  5
9A
  8
CAMERA_TOP_RAIL
 10
5.850000000076495
 20
95.00000000000011
 30
0.0
 40
2.5
  0
CIRCLE
  5
9B
  8
CAMERA_TOP_RAIL
 10
5.850000000076495
 20
55.00000000000006
 30
0.0
 40
2.5
  0
POLYLINE
  5
9C
  8
CAMERA_TOP_RAIL
 66
     1
 10
0.0
 20
0.0
 30
0.0
  0
VERTEX
  5
9E
  8
CAMERA_TOP_RAIL
 10
50.99999999992353
 20
50.00000000000193
 30
0.0
  0
VERTEX
  5
9F
  8
CAMERA_TOP_RAIL
 10
50.99999999992421
 20
53.59999999999684
 30
-0.0000000000000008
  0
VERTEX
  5
A0
  8
CAMERA_TOP_RAIL
 10
53.0499999999236
 20
53.59999999999684
 30
-0.0000000000000017
  0
VERTEX
  5
A1
  8
CAMERA_TOP_RAIL
 10
53.0499999999236
 20
55.79999999999688
 30
-0.0000000000000017
  0
VERTEX
  5
A2
  8
CAMERA_TOP_RAIL
 10
50.99999999992353
 20
55.79999999999688
 30
-0.0000000000000015
  0
VERTEX
  5
A3
  8
CAMERA_TOP_RAIL
 10
50.99999999992353
 20
57.5999999999969
 30
-0.0000000000000015
  0
VERTEX
  5
A4
  8
CAMERA_TOP_RAIL
 10
48.49999999992353
 20
57.59999999999684
 30
-0.0000000000000014
  0
VERTEX
  5
A5
  8
CAMERA_TOP_RAIL
 10
48.49999999992353
 20
55.79999999999688
 30
-0.0000000000000014
  0
VERTEX
  5
A6
  8
CAMERA_TOP_RAIL
 10
46.44999999992358
 20
55.79999999999688
 30
-0.0000000000000013
  0
VERTEX
  5
A7
  8
CAMERA_TOP_RAIL
 10
46.44999999992358
 20
53.59999999999684
 30
-0.0000000000000013
  0
VERTEX
  5
A8
  8
CAMERA_TOP_RAIL
 10
48.49999999992353
 20
53.5999999999969
 30
-0.0000000000000007
  0
VERTEX
  5
A9
  8
CAMERA_TOP_RAIL
 10
48.49999999992353
 20
49.99999999999835
 30
0.0
  0
SEQEND
  5
9D
  8
CAMERA_TOP_RAIL
  0
POLYLINE
  5
AA
  8
CAMERA_TOP_RAIL
 66
     1
 10
0.0
 20
0.0
 30
0.0
  0
VERTEX
  5
AC
  8
CAMERA_TOP_RAIL
 10
105.4999999998471
 20
100.0000000000001
 30
0.0
  0
VERTEX
  5
AD
  8
CAMERA_TOP_RAIL
 10
-18.14999999992351
 20
100.0
 30
0.0000000000000018
 42
0.414213562373095
  0
VERTEX
  5
AE
  8
CAMERA_TOP_RAIL
 10
-23.14999999992351
 20
95.00000000000003
 30
0.0
  0
VERTEX
  5
AF
  8
CAMERA_TOP_RAIL
 10
-23.14999999992351
 20
55.00000000000014
 30
0.0
 42
0.4142135623730974
  0
VERTEX
  5
B0
  8
CAMERA_TOP_RAIL
 10
-18.14999999992351
 20
50.00000000000017
 30
0.0000000000000018
  0
VERTEX
  5
B1
  8
CAMERA_TOP_RAIL
 10
105.4999999998471
 20
50.00000000000011
 30
0.0
  0
VERTEX
  5
B2
  8
CAMERA_TOP_RAIL
 10
105.4999999998471
 20
100.0000000000001
 30
0.0
  0
SEQEND
  5
AB
  8
CAMERA_TOP_RAIL
  0
POLYLINE
  5
B3
  8
CAMERA_TOP_RAIL
 66
     1
 10
0.0
 20
0.0
 30
0.0
  0
VERTEX
  5
B5
  8
CAMERA_TOP_RAIL
 10
20.99999999992353
 20
50.00000000000193
 30
0.0
  0
VERTEX
  5
B6
  8
CAMERA_TOP_RAIL
 10
20.99999999992421
 20
53.59999999999684
 30
-0.0000000000000008
  0
VERTEX
  5
B7
  8
CAMERA_TOP_RAIL
 10
23.0499999999236
 20
53.59999999999684
 30
-0.0000000000000017
  0
VERTEX
  5
B8
  8
CAMERA_TOP_RAIL
 10
23.0499999999236
 20
55.79999999999688
 30
-0.0000000000000017
  0
VERTEX
  5
B9
  8
CAMERA_TOP_RAIL
 10
20.99999999992353
 20
55.79999999999688
 30
-0.0000000000000015
  0
VERTEX
  5
BA
  8
CAMERA_TOP_RAIL
 10
20.99999999992353
 20
57.5999999999969
 30
-0.0000000000000015
  0
VERTEX
  5
BB
  8
CAMERA_TOP_RAIL
 10
18.49999999992353
 20
57.59999999999684
 30
-0.0000000000000014
  0
VERTEX
  5
BC
  8
CAMERA_TOP_RAIL
 10
18.49999999992353
 20
55.79999999999688
 30
-0.0000000000000014
  0
VERTEX
  5
BD
  8
CAMERA_TOP_RAIL
 10
16.44999999992358
 20
55.79999999999688
 30
-0.0000000000000013
  0
VERTEX
  5
BE
  8
CAMERA_TOP_RAIL
 10
16.44999999992358
 20
53.59999999999684
 30
-0.0000000000000013
  0
VERTEX
  5
BF
  8
CAMERA_TOP_RAIL
 10
18.49999999992353
 20
53.5999999999969
 30
-0.0000000000000007
  0
VERTEX
  5
C0
  8
CAMERA_TOP_RAIL
 10
18.49999999992353
 20
49.99999999999835
 30
0.0
  0
SEQEND
  5
B4
  8
CAMERA_TOP_RAIL
  0
CIRCLE
  5
C1
  8
CAMERA_TOP_RAIL
 10
12.85000000007649
 20
75.00000000000009
 30
0.0
 40
1.0
  0
CIRCLE
  5
C2
  8
CAMERA_TOP_RAIL
 10
-14.0
 20
55.00000000000006
 30
0.0
 40
1.5
  0
POLYLINE
  5
C3
  8
CAMERA_TOP_RAIL
 66
     1
 10
0.0
 20
0.0
 30
0.0
  0
VERTEX
  5
C5
  8
CAMERA_TOP_RAIL
 10
80.99999999992353
 20
50.00000000000193
 30
0.0
  0
VERTEX
  5
C6
  8
CAMERA_TOP_RAIL
 10
80.99999999992421
 20
53.59999999999684
 30
-0.0000000000000008
  0
VERTEX
  5
C7
  8
CAMERA_TOP_RAIL
 10
83.0499999999236
 20
53.59999999999684
 30
-0.0000000000000017
  0
VERTEX
  5
C8
  8
CAMERA_TOP_RAIL
 10
83.0499999999236
 20
55.79999999999688
 30
-0.0000000000000017
  0
VERTEX
  5
C9
  8
CAMERA_TOP_RAIL
 10
80.99999999992353
 20
55.79999999999688
 30
-0.0000000000000015
  0
VERTEX
  5
CA
  8
CAMERA_TOP_RAIL
 10
80.99999999992353
 20
57.5999999999969
 30
-0.0000000000000015
  0
VERTEX
  5
CB
  8
CAMERA_TOP_RAIL
 10
78.49999999992353
 20
57.59999999999684
 30
-0.0000000000000014
  0
VERTEX
  5
CC
  8
CAMERA_TOP_RAIL
 10
78.49999999992353
 20
55.79999999999688
 30
-0.0000000000000014
  0
VERTEX
  5
CD
  8
CAMERA_TOP_RAIL
 10
76.44999999992358
 20
55.79999999999688
 30
-0.0000000000000013
  0
VERTEX
  5
CE
  8
CAMERA_TOP_RAIL
 10
76.44999999992358
 20
53.59999999999684
 30
-0.0000000000000013
  0
VERTEX
  5
CF
  8
CAMERA_TOP_RAIL
 10
78.49999999992353
 20
53.5999999999969
 30
-0.0000000000000007
  0
VERTEX
  5
D0
  8
CAMERA_TOP_RAIL
 10
78.49999999992353
 20
49.99999999999835
 30
0.0
  0
SEQEND
  5
C4
  8
CAMERA_TOP_RAIL
  0
POLYLINE
  5
D1
  8
CAMERA_TOP_RAIL
 66
     1
 10
0.0
 20
0.0
 30
0.0
  0
VERTEX
  5
D3
  8
CAMERA_TOP_RAIL
 10
105.4999999998435
 20
91.60000000000011
 30
0.0
  0
VERTEX
  5
D4
  8
CAMERA_TOP_RAIL
 10
101.8999999998486
 20
91.59999999999943
 30
-0.0000000000000008
  0
VERTEX
  5
D5
  8
CAMERA_TOP_RAIL
 10
101.8999999998486
 20
89.55000000000004
 30
-0.0000000000000017
  0
VERTEX
  5
D6
  8
CAMERA_TOP_RAIL
 10
99.69999999984853
 20
89.55000000000004
 30
-0.0000000000000017
  0
VERTEX
  5
D7
  8
CAMERA_TOP_RAIL
 10
99.69999999984853
 20
91.60000000000011
 30
-0.0000000000000015
  0
VERTEX
  5
D8
  8
CAMERA_TOP_RAIL
 10
97.89999999984852
 20
91.60000000000011
 30
-0.0000000000000015
  0
VERTEX
  5
D9
  8
CAMERA_TOP_RAIL
 10
97.89999999984857
 20
94.10000000000011
 30
-0.0000000000000014
  0
VERTEX
  5
DA
  8
CAMERA_TOP_RAIL
 10
99.69999999984853
 20
94.10000000000011
 30
-0.0000000000000014
  0
VERTEX
  5
DB
  8
CAMERA_TOP_RAIL
 10
99.69999999984853
 20
96.15000000000006
 30
-0.0000000000000013
  0
VERTEX
  5
DC
  8
CAMERA_TOP_RAIL
 10
101.8999999998486
 20
96.15000000000006
 30
-0.0000000000000013
  0
VERTEX
  5
DD
  8
CAMERA_TOP_RAIL
 10
101.8999999998485
 20
94.10000000000011
 30
-0.0000000000000007
  0
VERTEX
  5
DE
  8
CAMERA_TOP_RAIL
 10
105.4999999998471
 20
94.10000000000011
 30
0.0
  0
SEQEND
  5
D2
  8
CAMERA_TOP_RAIL
  0
CIRCLE
  5
DF
  8
CAMERA_TOP_RAIL
 10
-14.0
 20
95.00000000000011
 30
0.0
 40
1.5
  0
CIRCLE
  5
E0
  8
CAMERA_TOP_RAIL
 10
-14.0
 20
145.0000000000001
 30
0.0
 40
1.5
  0
CIRCLE
  5
E1
  8
CAMERA_TOP_RAIL
 10
-14.0
 20
105.0
 30
0.0
 40
1.5
  0
POLYLINE
  5
E2
  8
CAMERA_TOP_RAIL
 66
     1
 10
0.0
 20
0.0
 30
0.0
  0
VERTEX
  5
E4
  8
CAMERA_TOP_RAIL
 10
105.4999999998435
 20
108.4
 30
0.0
  0
VERTEX
  5
E5
  8
CAMERA_TOP_RAIL
 10
101.8999999998486
 20
108.4000000000007
 30
-0.0000000000000008
  0
VERTEX
  5
E6
  8
CAMERA_TOP_RAIL
 10
101.8999999998486
 20
110.4500000000001
 30
-0.0000000000000017
  0
VERTEX
  5
E7
  8
CAMERA_TOP_RAIL
 10
99.69999999984853
 20
110.4500000000001
 30
-0.0000000000000017
  0
VERTEX
  5
E8
  8
CAMERA_TOP_RAIL
 10
99.69999999984853
 20
108.4
 30
-0.0000000000000015
  0
VERTEX
  5
E9
  8
CAMERA_TOP_RAIL
 10
97.89999999984852
 20
108.4
 30
-0.0000000000000015
  0
VERTEX
  5
EA
  8
CAMERA_TOP_RAIL
 10
97.89999999984857
 20
105.9
 30
-0.0000000000000014
  0
VERTEX
  5
EB
  8
CAMERA_TOP_RAIL
 10
99.69999999984853
 20
105.9
 30
-0.0000000000000014
  0
VERTEX
  5
EC
  8
CAMERA_TOP_RAIL
 10
99.69999999984853
 20
103.8500000000001
 30
-0.0000000000000013
  0
VERTEX
  5
ED
  8
CAMERA_TOP_RAIL
 10
101.8999999998486
 20
103.8500000000001
 30
-0.0000000000000013
  0
VERTEX
  5
EE
  8
CAMERA_TOP_RAIL
 10
101.8999999998485
 20
105.9
 30
-0.0000000000000007
  0
VERTEX
  5
EF
  8
CAMERA_TOP_RAIL
 10
105.4999999998471
 20
105.9
 30
0.0
  0
SEQEND
  5
E3
  8
CAMERA_TOP_RAIL
  0
POLYLINE
  5
F0
  8
CAMERA_TOP_RAIL
 66
     1
 10
0.0
 20
0.0
 30
0.0
  0
VERTEX
  5
F2
  8
CAMERA_TOP_RAIL
 10
80.99999999992353
 20
149.9999999999982
 30
0.0
  0
VERTEX
  5
F3
  8
CAMERA_TOP_RAIL
 10
80.99999999992421
 20
146.4000000000033
 30
-0.0000000000000008
  0
VERTEX
  5
F4
  8
CAMERA_TOP_RAIL
 10
83.0499999999236
 20
146.4000000000033
 30
-0.0000000000000017
  0
VERTEX
  5
F5
  8
CAMERA_TOP_RAIL
 10
83.0499999999236
 20
144.2000000000032
 30
-0.0000000000000017
  0
VERTEX
  5
F6
  8
CAMERA_TOP_RAIL
 10
80.99999999992353
 20
144.2000000000032
 30
-0.0000000000000015
  0
VERTEX
  5
F7
  8
CAMERA_TOP_RAIL
 10
80.99999999992353
 20
142.4000000000032
 30
-0.0000000000000015
  0
VERTEX
  5
F8
  8
CAMERA_TOP_RAIL
 10
78.49999999992353
 20
142.4000000000033
 30
-0.0000000000000014
  0
VERTEX
  5
F9
  8
CAMERA_TOP_RAIL
 10
78.49999999992353
 20
144.2000000000032
 30
-0.0000000000000014
  0
VERTEX
  5
FA
  8
CAMERA_TOP_RAIL
 10
76.44999999992358
 20
144.2000000000032
 30
-0.0000000000000013
  0
VERTEX
  5
FB
  8
CAMERA_TOP_RAIL
 10
76.44999999992358
 20
146.4000000000033
 30
-0.0000000000000013
  0
VERTEX
  5
FC
  8
CAMERA_TOP_RAIL
 10
78.49999999992353
 20
146.4000000000032
 30
-0.0000000000000007
  0
VERTEX
  5
FD
  8
CAMERA_TOP_RAIL
 10
78.49999999992353
 20
150.0000000000018
 30
0.0
  0
SEQEND
  5
F1
  8
CAMERA_TOP_RAIL
  0
POLYLINE
  5
FE
  8
CAMERA_TOP_RAIL
 66
     1
 10
0.0
 20
0.0
 30
0.0
  0
VERTEX
  5
100
  8
CAMERA_TOP_RAIL
 10
105.4999999998471
 20
100.0000000000001
 30
0.0
  0
VERTEX
  5
101
  8
CAMERA_TOP_RAIL
 10
-18.14999999992351
 20
100.0000000000001
 30
0.0000000000000018
 42
-0.414213562373095
  0
VERTEX
  5
102
  8
CAMERA_TOP_RAIL
 10
-23.14999999992351
 20
105.0000000000001
 30
0.0
  0
VERTEX
  5
103
  8
CAMERA_TOP_RAIL
 10
-23.14999999992351
 20
145.0
 30
0.0
 42
-0.4142135623730985
  0
VERTEX
  5
104
  8
CAMERA_TOP_RAIL
 10
-18.14999999992351
 20
149.9999999999999
 30
0.0000000000000018
  0
VERTEX
  5
105
  8
CAMERA_TOP_RAIL
 10
105.4999999998471
 20
150.0
 30
0.0
  0
VERTEX
  5
106
  8
CAMERA_TOP_RAIL
 10
105.4999999998471
 20
100.0000000000001
 30
0.0
  0
SEQEND
  5
FF
  8
CAMERA_TOP_RAIL
  0
POLYLINE
  5
107
  8
CAMERA_TOP_RAIL
 66
     1
 10
0.0
 20
0.0
 30
0.0
  0
VERTEX
  5
109
  8
CAMERA_TOP_RAIL
 10
50.99999999992353
 20
149.9999999999982
 30
0.0
  0
VERTEX
  5
10A
  8
CAMERA_TOP_RAIL
 10
50.99999999992421
 20
146.4000000000033
 30
-0.0000000000000008
  0
VERTEX
  5
10B
  8
CAMERA_TOP_RAIL
 10
53.0499999999236
 20
146.4000000000033
 30
-0.0000000000000017
  0
VERTEX
  5
10C
  8
CAMERA_TOP_RAIL
 10
53.0499999999236
 20
144.2000000000032
 30
-0.0000000000000017
  0
VERTEX
  5
10D
  8
CAMERA_TOP_RAIL
 10
50.99999999992353
 20
144.2000000000032
 30
-0.0000000000000015
  0
VERTEX
  5
10E
  8
CAMERA_TOP_RAIL
 10
50.99999999992353
 20
142.4000000000032
 30
-0.0000000000000015
  0
VERTEX
  5
10F
  8
CAMERA_TOP_RAIL
 10
48.49999999992353
 20
142.4000000000033
 30
-0.0000000000000014
  0
VERTEX
  5
110
  8
CAMERA_TOP_RAIL
 10
48.49999999992353
 20
144.2000000000032
 30
-0.0000000000000014
  0
VERTEX
  5
111
  8
CAMERA_TOP_RAIL
 10
46.44999999992358
 20
144.2000000000032
 30
-0.0000000000000013
  0
VERTEX
  5
112
  8
CAMERA_TOP_RAIL
 10
46.44999999992358
 20
146.4000000000033
 30
-0.0000000000000013
  0
VERTEX
  5
113
  8
CAMERA_TOP_RAIL
 10
48.49999999992353
 20
146.4000000000032
 30
-0.0000000000000007
  0
VERTEX
  5
114
  8
CAMERA_TOP_RAIL
 10
48.49999999992353
 20
150.0000000000018
 30
0.0
  0
SEQEND
  5
108
  8
CAMERA_TOP_RAIL
  0
CIRCLE
  5
115
  8
CAMERA_TOP_RAIL
 10
5.850000000076495
 20
105.0
 30
0.0
 40
2.5
  0
POLYLINE
  5
116
  8
CAMERA_TOP_RAIL
 66
     1
 10
0.0
 20
0.0
 30
0.0
  0
VERTEX
  5
118
  8
CAMERA_TOP_RAIL
 10
20.99999999992353
 20
100.0000000000019
 30
0.0
  0
VERTEX
  5
119
  8
CAMERA_TOP_RAIL
 10
20.99999999992421
 20
103.5999999999968
 30
-0.0000000000000008
  0
VERTEX
  5
11A
  8
CAMERA_TOP_RAIL
 10
23.0499999999236
 20
103.5999999999968
 30
-0.0000000000000017
  0
VERTEX
  5
11B
  8
CAMERA_TOP_RAIL
 10
23.0499999999236
 20
105.7999999999968
 30
-0.0000000000000017
  0
VERTEX
  5
11C
  8
CAMERA_TOP_RAIL
 10
20.99999999992353
 20
105.7999999999968
 30
-0.0000000000000015
  0
VERTEX
  5
11D
  8
CAMERA_TOP_RAIL
 10
20.99999999992353
 20
107.5999999999968
 30
-0.0000000000000015
  0
VERTEX
  5
11E
  8
CAMERA_TOP_RAIL
 10
18.49999999992353
 20
107.5999999999968
 30
-0.0000000000000014
  0
VERTEX
  5
11F
  8
CAMERA_TOP_RAIL
 10
18.49999999992353
 20
105.7999999999968
 30
-0.0000000000000014
  0
VERTEX
  5
120
  8
CAMERA_TOP_RAIL
 10
16.44999999992358
 20
105.7999999999968
 30
-0.0000000000000013
  0
VERTEX
  5
121
  8
CAMERA_TOP_RAIL
 10
16.44999999992358
 20
103.5999999999968
 30
-0.0000000000000013
  0
VERTEX
  5
122
  8
CAMERA_TOP_RAIL
 10
18.49999999992353
 20
103.5999999999968
 30
-0.0000000000000007
  0
VERTEX
  5
123
  8
CAMERA_TOP_RAIL
 10
18.49999999992353
 20
99.99999999999828
 30
0.0
  0
SEQEND
  5
117
  8
CAMERA_TOP_RAIL
  0
POLYLINE
  5
124
  8
CAMERA_TOP_RAIL
 66
     1
 10
0.0
 20
0.0
 30
0.0
  0
VERTEX
  5
126
  8
CAMERA_TOP_RAIL
 10
50.99999999992353
 20
100.0000000000019
 30
0.0
  0
VERTEX
  5
127
  8
CAMERA_TOP_RAIL
 10
50.99999999992421
 20
103.5999999999968
 30
-0.0000000000000008
  0
VERTEX
  5
128
  8
CAMERA_TOP_RAIL
 10
53.0499999999236
 20
103.5999999999968
 30
-0.0000000000000017
  0
VERTEX
  5
129
  8
CAMERA_TOP_RAIL
 10
53.0499999999236
 20
105.7999999999968
 30
-0.0000000000000017
  0
VERTEX
  5
12A
  8
CAMERA_TOP_RAIL
 10
50.99999999992353
 20
105.7999999999968
 30
-0.0000000000000015
  0
VERTEX
  5
12B
  8
CAMERA_TOP_RAIL
 10
50.99999999992353
 20
107.5999999999968
 30
-0.0000000000000015
  0
VERTEX
  5
12C
  8
CAMERA_TOP_RAIL
 10
48.49999999992353
 20
107.5999999999968
 30
-0.0000000000000014
  0
VERTEX
  5
12D
  8
CAMERA_TOP_RAIL
 10
48.49999999992353
 20
105.7999999999968
 30
-0.0000000000000014
  0
VERTEX
  5
12E
  8
CAMERA_TOP_RAIL
 10
46.44999999992358
 20
105.7999999999968
 30
-0.0000000000000013
  0
VERTEX
  5
12F
  8
CAMERA_TOP_RAIL
 10
46.44999999992358
 20
103.5999999999968
 30
-0.0000000000000013
  0
VERTEX
  5
130
  8
CAMERA_TOP_RAIL
 10
48.49999999992353
 20
103.5999999999968
 30
-0.0000000000000007
  0
VERTEX
  5
131
  8
CAMERA_TOP_RAIL
 10
48.49999999992353
 20
99.99999999999828
 30
0.0
  0
SEQEND
  5
125
  8
CAMERA_TOP_RAIL
  0
POLYLINE
  5
132
  8
CAMERA_TOP_RAIL
 66
     1
 10
0.0
 20
0.0
 30
0.0
  0
VERTEX
  5
134
  8
CAMERA_TOP_RAIL
 10
20.99999999992353
 20
149.9999999999982
 30
0.0
  0
VERTEX
  5
135
  8
CAMERA_TOP_RAIL
 10
20.99999999992421
 20
146.4000000000033
 30
-0.0000000000000008
  0
VERTEX
  5
136
  8
CAMERA_TOP_RAIL
 10
23.0499999999236
 20
146.4000000000033
 30
-0.0000000000000017
  0
VERTEX
  5
137
  8
CAMERA_TOP_RAIL
 10
23.0499999999236
 20
144.2000000000032
 30
-0.0000000000000017
  0
VERTEX
  5
138
  8
CAMERA_TOP_RAIL
 10
20.99999999992353
 20
144.2000000000032
 30
-0.0000000000000015
  0
VERTEX
  5
139
  8
CAMERA_TOP_RAIL
 10
20.99999999992353
 20
142.4000000000032
 30
-0.0000000000000015
  0
VERTEX
  5
13A
  8
CAMERA_TOP_RAIL
 10
18.49999999992353
 20
142.4000000000033
 30
-0.0000000000000014
  0
VERTEX
  5
13B
  8
CAMERA_TOP_RAIL
 10
18.49999999992353
 20
144.2000000000032
 30
-0.0000000000000014
  0
VERTEX
  5
13C
  8
CAMERA_TOP_RAIL
 10
16.44999999992358
 20
144.2000000000032
 30
-0.0000000000000013
  0
VERTEX
  5
13D
  8
CAMERA_TOP_RAIL
 10
16.44999999992358
 20
146.4000000000033
 30
-0.0000000000000013
  0
VERTEX
  5
13E
  8
CAMERA_TOP_RAIL
 10
18.49999999992353
 20
146.4000000000032
 30
-0.0000000000000007
  0
VERTEX
  5
13F
  8
CAMERA_TOP_RAIL
 10
18.49999999992353
 20
150.0000000000018
 30
0.0
  0
SEQEND
  5
133
  8
CAMERA_TOP_RAIL
  0
CIRCLE
  5
140
  8
CAMERA_TOP_RAIL
 10
5.850000000076495
 20
145.0000000000001
 30
0.0
 40
2.5
  0
POLYLINE
  5
141
  8
CAMERA_TOP_RAIL
 66
     1
 10
0.0
 20
0.0
 30
0.0
  0
VERTEX
  5
143
  8
CAMERA_TOP_RAIL
 10
105.4999999998471
 20
144.1000000000001
 30
0.0
  0
VERTEX
  5
144
  8
CAMERA_TOP_RAIL
 10
101.8999999998485
 20
144.1000000000001
 30
-0.0000000000000007
  0
VERTEX
  5
145
  8
CAMERA_TOP_RAIL
 10
101.8999999998486
 20
146.15
 30
-0.0000000000000013
  0
VERTEX
  5
146
  8
CAMERA_TOP_RAIL
 10
99.69999999984853
 20
146.15
 30
-0.0000000000000013
  0
VERTEX
  5
147
  8
CAMERA_TOP_RAIL
 10
99.69999999984853
 20
144.1000000000001
 30
-0.0000000000000014
  0
VERTEX
  5
148
  8
CAMERA_TOP_RAIL
 10
97.89999999984857
 20
144.1000000000001
 30
-0.0000000000000014
  0
VERTEX
  5
149
  8
CAMERA_TOP_RAIL
 10
97.89999999984852
 20
141.6000000000001
 30
-0.0000000000000015
  0
VERTEX
  5
14A
  8
CAMERA_TOP_RAIL
 10
99.69999999984853
 20
141.6000000000001
 30
-0.0000000000000015
  0
VERTEX
  5
14B
  8
CAMERA_TOP_RAIL
 10
99.69999999984853
 20
139.55
 30
-0.0000000000000017
  0
VERTEX
  5
14C
  8
CAMERA_TOP_RAIL
 10
101.8999999998486
 20
139.55
 30
-0.0000000000000017
  0
VERTEX
  5
14D
  8
CAMERA_TOP_RAIL
 10
101.8999999998486
 20
141.5999999999994
 30
-0.0000000000000008
  0
VERTEX
  5
14E
  8
CAMERA_TOP_RAIL
 10
105.4999999998435
 20
141.6000000000001
 30
0.0
  0
SEQEND
  5
142
  8
CAMERA_TOP_RAIL
  0
POLYLINE
  5
14F
  8
CAMERA_TOP_RAIL
 66
     1
 10
0.0
 20
0.0
 30
0.0
  0
VERTEX
  5
151
  8
CAMERA_TOP_RAIL
 10
80.99999999992353
 20
100.0000000000019
 30
0.0
  0
VERTEX
  5
152
  8
CAMERA_TOP_RAIL
 10
80.99999999992421
 20
103.5999999999968
 30
-0.0000000000000008
  0
VERTEX
  5
153
  8
CAMERA_TOP_RAIL
 10
83.0499999999236
 20
103.5999999999968
 30
-0.0000000000000017
  0
VERTEX
  5
154
  8
CAMERA_TOP_RAIL
 10
83.0499999999236
 20
105.7999999999968
 30
-0.0000000000000017
  0
VERTEX
  5
155
  8
CAMERA_TOP_RAIL
 10
80.99999999992353
 20
105.7999999999968
 30
-0.0000000000000015
  0
VERTEX
  5
156
  8
CAMERA_TOP_RAIL
 10
80.99999999992353
 20
107.5999999999968
 30
-0.0000000000000015
  0
VERTEX
  5
157
  8
CAMERA_TOP_RAIL
 10
78.49999999992353
 20
107.5999999999968
 30
-0.0000000000000014
  0
VERTEX
  5
158
  8
CAMERA_TOP_RAIL
 10
78.49999999992353
 20
105.7999999999968
 30
-0.0000000000000014
  0
VERTEX
  5
159
  8
CAMERA_TOP_RAIL
 10
76.44999999992358
 20
105.7999999999968
 30
-0.0000000000000013
  0
VERTEX
  5
15A
  8
CAMERA_TOP_RAIL
 10
76.44999999992358
 20
103.5999999999968
 30
-0.0000000000000013
  0
VERTEX
  5
15B
  8
CAMERA_TOP_RAIL
 10
78.49999999992353
 20
103.5999999999968
 30
-0.0000000000000007
  0
VERTEX
  5
15C
  8
CAMERA_TOP_RAIL
 10
78.49999999992353
 20
99.99999999999828
 30
0.0
  0
SEQEND
  5
150
  8
CAMERA_TOP_RAIL
  0
CIRCLE
  5
15D
  8
CAMERA_TOP_RAIL
 10
66.72499999950935
 20
119.9999999999988
 30
0.0
 40
1.1
  0
CIRCLE
  5
15E
  8
CAMERA_TOP_RAIL
 10
90.99999999969413
 20
125.0
 30
0.0
 40
1.1
  0
CIRCLE
  5
15F
  8
CAMERA_TOP_RAIL
 10
66.72499999950935
 20
129.9999999999988
 30
0.0
 40
1.1
  0
CIRCLE
  5
160
  8
CAMERA_TOP_RAIL
 10
-1.149999999923505
 20
125.0
 30
0.0
 40
1.0
  0
CIRCLE
  5
161
  8
CAMERA_TOP_RAIL
 10
12.85000000007649
 20
125.0
 30
0.0
 40
1.0
  0
ENDSEC
  0
EOF
