  0
SECTION
  2
HEADER
  9
$ACADVER
  1
AC1009
  9
$DWGCODEPAGE
  3
ansi_1252
  9
$INSBASE
 10
0.0
 20
0.0
 30
0.0
  9
$EXTMIN
 10
-13.00000000000212
 20
-86.00000000005392
 30
0.0
  9
$EXTMAX
 10
50.499999999971
 20
16.37439318958217
 30
0.0
  9
$LIMMIN
 10
0.0
 20
0.0
  9
$LIMMAX
 10
12.0
 20
9.0
  9
$ORTHOMODE
 70
     0
  9
$REGENMODE
 70
     1
  9
$FILLMODE
 70
     1
  9
$QTEXTMODE
 70
     0
  9
$MIRRTEXT
 70
     1
  9
$DRAGMODE
 70
     2
  9
$LTSCALE
 40
1.0
  9
$OSMODE
 70
    37
  9
$ATTMODE
 70
     1
  9
$TEXTSIZE
 40
0.2
  9
$TRACEWID
 40
0.05
  9
$TEXTSTYLE
  7
STANDARD
  9
$CLAYER
  8
MOTOR_RAIL_25BY_STEPPER
  9
$CELTYPE
  6
BYLAYER
  9
$CECOLOR
 62
   256
  9
$DIMSCALE
 40
1.0
  9
$DIMASZ
 40
0.18
  9
$DIMEXO
 40
0.0625
  9
$DIMDLI
 40
0.38
  9
$DIMRND
 40
0.0
  9
$DIMDLE
 40
0.0
  9
$DIMEXE
 40
0.18
  9
$DIMTP
 40
0.0
  9
$DIMTM
 40
0.0
  9
$DIMTXT
 40
0.18
  9
$DIMCEN
 40
0.09
  9
$DIMTSZ
 40
0.0
  9
$DIMTOL
 70
     0
  9
$DIMLIM
 70
     0
  9
$DIMTIH
 70
     1
  9
$DIMTOH
 70
     1
  9
$DIMSE1
 70
     0
  9
$DIMSE2
 70
     0
  9
$DIMTAD
 70
     0
  9
$DIMZIN
 70
     0
  9
$DIMBLK
  1

  9
$DIMASO
 70
     1
  9
$DIMSHO
 70
     1
  9
$DIMPOST
  1

  9
$DIMAPOST
  1

  9
$DIMALT
 70
     0
  9
$DIMALTD
 70
     2
  9
$DIMALTF
 40
25.4
  9
$DIMLFAC
 40
1.0
  9
$DIMTOFL
 70
     0
  9
$DIMTVP
 40
0.0
  9
$DIMTIX
 70
     0
  9
$DIMSOXD
 70
     0
  9
$DIMSAH
 70
     0
  9
$DIMBLK1
  1

  9
$DIMBLK2
  1

  9
$DIMSTYLE
  2
STANDARD
  9
$DIMCLRD
 70
     0
  9
$DIMCLRE
 70
     0
  9
$DIMCLRT
 70
     0
  9
$DIMTFAC
 40
1.0
  9
$DIMGAP
 40
0.09
  9
$LUNITS
 70
     2
  9
$LUPREC
 70
     3
  9
$SKETCHINC
 40
0.1
  9
$FILLETRAD
 40
0.5
  9
$AUNITS
 70
     0
  9
$AUPREC
 70
     0
  9
$MENU
  1
.
  9
$ELEVATION
 40
0.0
  9
$PELEVATION
 40
0.0
  9
$THICKNESS
 40
0.0
  9
$LIMCHECK
 70
     0
  9
$CHAMFERA
 40
0.5
  9
$CHAMFERB
 40
0.5
  9
$SKPOLY
 70
     0
  9
$TDCREATE
 40
2457820.474330278
  9
$TDUPDATE
 40
2457820.474330289
  9
$TDINDWG
 40
0.0000000116
  9
$TDUSRTIMER
 40
0.0000000116
  9
$USRTIMER
 70
     1
  9
$ANGBASE
 50
0.0
  9
$ANGDIR
 70
     0
  9
$PDMODE
 70
     0
  9
$PDSIZE
 40
0.0
  9
$PLINEWID
 40
0.0
  9
$COORDS
 70
     1
  9
$SPLFRAME
 70
     0
  9
$SPLINETYPE
 70
     6
  9
$SPLINESEGS
 70
     8
  9
$ATTDIA
 70
     0
  9
$ATTREQ
 70
     1
  9
$HANDLING
 70
     1
  9
$HANDSEED
  5
C5
  9
$SURFTAB1
 70
     6
  9
$SURFTAB2
 70
     6
  9
$SURFTYPE
 70
     6
  9
$SURFU
 70
     6
  9
$SURFV
 70
     6
  9
$UCSNAME
  2

  9
$UCSORG
 10
0.0
 20
0.0
 30
0.0
  9
$UCSXDIR
 10
1.0
 20
0.0
 30
0.0
  9
$UCSYDIR
 10
0.0
 20
1.0
 30
0.0
  9
$PUCSNAME
  2

  9
$PUCSORG
 10
0.0
 20
0.0
 30
0.0
  9
$PUCSXDIR
 10
1.0
 20
0.0
 30
0.0
  9
$PUCSYDIR
 10
0.0
 20
1.0
 30
0.0
  9
$USERI1
 70
     0
  9
$USERI2
 70
     0
  9
$USERI3
 70
     0
  9
$USERI4
 70
     0
  9
$USERI5
 70
     0
  9
$USERR1
 40
0.0
  9
$USERR2
 40
0.0
  9
$USERR3
 40
0.0
  9
$USERR4
 40
0.0
  9
$USERR5
 40
0.0
  9
$WORLDVIEW
 70
     1
  9
$SHADEDGE
 70
     3
  9
$SHADEDIF
 70
    70
  9
$TILEMODE
 70
     1
  9
$MAXACTVP
 70
    64
  9
$PLIMCHECK
 70
     0
  9
$PEXTMIN
 10
1.000000000000000E+20
 20
1.000000000000000E+20
 30
1.000000000000000E+20
  9
$PEXTMAX
 10
-1.000000000000000E+20
 20
-1.000000000000000E+20
 30
-1.000000000000000E+20
  9
$PLIMMIN
 10
0.0
 20
0.0
  9
$PLIMMAX
 10
12.0
 20
9.0
  9
$UNITMODE
 70
     0
  9
$VISRETAIN
 70
     1
  9
$PLINEGEN
 70
     0
  9
$PSLTSCALE
 70
     1
  0
ENDSEC
  0
SECTION
  2
TABLES
  0
TABLE
  2
VPORT
 70
     1
  0
VPORT
  2
*ACTIVE
 70
     0
 10
0.0
 20
0.0
 11
1.0
 21
1.0
 12
0.0
 22
0.0
 13
0.0
 23
0.0
 14
0.5
 24
0.5
 15
0.5
 25
0.5
 16
0.0
 26
0.0
 36
1.0
 17
18.74999999998444
 27
-34.81280340523587
 37
0.0
 40
104.4218810534288
 41
0.6202722968266793
 42
50.0
 43
0.0
 44
0.0
 50
0.0
 51
0.0
 71
     0
 72
   100
 73
     1
 74
     3
 75
     0
 76
     0
 77
     0
 78
     0
  0
ENDTAB
  0
TABLE
  2
LTYPE
 70
     1
  0
LTYPE
  2
CONTINUOUS
 70
     0
  3
Solid line
 72
    65
 73
     0
 40
0.0
  0
ENDTAB
  0
TABLE
  2
LAYER
 70
     2
  0
LAYER
  2
0
 70
     0
 62
     7
  6
CONTINUOUS
  0
LAYER
  2
MOTOR_RAIL_25BY_STEPPER
 70
     0
 62
     1
  6
CONTINUOUS
  0
ENDTAB
  0
TABLE
  2
STYLE
 70
     1
  0
STYLE
  2
STANDARD
 70
     0
 40
0.0
 41
1.0
 50
0.0
 71
     0
 42
0.2
  3
txt
  4

  0
ENDTAB
  0
TABLE
  2
VIEW
 70
     0
  0
ENDTAB
  0
TABLE
  2
UCS
 70
     0
  0
ENDTAB
  0
TABLE
  2
APPID
 70
     1
  0
APPID
  2
ACAD
 70
     0
  0
ENDTAB
  0
TABLE
  2
DIMSTYLE
 70
     1
  0
DIMSTYLE
  2
STANDARD
 70
     0
  3

  4

  5

  6

  7

 40
1.0
 41
0.18
 42
0.0625
 43
0.38
 44
0.18
 45
0.0
 46
0.0
 47
0.0
 48
0.0
140
0.18
141
0.09
142
0.0
143
25.4
144
1.0
145
0.0
146
1.0
147
0.09
 71
     0
 72
     0
 73
     1
 74
     1
 75
     0
 76
     0
 77
     0
 78
     0
170
     0
171
     2
172
     0
173
     0
174
     0
175
     0
176
     0
177
     0
178
     0
  0
ENDTAB
  0
ENDSEC
  0
SECTION
  2
BLOCKS
  0
BLOCK
  8
0
  2
$MODEL_SPACE
 70
     0
 10
0.0
 20
0.0
 30
0.0
  3
$MODEL_SPACE
  1

  0
ENDBLK
  5
21
  8
0
  0
BLOCK
 67
     1
  8
0
  2
$PAPER_SPACE
 70
     0
 10
0.0
 20
0.0
 30
0.0
  3
$PAPER_SPACE
  1

  0
ENDBLK
  5
1D
 67
     1
  8
0
  0
ENDSEC
  0
SECTION
  2
ENTITIES
  0
POLYLINE
  5
5E
  8
MOTOR_RAIL_25BY_STEPPER
 66
     1
 10
0.0
 20
0.0
 30
0.0
  0
VERTEX
  5
60
  8
MOTOR_RAIL_25BY_STEPPER
 10
0.999999999998365
 20
-18.75000000000002
 30
0.0
  0
VERTEX
  5
61
  8
MOTOR_RAIL_25BY_STEPPER
 10
4.59999999999671
 20
-18.75000000000002
 30
0.0
  0
VERTEX
  5
62
  8
MOTOR_RAIL_25BY_STEPPER
 10
4.59999999999671
 20
-16.70000000000001
 30
0.0
  0
VERTEX
  5
63
  8
MOTOR_RAIL_25BY_STEPPER
 10
6.799999999996698
 20
-16.70000000000001
 30
0.0
  0
VERTEX
  5
64
  8
MOTOR_RAIL_25BY_STEPPER
 10
6.799999999996698
 20
-18.75000000000002
 30
0.0
  0
VERTEX
  5
65
  8
MOTOR_RAIL_25BY_STEPPER
 10
8.599999999996708
 20
-18.75000000000002
 30
0.0
  0
VERTEX
  5
66
  8
MOTOR_RAIL_25BY_STEPPER
 10
8.599999999996708
 20
-21.25000000000002
 30
0.0
  0
VERTEX
  5
67
  8
MOTOR_RAIL_25BY_STEPPER
 10
6.799999999996698
 20
-21.25000000000002
 30
0.0
  0
VERTEX
  5
68
  8
MOTOR_RAIL_25BY_STEPPER
 10
6.799999999996698
 20
-23.30000000000003
 30
0.0
  0
VERTEX
  5
69
  8
MOTOR_RAIL_25BY_STEPPER
 10
4.59999999999671
 20
-23.30000000000003
 30
0.0
  0
VERTEX
  5
6A
  8
MOTOR_RAIL_25BY_STEPPER
 10
4.59999999999671
 20
-21.25000000000002
 30
0.0
  0
VERTEX
  5
6B
  8
MOTOR_RAIL_25BY_STEPPER
 10
0.999999999998365
 20
-21.25000000000002
 30
0.0
  0
SEQEND
  5
5F
  8
MOTOR_RAIL_25BY_STEPPER
  0
POLYLINE
  5
6C
  8
MOTOR_RAIL_25BY_STEPPER
 66
     1
 10
0.0
 20
0.0
 30
0.0
  0
VERTEX
  5
6E
  8
MOTOR_RAIL_25BY_STEPPER
 10
19.25000000000004
 20
-1.000000000000019
 30
0.0
  0
VERTEX
  5
6F
  8
MOTOR_RAIL_25BY_STEPPER
 10
19.25000000000004
 20
-4.600000000000021
 30
0.0
  0
VERTEX
  5
70
  8
MOTOR_RAIL_25BY_STEPPER
 10
21.30000000000005
 20
-4.60000000000002
 30
0.0
  0
VERTEX
  5
71
  8
MOTOR_RAIL_25BY_STEPPER
 10
21.30000000000005
 20
-6.800000000000019
 30
0.0
  0
VERTEX
  5
72
  8
MOTOR_RAIL_25BY_STEPPER
 10
19.25000000000004
 20
-6.800000000000019
 30
0.0
  0
VERTEX
  5
73
  8
MOTOR_RAIL_25BY_STEPPER
 10
19.25000000000004
 20
-8.600000000000023
 30
0.0
  0
VERTEX
  5
74
  8
MOTOR_RAIL_25BY_STEPPER
 10
16.75000000000004
 20
-8.600000000000023
 30
0.0
  0
VERTEX
  5
75
  8
MOTOR_RAIL_25BY_STEPPER
 10
16.75000000000004
 20
-6.800000000000019
 30
0.0
  0
VERTEX
  5
76
  8
MOTOR_RAIL_25BY_STEPPER
 10
14.70000000000003
 20
-6.800000000000017
 30
0.0
  0
VERTEX
  5
77
  8
MOTOR_RAIL_25BY_STEPPER
 10
14.70000000000003
 20
-4.600000000000017
 30
0.0
  0
VERTEX
  5
78
  8
MOTOR_RAIL_25BY_STEPPER
 10
16.75000000000004
 20
-4.600000000000021
 30
0.0
  0
VERTEX
  5
79
  8
MOTOR_RAIL_25BY_STEPPER
 10
16.75000000000004
 20
-1.000000000002662
 30
0.0
  0
SEQEND
  5
6D
  8
MOTOR_RAIL_25BY_STEPPER
  0
POLYLINE
  5
7A
  8
MOTOR_RAIL_25BY_STEPPER
 66
     1
 10
0.0
 20
0.0
 30
0.0
  0
VERTEX
  5
7C
  8
MOTOR_RAIL_25BY_STEPPER
 10
38.25000000000004
 20
-1.000000000016131
 30
0.0
  0
VERTEX
  5
7D
  8
MOTOR_RAIL_25BY_STEPPER
 10
38.25000000000004
 20
-4.600000000000021
 30
0.0
  0
VERTEX
  5
7E
  8
MOTOR_RAIL_25BY_STEPPER
 10
40.30000000000005
 20
-4.600000000000017
 30
0.0
  0
VERTEX
  5
7F
  8
MOTOR_RAIL_25BY_STEPPER
 10
40.30000000000005
 20
-6.800000000000017
 30
0.0
  0
VERTEX
  5
80
  8
MOTOR_RAIL_25BY_STEPPER
 10
38.25000000000004
 20
-6.800000000000019
 30
0.0
  0
VERTEX
  5
81
  8
MOTOR_RAIL_25BY_STEPPER
 10
38.25000000000004
 20
-8.600000000000023
 30
0.0
  0
VERTEX
  5
82
  8
MOTOR_RAIL_25BY_STEPPER
 10
35.75000000000004
 20
-8.600000000000023
 30
0.0
  0
VERTEX
  5
83
  8
MOTOR_RAIL_25BY_STEPPER
 10
35.75000000000004
 20
-6.800000000000019
 30
0.0
  0
VERTEX
  5
84
  8
MOTOR_RAIL_25BY_STEPPER
 10
33.70000000000003
 20
-6.800000000000019
 30
0.0
  0
VERTEX
  5
85
  8
MOTOR_RAIL_25BY_STEPPER
 10
33.70000000000003
 20
-4.60000000000002
 30
0.0
  0
VERTEX
  5
86
  8
MOTOR_RAIL_25BY_STEPPER
 10
35.75000000000004
 20
-4.600000000000021
 30
0.0
  0
VERTEX
  5
87
  8
MOTOR_RAIL_25BY_STEPPER
 10
35.75000000000004
 20
-1.000000000016264
 30
0.0
  0
SEQEND
  5
7B
  8
MOTOR_RAIL_25BY_STEPPER
  0
POLYLINE
  5
88
  8
MOTOR_RAIL_25BY_STEPPER
 66
     1
 10
0.0
 20
0.0
 30
0.0
  0
VERTEX
  5
8A
  8
MOTOR_RAIL_25BY_STEPPER
 10
38.249999999971
 20
-78.00000000002521
 30
0.0
  0
VERTEX
  5
8B
  8
MOTOR_RAIL_25BY_STEPPER
 10
38.249999999971
 20
-74.40000000002522
 30
0.0
  0
VERTEX
  5
8C
  8
MOTOR_RAIL_25BY_STEPPER
 10
40.299999999971
 20
-74.40000000002522
 30
0.0
  0
VERTEX
  5
8D
  8
MOTOR_RAIL_25BY_STEPPER
 10
40.299999999971
 20
-72.20000000002521
 30
0.0
  0
VERTEX
  5
8E
  8
MOTOR_RAIL_25BY_STEPPER
 10
38.249999999971
 20
-72.20000000002521
 30
0.0
  0
VERTEX
  5
8F
  8
MOTOR_RAIL_25BY_STEPPER
 10
38.249999999971
 20
-70.40000000002522
 30
0.0
  0
VERTEX
  5
90
  8
MOTOR_RAIL_25BY_STEPPER
 10
35.749999999971
 20
-70.40000000002522
 30
0.0
  0
VERTEX
  5
91
  8
MOTOR_RAIL_25BY_STEPPER
 10
35.749999999971
 20
-72.20000000002521
 30
0.0
  0
VERTEX
  5
92
  8
MOTOR_RAIL_25BY_STEPPER
 10
33.69999999997101
 20
-72.20000000002521
 30
0.0
  0
VERTEX
  5
93
  8
MOTOR_RAIL_25BY_STEPPER
 10
33.69999999997101
 20
-74.40000000002522
 30
0.0
  0
VERTEX
  5
94
  8
MOTOR_RAIL_25BY_STEPPER
 10
35.749999999971
 20
-74.40000000002522
 30
0.0
  0
VERTEX
  5
95
  8
MOTOR_RAIL_25BY_STEPPER
 10
35.749999999971
 20
-78.00000000002521
 30
0.0
  0
SEQEND
  5
89
  8
MOTOR_RAIL_25BY_STEPPER
  0
POLYLINE
  5
96
  8
MOTOR_RAIL_25BY_STEPPER
 66
     1
 10
0.0
 20
0.0
 30
0.0
  0
VERTEX
  5
98
  8
MOTOR_RAIL_25BY_STEPPER
 10
10.24999999989229
 20
-78.00000000002521
 30
0.0
  0
VERTEX
  5
99
  8
MOTOR_RAIL_25BY_STEPPER
 10
10.24999999989229
 20
-74.40000000002522
 30
0.0
  0
VERTEX
  5
9A
  8
MOTOR_RAIL_25BY_STEPPER
 10
8.199999999892292
 20
-74.40000000002522
 30
0.0
  0
VERTEX
  5
9B
  8
MOTOR_RAIL_25BY_STEPPER
 10
8.199999999892292
 20
-72.20000000002521
 30
0.0
  0
VERTEX
  5
9C
  8
MOTOR_RAIL_25BY_STEPPER
 10
10.24999999989229
 20
-72.20000000002521
 30
0.0
  0
VERTEX
  5
9D
  8
MOTOR_RAIL_25BY_STEPPER
 10
10.24999999989229
 20
-70.40000000002522
 30
0.0
  0
VERTEX
  5
9E
  8
MOTOR_RAIL_25BY_STEPPER
 10
12.74999999989229
 20
-70.40000000002522
 30
0.0
  0
VERTEX
  5
9F
  8
MOTOR_RAIL_25BY_STEPPER
 10
12.74999999989229
 20
-72.20000000002521
 30
0.0
  0
VERTEX
  5
A0
  8
MOTOR_RAIL_25BY_STEPPER
 10
14.79999999989228
 20
-72.20000000002521
 30
0.0
  0
VERTEX
  5
A1
  8
MOTOR_RAIL_25BY_STEPPER
 10
14.79999999989228
 20
-74.40000000002522
 30
0.0
  0
VERTEX
  5
A2
  8
MOTOR_RAIL_25BY_STEPPER
 10
12.74999999989229
 20
-74.40000000002522
 30
0.0
  0
VERTEX
  5
A3
  8
MOTOR_RAIL_25BY_STEPPER
 10
12.74999999989229
 20
-78.00000000002521
 30
0.0
  0
SEQEND
  5
97
  8
MOTOR_RAIL_25BY_STEPPER
  0
POLYLINE
  5
A4
  8
MOTOR_RAIL_25BY_STEPPER
 66
     1
 10
0.0
 20
0.0
 30
0.0
  0
VERTEX
  5
A6
  8
MOTOR_RAIL_25BY_STEPPER
 10
-2.000000000000867
 20
-24.00000000000295
 30
0.0
  0
VERTEX
  5
A7
  8
MOTOR_RAIL_25BY_STEPPER
 10
-2.000000000000433
 20
-86.00000000002439
 30
0.0
  0
VERTEX
  5
A8
  8
MOTOR_RAIL_25BY_STEPPER
 10
3.999999999995357
 20
-86.00000000005392
 30
0.0
  0
VERTEX
  5
A9
  8
MOTOR_RAIL_25BY_STEPPER
 10
4.0
 20
-78.00000000001228
 30
0.0
  0
VERTEX
  5
AA
  8
MOTOR_RAIL_25BY_STEPPER
 10
44.499999999971
 20
-78.00000000002456
 30
0.0
  0
VERTEX
  5
AB
  8
MOTOR_RAIL_25BY_STEPPER
 10
44.49999999997564
 20
-86.00000000005392
 30
0.0
  0
VERTEX
  5
AC
  8
MOTOR_RAIL_25BY_STEPPER
 10
50.499999999971
 20
-86.00000000002439
 30
0.0
  0
VERTEX
  5
AD
  8
MOTOR_RAIL_25BY_STEPPER
 10
50.49999999964582
 20
0.9999999999756095
 30
0.0
  0
VERTEX
  5
AE
  8
MOTOR_RAIL_25BY_STEPPER
 10
44.49999999997543
 20
0.9999999999165733
 30
0.0
  0
VERTEX
  5
AF
  8
MOTOR_RAIL_25BY_STEPPER
 10
44.50000000000004
 20
-1.000000000083426
 30
0.0
  0
VERTEX
  5
B0
  8
MOTOR_RAIL_25BY_STEPPER
 10
12.50000000000004
 20
-1.000000000000022
 30
0.0
  0
VERTEX
  5
B1
  8
MOTOR_RAIL_25BY_STEPPER
 10
12.50000000000002
 20
-0.0000000000000968
 30
0.0
 42
0.3184314260873205
  0
VERTEX
  5
B2
  8
MOTOR_RAIL_25BY_STEPPER
 10
4.141221352659539
 20
11.79407841708188
 30
0.0
  0
VERTEX
  5
B3
  8
MOTOR_RAIL_25BY_STEPPER
 10
-8.340458021257039
 20
16.17673514636495
 30
0.0
 42
0.5291502622129469
  0
VERTEX
  5
B4
  8
MOTOR_RAIL_25BY_STEPPER
 10
-12.99743260374737
 20
12.74035893179806
 30
0.0
  0
VERTEX
  5
B5
  8
MOTOR_RAIL_25BY_STEPPER
 10
-12.49083072766159
 20
-0.4786937778004123
 30
0.0
 42
0.262996073562092
  0
VERTEX
  5
B6
  8
MOTOR_RAIL_25BY_STEPPER
 10
-6.034482758620709
 20
-10.94691818896579
 30
0.0
 42
-0.2732608139403069
  0
VERTEX
  5
B7
  8
MOTOR_RAIL_25BY_STEPPER
 10
-4.999999999999957
 20
-12.69842509920044
 30
0.0
  0
VERTEX
  5
B8
  8
MOTOR_RAIL_25BY_STEPPER
 10
-4.999999999999959
 20
-14.00000000000002
 30
0.0
 42
0.4142135623730955
  0
VERTEX
  5
B9
  8
MOTOR_RAIL_25BY_STEPPER
 10
-2.999999999999956
 20
-16.00000000000002
 30
0.0
  0
VERTEX
  5
BA
  8
MOTOR_RAIL_25BY_STEPPER
 10
1.000000000000042
 20
-16.00000000000002
 30
0.0
  0
VERTEX
  5
BB
  8
MOTOR_RAIL_25BY_STEPPER
 10
1.000000000000042
 20
-24.00000000000002
 30
0.0
  0
VERTEX
  5
BC
  8
MOTOR_RAIL_25BY_STEPPER
 10
-2.000000000000867
 20
-24.00000000000295
 30
0.0
  0
SEQEND
  5
A5
  8
MOTOR_RAIL_25BY_STEPPER
  0
CIRCLE
  5
BD
  8
MOTOR_RAIL_25BY_STEPPER
 10
43.00000000000004
 20
-9.00000000000002
 30
0.0
 40
1.35
  0
CIRCLE
  5
BE
  8
MOTOR_RAIL_25BY_STEPPER
 10
-9.50000000000212
 20
12.87439318958217
 30
0.0
 40
1.5
  0
CIRCLE
  5
BF
  8
MOTOR_RAIL_25BY_STEPPER
 10
9.50000000000212
 20
-12.87439318958217
 30
0.0
 40
1.5
  0
CIRCLE
  5
C0
  8
MOTOR_RAIL_25BY_STEPPER
 10
0.0
 20
0.0
 30
0.0
 40
3.5
  0
ENDSEC
  0
EOF
